<svg xmlns="http://www.w3.org/2000/svg" version="1.1" xmlns:xlink="http://www.w3.org/1999/xlink" xmlns:svgjs="http://svgjs.dev/svgjs" viewBox="0 0 1422 800"><circle r="11" cx="943" cy="773" fill="hsl(149, 55%, 30%)" opacity="0.36"></circle><circle r="9" cx="1267" cy="715" fill="hsl(31, 55%, 30%)" opacity="0.30"></circle><circle r="25" cx="594" cy="526" fill="hsl(227, 55%, 30%)" opacity="0.59"></circle><circle r="16.5" cx="1063" cy="261" fill="hsl(82, 55%, 30%)" opacity="0.19"></circle><circle r="14.5" cx="179" cy="168" fill="hsl(275, 55%, 30%)" opacity="0.94"></circle><circle r="25" cx="584" cy="64" fill="hsl(138, 55%, 30%)" opacity="0.76"></circle><circle r="11" cx="543" cy="177" fill="hsl(224, 55%, 30%)" opacity="0.86"></circle><circle r="17" cx="816" cy="745" fill="hsl(193, 55%, 30%)" opacity="0.99"></circle><circle r="11.5" cx="1203" cy="756" fill="hsl(21, 55%, 30%)" opacity="0.20"></circle><circle r="7.5" cx="1210" cy="438" fill="hsl(21, 55%, 30%)" opacity="0.25"></circle><circle r="18.5" cx="939" cy="298" fill="hsl(149, 55%, 30%)" opacity="0.20"></circle><circle r="28" cx="483" cy="734" fill="hsl(262, 55%, 30%)" opacity="0.88"></circle><circle r="20" cx="751" cy="732" fill="hsl(200, 55%, 30%)" opacity="0.78"></circle><circle r="25.5" cx="368" cy="586" fill="hsl(294, 55%, 30%)" opacity="0.73"></circle><circle r="24" cx="488" cy="146" fill="hsl(233, 55%, 30%)" opacity="0.84"></circle><circle r="5" cx="1278" cy="641" fill="hsl(31, 55%, 30%)" opacity="0.17"></circle><circle r="8" cx="1226" cy="224" fill="hsl(22, 55%, 30%)" opacity="0.45"></circle><circle r="26" cx="345" cy="486" fill="hsl(297, 55%, 30%)" opacity="0.52"></circle><circle r="21.5" cx="1116" cy="55" fill="hsl(132, 55%, 30%)" opacity="0.16"></circle><circle r="20.5" cx="206" cy="739" fill="hsl(281, 55%, 30%)" opacity="0.12"></circle><circle r="21.5" cx="1006" cy="536" fill="hsl(110, 55%, 30%)" opacity="0.77"></circle><circle r="12" cx="1365" cy="482" fill="hsl(73, 55%, 30%)" opacity="0.57"></circle><circle r="9.5" cx="1220" cy="611" fill="hsl(21, 55%, 30%)" opacity="0.32"></circle><circle r="23" cx="951" cy="419" fill="hsl(149, 55%, 30%)" opacity="0.11"></circle><circle r="9.5" cx="1153" cy="232" fill="hsl(35, 55%, 30%)" opacity="0.43"></circle><circle r="31.5" cx="577" cy="329" fill="hsl(233, 55%, 30%)" opacity="0.84"></circle><circle r="9" cx="1177" cy="686" fill="hsl(28, 55%, 30%)" opacity="0.90"></circle><circle r="27.5" cx="273" cy="442" fill="hsl(296, 55%, 30%)" opacity="0.57"></circle><circle r="15.5" cx="996" cy="740" fill="hsl(124, 55%, 30%)" opacity="0.50"></circle><circle r="28" cx="426" cy="510" fill="hsl(277, 55%, 30%)" opacity="0.14"></circle><circle r="31" cx="739" cy="604" fill="hsl(200, 55%, 30%)" opacity="0.95"></circle><circle r="23.5" cx="444" cy="320" fill="hsl(277, 55%, 30%)" opacity="0.51"></circle><circle r="25" cx="147" cy="577" fill="hsl(254, 55%, 30%)" opacity="0.88"></circle><circle r="16" cx="1378" cy="175" fill="hsl(80, 55%, 30%)" opacity="0.35"></circle><circle r="32" cx="76" cy="345" fill="hsl(220, 55%, 30%)" opacity="0.25"></circle><circle r="30" cx="860" cy="535" fill="hsl(184, 55%, 30%)" opacity="0.20"></circle><circle r="10" cx="1329" cy="698" fill="hsl(49, 55%, 30%)" opacity="0.60"></circle><circle r="20.5" cx="863" cy="670" fill="hsl(184, 55%, 30%)" opacity="0.44"></circle><circle r="8.5" cx="1350" cy="636" fill="hsl(60, 55%, 30%)" opacity="0.47"></circle><circle r="15.5" cx="23" cy="102" fill="hsl(197, 55%, 30%)" opacity="0.55"></circle><circle r="23.5" cx="223" cy="622" fill="hsl(287, 55%, 30%)" opacity="0.15"></circle><circle r="13" cx="1105" cy="536" fill="hsl(56, 55%, 30%)" opacity="0.52"></circle><circle r="29.5" cx="243" cy="247" fill="hsl(287, 55%, 30%)" opacity="0.21"></circle><circle r="20" cx="527" cy="252" fill="hsl(247, 55%, 30%)" opacity="0.67"></circle><circle r="13.5" cx="1308" cy="102" fill="hsl(46, 55%, 30%)" opacity="0.89"></circle><circle r="11" cx="1051" cy="363" fill="hsl(82, 55%, 30%)" opacity="0.46"></circle><circle r="8.5" cx="1399" cy="646" fill="hsl(87, 55%, 30%)" opacity="0.99"></circle><circle r="18" cx="980" cy="136" fill="hsl(147, 55%, 30%)" opacity="0.42"></circle><circle r="9" cx="1224" cy="362" fill="hsl(22, 55%, 30%)" opacity="0.80"></circle></svg>