<svg xmlns="http://www.w3.org/2000/svg" version="1.1" xmlns:xlink="http://www.w3.org/1999/xlink" xmlns:svgjs="http://svgjs.dev/svgjs" viewBox="0 0 1422 800"><circle r="7.5" cx="1400" cy="160" fill="hsl(65, 55%, 30%)" opacity="0.70"></circle><circle r="17.5" cx="1073" cy="259" fill="hsl(153, 55%, 30%)" opacity="0.11"></circle><circle r="23" cx="950" cy="113" fill="hsl(246, 55%, 30%)" opacity="0.10"></circle><circle r="26" cx="925" cy="477" fill="hsl(238, 55%, 30%)" opacity="0.94"></circle><circle r="23.5" cx="626" cy="112" fill="hsl(292, 55%, 30%)" opacity="0.73"></circle><circle r="18" cx="262" cy="265" fill="hsl(110, 55%, 30%)" opacity="0.77"></circle><circle r="22" cx="887" cy="764" fill="hsl(259, 55%, 30%)" opacity="0.50"></circle><circle r="23" cx="753" cy="261" fill="hsl(299, 55%, 30%)" opacity="0.82"></circle><circle r="23.5" cx="652" cy="205" fill="hsl(301, 55%, 30%)" opacity="0.74"></circle><circle r="32" cx="461" cy="280" fill="hsl(223, 55%, 30%)" opacity="0.26"></circle><circle r="12.5" cx="1141" cy="285" fill="hsl(120, 55%, 30%)" opacity="0.48"></circle><circle r="13.5" cx="1236" cy="361" fill="hsl(87, 55%, 30%)" opacity="0.77"></circle><circle r="14.5" cx="935" cy="353" fill="hsl(226, 55%, 30%)" opacity="0.78"></circle><circle r="11" cx="209" cy="772" fill="hsl(104, 55%, 30%)" opacity="0.94"></circle><circle r="23.5" cx="583" cy="193" fill="hsl(290, 55%, 30%)" opacity="0.91"></circle><circle r="17" cx="283" cy="434" fill="hsl(116, 55%, 30%)" opacity="0.33"></circle><circle r="25" cx="356" cy="609" fill="hsl(162, 55%, 30%)" opacity="0.45"></circle><circle r="26.5" cx="888" cy="679" fill="hsl(259, 55%, 30%)" opacity="0.18"></circle><circle r="24" cx="575" cy="266" fill="hsl(282, 55%, 30%)" opacity="0.79"></circle><circle r="20" cx="1004" cy="761" fill="hsl(189, 55%, 30%)" opacity="0.53"></circle><circle r="22.5" cx="353" cy="482" fill="hsl(148, 55%, 30%)" opacity="0.59"></circle><circle r="13.5" cx="1306" cy="762" fill="hsl(74, 55%, 30%)" opacity="0.43"></circle><circle r="41.5" cx="632" cy="447" fill="hsl(299, 55%, 30%)" opacity="0.65"></circle><circle r="12.5" cx="1299" cy="47" fill="hsl(69, 55%, 30%)" opacity="0.33"></circle><circle r="18.5" cx="253" cy="54" fill="hsl(69, 55%, 30%)" opacity="0.40"></circle><circle r="23" cx="73" cy="647" fill="hsl(141, 55%, 30%)" opacity="0.45"></circle><circle r="26" cx="445" cy="383" fill="hsl(223, 55%, 30%)" opacity="0.19"></circle><circle r="20" cx="965" cy="662" fill="hsl(214, 55%, 30%)" opacity="0.36"></circle><circle r="9" cx="1391" cy="488" fill="hsl(70, 55%, 30%)" opacity="0.62"></circle><circle r="9" cx="1375" cy="437" fill="hsl(69, 55%, 30%)" opacity="0.58"></circle><circle r="21.5" cx="425" cy="550" fill="hsl(208, 55%, 30%)" opacity="0.37"></circle><circle r="19.5" cx="1011" cy="77" fill="hsl(222, 55%, 30%)" opacity="0.43"></circle><circle r="12.5" cx="1373" cy="548" fill="hsl(69, 55%, 30%)" opacity="0.19"></circle><circle r="24" cx="88" cy="310" fill="hsl(141, 55%, 30%)" opacity="0.26"></circle><circle r="17.5" cx="1149" cy="663" fill="hsl(120, 55%, 30%)" opacity="0.81"></circle><circle r="18.5" cx="39" cy="66" fill="hsl(163, 55%, 30%)" opacity="0.52"></circle><circle r="14" cx="1301" cy="504" fill="hsl(74, 55%, 30%)" opacity="0.77"></circle><circle r="16.5" cx="495" cy="36" fill="hsl(211, 55%, 30%)" opacity="0.27"></circle><circle r="9.5" cx="1214" cy="775" fill="hsl(94, 55%, 30%)" opacity="0.56"></circle><circle r="16.5" cx="1168" cy="119" fill="hsl(116, 55%, 30%)" opacity="0.35"></circle><circle r="33.5" cx="721" cy="620" fill="hsl(301, 55%, 30%)" opacity="0.32"></circle><circle r="12.5" cx="1246" cy="695" fill="hsl(81, 55%, 30%)" opacity="0.92"></circle><circle r="19" cx="39" cy="191" fill="hsl(167, 55%, 30%)" opacity="0.30"></circle><circle r="24.5" cx="1054" cy="170" fill="hsl(169, 55%, 30%)" opacity="0.29"></circle><circle r="20.5" cx="1139" cy="571" fill="hsl(120, 55%, 30%)" opacity="0.48"></circle><circle r="28.5" cx="841" cy="449" fill="hsl(277, 55%, 30%)" opacity="0.15"></circle><circle r="22" cx="448" cy="471" fill="hsl(223, 55%, 30%)" opacity="0.37"></circle></svg>