<svg xmlns="http://www.w3.org/2000/svg" version="1.1" xmlns:xlink="http://www.w3.org/1999/xlink" xmlns:svgjs="http://svgjs.dev/svgjs" viewBox="0 0 1422 800"><circle r="9" cx="339" cy="28" stroke-width="2" stroke="hsl(59, 50%, 50%)" fill="none" opacity="0.44"></circle><circle r="10.5" cx="121" cy="114" stroke-width="2" stroke="hsl(36, 50%, 50%)" fill="none" opacity="0.69"></circle><circle r="11" cx="222" cy="234" stroke-width="2" stroke="hsl(16, 50%, 50%)" fill="none" opacity="0.33"></circle><circle r="9" cx="76" cy="691" stroke-width="2" stroke="hsl(36, 50%, 50%)" fill="none" opacity="0.44"></circle><circle r="22" cx="813" cy="689" stroke-width="2" stroke="hsl(200, 50%, 50%)" fill="none" opacity="0.32"></circle><circle r="20.5" cx="957" cy="196" stroke-width="2" stroke="hsl(164, 50%, 50%)" fill="none" opacity="0.65"></circle><circle r="15" cx="525" cy="323" stroke-width="2" stroke="hsl(137, 50%, 50%)" fill="none" opacity="0.76"></circle><circle r="19" cx="1150" cy="449" stroke-width="2" stroke="hsl(106, 50%, 50%)" fill="none" opacity="0.67"></circle><circle r="9.5" cx="129" cy="271" stroke-width="2" stroke="hsl(21, 50%, 50%)" fill="none" opacity="0.16"></circle><circle r="20" cx="794" cy="232" stroke-width="2" stroke="hsl(199, 50%, 50%)" fill="none" opacity="0.24"></circle><circle r="12" cx="137" cy="414" stroke-width="2" stroke="hsl(16, 50%, 50%)" fill="none" opacity="0.28"></circle><circle r="19" cx="945" cy="313" stroke-width="2" stroke="hsl(173, 50%, 50%)" fill="none" opacity="0.35"></circle><circle r="6" cx="323" cy="781" stroke-width="2" stroke="hsl(45, 50%, 50%)" fill="none" opacity="0.21"></circle><circle r="22.5" cx="1379" cy="229" stroke-width="2" stroke="hsl(196, 50%, 50%)" fill="none" opacity="0.15"></circle><circle r="21" cx="504" cy="408" stroke-width="2" stroke="hsl(129, 50%, 50%)" fill="none" opacity="0.28"></circle><circle r="20" cx="744" cy="534" stroke-width="2" stroke="hsl(192, 50%, 50%)" fill="none" opacity="0.64"></circle><circle r="11" cx="342" cy="646" stroke-width="2" stroke="hsl(56, 50%, 50%)" fill="none" opacity="0.38"></circle><circle r="21.5" cx="1047" cy="166" stroke-width="2" stroke="hsl(139, 50%, 50%)" fill="none" opacity="0.95"></circle><circle r="11.5" cx="248" cy="314" stroke-width="2" stroke="hsl(21, 50%, 50%)" fill="none" opacity="0.63"></circle><circle r="14.5" cx="577" cy="632" stroke-width="2" stroke="hsl(151, 50%, 50%)" fill="none" opacity="0.98"></circle><circle r="14.5" cx="1082" cy="27" stroke-width="2" stroke="hsl(213, 50%, 50%)" fill="none" opacity="0.17"></circle><circle r="17.5" cx="799" cy="327" stroke-width="2" stroke="hsl(199, 50%, 50%)" fill="none" opacity="0.31"></circle><circle r="16.5" cx="936" cy="762" stroke-width="2" stroke="hsl(173, 50%, 50%)" fill="none" opacity="0.94"></circle><circle r="11" cx="319" cy="394" stroke-width="2" stroke="hsl(45, 50%, 50%)" fill="none" opacity="0.22"></circle><circle r="9.5" cx="196" cy="30" stroke-width="2" stroke="hsl(58, 50%, 50%)" fill="none" opacity="0.78"></circle><circle r="17" cx="873" cy="205" stroke-width="2" stroke="hsl(194, 50%, 50%)" fill="none" opacity="0.86"></circle><circle r="10" cx="29" cy="496" stroke-width="2" stroke="hsl(59, 50%, 50%)" fill="none" opacity="0.11"></circle><circle r="11.5" cx="248" cy="150" stroke-width="2" stroke="hsl(23, 50%, 50%)" fill="none" opacity="0.46"></circle><circle r="24" cx="691" cy="371" stroke-width="2" stroke="hsl(182, 50%, 50%)" fill="none" opacity="0.36"></circle><circle r="16.5" cx="863" cy="61" stroke-width="2" stroke="hsl(208, 50%, 50%)" fill="none" opacity="0.75"></circle><circle r="13.5" cx="412" cy="651" stroke-width="2" stroke="hsl(89, 50%, 50%)" fill="none" opacity="0.97"></circle><circle r="25.5" cx="786" cy="410" stroke-width="2" stroke="hsl(199, 50%, 50%)" fill="none" opacity="0.88"></circle><circle r="16.5" cx="366" cy="511" stroke-width="2" stroke="hsl(67, 50%, 50%)" fill="none" opacity="0.94"></circle><circle r="9.5" cx="239" cy="74" stroke-width="2" stroke="hsl(34, 50%, 50%)" fill="none" opacity="0.39"></circle><circle r="9.5" cx="1140" cy="776" stroke-width="2" stroke="hsl(106, 50%, 50%)" fill="none" opacity="0.82"></circle><circle r="25.5" cx="1236" cy="602" stroke-width="2" stroke="hsl(117, 50%, 50%)" fill="none" opacity="0.86"></circle><circle r="10.5" cx="103" cy="203" stroke-width="2" stroke="hsl(28, 50%, 50%)" fill="none" opacity="0.82"></circle><circle r="9.5" cx="177" cy="162" stroke-width="2" stroke="hsl(14, 50%, 50%)" fill="none" opacity="0.66"></circle><circle r="7.5" cx="19" cy="691" stroke-width="2" stroke="hsl(72, 50%, 50%)" fill="none" opacity="0.61"></circle><circle r="13.5" cx="322" cy="102" stroke-width="2" stroke="hsl(47, 50%, 50%)" fill="none" opacity="0.50"></circle><circle r="12" cx="1036" cy="418" stroke-width="2" stroke="hsl(136, 50%, 50%)" fill="none" opacity="0.12"></circle><circle r="13" cx="515" cy="630" stroke-width="2" stroke="hsl(137, 50%, 50%)" fill="none" opacity="0.72"></circle><circle r="19.5" cx="1214" cy="717" stroke-width="2" stroke="hsl(111, 50%, 50%)" fill="none" opacity="0.50"></circle><circle r="14" cx="907" cy="257" stroke-width="2" stroke="hsl(188, 50%, 50%)" fill="none" opacity="0.21"></circle><circle r="30.5" cx="903" cy="634" stroke-width="2" stroke="hsl(188, 50%, 50%)" fill="none" opacity="0.35"></circle><circle r="15.5" cx="1048" cy="511" stroke-width="2" stroke="hsl(127, 50%, 50%)" fill="none" opacity="0.61"></circle><circle r="24.5" cx="828" cy="522" stroke-width="2" stroke="hsl(200, 50%, 50%)" fill="none" opacity="0.37"></circle></svg>