<svg xmlns="http://www.w3.org/2000/svg" version="1.1" xmlns:xlink="http://www.w3.org/1999/xlink" xmlns:svgjs="http://svgjs.dev/svgjs" viewBox="0 0 1422 800"><circle r="21.5" cx="833" cy="159" fill="hsl(243, 50%, 50%)" opacity="0.20"></circle><circle r="17" cx="985" cy="445" stroke-width="2" stroke="hsl(216, 50%, 50%)" fill="none" opacity="0.40"></circle><circle r="11" cx="1163" cy="637" fill="hsl(118, 50%, 50%)" opacity="0.43"></circle><circle r="12" cx="71" cy="568" fill="hsl(245, 50%, 50%)" opacity="0.13"></circle><circle r="11.5" cx="1268" cy="325" stroke-width="2" stroke="hsl(78, 50%, 50%)" fill="none" opacity="0.37"></circle><circle r="19.5" cx="1366" cy="487" fill="hsl(70, 50%, 50%)" opacity="0.50"></circle><circle r="22.5" cx="864" cy="592" fill="hsl(231, 50%, 50%)" opacity="0.18"></circle><circle r="17.5" cx="551" cy="245" fill="hsl(120, 50%, 50%)" opacity="0.15"></circle><circle r="15.5" cx="165" cy="504" stroke-width="2" stroke="hsl(187, 50%, 50%)" fill="none" opacity="0.60"></circle><circle r="22" cx="751" cy="272" stroke-width="2" stroke="hsl(192, 50%, 50%)" fill="none" opacity="0.27"></circle><circle r="19" cx="525" cy="733" stroke-width="2" stroke="hsl(116, 50%, 50%)" fill="none" opacity="0.63"></circle><circle r="12" cx="454" cy="511" stroke-width="2" stroke="hsl(109, 50%, 50%)" fill="none" opacity="0.46"></circle><circle r="20" cx="797" cy="754" stroke-width="2" stroke="hsl(211, 50%, 50%)" fill="none" opacity="0.41"></circle><circle r="16" cx="1114" cy="359" stroke-width="2" stroke="hsl(143, 50%, 50%)" fill="none" opacity="0.72"></circle><circle r="16.5" cx="952" cy="273" stroke-width="2" stroke="hsl(229, 50%, 50%)" fill="none" opacity="0.39"></circle><circle r="19.5" cx="858" cy="101" fill="hsl(295, 50%, 50%)" opacity="0.99"></circle><circle r="18.5" cx="345" cy="239" fill="hsl(116, 50%, 50%)" opacity="0.53"></circle><circle r="20" cx="438" cy="748" stroke-width="2" stroke="hsl(108, 50%, 50%)" fill="none" opacity="0.62"></circle><circle r="19" cx="25" cy="476" stroke-width="2" stroke="hsl(274, 50%, 50%)" fill="none" opacity="0.81"></circle><circle r="20.5" cx="941" cy="566" stroke-width="2" stroke="hsl(229, 50%, 50%)" fill="none" opacity="0.26"></circle><circle r="18" cx="1369" cy="173" fill="hsl(65, 50%, 50%)" opacity="0.57"></circle><circle r="20" cx="1077" cy="279" fill="hsl(169, 50%, 50%)" opacity="0.34"></circle><circle r="23" cx="1351" cy="635" stroke-width="2" stroke="hsl(70, 50%, 50%)" fill="none" opacity="0.40"></circle><circle r="15.5" cx="1339" cy="374" fill="hsl(70, 50%, 50%)" opacity="0.21"></circle><circle r="10" cx="1085" cy="102" fill="hsl(215, 50%, 50%)" opacity="0.15"></circle><circle r="16" cx="1063" cy="632" stroke-width="2" stroke="hsl(182, 50%, 50%)" fill="none" opacity="0.31"></circle><circle r="6" cx="1045" cy="404" stroke-width="2" stroke="hsl(182, 50%, 50%)" fill="none" opacity="0.24"></circle><circle r="25.5" cx="76" cy="307" stroke-width="2" stroke="hsl(245, 50%, 50%)" fill="none" opacity="0.34"></circle><circle r="34" cx="741" cy="428" stroke-width="2" stroke="hsl(192, 50%, 50%)" fill="none" opacity="0.84"></circle><circle r="19.5" cx="865" cy="763" stroke-width="2" stroke="hsl(231, 50%, 50%)" fill="none" opacity="0.53"></circle><circle r="13.5" cx="922" cy="19" stroke-width="2" stroke="hsl(335, 50%, 50%)" fill="none" opacity="0.76"></circle><circle r="13.5" cx="1227" cy="581" fill="hsl(90, 50%, 50%)" opacity="0.79"></circle><circle r="10" cx="68" cy="516" fill="hsl(245, 50%, 50%)" opacity="0.13"></circle><circle r="21.5" cx="571" cy="47" fill="hsl(166, 50%, 50%)" opacity="0.54"></circle><circle r="19.5" cx="365" cy="693" stroke-width="2" stroke="hsl(112, 50%, 50%)" fill="none" opacity="0.75"></circle><circle r="17" cx="266" cy="761" fill="hsl(142, 50%, 50%)" opacity="0.93"></circle><circle r="28.5" cx="728" cy="147" fill="hsl(213, 50%, 50%)" opacity="0.65"></circle><circle r="11.5" cx="1071" cy="142" fill="hsl(189, 50%, 50%)" opacity="0.50"></circle><circle r="15" cx="639" cy="215" fill="hsl(145, 50%, 50%)" opacity="0.11"></circle><circle r="24.5" cx="229" cy="283" stroke-width="2" stroke="hsl(152, 50%, 50%)" fill="none" opacity="0.25"></circle><circle r="13" cx="349" cy="122" fill="hsl(107, 50%, 50%)" opacity="0.90"></circle><circle r="22" cx="949" cy="70" fill="hsl(305, 50%, 50%)" opacity="0.75"></circle><circle r="16.5" cx="498" cy="624" stroke-width="2" stroke="hsl(113, 50%, 50%)" fill="none" opacity="0.24"></circle><circle r="13.5" cx="422" cy="206" fill="hsl(108, 50%, 50%)" opacity="1.00"></circle><circle r="16" cx="1016" cy="586" stroke-width="2" stroke="hsl(206, 50%, 50%)" fill="none" opacity="0.91"></circle><circle r="21" cx="978" cy="131" stroke-width="2" stroke="hsl(260, 50%, 50%)" fill="none" opacity="0.61"></circle><circle r="22" cx="452" cy="418" stroke-width="2" stroke="hsl(109, 50%, 50%)" fill="none" opacity="0.35"></circle></svg>