<svg xmlns="http://www.w3.org/2000/svg" version="1.1" xmlns:xlink="http://www.w3.org/1999/xlink" xmlns:svgjs="http://svgjs.dev/svgjs" viewBox="0 0 1422 800"><circle r="22" cx="1181" cy="208" fill="hsl(264, 50%, 50%)" opacity="0.21"></circle><circle r="13" cx="898" cy="178" fill="hsl(158, 50%, 50%)" opacity="0.14"></circle><circle r="22" cx="1308" cy="470" stroke-width="2" stroke="hsl(286, 50%, 50%)" fill="none" opacity="0.96"></circle><circle r="17" cx="808" cy="474" stroke-width="2" stroke="hsl(134, 50%, 50%)" fill="none" opacity="0.23"></circle><circle r="21" cx="657" cy="390" fill="hsl(115, 50%, 50%)" opacity="0.11"></circle><circle r="24" cx="73" cy="496" fill="hsl(245, 50%, 50%)" opacity="0.13"></circle><circle r="25.5" cx="1309" cy="140" stroke-width="2" stroke="hsl(292, 50%, 50%)" fill="none" opacity="0.17"></circle><circle r="22" cx="433" cy="622" fill="hsl(119, 50%, 50%)" opacity="0.18"></circle><circle r="32.5" cx="72" cy="244" stroke-width="2" stroke="hsl(245, 50%, 50%)" fill="none" opacity="0.72"></circle><circle r="19" cx="1336" cy="636" fill="hsl(290, 50%, 50%)" opacity="0.40"></circle><circle r="20.5" cx="1008" cy="519" stroke-width="2" stroke="hsl(198, 50%, 50%)" fill="none" opacity="0.63"></circle><circle r="17.5" cx="30" cy="445" stroke-width="2" stroke="hsl(274, 50%, 50%)" fill="none" opacity="0.99"></circle><circle r="27.5" cx="1019" cy="211" fill="hsl(198, 50%, 50%)" opacity="0.41"></circle><circle r="21.5" cx="597" cy="71" stroke-width="2" stroke="hsl(49, 50%, 50%)" fill="none" opacity="0.83"></circle><circle r="14.5" cx="834" cy="400" stroke-width="2" stroke="hsl(139, 50%, 50%)" fill="none" opacity="0.56"></circle><circle r="20" cx="194" cy="652" fill="hsl(174, 50%, 50%)" opacity="0.13"></circle><circle r="33.5" cx="1266" cy="56" fill="hsl(271, 50%, 50%)" opacity="0.52"></circle><circle r="11" cx="723" cy="623" fill="hsl(120, 50%, 50%)" opacity="0.83"></circle><circle r="25.5" cx="1211" cy="760" fill="hsl(270, 50%, 50%)" opacity="0.98"></circle><circle r="26" cx="64" cy="758" stroke-width="2" stroke="hsl(260, 50%, 50%)" fill="none" opacity="0.95"></circle><circle r="31" cx="53" cy="353" fill="hsl(260, 50%, 50%)" opacity="0.31"></circle><circle r="22" cx="548" cy="423" fill="hsl(116, 50%, 50%)" opacity="0.69"></circle><circle r="27.5" cx="1115" cy="268" stroke-width="2" stroke="hsl(242, 50%, 50%)" fill="none" opacity="0.99"></circle><circle r="13.5" cx="1401" cy="727" fill="hsl(287, 50%, 50%)" opacity="0.89"></circle><circle r="22" cx="632" cy="746" stroke-width="2" stroke="hsl(114, 50%, 50%)" fill="none" opacity="0.82"></circle><circle r="16" cx="1395" cy="465" fill="hsl(289, 50%, 50%)" opacity="0.94"></circle><circle r="11.5" cx="533" cy="131" fill="hsl(83, 50%, 50%)" opacity="0.52"></circle><circle r="18.5" cx="291" cy="502" stroke-width="2" stroke="hsl(132, 50%, 50%)" fill="none" opacity="0.17"></circle><circle r="33.5" cx="1232" cy="302" stroke-width="2" stroke="hsl(275, 50%, 50%)" fill="none" opacity="0.28"></circle><circle r="26" cx="514" cy="714" fill="hsl(117, 50%, 50%)" opacity="0.46"></circle><circle r="29" cx="1372" cy="186" stroke-width="2" stroke="hsl(290, 50%, 50%)" fill="none" opacity="0.90"></circle><circle r="21.5" cx="1216" cy="418" fill="hsl(270, 50%, 50%)" opacity="0.32"></circle><circle r="25.5" cx="969" cy="746" fill="hsl(181, 50%, 50%)" opacity="0.32"></circle><circle r="24" cx="1260" cy="210" fill="hsl(280, 50%, 50%)" opacity="0.52"></circle><circle r="22" cx="427" cy="241" stroke-width="2" stroke="hsl(119, 50%, 50%)" fill="none" opacity="0.41"></circle><circle r="30.5" cx="1373" cy="57" fill="hsl(272, 50%, 50%)" opacity="0.39"></circle><circle r="17" cx="1396" cy="402" stroke-width="2" stroke="hsl(289, 50%, 50%)" fill="none" opacity="0.13"></circle><circle r="16" cx="284" cy="748" stroke-width="2" stroke="hsl(137, 50%, 50%)" fill="none" opacity="0.91"></circle><circle r="25" cx="439" cy="426" fill="hsl(119, 50%, 50%)" opacity="0.64"></circle></svg>