<svg xmlns="http://www.w3.org/2000/svg" version="1.1" xmlns:xlink="http://www.w3.org/1999/xlink" xmlns:svgjs="http://svgjs.dev/svgjs" viewBox="0 0 1422 800"><circle r="9.5" cx="226" cy="28" fill="hsl(66, 50%, 50%)" opacity="0.70"></circle><circle r="23.5" cx="733" cy="195" fill="hsl(228, 50%, 50%)" opacity="0.62"></circle><circle r="22" cx="1358" cy="429" stroke-width="2" stroke="hsl(183, 50%, 50%)" fill="none" opacity="0.74"></circle><circle r="19.5" cx="44" cy="537" fill="hsl(167, 50%, 50%)" opacity="0.54"></circle><circle r="18" cx="78" cy="611" fill="hsl(141, 50%, 50%)" opacity="0.18"></circle><circle r="29" cx="482" cy="66" stroke-width="2" stroke="hsl(189, 50%, 50%)" fill="none" opacity="0.31"></circle><circle r="8.5" cx="1103" cy="725" fill="hsl(117, 50%, 50%)" opacity="0.32"></circle><circle r="28" cx="919" cy="334" stroke-width="2" stroke="hsl(198, 50%, 50%)" fill="none" opacity="0.10"></circle><circle r="23.5" cx="1375" cy="260" stroke-width="2" stroke="hsl(183, 50%, 50%)" fill="none" opacity="0.79"></circle><circle r="12" cx="426" cy="279" fill="hsl(175, 50%, 50%)" opacity="0.97"></circle><circle r="11" cx="256" cy="82" fill="hsl(71, 50%, 50%)" opacity="0.39"></circle><circle r="15.5" cx="32" cy="426" fill="hsl(167, 50%, 50%)" opacity="0.67"></circle><circle r="20" cx="490" cy="762" stroke-width="2" stroke="hsl(201, 50%, 50%)" fill="none" opacity="0.96"></circle><circle r="16" cx="163" cy="375" stroke-width="2" stroke="hsl(108, 50%, 50%)" fill="none" opacity="0.39"></circle><circle r="20" cx="560" cy="166" fill="hsl(222, 50%, 50%)" opacity="0.28"></circle><circle r="17.5" cx="548" cy="249" stroke-width="2" stroke="hsl(212, 50%, 50%)" fill="none" opacity="0.27"></circle><circle r="20" cx="453" cy="516" fill="hsl(184, 50%, 50%)" opacity="0.71"></circle><circle r="24" cx="711" cy="278" fill="hsl(227, 50%, 50%)" opacity="0.67"></circle><circle r="26" cx="1264" cy="222" fill="hsl(124, 50%, 50%)" opacity="0.59"></circle><circle r="21" cx="811" cy="442" fill="hsl(227, 50%, 50%)" opacity="0.87"></circle><circle r="16" cx="566" cy="329" stroke-width="2" stroke="hsl(217, 50%, 50%)" fill="none" opacity="0.21"></circle><circle r="14" cx="1071" cy="676" stroke-width="2" stroke="hsl(125, 50%, 50%)" fill="none" opacity="0.82"></circle><circle r="27" cx="633" cy="152" fill="hsl(243, 50%, 50%)" opacity="0.38"></circle><circle r="8.5" cx="264" cy="779" fill="hsl(107, 50%, 50%)" opacity="0.90"></circle><circle r="15" cx="1152" cy="76" stroke-width="2" stroke="hsl(158, 50%, 50%)" fill="none" opacity="0.91"></circle><circle r="12" cx="306" cy="661" fill="hsl(119, 50%, 50%)" opacity="0.21"></circle><circle r="24.5" cx="292" cy="433" fill="hsl(119, 50%, 50%)" opacity="0.42"></circle><circle r="18" cx="1284" cy="100" stroke-width="2" stroke="hsl(148, 50%, 50%)" fill="none" opacity="0.85"></circle><circle r="28.5" cx="745" cy="371" fill="hsl(229, 50%, 50%)" opacity="0.37"></circle><circle r="18.5" cx="1142" cy="170" stroke-width="2" stroke="hsl(117, 50%, 50%)" fill="none" opacity="0.69"></circle><circle r="17" cx="1258" cy="342" stroke-width="2" stroke="hsl(124, 50%, 50%)" fill="none" opacity="0.19"></circle><circle r="15.5" cx="1022" cy="538" stroke-width="2" stroke="hsl(144, 50%, 50%)" fill="none" opacity="0.12"></circle><circle r="19" cx="66" cy="241" fill="hsl(154, 50%, 50%)" opacity="0.33"></circle><circle r="20.5" cx="621" cy="255" stroke-width="2" stroke="hsl(222, 50%, 50%)" fill="none" opacity="0.14"></circle><circle r="9" cx="945" cy="778" fill="hsl(188, 50%, 50%)" opacity="0.54"></circle><circle r="23.5" cx="832" cy="334" stroke-width="2" stroke="hsl(224, 50%, 50%)" fill="none" opacity="0.65"></circle><circle r="19.5" cx="1196" cy="542" fill="hsl(107, 50%, 50%)" opacity="0.19"></circle><circle r="22" cx="873" cy="480" fill="hsl(214, 50%, 50%)" opacity="0.29"></circle><circle r="25" cx="1373" cy="623" stroke-width="2" stroke="hsl(183, 50%, 50%)" fill="none" opacity="0.51"></circle><circle r="20" cx="734" cy="759" fill="hsl(229, 50%, 50%)" opacity="0.46"></circle><circle r="21" cx="664" cy="757" fill="hsl(225, 50%, 50%)" opacity="0.47"></circle></svg>