<svg xmlns="http://www.w3.org/2000/svg" version="1.1" xmlns:xlink="http://www.w3.org/1999/xlink" xmlns:svgjs="http://svgjs.dev/svgjs" viewBox="0 0 1422 800"><circle r="15" cx="1038" cy="222" fill="hsl(116, 50%, 50%)" opacity="0.97"></circle><circle r="28" cx="1380" cy="512" fill="hsl(305, 50%, 50%)" opacity="0.45"></circle><circle r="22.5" cx="244" cy="434" stroke-width="2" stroke="hsl(254, 50%, 50%)" fill="none" opacity="0.93"></circle><circle r="31" cx="1371" cy="60" stroke-width="2" stroke="hsl(263, 50%, 50%)" fill="none" opacity="0.17"></circle><circle r="15.5" cx="456" cy="742" fill="hsl(137, 50%, 50%)" opacity="0.46"></circle><circle r="28" cx="177" cy="128" fill="hsl(270, 50%, 50%)" opacity="0.45"></circle><circle r="13.5" cx="1062" cy="102" fill="hsl(126, 50%, 50%)" opacity="0.90"></circle><circle r="13" cx="786" cy="369" fill="hsl(68, 50%, 50%)" opacity="0.67"></circle><circle r="19" cx="309" cy="394" stroke-width="2" stroke="hsl(235, 50%, 50%)" fill="none" opacity="0.14"></circle><circle r="20" cx="376" cy="391" stroke-width="2" stroke="hsl(198, 50%, 50%)" fill="none" opacity="0.47"></circle><circle r="19" cx="37" cy="716" fill="hsl(194, 50%, 50%)" opacity="0.15"></circle><circle r="12.5" cx="582" cy="232" fill="hsl(70, 50%, 50%)" opacity="0.57"></circle><circle r="22" cx="1077" cy="615" fill="hsl(129, 50%, 50%)" opacity="0.90"></circle><circle r="16" cx="777" cy="606" fill="hsl(64, 50%, 50%)" opacity="0.89"></circle><circle r="17.5" cx="866" cy="194" fill="hsl(80, 50%, 50%)" opacity="0.43"></circle><circle r="22" cx="394" cy="556" fill="hsl(183, 50%, 50%)" opacity="0.28"></circle><circle r="12.5" cx="528" cy="589" fill="hsl(97, 50%, 50%)" opacity="0.54"></circle><circle r="35.5" cx="1358" cy="397" stroke-width="2" stroke="hsl(293, 50%, 50%)" fill="none" opacity="1.00"></circle><circle r="41" cx="1359" cy="701" fill="hsl(293, 50%, 50%)" opacity="0.44"></circle><circle r="9.5" cx="637" cy="26" fill="hsl(80, 50%, 50%)" opacity="0.24"></circle><circle r="16.5" cx="732" cy="281" fill="hsl(59, 50%, 50%)" opacity="0.56"></circle><circle r="26.5" cx="1233" cy="432" fill="hsl(207, 50%, 50%)" opacity="0.52"></circle><circle r="11.5" cx="638" cy="364" stroke-width="2" stroke="hsl(61, 50%, 50%)" fill="none" opacity="0.62"></circle><circle r="12.5" cx="713" cy="409" stroke-width="2" stroke="hsl(59, 50%, 50%)" fill="none" opacity="0.45"></circle><circle r="14" cx="24" cy="156" fill="hsl(194, 50%, 50%)" opacity="0.27"></circle><circle r="17.5" cx="1185" cy="124" stroke-width="2" stroke="hsl(195, 50%, 50%)" fill="none" opacity="0.94"></circle><circle r="25" cx="374" cy="747" stroke-width="2" stroke="hsl(198, 50%, 50%)" fill="none" opacity="0.58"></circle><circle r="15" cx="584" cy="126" fill="hsl(81, 50%, 50%)" opacity="0.30"></circle><circle r="23" cx="348" cy="126" fill="hsl(242, 50%, 50%)" opacity="0.80"></circle><circle r="13" cx="708" cy="551" fill="hsl(58, 50%, 50%)" opacity="0.88"></circle><circle r="21.5" cx="378" cy="38" fill="hsl(233, 50%, 50%)" opacity="0.60"></circle><circle r="20.5" cx="235" cy="715" stroke-width="2" stroke="hsl(254, 50%, 50%)" fill="none" opacity="0.88"></circle><circle r="15.5" cx="1148" cy="73" stroke-width="2" stroke="hsl(171, 50%, 50%)" fill="none" opacity="0.21"></circle><circle r="17" cx="657" cy="640" stroke-width="2" stroke="hsl(59, 50%, 50%)" fill="none" opacity="0.43"></circle><circle r="22.5" cx="1311" cy="178" stroke-width="2" stroke="hsl(251, 50%, 50%)" fill="none" opacity="0.36"></circle><circle r="25" cx="390" cy="301" stroke-width="2" stroke="hsl(183, 50%, 50%)" fill="none" opacity="0.68"></circle><circle r="10" cx="704" cy="36" fill="hsl(66, 50%, 50%)" opacity="0.17"></circle><circle r="14" cx="88" cy="500" stroke-width="2" stroke="hsl(219, 50%, 50%)" fill="none" opacity="0.80"></circle><circle r="18" cx="131" cy="531" fill="hsl(239, 50%, 50%)" opacity="0.25"></circle><circle r="19" cx="957" cy="231" fill="hsl(101, 50%, 50%)" opacity="0.57"></circle><circle r="16" cx="480" cy="638" fill="hsl(123, 50%, 50%)" opacity="0.50"></circle><circle r="16.5" cx="512" cy="193" fill="hsl(97, 50%, 50%)" opacity="0.27"></circle><circle r="15.5" cx="633" cy="754" fill="hsl(61, 50%, 50%)" opacity="0.58"></circle><circle r="20" cx="169" cy="766" stroke-width="2" stroke="hsl(253, 50%, 50%)" fill="none" opacity="0.56"></circle><circle r="29.5" cx="149" cy="354" stroke-width="2" stroke="hsl(247, 50%, 50%)" fill="none" opacity="0.29"></circle><circle r="20.5" cx="37" cy="41" stroke-width="2" stroke="hsl(198, 50%, 50%)" fill="none" opacity="0.36"></circle><circle r="17.5" cx="505" cy="41" stroke-width="2" stroke="hsl(149, 50%, 50%)" fill="none" opacity="0.14"></circle></svg>