<svg xmlns="http://www.w3.org/2000/svg" version="1.1" xmlns:xlink="http://www.w3.org/1999/xlink" xmlns:svgjs="http://svgjs.dev/svgjs" viewBox="0 0 1422 800"><g fill="hsl(28, 100%, 71%)" transform="matrix(3.7,0,0,3.7,-1904.85,-1065.15)"><circle r="0.5" cx="716" cy="400" opacity="0.57"></circle><circle r="0.5" cx="713" cy="406" opacity="0.83"></circle><circle r="0.5" cx="706" cy="405" opacity="0.52"></circle><circle r="0.5" cx="703" cy="397" opacity="0.91"></circle><circle r="0.5" cx="711" cy="390" opacity="0.95"></circle><circle r="0.5" cx="721" cy="396" opacity="0.71"></circle><circle r="0.5" cx="719" cy="409" opacity="0.15"></circle><circle r="0.5" cx="706" cy="412" opacity="0.52"></circle><circle r="0.5" cx="697" cy="400" opacity="0.34"></circle><circle r="0.5" cx="705" cy="385" opacity="0.39"></circle><circle r="0.5" cx="723" cy="388" opacity="0.33"></circle><circle r="0.5" cx="727" cy="407" opacity="0.72"></circle><circle r="0.5" cx="711" cy="419" opacity="0.88"></circle><circle r="0.5" cx="692" cy="407" opacity="0.68"></circle><circle r="0.5" cx="696" cy="384" opacity="0.55"></circle><circle r="0.5" cx="720" cy="379" opacity="0.26"></circle><circle r="0.5" cx="735" cy="401" opacity="0.19"></circle><circle r="0.5" cx="720" cy="423" opacity="0.18"></circle><circle r="0.5" cx="692" cy="418" opacity="0.35"></circle><circle r="0.5" cx="686" cy="389" opacity="0.43"></circle><circle r="0.5" cx="712" cy="371" opacity="0.56"></circle><circle r="0.5" cx="739" cy="390" opacity="0.12"></circle><circle r="0.5" cx="732" cy="423" opacity="0.31"></circle><circle r="0.5" cx="697" cy="429" opacity="0.13"></circle><circle r="0.5" cx="678" cy="398" opacity="0.51"></circle><circle r="0.5" cx="699" cy="368" opacity="0.22"></circle><circle r="0.5" cx="737" cy="376" opacity="0.69"></circle><circle r="0.5" cx="744" cy="416" opacity="0.52"></circle><circle r="0.5" cx="709" cy="438" opacity="0.90"></circle><circle r="0.5" cx="674" cy="413" opacity="0.85"></circle><circle r="0.5" cx="684" cy="370" opacity="0.46"></circle><circle r="0.5" cx="729" cy="363" opacity="0.88"></circle><circle r="0.5" cx="754" cy="403" opacity="0.12"></circle><circle r="0.5" cx="725" cy="442" opacity="0.15"></circle><circle r="0.5" cx="677" cy="430" opacity="0.36"></circle><circle r="0.5" cx="669" cy="379" opacity="0.16"></circle><circle r="0.5" cx="714" cy="353" opacity="0.66"></circle><circle r="0.5" cx="757" cy="385" opacity="0.82"></circle><circle r="0.5" cx="744" cy="438" opacity="0.73"></circle><circle r="0.5" cx="688" cy="446" opacity="0.36"></circle><circle r="0.5" cx="659" cy="396" opacity="0.28"></circle><circle r="0.5" cx="694" cy="349" opacity="0.68"></circle><circle r="0.5" cx="753" cy="365" opacity="0.54"></circle><circle r="0.5" cx="761" cy="425" opacity="0.86"></circle><circle r="1" cx="706" cy="457" opacity="0.10"></circle><circle r="1" cx="656" cy="418" opacity="0.93"></circle><circle r="1" cx="673" cy="355" opacity="0.23"></circle><circle r="1" cx="739" cy="346" opacity="0.80"></circle><circle r="1" cx="772" cy="406" opacity="0.43"></circle><circle r="1" cx="730" cy="460" opacity="0.65"></circle><circle r="1" cx="662" cy="441" opacity="0.81"></circle><circle r="1" cx="653" cy="369" opacity="0.93"></circle><circle r="1" cx="718" cy="334" opacity="0.47"></circle><circle r="1" cx="776" cy="381" opacity="0.42"></circle><circle r="1" cx="754" cy="453" opacity="0.69"></circle><circle r="1" cx="678" cy="461" opacity="0.86"></circle><circle r="1" cx="640" cy="392" opacity="0.53"></circle><circle r="1" cx="691" cy="331" opacity="0.36"></circle><circle r="1" cx="768" cy="354" opacity="0.53"></circle><circle r="1" cx="776" cy="436" opacity="0.16"></circle><circle r="1" cx="702" cy="475" opacity="0.35"></circle><circle r="1" cx="637" cy="421" opacity="0.68"></circle><circle r="1" cx="663" cy="339" opacity="0.27"></circle><circle r="1" cx="750" cy="331" opacity="0.19"></circle><circle r="1" cx="791" cy="410" opacity="0.93"></circle><circle r="1" cx="733" cy="479" opacity="0.94"></circle><circle r="1" cx="646" cy="451" opacity="0.39"></circle><circle r="1" cx="638" cy="358" opacity="0.20"></circle><circle r="1" cx="722" cy="315" opacity="0.84"></circle><circle r="1" cx="794" cy="378" opacity="0.33"></circle><circle r="1" cx="764" cy="470" opacity="0.68"></circle><circle r="1" cx="666" cy="477" opacity="0.49"></circle><circle r="1" cx="622" cy="388" opacity="0.31"></circle><circle r="1" cx="688" cy="312" opacity="0.85"></circle><circle r="1" cx="785" cy="345" opacity="0.66"></circle><circle r="1" cx="791" cy="448" opacity="0.31"></circle><circle r="1" cx="697" cy="494" opacity="0.80"></circle><circle r="1" cx="618" cy="423" opacity="0.48"></circle><circle r="1" cx="653" cy="322" opacity="1.00"></circle><circle r="1" cx="762" cy="316" opacity="0.22"></circle><circle r="1" cx="809" cy="415" opacity="0.54"></circle><circle r="1" cx="735" cy="498" opacity="0.91"></circle><circle r="1" cx="629" cy="460" opacity="0.97"></circle><circle r="1" cx="623" cy="346" opacity="0.99"></circle><circle r="1" cx="728" cy="297" opacity="0.93"></circle><circle r="1" cx="814" cy="376" opacity="0.91"></circle><circle r="1" cx="773" cy="487" opacity="0.32"></circle><circle r="1" cx="654" cy="491" opacity="0.22"></circle><circle r="1" cx="604" cy="382" opacity="0.43"></circle><circle r="1" cx="687" cy="293" opacity="0.73"></circle><circle r="1" cx="802" cy="336" opacity="0.62"></circle><circle r="1" cx="806" cy="460" opacity="0.84"></circle><circle r="1" cx="691" cy="512" opacity="0.10"></circle><circle r="1.5" cx="599" cy="425" opacity="0.61"></circle><circle r="1.5" cx="645" cy="305" opacity="0.17"></circle><circle r="1.5" cx="775" cy="302" opacity="0.47"></circle><circle r="1.5" cx="827" cy="421" opacity="0.64"></circle><circle r="1.5" cx="736" cy="517" opacity="0.85"></circle><circle r="1.5" cx="611" cy="468" opacity="0.12"></circle><circle r="1.5" cx="609" cy="333" opacity="0.18"></circle><circle r="1.5" cx="734" cy="279" opacity="0.19"></circle><circle r="1.5" cx="833" cy="375" opacity="0.56"></circle><circle r="1.5" cx="781" cy="504" opacity="0.61"></circle><circle r="1.5" cx="641" cy="505" opacity="0.36"></circle><circle r="1.5" cx="586" cy="375" opacity="0.80"></circle><circle r="1.5" cx="686" cy="273" opacity="0.75"></circle><circle r="1.5" cx="820" cy="328" opacity="0.69"></circle><circle r="1.5" cx="820" cy="474" opacity="0.21"></circle><circle r="1.5" cx="684" cy="530" opacity="0.63"></circle><circle r="1.5" cx="580" cy="425" opacity="0.85"></circle><circle r="1.5" cx="638" cy="287" opacity="0.52"></circle><circle r="1.5" cx="788" cy="288" opacity="0.69"></circle><circle r="1.5" cx="845" cy="429" opacity="0.80"></circle><circle r="1.5" cx="735" cy="536" opacity="0.79"></circle><circle r="1.5" cx="593" cy="475" opacity="0.21"></circle><circle r="1.5" cx="596" cy="319" opacity="0.97"></circle><circle r="1.5" cx="742" cy="262" opacity="0.40"></circle><circle r="1.5" cx="852" cy="376" opacity="0.11"></circle><circle r="1.5" cx="788" cy="522" opacity="0.57"></circle><circle r="1.5" cx="627" cy="518" opacity="0.30"></circle><circle r="1.5" cx="568" cy="367" opacity="0.76"></circle><circle r="1.5" cx="687" cy="254" opacity="0.22"></circle><circle r="1.5" cx="838" cy="322" opacity="0.76"></circle><circle r="1.5" cx="833" cy="488" opacity="0.40"></circle><circle r="1.5" cx="676" cy="547" opacity="0.23"></circle><circle r="1.5" cx="560" cy="424" opacity="0.18"></circle><circle r="1.5" cx="631" cy="269" opacity="0.60"></circle><circle r="1.5" cx="803" cy="275" opacity="0.16"></circle><circle r="1.5" cx="862" cy="438" opacity="0.21"></circle><circle r="1.5" cx="734" cy="556" opacity="0.89"></circle><circle r="1.5" cx="575" cy="481" opacity="0.18"></circle><circle r="1.5" cx="583" cy="304" opacity="0.28"></circle><circle r="1.5" cx="751" cy="244" opacity="0.34"></circle><circle r="1.5" cx="871" cy="377" opacity="0.79"></circle><circle r="1.5" cx="794" cy="541" opacity="0.54"></circle><circle r="1.5" cx="612" cy="531" opacity="0.50"></circle><circle r="1.5" cx="551" cy="358" opacity="0.20"></circle><circle r="1.5" cx="689" cy="235" opacity="0.51"></circle><circle r="1.5" cx="856" cy="316" opacity="0.19"></circle><circle r="1.5" cx="845" cy="503" opacity="0.80"></circle><circle r="1.5" cx="666" cy="564" opacity="0.43"></circle><circle r="2" cx="541" cy="421" opacity="0.64"></circle><circle r="2" cx="626" cy="250" opacity="0.86"></circle><circle r="2" cx="818" cy="263" opacity="0.22"></circle><circle r="2" cx="879" cy="447" opacity="0.41"></circle><circle r="2" cx="732" cy="575" opacity="0.10"></circle><circle r="2" cx="556" cy="486" opacity="0.86"></circle><circle r="2" cx="571" cy="289" opacity="0.57"></circle><circle r="2" cx="761" cy="227" opacity="0.42"></circle><circle r="2" cx="891" cy="380" opacity="0.49"></circle><circle r="2" cx="798" cy="560" opacity="0.80"></circle><circle r="2" cx="596" cy="542" opacity="0.77"></circle><circle r="2" cx="534" cy="347" opacity="0.34"></circle><circle r="2" cx="692" cy="215" opacity="0.71"></circle><circle r="2" cx="876" cy="312" opacity="0.77"></circle><circle r="2" cx="856" cy="519" opacity="0.74"></circle><circle r="2" cx="656" cy="581" opacity="0.81"></circle><circle r="2" cx="522" cy="418" opacity="0.14"></circle><circle r="2" cx="622" cy="231" opacity="0.50"></circle><circle r="2" cx="834" cy="252" opacity="0.94"></circle><circle r="2" cx="896" cy="458" opacity="0.21"></circle><circle r="2" cx="728" cy="594" opacity="0.99"></circle><circle r="2" cx="537" cy="490" opacity="0.53"></circle><circle r="2" cx="560" cy="272" opacity="0.29"></circle><circle r="2" cx="772" cy="211" opacity="0.30"></circle><circle r="2" cx="910" cy="384" opacity="0.18"></circle><circle r="2" cx="802" cy="579" opacity="0.10"></circle><circle r="2" cx="579" cy="553" opacity="0.26"></circle><circle r="2" cx="518" cy="336" opacity="0.52"></circle><circle r="2" cx="696" cy="196" opacity="0.92"></circle><circle r="2" cx="895" cy="308" opacity="0.80"></circle><circle r="2" cx="867" cy="536" opacity="0.41"></circle><circle r="2" cx="644" cy="597" opacity="0.51"></circle><circle r="2" cx="502" cy="413" opacity="0.42"></circle><circle r="2" cx="619" cy="211" opacity="0.25"></circle><circle r="2" cx="851" cy="242" opacity="0.85"></circle><circle r="2" cx="912" cy="470" opacity="0.28"></circle><circle r="2" cx="723" cy="614" opacity="0.43"></circle><circle r="2" cx="517" cy="493" opacity="0.73"></circle><circle r="2" cx="550" cy="255" opacity="0.49"></circle><circle r="2" cx="784" cy="195" opacity="0.80"></circle><circle r="2" cx="929" cy="389" opacity="0.12"></circle><circle r="2" cx="804" cy="599" opacity="0.69"></circle><circle r="2" cx="562" cy="563" opacity="0.51"></circle><circle r="2" cx="502" cy="324" opacity="0.45"></circle><circle r="2" cx="702" cy="177" opacity="0.12"></circle><circle r="2" cx="915" cy="306" opacity="0.53"></circle><circle r="2" cx="876" cy="554" opacity="0.29"></circle><circle r="2" cx="632" cy="612" opacity="0.39"></circle><circle r="2" cx="483" cy="408" opacity="0.29"></circle><circle r="2.5" cx="617" cy="191" opacity="0.79"></circle><circle r="2.5" cx="869" cy="232" opacity="0.23"></circle><circle r="2.5" cx="927" cy="483" opacity="0.11"></circle><circle r="2.5" cx="717" cy="633" opacity="0.36"></circle><circle r="2.5" cx="497" cy="495" opacity="0.65"></circle><circle r="2.5" cx="541" cy="237" opacity="0.88"></circle><circle r="2.5" cx="797" cy="180" opacity="0.51"></circle><circle r="2.5" cx="948" cy="396" opacity="0.11"></circle><circle r="2.5" cx="806" cy="619" opacity="0.78"></circle><circle r="2.5" cx="544" cy="572" opacity="0.22"></circle><circle r="2.5" cx="487" cy="310" opacity="0.79"></circle><circle r="2.5" cx="709" cy="158" opacity="0.11"></circle><circle r="2.5" cx="935" cy="305" opacity="0.99"></circle><circle r="2.5" cx="885" cy="572" opacity="0.13"></circle><circle r="2.5" cx="618" cy="627" opacity="0.92"></circle><circle r="2.5" cx="464" cy="401" opacity="0.86"></circle><circle r="2.5" cx="616" cy="171" opacity="0.78"></circle><circle r="2.5" cx="887" cy="224" opacity="0.64"></circle><circle r="2.5" cx="942" cy="497" opacity="0.42"></circle><circle r="2.5" cx="710" cy="652" opacity="0.62"></circle><circle r="2.5" cx="477" cy="495" opacity="0.38"></circle><circle r="2.5" cx="533" cy="219" opacity="0.20"></circle><circle r="2.5" cx="811" cy="165" opacity="0.36"></circle><circle r="2.5" cx="967" cy="403" opacity="0.80"></circle><circle r="2.5" cx="806" cy="639" opacity="0.25"></circle><circle r="2.5" cx="525" cy="580" opacity="0.23"></circle><circle r="2.5" cx="473" cy="296" opacity="0.96"></circle><circle r="2.5" cx="716" cy="139" opacity="0.19"></circle><circle r="2.5" cx="955" cy="305" opacity="0.84"></circle><circle r="2.5" cx="893" cy="591" opacity="0.22"></circle><circle r="2.5" cx="603" cy="642" opacity="0.31"></circle><circle r="2.5" cx="445" cy="393" opacity="0.12"></circle><circle r="2.5" cx="616" cy="150" opacity="0.26"></circle><circle r="2.5" cx="907" cy="216" opacity="0.22"></circle><circle r="2.5" cx="956" cy="511" opacity="0.36"></circle><circle r="2.5" cx="701" cy="670" opacity="0.16"></circle><circle r="2.5" cx="456" cy="495" opacity="0.66"></circle><circle r="2.5" cx="526" cy="200" opacity="0.40"></circle><circle r="2.5" cx="826" cy="151" opacity="0.85"></circle><circle r="2.5" cx="986" cy="412" opacity="0.84"></circle><circle r="2.5" cx="805" cy="660" opacity="0.79"></circle><circle r="2.5" cx="506" cy="587" opacity="0.41"></circle><circle r="2.5" cx="459" cy="281" opacity="0.40"></circle><circle r="2.5" cx="725" cy="120" opacity="0.35"></circle><circle r="2.5" cx="976" cy="306" opacity="0.48"></circle><circle r="2.5" cx="899" cy="610" opacity="0.19"></circle><circle r="2.5" cx="588" cy="655" opacity="0.40"></circle><circle r="2.5" cx="427" cy="383" opacity="0.44"></circle><circle r="2.5" cx="618" cy="130" opacity="0.38"></circle><circle r="3" cx="926" cy="210" opacity="0.68"></circle><circle r="3" cx="970" cy="527" opacity="0.56"></circle><circle r="3" cx="692" cy="689" opacity="0.63"></circle><circle r="3" cx="436" cy="493" opacity="0.70"></circle><circle r="3" cx="520" cy="180" opacity="0.72"></circle><circle r="3" cx="842" cy="138" opacity="0.29"></circle><circle r="3" cx="1004" cy="422" opacity="0.32"></circle><circle r="3" cx="803" cy="681" opacity="0.37"></circle><circle r="3" cx="486" cy="593" opacity="0.69"></circle><circle r="3" cx="446" cy="265" opacity="0.36"></circle><circle r="3" cx="735" cy="102" opacity="0.19"></circle><circle r="3" cx="997" cy="309" opacity="1.00"></circle><circle r="3" cx="905" cy="630" opacity="0.40"></circle><circle r="3" cx="572" cy="668" opacity="0.30"></circle><circle r="3" cx="409" cy="373" opacity="0.87"></circle><circle r="3" cx="620" cy="109" opacity="0.26"></circle><circle r="3" cx="946" cy="205" opacity="0.70"></circle><circle r="3" cx="982" cy="544" opacity="0.67"></circle><circle r="3" cx="681" cy="707" opacity="0.79"></circle><circle r="3" cx="415" cy="490" opacity="0.57"></circle><circle r="3" cx="514" cy="160" opacity="0.91"></circle><circle r="3" cx="859" cy="126" opacity="0.59"></circle><circle r="3" cx="1022" cy="432" opacity="0.50"></circle><circle r="3" cx="800" cy="701" opacity="0.54"></circle><circle r="3" cx="465" cy="598" opacity="0.96"></circle><circle r="3" cx="434" cy="248" opacity="0.14"></circle><circle r="3" cx="746" cy="84" opacity="0.23"></circle><circle r="3" cx="1018" cy="312" opacity="0.84"></circle><circle r="3" cx="910" cy="651" opacity="0.82"></circle><circle r="3" cx="554" cy="680" opacity="0.13"></circle><circle r="3" cx="391" cy="362" opacity="0.14"></circle><circle r="3" cx="624" cy="88" opacity="0.76"></circle><circle r="3" cx="967" cy="200" opacity="0.95"></circle><circle r="3" cx="994" cy="561" opacity="0.40"></circle><circle r="3" cx="670" cy="725" opacity="0.51"></circle><circle r="3" cx="394" cy="486" opacity="0.24"></circle><circle r="3" cx="510" cy="139" opacity="0.55"></circle><circle r="3" cx="877" cy="114" opacity="0.40"></circle><circle r="3" cx="1040" cy="444" opacity="0.69"></circle><circle r="3" cx="795" cy="722" opacity="0.70"></circle><circle r="3" cx="444" cy="602" opacity="0.23"></circle><circle r="3" cx="422" cy="230" opacity="0.32"></circle><circle r="3" cx="759" cy="67" opacity="0.84"></circle><circle r="3" cx="1038" cy="317" opacity="0.54"></circle><circle r="3" cx="913" cy="672" opacity="0.12"></circle><circle r="3" cx="536" cy="692" opacity="0.15"></circle><circle r="3" cx="374" cy="349" opacity="0.62"></circle><circle r="3" cx="629" cy="67" opacity="0.74"></circle><circle r="3.5" cx="988" cy="197" opacity="0.96"></circle><circle r="3.5" cx="1005" cy="580" opacity="0.42"></circle><circle r="3.5" cx="657" cy="742" opacity="0.68"></circle><circle r="3.5" cx="373" cy="480" opacity="0.86"></circle><circle r="3.5" cx="507" cy="117" opacity="0.83"></circle><circle r="3.5" cx="895" cy="103" opacity="0.33"></circle><circle r="3.5" cx="1057" cy="458" opacity="0.70"></circle><circle r="3.5" cx="790" cy="743" opacity="0.72"></circle><circle r="3.5" cx="423" cy="604" opacity="0.49"></circle><circle r="3.5" cx="411" cy="211" opacity="0.70"></circle><circle r="3.5" cx="772" cy="50" opacity="0.24"></circle><circle r="3.5" cx="1059" cy="323" opacity="0.54"></circle><circle r="3.5" cx="916" cy="693" opacity="0.98"></circle><circle r="3.5" cx="517" cy="702" opacity="0.88"></circle><circle r="3.5" cx="357" cy="336" opacity="0.13"></circle><circle r="3.5" cx="635" cy="47" opacity="0.63"></circle><circle r="3.5" cx="1010" cy="195" opacity="1.00"></circle><circle r="3.5" cx="1016" cy="599" opacity="0.65"></circle><circle r="3.5" cx="643" cy="758" opacity="0.90"></circle><circle r="3.5" cx="352" cy="474" opacity="0.68"></circle><circle r="3.5" cx="505" cy="96" opacity="0.86"></circle><circle r="3.5" cx="915" cy="93" opacity="0.53"></circle><circle r="3.5" cx="1074" cy="472" opacity="0.40"></circle><circle r="3.5" cx="783" cy="764" opacity="0.73"></circle><circle r="3.5" cx="401" cy="606" opacity="0.68"></circle><circle r="3.5" cx="402" cy="191" opacity="0.38"></circle><circle r="3.5" cx="786" cy="33" opacity="0.50"></circle><circle r="3.5" cx="1080" cy="330" opacity="0.14"></circle><circle r="3.5" cx="917" cy="715" opacity="0.53"></circle><circle r="3.5" cx="497" cy="712" opacity="0.66"></circle><circle r="3.5" cx="340" cy="321" opacity="0.48"></circle><circle r="3.5" cx="643" cy="26" opacity="0.57"></circle><circle r="3.5" cx="1032" cy="194" opacity="0.85"></circle><circle r="3.5" cx="1025" cy="619" opacity="0.69"></circle><circle r="3.5" cx="628" cy="775" opacity="0.41"></circle><circle r="3.5" cx="332" cy="466" opacity="0.58"></circle><circle r="3.5" cx="505" cy="74" opacity="0.47"></circle><circle r="3.5" cx="935" cy="84" opacity="0.59"></circle><circle r="3.5" cx="1090" cy="487" opacity="0.91"></circle><circle r="3.5" cx="775" cy="784" opacity="0.36"></circle><circle r="3.5" cx="379" cy="606" opacity="0.95"></circle><circle r="3.5" cx="393" cy="171" opacity="0.96"></circle><circle r="3.5" cx="802" cy="17" opacity="0.42"></circle><circle r="3.5" cx="1101" cy="338" opacity="0.77"></circle><circle r="3.5" cx="917" cy="738" opacity="0.81"></circle><circle r="3.5" cx="477" cy="720" opacity="0.48"></circle><circle r="3.5" cx="325" cy="305" opacity="0.84"></circle><circle r="3.5" cx="651" cy="5" opacity="0.82"></circle><circle r="3.5" cx="1054" cy="194" opacity="0.20"></circle><circle r="4" cx="1033" cy="640" opacity="0.37"></circle><circle r="4" cx="612" cy="790" opacity="0.37"></circle><circle r="4" cx="311" cy="457" opacity="0.67"></circle><circle r="4" cx="505" cy="51" opacity="0.56"></circle><circle r="4" cx="956" cy="76" opacity="0.10"></circle><circle r="4" cx="1105" cy="503" opacity="0.37"></circle><circle r="4" cx="766" cy="805" opacity="0.36"></circle><circle r="4" cx="357" cy="606" opacity="0.71"></circle><circle r="4" cx="385" cy="150" opacity="0.74"></circle><circle r="4" cx="818" cy="2" opacity="0.22"></circle><circle r="4" cx="1121" cy="348" opacity="0.64"></circle><circle r="4" cx="916" cy="760" opacity="0.54"></circle><circle r="4" cx="455" cy="728" opacity="0.27"></circle><circle r="4" cx="309" cy="288" opacity="0.42"></circle><circle r="4" cx="661" cy="-15" opacity="0.20"></circle><circle r="4" cx="1077" cy="195" opacity="0.13"></circle><circle r="4" cx="1041" cy="661" opacity="0.12"></circle><circle r="4" cx="595" cy="805" opacity="0.93"></circle><circle r="4" cx="291" cy="447" opacity="0.51"></circle><circle r="4" cx="507" cy="29" opacity="0.58"></circle><circle r="4" cx="977" cy="69" opacity="0.85"></circle><circle r="4" cx="1120" cy="520" opacity="0.22"></circle><circle r="4" cx="755" cy="825" opacity="0.17"></circle><circle r="4" cx="334" cy="604" opacity="0.55"></circle><circle r="4" cx="378" cy="128" opacity="0.22"></circle><circle r="4" cx="836" cy="-12" opacity="0.77"></circle><circle r="4" cx="1141" cy="358" opacity="0.76"></circle><circle r="4" cx="914" cy="783" opacity="0.40"></circle><circle r="4" cx="434" cy="734" opacity="0.97"></circle><circle r="4" cx="295" cy="270" opacity="0.93"></circle><circle r="4" cx="672" cy="-35" opacity="0.58"></circle><circle r="4" cx="1100" cy="198" opacity="0.33"></circle><circle r="4" cx="1047" cy="683" opacity="0.98"></circle><circle r="4" cx="577" cy="820" opacity="0.37"></circle><circle r="4" cx="271" cy="436" opacity="0.27"></circle><circle r="4" cx="510" cy="6" opacity="0.11"></circle><circle r="4" cx="1000" cy="63" opacity="0.65"></circle><circle r="4" cx="1134" cy="539" opacity="0.21"></circle><circle r="4" cx="744" cy="845" opacity="0.61"></circle><circle r="4" cx="311" cy="600" opacity="0.76"></circle><circle r="4" cx="372" cy="106" opacity="0.74"></circle><circle r="4" cx="854" cy="-26" opacity="0.65"></circle><circle r="4" cx="1161" cy="370" opacity="0.91"></circle><circle r="4" cx="911" cy="806" opacity="0.69"></circle><circle r="4" cx="411" cy="740" opacity="0.48"></circle><circle r="4" cx="281" cy="252" opacity="0.74"></circle><circle r="4" cx="684" cy="-55" opacity="0.98"></circle><circle r="4" cx="1123" cy="202" opacity="0.16"></circle><circle r="4.5" cx="1052" cy="706" opacity="0.13"></circle><circle r="4.5" cx="558" cy="833" opacity="0.98"></circle><circle r="4.5" cx="251" cy="423" opacity="0.17"></circle><circle r="4.5" cx="514" cy="-17" opacity="0.87"></circle><circle r="4.5" cx="1022" cy="58" opacity="0.23"></circle><circle r="4.5" cx="1147" cy="558" opacity="0.78"></circle><circle r="4.5" cx="731" cy="865" opacity="0.98"></circle><circle r="4.5" cx="288" cy="596" opacity="0.97"></circle><circle r="4.5" cx="368" cy="83" opacity="0.69"></circle><circle r="4.5" cx="874" cy="-39" opacity="0.55"></circle><circle r="4.5" cx="1181" cy="383" opacity="0.24"></circle><circle r="4.5" cx="906" cy="829" opacity="0.59"></circle><circle r="4.5" cx="388" cy="744" opacity="0.91"></circle><circle r="4.5" cx="268" cy="232" opacity="0.16"></circle><circle r="4.5" cx="698" cy="-74" opacity="0.35"></circle><circle r="4.5" cx="1146" cy="206" opacity="0.74"></circle><circle r="4.5" cx="1056" cy="729" opacity="0.79"></circle><circle r="4.5" cx="538" cy="846" opacity="0.77"></circle><circle r="4.5" cx="232" cy="410" opacity="0.20"></circle><circle r="4.5" cx="519" cy="-40" opacity="0.91"></circle><circle r="4.5" cx="1046" cy="54" opacity="0.69"></circle><circle r="4.5" cx="1160" cy="578" opacity="0.23"></circle><circle r="4.5" cx="717" cy="884" opacity="0.84"></circle><circle r="4.5" cx="265" cy="591" opacity="0.83"></circle><circle r="4.5" cx="364" cy="59" opacity="0.15"></circle><circle r="4.5" cx="894" cy="-52" opacity="0.60"></circle><circle r="4.5" cx="1200" cy="397" opacity="0.95"></circle><circle r="4.5" cx="900" cy="852" opacity="0.16"></circle><circle r="4.5" cx="364" cy="748" opacity="0.57"></circle><circle r="4.5" cx="256" cy="211" opacity="0.26"></circle><circle r="4.5" cx="712" cy="-94" opacity="0.67"></circle><circle r="4.5" cx="1169" cy="213" opacity="0.30"></circle><circle r="4.5" cx="1059" cy="753" opacity="0.63"></circle><circle r="4.5" cx="517" cy="858" opacity="0.70"></circle><circle r="4.5" cx="213" cy="395" opacity="0.37"></circle><circle r="4.5" cx="525" cy="-64" opacity="0.74"></circle><circle r="4.5" cx="1070" cy="51" opacity="0.85"></circle><circle r="4.5" cx="1172" cy="599" opacity="0.34"></circle><circle r="4.5" cx="702" cy="903" opacity="0.64"></circle><circle r="4.5" cx="242" cy="584" opacity="0.56"></circle><circle r="4.5" cx="361" cy="35" opacity="0.19"></circle><circle r="4.5" cx="916" cy="-63" opacity="0.18"></circle><circle r="4.5" cx="1219" cy="413" opacity="0.81"></circle><circle r="4.5" cx="893" cy="875" opacity="0.59"></circle><circle r="4.5" cx="340" cy="750" opacity="0.34"></circle><circle r="4.5" cx="245" cy="190" opacity="0.95"></circle><circle r="4.5" cx="728" cy="-112" opacity="0.38"></circle><circle r="4.5" cx="1192" cy="220" opacity="0.75"></circle><circle r="4.5" cx="1061" cy="777" opacity="0.15"></circle><circle r="5" cx="495" cy="869" opacity="0.49"></circle><circle r="5" cx="194" cy="379" opacity="0.13"></circle><circle r="5" cx="533" cy="-87" opacity="0.78"></circle><circle r="5" cx="1094" cy="49" opacity="0.57"></circle><circle r="5" cx="1182" cy="621" opacity="0.43"></circle><circle r="5" cx="686" cy="921" opacity="0.78"></circle><circle r="5" cx="218" cy="576" opacity="0.25"></circle><circle r="5" cx="360" cy="11" opacity="0.46"></circle><circle r="5" cx="938" cy="-74" opacity="0.52"></circle><circle r="5" cx="1237" cy="429" opacity="0.60"></circle><circle r="5" cx="885" cy="898" opacity="0.92"></circle><circle r="5" cx="315" cy="751" opacity="0.42"></circle><circle r="5" cx="235" cy="168" opacity="0.25"></circle><circle r="5" cx="745" cy="-130" opacity="0.31"></circle><circle r="5" cx="1215" cy="229" opacity="0.49"></circle><circle r="5" cx="1062" cy="802" opacity="0.73"></circle><circle r="5" cx="473" cy="879" opacity="0.38"></circle><circle r="5" cx="176" cy="362" opacity="0.73"></circle><circle r="5" cx="542" cy="-110" opacity="0.15"></circle><circle r="5" cx="1119" cy="49" opacity="0.51"></circle><circle r="5" cx="1192" cy="644" opacity="0.37"></circle><circle r="5" cx="669" cy="939" opacity="0.98"></circle><circle r="5" cx="195" cy="567" opacity="0.62"></circle><circle r="5" cx="360" cy="-14" opacity="0.98"></circle><circle r="5" cx="961" cy="-84" opacity="0.69"></circle><circle r="5" cx="1254" cy="447" opacity="0.30"></circle><circle r="5" cx="875" cy="921" opacity="0.19"></circle><circle r="5" cx="290" cy="751" opacity="0.40"></circle><circle r="5" cx="225" cy="144" opacity="0.64"></circle><circle r="5" cx="762" cy="-148" opacity="0.68"></circle><circle r="5" cx="1238" cy="239" opacity="0.50"></circle><circle r="5" cx="1062" cy="827" opacity="0.91"></circle><circle r="5" cx="449" cy="888" opacity="0.22"></circle><circle r="5" cx="159" cy="344" opacity="0.67"></circle><circle r="5" cx="552" cy="-133" opacity="0.56"></circle><circle r="5" cx="1144" cy="49" opacity="0.21"></circle><circle r="5" cx="1201" cy="668" opacity="0.51"></circle><circle r="5" cx="650" cy="956" opacity="0.67"></circle><circle r="5" cx="172" cy="556" opacity="0.58"></circle><circle r="5" cx="361" cy="-40" opacity="0.31"></circle><circle r="5" cx="985" cy="-92" opacity="0.65"></circle><circle r="5" cx="1271" cy="466" opacity="0.98"></circle><circle r="5" cx="864" cy="944" opacity="0.69"></circle><circle r="5" cx="265" cy="750" opacity="0.76"></circle><circle r="5" cx="217" cy="120" opacity="0.55"></circle><circle r="5" cx="781" cy="-165" opacity="0.66"></circle><circle r="5" cx="1261" cy="250" opacity="0.67"></circle><circle r="5" cx="1060" cy="852" opacity="0.85"></circle><circle r="5" cx="425" cy="896" opacity="0.35"></circle><circle r="5.5" cx="142" cy="325" opacity="0.60"></circle><circle r="5.5" cx="564" cy="-156" opacity="0.18"></circle><circle r="5.5" cx="1170" cy="51" opacity="0.57"></circle><circle r="5.5" cx="1209" cy="692" opacity="0.23"></circle><circle r="5.5" cx="631" cy="973" opacity="0.63"></circle><circle r="5.5" cx="150" cy="544" opacity="0.79"></circle><circle r="5.5" cx="363" cy="-65" opacity="0.50"></circle><circle r="5.5" cx="1009" cy="-100" opacity="0.31"></circle><circle r="5.5" cx="1288" cy="485" opacity="0.34"></circle><circle r="5.5" cx="852" cy="967" opacity="0.59"></circle><circle r="5.5" cx="239" cy="747" opacity="0.81"></circle><circle r="5.5" cx="209" cy="96" opacity="0.14"></circle><circle r="5.5" cx="802" cy="-181" opacity="0.99"></circle><circle r="5.5" cx="1284" cy="262" opacity="0.59"></circle><circle r="5.5" cx="1057" cy="878" opacity="0.75"></circle><circle r="5.5" cx="400" cy="903" opacity="0.23"></circle><circle r="5.5" cx="126" cy="304" opacity="0.40"></circle><circle r="5.5" cx="576" cy="-178" opacity="0.19"></circle><circle r="5.5" cx="1195" cy="55" opacity="0.13"></circle><circle r="5.5" cx="1216" cy="717" opacity="0.34"></circle><circle r="5.5" cx="610" cy="989" opacity="0.40"></circle><circle r="5.5" cx="127" cy="531" opacity="0.97"></circle><circle r="5.5" cx="367" cy="-91" opacity="0.20"></circle><circle r="5.5" cx="1034" cy="-106" opacity="0.21"></circle><circle r="5.5" cx="1304" cy="506" opacity="0.23"></circle><circle r="5.5" cx="839" cy="990" opacity="0.82"></circle><circle r="5.5" cx="214" cy="743" opacity="0.92"></circle><circle r="5.5" cx="203" cy="70" opacity="0.26"></circle><circle r="5.5" cx="823" cy="-196" opacity="0.93"></circle><circle r="5.5" cx="1306" cy="276" opacity="0.31"></circle><circle r="5.5" cx="1053" cy="904" opacity="0.49"></circle><circle r="5.5" cx="375" cy="909" opacity="0.44"></circle><circle r="5.5" cx="111" cy="283" opacity="0.13"></circle><circle r="5.5" cx="590" cy="-201" opacity="0.21"></circle><circle r="5.5" cx="1221" cy="59" opacity="0.51"></circle><circle r="5.5" cx="1222" cy="743" opacity="0.75"></circle><circle r="5.5" cx="588" cy="1004" opacity="0.54"></circle><circle r="5.5" cx="105" cy="517" opacity="0.48"></circle><circle r="5.5" cx="371" cy="-117" opacity="0.85"></circle><circle r="5.5" cx="1060" cy="-112" opacity="0.20"></circle><circle r="5.5" cx="1319" cy="528" opacity="0.32"></circle><circle r="5.5" cx="824" cy="1012" opacity="0.75"></circle><circle r="5.5" cx="187" cy="738" opacity="0.14"></circle><circle r="5.5" cx="198" cy="44" opacity="0.52"></circle><circle r="5.5" cx="845" cy="-211" opacity="0.49"></circle><circle r="5.5" cx="1328" cy="291" opacity="0.89"></circle><circle r="5.5" cx="1048" cy="930" opacity="0.11"></circle><circle r="5.5" cx="349" cy="914" opacity="0.75"></circle><circle r="6" cx="96" cy="261" opacity="0.93"></circle><circle r="6" cx="606" cy="-223" opacity="0.11"></circle><circle r="6" cx="1248" cy="65" opacity="0.47"></circle><circle r="6" cx="1226" cy="769" opacity="0.63"></circle><circle r="6" cx="566" cy="1018" opacity="0.86"></circle><circle r="6" cx="83" cy="501" opacity="0.52"></circle><circle r="6" cx="377" cy="-143" opacity="0.36"></circle><circle r="6" cx="1087" cy="-116" opacity="0.12"></circle><circle r="6" cx="1333" cy="551" opacity="0.90"></circle><circle r="6" cx="808" cy="1034" opacity="0.14"></circle><circle r="6" cx="161" cy="732" opacity="0.39"></circle><circle r="6" cx="194" cy="17" opacity="0.60"></circle><circle r="6" cx="868" cy="-225" opacity="0.22"></circle><circle r="6" cx="1350" cy="307" opacity="0.86"></circle><circle r="6" cx="1041" cy="956" opacity="0.64"></circle><circle r="6" cx="322" cy="918" opacity="0.54"></circle><circle r="6" cx="82" cy="237" opacity="0.19"></circle><circle r="6" cx="622" cy="-244" opacity="0.77"></circle><circle r="6" cx="1274" cy="72" opacity="0.24"></circle><circle r="6" cx="1230" cy="796" opacity="0.20"></circle><circle r="6" cx="542" cy="1032" opacity="0.33"></circle><circle r="6" cx="61" cy="485" opacity="0.18"></circle><circle r="6" cx="385" cy="-169" opacity="0.20"></circle><circle r="6" cx="1114" cy="-120" opacity="0.10"></circle><circle r="6" cx="1346" cy="575" opacity="0.69"></circle><circle r="6" cx="791" cy="1055" opacity="0.31"></circle><circle r="6" cx="135" cy="724" opacity="0.10"></circle><circle r="6" cx="191" cy="-10" opacity="0.34"></circle><circle r="6" cx="892" cy="-238" opacity="0.45"></circle><circle r="6" cx="1371" cy="324" opacity="0.30"></circle><circle r="6" cx="1033" cy="983" opacity="0.11"></circle><circle r="6" cx="294" cy="921" opacity="0.81"></circle><circle r="6" cx="70" cy="213" opacity="0.84"></circle><circle r="6" cx="640" cy="-266" opacity="0.79"></circle><circle r="6" cx="1300" cy="80" opacity="0.81"></circle><circle r="6" cx="1232" cy="824" opacity="0.15"></circle><circle r="6" cx="518" cy="1044" opacity="0.38"></circle><circle r="6" cx="40" cy="467" opacity="0.35"></circle><circle r="6" cx="393" cy="-196" opacity="0.48"></circle><circle r="6" cx="1142" cy="-122" opacity="0.30"></circle><circle r="6" cx="1359" cy="600" opacity="0.97"></circle><circle r="6" cx="773" cy="1076" opacity="0.97"></circle><circle r="6" cx="109" cy="715" opacity="0.17"></circle><circle r="6" cx="189" cy="-38" opacity="0.66"></circle><circle r="6" cx="917" cy="-250" opacity="0.78"></circle><circle r="6" cx="1392" cy="343" opacity="0.51"></circle><circle r="6" cx="1024" cy="1009" opacity="0.66"></circle><circle r="6" cx="266" cy="922" opacity="0.42"></circle><circle r="6" cx="58" cy="188" opacity="0.98"></circle><circle r="6.5" cx="658" cy="-286" opacity="0.76"></circle><circle r="6.5" cx="1327" cy="90" opacity="0.31"></circle><circle r="6.5" cx="1233" cy="852" opacity="0.94"></circle><circle r="6.5" cx="492" cy="1056" opacity="0.19"></circle><circle r="6.5" cx="20" cy="448" opacity="0.10"></circle><circle r="6.5" cx="403" cy="-222" opacity="0.38"></circle><circle r="6.5" cx="1170" cy="-123" opacity="0.38"></circle><circle r="6.5" cx="1370" cy="625" opacity="0.30"></circle><circle r="6.5" cx="754" cy="1096" opacity="0.43"></circle><circle r="6.5" cx="82" cy="705" opacity="0.33"></circle><circle r="6.5" cx="188" cy="-66" opacity="0.90"></circle><circle r="6.5" cx="943" cy="-262" opacity="0.65"></circle><circle r="6.5" cx="1412" cy="362" opacity="0.50"></circle><circle r="6.5" cx="1013" cy="1035" opacity="0.36"></circle><circle r="6.5" cx="238" cy="922" opacity="0.97"></circle><circle r="6.5" cx="47" cy="161" opacity="0.34"></circle><circle r="6.5" cx="679" cy="-306" opacity="0.34"></circle><circle r="6.5" cx="1353" cy="100" opacity="0.74"></circle><circle r="6.5" cx="1233" cy="880" opacity="0.76"></circle><circle r="6.5" cx="466" cy="1067" opacity="0.89"></circle><circle r="6.5" cx="0" cy="427" opacity="0.83"></circle><circle r="6.5" cx="414" cy="-248" opacity="0.45"></circle><circle r="6.5" cx="1198" cy="-122" opacity="0.28"></circle><circle r="6.5" cx="1380" cy="652" opacity="0.83"></circle><circle r="6.5" cx="733" cy="1116" opacity="0.62"></circle><circle r="6.5" cx="56" cy="694" opacity="0.98"></circle><circle r="6.5" cx="189" cy="-94" opacity="0.30"></circle><circle r="6.5" cx="970" cy="-272" opacity="0.67"></circle><circle r="6.5" cx="1432" cy="383" opacity="0.88"></circle><circle r="6.5" cx="1002" cy="1061" opacity="0.47"></circle><circle r="6.5" cx="209" cy="921" opacity="0.33"></circle><circle r="6.5" cx="37" cy="134" opacity="0.49"></circle><circle r="6.5" cx="700" cy="-326" opacity="0.65"></circle><circle r="6.5" cx="1379" cy="113" opacity="0.81"></circle><circle r="6.5" cx="1232" cy="909" opacity="0.14"></circle><circle r="6.5" cx="438" cy="1077" opacity="0.87"></circle><circle r="6.5" cx="-20" cy="406" opacity="0.68"></circle><circle r="6.5" cx="427" cy="-274" opacity="0.23"></circle><circle r="6.5" cx="1227" cy="-120" opacity="0.82"></circle><circle r="6.5" cx="1390" cy="679" opacity="0.71"></circle><circle r="6.5" cx="711" cy="1135" opacity="0.76"></circle><circle r="6.5" cx="30" cy="681" opacity="0.36"></circle><circle r="6.5" cx="191" cy="-124" opacity="0.55"></circle><circle r="6.5" cx="997" cy="-281" opacity="0.20"></circle><circle r="6.5" cx="1451" cy="405" opacity="0.12"></circle><circle r="6.5" cx="988" cy="1087" opacity="0.92"></circle><circle r="6.5" cx="180" cy="919" opacity="0.39"></circle><circle r="6.5" cx="28" cy="106" opacity="0.32"></circle><circle r="7" cx="722" cy="-345" opacity="0.95"></circle><circle r="7" cx="1405" cy="126" opacity="0.79"></circle><circle r="7" cx="1229" cy="938" opacity="0.71"></circle><circle r="7" cx="410" cy="1085" opacity="0.29"></circle><circle r="7" cx="-38" cy="383" opacity="0.35"></circle><circle r="7" cx="441" cy="-300" opacity="0.25"></circle><circle r="7" cx="1257" cy="-118" opacity="0.98"></circle><circle r="7" cx="1398" cy="708" opacity="0.63"></circle><circle r="7" cx="688" cy="1154" opacity="0.35"></circle><circle r="7" cx="4" cy="667" opacity="0.71"></circle><circle r="7" cx="194" cy="-153" opacity="0.33"></circle><circle r="7" cx="1026" cy="-289" opacity="0.21"></circle><circle r="7" cx="1469" cy="429" opacity="0.98"></circle><circle r="7" cx="974" cy="1113" opacity="0.86"></circle><circle r="7" cx="151" cy="916" opacity="0.38"></circle><circle r="7" cx="20" cy="78" opacity="0.89"></circle><circle r="7" cx="746" cy="-363" opacity="0.27"></circle><circle r="7" cx="1431" cy="141" opacity="0.23"></circle><circle r="7" cx="1225" cy="968" opacity="0.76"></circle><circle r="7" cx="382" cy="1093" opacity="0.61"></circle><circle r="7" cx="-56" cy="359" opacity="0.81"></circle><circle r="7" cx="456" cy="-326" opacity="0.12"></circle><circle r="7" cx="1286" cy="-113" opacity="0.98"></circle><circle r="7" cx="1406" cy="737" opacity="0.47"></circle><circle r="7" cx="664" cy="1172" opacity="0.54"></circle><circle r="7" cx="-22" cy="651" opacity="0.41"></circle><circle r="7" cx="199" cy="-183" opacity="0.64"></circle><circle r="7" cx="1055" cy="-296" opacity="0.40"></circle><circle r="7" cx="1487" cy="453" opacity="0.80"></circle><circle r="7" cx="958" cy="1139" opacity="0.75"></circle><circle r="7" cx="121" cy="911" opacity="0.83"></circle><circle r="7" cx="13" cy="48" opacity="0.18"></circle><circle r="7" cx="770" cy="-380" opacity="0.31"></circle><circle r="7" cx="1456" cy="157" opacity="0.55"></circle><circle r="7" cx="1220" cy="997" opacity="0.48"></circle><circle r="7" cx="352" cy="1099" opacity="0.37"></circle><circle r="7" cx="-74" cy="334" opacity="0.77"></circle><circle r="7" cx="472" cy="-352" opacity="0.44"></circle><circle r="7" cx="1316" cy="-108" opacity="0.61"></circle><circle r="7" cx="1412" cy="766" opacity="0.83"></circle><circle r="7" cx="639" cy="1189" opacity="0.48"></circle><circle r="7" cx="-47" cy="634" opacity="0.89"></circle><circle r="7" cx="205" cy="-212" opacity="0.77"></circle><circle r="7" cx="1085" cy="-302" opacity="0.31"></circle><circle r="7" cx="1504" cy="478" opacity="0.31"></circle><circle r="7" cx="941" cy="1164" opacity="0.35"></circle><circle r="7" cx="91" cy="904" opacity="0.48"></circle><circle r="7" cx="8" cy="18" opacity="0.70"></circle><circle r="7" cx="796" cy="-397" opacity="0.96"></circle><circle r="7.5" cx="1481" cy="175" opacity="0.51"></circle><circle r="7.5" cx="1214" cy="1027" opacity="0.96"></circle><circle r="7.5" cx="322" cy="1105" opacity="0.92"></circle><circle r="7.5" cx="-90" cy="308" opacity="0.12"></circle><circle r="7.5" cx="490" cy="-377" opacity="0.76"></circle><circle r="7.5" cx="1346" cy="-101" opacity="0.99"></circle><circle r="7.5" cx="1417" cy="797" opacity="0.47"></circle><circle r="7.5" cx="613" cy="1205" opacity="0.95"></circle><circle r="7.5" cx="-72" cy="616" opacity="0.25"></circle><circle r="7.5" cx="212" cy="-242" opacity="0.80"></circle><circle r="7.5" cx="1116" cy="-307" opacity="0.40"></circle><circle r="7.5" cx="1520" cy="505" opacity="0.13"></circle><circle r="7.5" cx="922" cy="1189" opacity="0.54"></circle><circle r="7.5" cx="61" cy="897" opacity="0.93"></circle><circle r="7.5" cx="3" cy="-12" opacity="0.76"></circle><circle r="7.5" cx="823" cy="-413" opacity="0.26"></circle><circle r="7.5" cx="1506" cy="193" opacity="0.52"></circle><circle r="7.5" cx="1206" cy="1058" opacity="0.70"></circle><circle r="7.5" cx="291" cy="1109" opacity="0.67"></circle><circle r="7.5" cx="-106" cy="281" opacity="0.88"></circle><circle r="7.5" cx="509" cy="-401" opacity="0.56"></circle><circle r="7.5" cx="1376" cy="-92" opacity="0.25"></circle><circle r="7.5" cx="1421" cy="828" opacity="0.28"></circle><circle r="7.5" cx="585" cy="1220" opacity="0.70"></circle><circle r="7.5" cx="-96" cy="597" opacity="0.51"></circle><circle r="7.5" cx="221" cy="-273" opacity="0.61"></circle><circle r="7.5" cx="1147" cy="-310" opacity="0.58"></circle><circle r="7.5" cx="1535" cy="533" opacity="0.38"></circle><circle r="7.5" cx="903" cy="1213" opacity="0.38"></circle><circle r="7.5" cx="31" cy="888" opacity="0.43"></circle><circle r="7.5" cx="0" cy="-44" opacity="0.13"></circle><circle r="7.5" cx="851" cy="-428" opacity="0.57"></circle><circle r="7.5" cx="1531" cy="214" opacity="0.25"></circle><circle r="7.5" cx="1196" cy="1088" opacity="0.65"></circle><circle r="7.5" cx="259" cy="1112" opacity="0.36"></circle><circle r="7.5" cx="-120" cy="253" opacity="0.26"></circle><circle r="7.5" cx="530" cy="-426" opacity="0.57"></circle><circle r="7.5" cx="1406" cy="-83" opacity="0.90"></circle><circle r="7.5" cx="1423" cy="860" opacity="0.39"></circle><circle r="7.5" cx="557" cy="1235" opacity="0.82"></circle><circle r="7.5" cx="-120" cy="576" opacity="0.43"></circle><circle r="7.5" cx="231" cy="-303" opacity="0.79"></circle><circle r="7.5" cx="1179" cy="-313" opacity="0.30"></circle><circle r="7.5" cx="1549" cy="561" opacity="0.54"></circle><circle r="7.5" cx="881" cy="1237" opacity="0.80"></circle><circle r="7.5" cx="1" cy="877" opacity="0.47"></circle><circle r="7.5" cx="-2" cy="-76" opacity="0.53"></circle><circle r="7.5" cx="879" cy="-441" opacity="0.33"></circle><circle r="7.5" cx="1554" cy="235" opacity="0.45"></circle><circle r="8" cx="1185" cy="1118" opacity="0.92"></circle><circle r="8" cx="227" cy="1113" opacity="0.41"></circle><circle r="8" cx="-134" cy="224" opacity="0.28"></circle><circle r="8" cx="552" cy="-449" opacity="0.28"></circle><circle r="8" cx="1436" cy="-72" opacity="0.16"></circle><circle r="8" cx="1424" cy="892" opacity="0.11"></circle><circle r="8" cx="528" cy="1248" opacity="0.90"></circle><circle r="8" cx="-144" cy="554" opacity="0.16"></circle><circle r="8" cx="242" cy="-333" opacity="0.52"></circle><circle r="8" cx="1211" cy="-313" opacity="0.57"></circle><circle r="8" cx="1562" cy="591" opacity="0.81"></circle><circle r="8" cx="859" cy="1261" opacity="0.33"></circle><circle r="8" cx="-30" cy="865" opacity="0.90"></circle><circle r="8" cx="-2" cy="-108" opacity="0.70"></circle><circle r="8" cx="909" cy="-454" opacity="0.42"></circle><circle r="8" cx="1578" cy="258" opacity="0.42"></circle><circle r="8" cx="1173" cy="1148" opacity="0.74"></circle><circle r="8" cx="195" cy="1113" opacity="0.68"></circle><circle r="8" cx="-146" cy="194" opacity="0.79"></circle><circle r="8" cx="575" cy="-472" opacity="0.99"></circle><circle r="8" cx="1467" cy="-59" opacity="0.94"></circle><circle r="8" cx="1424" cy="924" opacity="0.69"></circle><circle r="8" cx="497" cy="1260" opacity="0.84"></circle><circle r="8" cx="-167" cy="530" opacity="0.35"></circle></g></svg>