<svg xmlns="http://www.w3.org/2000/svg" version="1.1" xmlns:xlink="http://www.w3.org/1999/xlink" xmlns:svgjs="http://svgjs.dev/svgjs" viewBox="0 0 1422 800"><g fill="hsl(10, 75%, 40%)" transform="matrix(3.2,0,0,3.2,-1533.4,-869)"><circle r="0.5" cx="716" cy="400" opacity="0.17"></circle><circle r="0.5" cx="712" cy="406" opacity="0.81"></circle><circle r="0.5" cx="703" cy="402" opacity="0.76"></circle><circle r="0.5" cx="708" cy="391" opacity="0.67"></circle><circle r="0.5" cx="721" cy="395" opacity="0.45"></circle><circle r="0.5" cx="717" cy="410" opacity="0.75"></circle><circle r="0.5" cx="700" cy="408" opacity="0.51"></circle><circle r="0.5" cx="700" cy="389" opacity="0.14"></circle><circle r="0.5" cx="722" cy="387" opacity="0.99"></circle><circle r="0.5" cx="726" cy="410" opacity="0.75"></circle><circle r="0.5" cx="702" cy="418" opacity="0.18"></circle><circle r="0.5" cx="691" cy="393" opacity="0.38"></circle><circle r="0.5" cx="716" cy="378" opacity="0.88"></circle><circle r="0.5" cx="735" cy="403" opacity="0.11"></circle><circle r="0.5" cx="711" cy="425" opacity="0.34"></circle><circle r="0.5" cx="684" cy="402" opacity="0.84"></circle><circle r="0.5" cx="705" cy="372" opacity="0.26"></circle><circle r="0.5" cx="739" cy="391" opacity="0.85"></circle><circle r="1" cx="724" cy="429" opacity="0.76"></circle><circle r="1" cx="683" cy="417" opacity="0.16"></circle><circle r="1" cx="690" cy="373" opacity="0.58"></circle><circle r="1" cx="737" cy="376" opacity="0.11"></circle><circle r="1" cx="739" cy="424" opacity="0.12"></circle><circle r="1" cx="689" cy="432" opacity="0.41"></circle><circle r="1" cx="676" cy="381" opacity="0.14"></circle><circle r="1" cx="726" cy="361" opacity="0.65"></circle><circle r="1" cx="753" cy="411" opacity="0.91"></circle><circle r="1" cx="704" cy="444" opacity="0.93"></circle><circle r="1" cx="665" cy="398" opacity="0.22"></circle><circle r="1" cx="708" cy="353" opacity="0.97"></circle><circle r="1" cx="759" cy="391" opacity="0.80"></circle><circle r="1" cx="726" cy="448" opacity="0.28"></circle><circle r="1" cx="663" cy="420" opacity="0.39"></circle><circle r="1" cx="685" cy="354" opacity="0.83"></circle><circle r="1" cx="755" cy="368" opacity="0.74"></circle><circle r="1" cx="749" cy="442" opacity="0.54"></circle><circle r="1" cx="673" cy="443" opacity="0.15"></circle><circle r="1" cx="663" cy="366" opacity="0.64"></circle><circle r="1" cx="740" cy="347" opacity="0.23"></circle><circle r="1" cx="768" cy="424" opacity="0.77"></circle><circle r="1" cx="693" cy="461" opacity="0.20"></circle><circle r="1" cx="647" cy="389" opacity="0.30"></circle><circle r="1" cx="715" cy="334" opacity="0.16"></circle><circle r="1" cx="779" cy="396" opacity="0.77"></circle><circle r="1" cx="722" cy="468" opacity="0.22"></circle><circle r="1" cx="643" cy="419" opacity="0.85"></circle><circle r="1" cx="684" cy="333" opacity="0.71"></circle><circle r="1" cx="776" cy="365" opacity="1.00"></circle><circle r="1" cx="754" cy="462" opacity="0.40"></circle><circle r="1" cx="653" cy="450" opacity="0.11"></circle><circle r="1" cx="654" cy="347" opacity="0.16"></circle><circle r="1" cx="758" cy="336" opacity="0.30"></circle><circle r="1.5" cx="781" cy="440" opacity="0.57"></circle><circle r="1.5" cx="678" cy="476" opacity="0.58"></circle><circle r="1.5" cx="631" cy="375" opacity="0.34"></circle><circle r="1.5" cx="727" cy="316" opacity="0.67"></circle><circle r="1.5" cx="797" cy="407" opacity="0.65"></circle><circle r="1.5" cx="714" cy="488" opacity="0.95"></circle><circle r="1.5" cx="622" cy="413" opacity="0.34"></circle><circle r="1.5" cx="688" cy="312" opacity="1.00"></circle><circle r="1.5" cx="798" cy="367" opacity="0.82"></circle><circle r="1.5" cx="754" cy="484" opacity="0.26"></circle><circle r="1.5" cx="631" cy="453" opacity="0.81"></circle><circle r="1.5" cx="649" cy="326" opacity="0.25"></circle><circle r="1.5" cx="779" cy="329" opacity="0.89"></circle><circle r="1.5" cx="790" cy="461" opacity="0.34"></circle><circle r="1.5" cx="659" cy="487" opacity="0.74"></circle><circle r="1.5" cx="618" cy="357" opacity="0.29"></circle><circle r="1.5" cx="744" cy="301" opacity="0.57"></circle><circle r="1.5" cx="814" cy="422" opacity="0.83"></circle><circle r="1.5" cx="700" cy="507" opacity="0.17"></circle><circle r="1.5" cx="602" cy="401" opacity="0.47"></circle><circle r="1.5" cx="697" cy="291" opacity="0.64"></circle><circle r="1.5" cx="820" cy="374" opacity="0.74"></circle><circle r="1.5" cx="749" cy="506" opacity="0.13"></circle><circle r="1.5" cx="608" cy="450" opacity="0.15"></circle><circle r="1.5" cx="649" cy="302" opacity="0.78"></circle><circle r="1.5" cx="802" cy="326" opacity="0.11"></circle><circle r="1.5" cx="795" cy="484" opacity="0.80"></circle><circle r="1.5" cx="636" cy="494" opacity="0.91"></circle><circle r="1.5" cx="608" cy="335" opacity="0.85"></circle><circle r="1.5" cx="765" cy="289" opacity="0.42"></circle><circle r="1.5" cx="829" cy="442" opacity="0.50"></circle><circle r="1.5" cx="682" cy="523" opacity="0.98"></circle><circle r="1.5" cx="584" cy="385" opacity="0.77"></circle><circle r="1.5" cx="712" cy="271" opacity="0.71"></circle><circle r="2" cx="841" cy="386" opacity="0.91"></circle><circle r="2" cx="739" cy="529" opacity="0.91"></circle><circle r="2" cx="585" cy="443" opacity="0.14"></circle><circle r="2" cx="654" cy="278" opacity="0.57"></circle><circle r="2" cx="828" cy="329" opacity="0.73"></circle><circle r="2" cx="795" cy="509" opacity="0.75"></circle><circle r="2" cx="611" cy="497" opacity="0.41"></circle><circle r="2" cx="603" cy="310" opacity="0.34"></circle><circle r="2" cx="789" cy="281" opacity="0.72"></circle><circle r="2" cx="839" cy="465" opacity="0.85"></circle><circle r="2" cx="660" cy="536" opacity="0.11"></circle><circle r="2" cx="569" cy="364" opacity="0.78"></circle><circle r="2" cx="731" cy="253" opacity="0.45"></circle><circle r="2" cx="860" cy="404" opacity="0.45"></circle><circle r="2" cx="724" cy="550" opacity="0.16"></circle><circle r="2" cx="561" cy="430" opacity="0.44"></circle><circle r="2" cx="665" cy="253" opacity="0.30"></circle><circle r="2" cx="853" cy="337" opacity="0.54"></circle><circle r="2" cx="790" cy="536" opacity="0.38"></circle><circle r="2" cx="584" cy="494" opacity="0.51"></circle><circle r="2" cx="602" cy="283" opacity="0.46"></circle><circle r="2" cx="816" cy="278" opacity="0.68"></circle><circle r="2" cx="845" cy="492" opacity="0.57"></circle><circle r="2" cx="634" cy="545" opacity="0.56"></circle><circle r="2" cx="557" cy="339" opacity="0.64"></circle><circle r="2" cx="755" cy="239" opacity="0.33"></circle><circle r="2" cx="877" cy="426" opacity="0.93"></circle><circle r="2" cx="703" cy="570" opacity="0.26"></circle><circle r="2" cx="540" cy="411" opacity="0.53"></circle><circle r="2" cx="681" cy="230" opacity="0.98"></circle><circle r="2" cx="878" cy="351" opacity="0.62"></circle><circle r="2" cx="779" cy="562" opacity="0.20"></circle><circle r="2" cx="556" cy="486" opacity="0.41"></circle><circle r="2" cx="607" cy="254" opacity="0.18"></circle><circle r="2.5" cx="845" cy="280" opacity="0.48"></circle><circle r="2.5" cx="846" cy="521" opacity="0.83"></circle><circle r="2.5" cx="605" cy="549" opacity="0.97"></circle><circle r="2.5" cx="550" cy="310" opacity="0.52"></circle><circle r="2.5" cx="783" cy="229" opacity="0.80"></circle><circle r="2.5" cx="891" cy="453" opacity="0.70"></circle><circle r="2.5" cx="678" cy="586" opacity="0.20"></circle><circle r="2.5" cx="521" cy="387" opacity="0.12"></circle><circle r="2.5" cx="702" cy="208" opacity="0.88"></circle><circle r="2.5" cx="902" cy="370" opacity="0.52"></circle><circle r="2.5" cx="762" cy="588" opacity="0.24"></circle><circle r="2.5" cx="529" cy="472" opacity="0.44"></circle><circle r="2.5" cx="618" cy="225" opacity="0.79"></circle><circle r="2.5" cx="876" cy="288" opacity="0.43"></circle><circle r="2.5" cx="842" cy="552" opacity="0.64"></circle><circle r="2.5" cx="573" cy="548" opacity="0.43"></circle><circle r="2.5" cx="548" cy="278" opacity="0.77"></circle><circle r="2.5" cx="814" cy="223" opacity="0.40"></circle><circle r="2.5" cx="900" cy="484" opacity="0.23"></circle><circle r="2.5" cx="648" cy="598" opacity="0.66"></circle><circle r="2.5" cx="506" cy="359" opacity="0.90"></circle><circle r="2.5" cx="729" cy="190" opacity="0.37"></circle><circle r="2.5" cx="923" cy="395" opacity="0.74"></circle><circle r="2.5" cx="740" cy="612" opacity="0.92"></circle><circle r="2.5" cx="502" cy="453" opacity="0.78"></circle><circle r="2.5" cx="635" cy="197" opacity="0.49"></circle><circle r="2.5" cx="906" cy="302" opacity="0.14"></circle><circle r="2.5" cx="831" cy="584" opacity="0.34"></circle><circle r="2.5" cx="540" cy="541" opacity="0.90"></circle><circle r="2.5" cx="551" cy="245" opacity="0.54"></circle><circle r="2.5" cx="848" cy="223" opacity="0.17"></circle><circle r="2.5" cx="903" cy="518" opacity="0.93"></circle><circle r="2.5" cx="615" cy="606" opacity="0.32"></circle><circle r="2.5" cx="495" cy="327" opacity="0.39"></circle><circle r="3" cx="760" cy="176" opacity="0.64"></circle><circle r="3" cx="941" cy="424" opacity="0.48"></circle><circle r="3" cx="712" cy="633" opacity="0.33"></circle><circle r="3" cx="478" cy="427" opacity="0.31"></circle><circle r="3" cx="658" cy="170" opacity="0.64"></circle><circle r="3" cx="935" cy="321" opacity="0.70"></circle><circle r="3" cx="814" cy="615" opacity="0.93"></circle><circle r="3" cx="508" cy="527" opacity="0.95"></circle><circle r="3" cx="561" cy="211" opacity="0.75"></circle><circle r="3" cx="884" cy="229" opacity="0.29"></circle><circle r="3" cx="901" cy="554" opacity="0.23"></circle><circle r="3" cx="579" cy="607" opacity="0.69"></circle><circle r="3" cx="489" cy="291" opacity="0.60"></circle><circle r="3" cx="796" cy="166" opacity="0.45"></circle><circle r="3" cx="954" cy="458" opacity="0.24"></circle><circle r="3" cx="680" cy="650" opacity="0.71"></circle><circle r="3" cx="458" cy="396" opacity="0.84"></circle><circle r="3" cx="686" cy="147" opacity="0.62"></circle><circle r="3" cx="962" cy="347" opacity="0.16"></circle><circle r="3" cx="792" cy="645" opacity="0.49"></circle><circle r="3" cx="475" cy="508" opacity="0.95"></circle><circle r="3" cx="577" cy="177" opacity="0.81"></circle><circle r="3" cx="919" cy="241" opacity="0.98"></circle><circle r="3" cx="893" cy="591" opacity="0.68"></circle><circle r="3" cx="541" cy="603" opacity="0.13"></circle><circle r="3" cx="489" cy="252" opacity="0.33"></circle><circle r="3" cx="834" cy="162" opacity="0.44"></circle><circle r="3" cx="962" cy="496" opacity="0.59"></circle><circle r="3" cx="643" cy="662" opacity="0.56"></circle><circle r="3" cx="442" cy="361" opacity="0.74"></circle><circle r="3" cx="720" cy="127" opacity="0.97"></circle><circle r="3" cx="985" cy="379" opacity="0.71"></circle><circle r="3" cx="763" cy="672" opacity="0.58"></circle><circle r="3" cx="445" cy="482" opacity="0.99"></circle><circle r="3.5" cx="600" cy="144" opacity="0.76"></circle><circle r="3.5" cx="955" cy="260" opacity="0.69"></circle><circle r="3.5" cx="878" cy="628" opacity="0.27"></circle><circle r="3.5" cx="502" cy="592" opacity="0.39"></circle><circle r="3.5" cx="496" cy="212" opacity="0.42"></circle><circle r="3.5" cx="875" cy="165" opacity="0.88"></circle><circle r="3.5" cx="964" cy="537" opacity="0.31"></circle><circle r="3.5" cx="602" cy="668" opacity="0.83"></circle><circle r="3.5" cx="431" cy="321" opacity="0.55"></circle><circle r="3.5" cx="759" cy="111" opacity="0.42"></circle><circle r="3.5" cx="1005" cy="416" opacity="0.87"></circle><circle r="3.5" cx="728" cy="695" opacity="0.37"></circle><circle r="3.5" cx="418" cy="450" opacity="0.88"></circle><circle r="3.5" cx="629" cy="113" opacity="0.95"></circle><circle r="3.5" cx="988" cy="286" opacity="0.90"></circle><circle r="3.5" cx="856" cy="664" opacity="0.21"></circle><circle r="3.5" cx="463" cy="574" opacity="0.49"></circle><circle r="3.5" cx="510" cy="172" opacity="0.18"></circle><circle r="3.5" cx="917" cy="174" opacity="0.51"></circle><circle r="3.5" cx="960" cy="580" opacity="0.17"></circle><circle r="3.5" cx="559" cy="668" opacity="0.18"></circle><circle r="3.5" cx="426" cy="278" opacity="0.28"></circle><circle r="3.5" cx="802" cy="102" opacity="0.31"></circle><circle r="3.5" cx="1019" cy="457" opacity="0.34"></circle><circle r="3.5" cx="688" cy="714" opacity="0.52"></circle><circle r="3.5" cx="395" cy="412" opacity="0.85"></circle><circle r="3.5" cx="664" cy="86" opacity="0.33"></circle><circle r="3.5" cx="1019" cy="318" opacity="0.34"></circle><circle r="3.5" cx="827" cy="699" opacity="0.49"></circle><circle r="3.5" cx="426" cy="549" opacity="0.51"></circle><circle r="3.5" cx="531" cy="132" opacity="0.16"></circle><circle r="3.5" cx="959" cy="190" opacity="0.90"></circle><circle r="3.5" cx="948" cy="624" opacity="0.59"></circle><circle r="3.5" cx="514" cy="661" opacity="0.88"></circle><circle r="4" cx="428" cy="232" opacity="0.75"></circle><circle r="4" cx="847" cy="99" opacity="0.15"></circle><circle r="4" cx="1027" cy="503" opacity="0.34"></circle><circle r="4" cx="644" cy="727" opacity="0.89"></circle><circle r="4" cx="377" cy="369" opacity="0.83"></circle><circle r="4" cx="705" cy="64" opacity="0.94"></circle><circle r="4" cx="1046" cy="357" opacity="0.38"></circle><circle r="4" cx="792" cy="730" opacity="0.97"></circle><circle r="4" cx="391" cy="517" opacity="0.18"></circle><circle r="4" cx="559" cy="94" opacity="0.75"></circle><circle r="4" cx="1000" cy="214" opacity="0.36"></circle><circle r="4" cx="929" cy="668" opacity="0.17"></circle><circle r="4" cx="468" cy="647" opacity="0.97"></circle><circle r="4" cx="437" cy="185" opacity="0.49"></circle><circle r="4" cx="895" cy="103" opacity="0.75"></circle><circle r="4" cx="1028" cy="551" opacity="0.35"></circle><circle r="4" cx="595" cy="733" opacity="0.18"></circle><circle r="4" cx="366" cy="322" opacity="0.32"></circle><circle r="4" cx="751" cy="47" opacity="0.32"></circle><circle r="4" cx="1068" cy="401" opacity="0.85"></circle><circle r="4" cx="750" cy="756" opacity="0.22"></circle><circle r="4" cx="360" cy="479" opacity="0.87"></circle><circle r="4" cx="594" cy="58" opacity="0.64"></circle><circle r="4" cx="1039" cy="245" opacity="0.45"></circle><circle r="4" cx="902" cy="710" opacity="0.39"></circle><circle r="4" cx="423" cy="625" opacity="0.90"></circle><circle r="4" cx="454" cy="137" opacity="0.41"></circle><circle r="4" cx="944" cy="115" opacity="0.96"></circle><circle r="4" cx="1021" cy="601" opacity="0.64"></circle><circle r="4" cx="545" cy="732" opacity="0.70"></circle><circle r="4" cx="361" cy="271" opacity="0.16"></circle><circle r="4" cx="801" cy="37" opacity="0.88"></circle><circle r="4" cx="1084" cy="449" opacity="0.12"></circle><circle r="4" cx="703" cy="777" opacity="0.87"></circle><circle r="4.5" cx="334" cy="434" opacity="0.17"></circle><circle r="4.5" cx="635" cy="27" opacity="0.92"></circle><circle r="4.5" cx="1074" cy="283" opacity="0.48"></circle><circle r="4.5" cx="868" cy="750" opacity="0.42"></circle><circle r="4.5" cx="380" cy="595" opacity="0.54"></circle><circle r="4.5" cx="479" cy="91" opacity="0.55"></circle><circle r="4.5" cx="993" cy="135" opacity="0.33"></circle><circle r="4.5" cx="1007" cy="652" opacity="0.66"></circle><circle r="4.5" cx="492" cy="723" opacity="0.49"></circle><circle r="4.5" cx="364" cy="218" opacity="0.13"></circle><circle r="4.5" cx="854" cy="34" opacity="0.26"></circle><circle r="4.5" cx="1092" cy="502" opacity="0.85"></circle><circle r="4.5" cx="651" cy="792" opacity="0.56"></circle><circle r="4.5" cx="314" cy="384" opacity="0.94"></circle><circle r="4.5" cx="683" cy="2" opacity="0.64"></circle><circle r="4.5" cx="1105" cy="328" opacity="0.67"></circle><circle r="4.5" cx="827" cy="785" opacity="0.11"></circle><circle r="4.5" cx="340" cy="558" opacity="0.33"></circle><circle r="4.5" cx="512" cy="47" opacity="0.19"></circle><circle r="4.5" cx="1041" cy="163" opacity="0.11"></circle><circle r="4.5" cx="984" cy="703" opacity="0.77"></circle><circle r="4.5" cx="439" cy="706" opacity="0.18"></circle><circle r="4.5" cx="375" cy="163" opacity="0.18"></circle><circle r="4.5" cx="910" cy="39" opacity="0.13"></circle><circle r="4.5" cx="1093" cy="558" opacity="0.42"></circle><circle r="4.5" cx="595" cy="799" opacity="0.46"></circle><circle r="4.5" cx="300" cy="329" opacity="0.21"></circle><circle r="4.5" cx="736" cy="-17" opacity="0.82"></circle><circle r="4.5" cx="1130" cy="379" opacity="0.90"></circle><circle r="4.5" cx="779" cy="816" opacity="0.62"></circle><circle r="4.5" cx="304" cy="513" opacity="0.79"></circle><circle r="4.5" cx="553" cy="7" opacity="0.46"></circle><circle r="4.5" cx="1086" cy="198" opacity="0.50"></circle><circle r="4.5" cx="954" cy="751" opacity="0.45"></circle><circle r="5" cx="388" cy="681" opacity="0.62"></circle><circle r="5" cx="395" cy="109" opacity="0.90"></circle><circle r="5" cx="967" cy="53" opacity="0.13"></circle><circle r="5" cx="1086" cy="616" opacity="0.22"></circle><circle r="5" cx="537" cy="798" opacity="0.11"></circle><circle r="5" cx="295" cy="270" opacity="0.15"></circle><circle r="5" cx="794" cy="-29" opacity="0.63"></circle><circle r="5" cx="1148" cy="435" opacity="1.00"></circle><circle r="5" cx="724" cy="840" opacity="0.13"></circle><circle r="5" cx="274" cy="462" opacity="0.60"></circle><circle r="5" cx="600" cy="-29" opacity="0.96"></circle><circle r="5" cx="1127" cy="242" opacity="0.55"></circle><circle r="5" cx="914" cy="797" opacity="0.17"></circle><circle r="5" cx="338" cy="647" opacity="0.47"></circle><circle r="5" cx="423" cy="55" opacity="0.27"></circle><circle r="5" cx="1023" cy="75" opacity="0.23"></circle><circle r="5" cx="1070" cy="675" opacity="0.30"></circle><circle r="5" cx="477" cy="788" opacity="0.32"></circle><circle r="5" cx="298" cy="210" opacity="0.53"></circle><circle r="5" cx="855" cy="-33" opacity="0.33"></circle><circle r="5" cx="1158" cy="496" opacity="0.57"></circle><circle r="5" cx="665" cy="857" opacity="0.88"></circle><circle r="5" cx="251" cy="405" opacity="0.64"></circle><circle r="5" cx="655" cy="-59" opacity="0.82"></circle><circle r="5" cx="1162" cy="293" opacity="0.78"></circle><circle r="5" cx="867" cy="838" opacity="0.69"></circle><circle r="5" cx="292" cy="605" opacity="0.13"></circle><circle r="5" cx="461" cy="5" opacity="0.17"></circle><circle r="5" cx="1077" cy="106" opacity="0.63"></circle><circle r="5" cx="1044" cy="732" opacity="0.75"></circle><circle r="5" cx="416" cy="769" opacity="0.82"></circle><circle r="5" cx="310" cy="147" opacity="0.43"></circle><circle r="5" cx="918" cy="-27" opacity="0.56"></circle><circle r="5" cx="1160" cy="559" opacity="0.41"></circle><circle r="5.5" cx="602" cy="865" opacity="0.99"></circle><circle r="5.5" cx="235" cy="343" opacity="0.94"></circle><circle r="5.5" cx="715" cy="-81" opacity="0.28"></circle><circle r="5.5" cx="1191" cy="351" opacity="0.61"></circle><circle r="5.5" cx="813" cy="873" opacity="0.99"></circle><circle r="5.5" cx="251" cy="554" opacity="0.15"></circle><circle r="5.5" cx="506" cy="-42" opacity="0.73"></circle><circle r="5.5" cx="1128" cy="147" opacity="0.76"></circle><circle r="5.5" cx="1010" cy="788" opacity="0.14"></circle><circle r="5.5" cx="357" cy="741" opacity="0.42"></circle><circle r="5.5" cx="332" cy="85" opacity="0.32"></circle><circle r="5.5" cx="983" cy="-13" opacity="0.21"></circle><circle r="5.5" cx="1152" cy="625" opacity="0.92"></circle><circle r="5.5" cx="536" cy="865" opacity="0.25"></circle><circle r="5.5" cx="228" cy="277" opacity="0.93"></circle><circle r="5.5" cx="780" cy="-95" opacity="0.38"></circle><circle r="5.5" cx="1212" cy="414" opacity="0.42"></circle><circle r="5.5" cx="752" cy="901" opacity="0.63"></circle><circle r="5.5" cx="216" cy="497" opacity="0.17"></circle><circle r="5.5" cx="560" cy="-83" opacity="0.11"></circle><circle r="5.5" cx="1175" cy="196" opacity="0.68"></circle><circle r="5.5" cx="966" cy="840" opacity="0.60"></circle><circle r="5.5" cx="301" cy="703" opacity="0.29"></circle><circle r="5.5" cx="363" cy="25" opacity="0.64"></circle><circle r="5.5" cx="1047" cy="12" opacity="0.55"></circle><circle r="5.5" cx="1135" cy="691" opacity="0.73"></circle><circle r="5.5" cx="468" cy="855" opacity="0.44"></circle><circle r="5.5" cx="231" cy="208" opacity="0.15"></circle><circle r="5.5" cx="849" cy="-100" opacity="0.63"></circle><circle r="5.5" cx="1225" cy="482" opacity="0.37"></circle><circle r="5.5" cx="686" cy="921" opacity="0.96"></circle><circle r="5.5" cx="189" cy="433" opacity="0.74"></circle><circle r="5.5" cx="620" cy="-117" opacity="0.81"></circle><circle r="5.5" cx="1216" cy="252" opacity="0.30"></circle><circle r="5.5" cx="914" cy="887" opacity="0.24"></circle><circle r="6" cx="248" cy="656" opacity="0.80"></circle><circle r="6" cx="404" cy="-33" opacity="0.46"></circle><circle r="6" cx="1108" cy="46" opacity="0.21"></circle><circle r="6" cx="1108" cy="757" opacity="0.37"></circle><circle r="6" cx="399" cy="835" opacity="0.35"></circle><circle r="6" cx="243" cy="138" opacity="0.78"></circle><circle r="6" cx="920" cy="-95" opacity="0.73"></circle><circle r="6" cx="1228" cy="554" opacity="0.44"></circle><circle r="6" cx="615" cy="932" opacity="0.47"></circle><circle r="6" cx="170" cy="363" opacity="0.91"></circle><circle r="6" cx="688" cy="-143" opacity="0.51"></circle><circle r="6" cx="1250" cy="316" opacity="0.48"></circle><circle r="6" cx="854" cy="928" opacity="0.79"></circle><circle r="6" cx="201" cy="601" opacity="0.95"></circle><circle r="6" cx="454" cy="-86" opacity="0.47"></circle><circle r="6" cx="1167" cy="90" opacity="0.52"></circle><circle r="6" cx="1070" cy="820" opacity="0.60"></circle><circle r="6" cx="333" cy="805" opacity="0.47"></circle><circle r="6" cx="266" cy="68" opacity="0.21"></circle><circle r="6" cx="993" cy="-80" opacity="0.11"></circle><circle r="6" cx="1221" cy="628" opacity="0.67"></circle><circle r="6" cx="541" cy="933" opacity="0.30"></circle><circle r="6" cx="161" cy="290" opacity="0.68"></circle><circle r="6" cx="760" cy="-161" opacity="0.56"></circle><circle r="6" cx="1275" cy="387" opacity="0.34"></circle><circle r="6" cx="787" cy="961" opacity="0.30"></circle><circle r="6" cx="161" cy="538" opacity="0.54"></circle><circle r="6" cx="513" cy="-133" opacity="0.89"></circle><circle r="6" cx="1220" cy="144" opacity="0.48"></circle><circle r="6" cx="1023" cy="879" opacity="0.34"></circle><circle r="6" cx="268" cy="764" opacity="0.18"></circle><circle r="6" cx="299" cy="-1" opacity="0.80"></circle><circle r="6" cx="1064" cy="-55" opacity="0.59"></circle><circle r="6" cx="1203" cy="702" opacity="0.54"></circle><circle r="6.5" cx="465" cy="924" opacity="0.30"></circle><circle r="6.5" cx="162" cy="213" opacity="0.72"></circle><circle r="6.5" cx="837" cy="-168" opacity="0.11"></circle><circle r="6.5" cx="1291" cy="462" opacity="0.65"></circle><circle r="6.5" cx="713" cy="985" opacity="0.84"></circle><circle r="6.5" cx="129" cy="467" opacity="0.54"></circle><circle r="6.5" cx="580" cy="-173" opacity="0.76"></circle><circle r="6.5" cx="1267" cy="206" opacity="0.62"></circle><circle r="6.5" cx="966" cy="932" opacity="0.67"></circle><circle r="6.5" cx="209" cy="713" opacity="0.84"></circle><circle r="6.5" cx="343" cy="-66" opacity="0.36"></circle><circle r="6.5" cx="1134" cy="-18" opacity="0.63"></circle><circle r="6.5" cx="1174" cy="775" opacity="0.45"></circle><circle r="6.5" cx="389" cy="903" opacity="0.75"></circle><circle r="6.5" cx="174" cy="135" opacity="0.71"></circle><circle r="6.5" cx="916" cy="-165" opacity="0.58"></circle><circle r="6.5" cx="1296" cy="542" opacity="0.32"></circle><circle r="6.5" cx="635" cy="999" opacity="0.18"></circle><circle r="6.5" cx="106" cy="390" opacity="0.65"></circle><circle r="6.5" cx="653" cy="-204" opacity="0.76"></circle><circle r="6.5" cx="1306" cy="276" opacity="0.99"></circle><circle r="6.5" cx="901" cy="979" opacity="0.59"></circle><circle r="6.5" cx="155" cy="653" opacity="0.45"></circle><circle r="6.5" cx="397" cy="-126" opacity="0.71"></circle><circle r="6.5" cx="1200" cy="29" opacity="0.97"></circle><circle r="6.5" cx="1135" cy="846" opacity="0.41"></circle><circle r="6.5" cx="314" cy="872" opacity="0.47"></circle><circle r="6.5" cx="197" cy="56" opacity="0.48"></circle><circle r="6.5" cx="996" cy="-150" opacity="0.24"></circle><circle r="6.5" cx="1291" cy="623" opacity="0.85"></circle><circle r="6.5" cx="553" cy="1002" opacity="0.46"></circle><circle r="6.5" cx="94" cy="309" opacity="0.39"></circle><circle r="6.5" cx="733" cy="-225" opacity="0.92"></circle><circle r="6.5" cx="1336" cy="353" opacity="0.35"></circle><circle r="7" cx="827" cy="1018" opacity="0.86"></circle><circle r="7" cx="109" cy="584" opacity="0.79"></circle><circle r="7" cx="461" cy="-180" opacity="0.85"></circle><circle r="7" cx="1261" cy="86" opacity="0.21"></circle><circle r="7" cx="1084" cy="913" opacity="0.51"></circle><circle r="7" cx="242" cy="829" opacity="0.32"></circle><circle r="7" cx="232" cy="-20" opacity="0.81"></circle><circle r="7" cx="1076" cy="-124" opacity="0.47"></circle><circle r="7" cx="1273" cy="706" opacity="0.29"></circle><circle r="7" cx="469" cy="994" opacity="1.00"></circle><circle r="7" cx="92" cy="224" opacity="0.98"></circle><circle r="7" cx="817" cy="-236" opacity="0.74"></circle><circle r="7" cx="1356" cy="436" opacity="0.89"></circle><circle r="7" cx="747" cy="1046" opacity="0.60"></circle><circle r="7" cx="71" cy="508" opacity="0.87"></circle><circle r="7" cx="533" cy="-225" opacity="0.35"></circle><circle r="7" cx="1314" cy="153" opacity="0.53"></circle><circle r="7" cx="1024" cy="974" opacity="0.42"></circle><circle r="7" cx="174" cy="775" opacity="0.83"></circle><circle r="7" cx="278" cy="-93" opacity="0.58"></circle><circle r="7" cx="1154" cy="-86" opacity="0.95"></circle><circle r="7" cx="1244" cy="788" opacity="0.17"></circle><circle r="7" cx="384" cy="974" opacity="0.64"></circle><circle r="7" cx="103" cy="138" opacity="0.49"></circle><circle r="7" cx="905" cy="-235" opacity="0.18"></circle><circle r="7" cx="1365" cy="523" opacity="0.76"></circle><circle r="7" cx="661" cy="1065" opacity="0.53"></circle><circle r="7" cx="44" cy="424" opacity="0.80"></circle><circle r="7" cx="613" cy="-262" opacity="0.63"></circle><circle r="7" cx="1360" cy="229" opacity="0.54"></circle><circle r="7" cx="953" cy="1027" opacity="0.71"></circle><circle r="7" cx="113" cy="711" opacity="0.71"></circle><circle r="7" cx="335" cy="-161" opacity="0.49"></circle><circle r="7" cx="1228" cy="-36" opacity="0.81"></circle><circle r="7.5" cx="1203" cy="867" opacity="0.69"></circle><circle r="7.5" cx="301" cy="942" opacity="0.67"></circle><circle r="7.5" cx="126" cy="51" opacity="0.27"></circle><circle r="7.5" cx="993" cy="-221" opacity="0.85"></circle><circle r="7.5" cx="1361" cy="613" opacity="0.69"></circle><circle r="7.5" cx="571" cy="1071" opacity="0.65"></circle><circle r="7.5" cx="27" cy="335" opacity="0.78"></circle><circle r="7.5" cx="700" cy="-288" opacity="0.91"></circle><circle r="7.5" cx="1395" cy="313" opacity="0.38"></circle><circle r="7.5" cx="874" cy="1072" opacity="0.75"></circle><circle r="7.5" cx="60" cy="637" opacity="0.67"></circle><circle r="7.5" cx="403" cy="-222" opacity="0.32"></circle><circle r="7.5" cx="1296" cy="24" opacity="0.80"></circle><circle r="7.5" cx="1150" cy="941" opacity="0.77"></circle><circle r="7.5" cx="220" cy="897" opacity="0.80"></circle><circle r="7.5" cx="161" cy="-34" opacity="0.94"></circle><circle r="7.5" cx="1082" cy="-195" opacity="0.45"></circle><circle r="7.5" cx="1345" cy="703" opacity="0.16"></circle><circle r="7.5" cx="479" cy="1065" opacity="0.70"></circle><circle r="7.5" cx="23" cy="243" opacity="0.50"></circle><circle r="7.5" cx="791" cy="-303" opacity="0.37"></circle><circle r="7.5" cx="1420" cy="402" opacity="0.76"></circle><circle r="7.5" cx="787" cy="1106" opacity="0.25"></circle><circle r="7.5" cx="16" cy="554" opacity="0.14"></circle><circle r="7.5" cx="481" cy="-275" opacity="0.45"></circle><circle r="7.5" cx="1358" cy="96" opacity="0.91"></circle><circle r="7.5" cx="1086" cy="1010" opacity="0.27"></circle><circle r="7.5" cx="145" cy="841" opacity="0.21"></circle><circle r="7.5" cx="209" cy="-115" opacity="0.76"></circle><circle r="7.5" cx="1168" cy="-157" opacity="0.96"></circle><circle r="7.5" cx="1316" cy="794" opacity="0.10"></circle><circle r="7.5" cx="386" cy="1046" opacity="0.20"></circle><circle r="7.5" cx="31" cy="148" opacity="0.95"></circle><circle r="7.5" cx="887" cy="-305" opacity="0.57"></circle><circle r="8" cx="1432" cy="497" opacity="0.96"></circle><circle r="8" cx="694" cy="1129" opacity="0.13"></circle><circle r="8" cx="-17" cy="464" opacity="0.29"></circle><circle r="8" cx="566" cy="-318" opacity="0.42"></circle><circle r="8" cx="1410" cy="177" opacity="0.54"></circle><circle r="8" cx="1011" cy="1071" opacity="0.49"></circle><circle r="8" cx="76" cy="773" opacity="0.74"></circle><circle r="8" cx="269" cy="-191" opacity="0.31"></circle><circle r="8" cx="1251" cy="-105" opacity="0.59"></circle><circle r="8" cx="1274" cy="881" opacity="0.17"></circle><circle r="8" cx="294" cy="1014" opacity="0.50"></circle><circle r="8" cx="53" cy="53" opacity="0.99"></circle><circle r="8" cx="984" cy="-293" opacity="0.88"></circle><circle r="8" cx="1432" cy="595" opacity="0.49"></circle><circle r="8" cx="597" cy="1139" opacity="0.96"></circle><circle r="8" cx="-38" cy="368" opacity="0.50"></circle><circle r="8" cx="660" cy="-349" opacity="0.50"></circle></g></svg>