<svg xmlns="http://www.w3.org/2000/svg" version="1.1" xmlns:xlink="http://www.w3.org/1999/xlink" xmlns:svgjs="http://svgjs.dev/svgjs" viewBox="0 0 1422 800"><g fill="hsl(205, 69%, 50%)" transform="matrix(4,0,0,4,-2142,-1200)"><circle r="0.5" cx="716" cy="400" opacity="0.52"></circle><circle r="0.5" cx="716" cy="403" opacity="0.18"></circle><circle r="0.5" cx="714" cy="406" opacity="0.16"></circle><circle r="0.5" cx="710" cy="407" opacity="0.84"></circle><circle r="0.5" cx="707" cy="406" opacity="0.21"></circle><circle r="0.5" cx="704" cy="403" opacity="0.96"></circle><circle r="0.5" cx="703" cy="398" opacity="0.23"></circle><circle r="0.5" cx="705" cy="394" opacity="0.38"></circle><circle r="0.5" cx="709" cy="391" opacity="0.71"></circle><circle r="0.5" cx="714" cy="390" opacity="0.43"></circle><circle r="0.5" cx="719" cy="393" opacity="0.89"></circle><circle r="0.5" cx="722" cy="399" opacity="0.59"></circle><circle r="0.5" cx="722" cy="405" opacity="0.96"></circle><circle r="0.5" cx="718" cy="410" opacity="0.86"></circle><circle r="0.5" cx="711" cy="413" opacity="0.24"></circle><circle r="0.5" cx="704" cy="411" opacity="0.33"></circle><circle r="0.5" cx="699" cy="406" opacity="0.35"></circle><circle r="0.5" cx="697" cy="399" opacity="0.40"></circle><circle r="0.5" cx="699" cy="391" opacity="0.75"></circle><circle r="0.5" cx="706" cy="385" opacity="0.18"></circle><circle r="0.5" cx="714" cy="384" opacity="0.50"></circle><circle r="0.5" cx="723" cy="388" opacity="0.23"></circle><circle r="0.5" cx="728" cy="396" opacity="0.60"></circle><circle r="0.5" cx="728" cy="406" opacity="0.90"></circle><circle r="0.5" cx="723" cy="414" opacity="0.14"></circle><circle r="0.5" cx="714" cy="419" opacity="0.54"></circle><circle r="0.5" cx="703" cy="418" opacity="0.24"></circle><circle r="0.5" cx="694" cy="411" opacity="0.14"></circle><circle r="0.5" cx="690" cy="401" opacity="0.73"></circle><circle r="1" cx="693" cy="389" opacity="0.87"></circle><circle r="1" cx="701" cy="381" opacity="0.88"></circle><circle r="1" cx="713" cy="378" opacity="0.92"></circle><circle r="1" cx="725" cy="382" opacity="0.82"></circle><circle r="1" cx="733" cy="392" opacity="0.99"></circle><circle r="1" cx="735" cy="405" opacity="0.67"></circle><circle r="1" cx="729" cy="417" opacity="0.99"></circle><circle r="1" cx="717" cy="424" opacity="0.44"></circle><circle r="1" cx="703" cy="425" opacity="0.59"></circle><circle r="1" cx="691" cy="417" opacity="0.26"></circle><circle r="1" cx="684" cy="404" opacity="0.24"></circle><circle r="1" cx="686" cy="389" opacity="0.18"></circle><circle r="1" cx="695" cy="377" opacity="0.70"></circle><circle r="1" cx="710" cy="372" opacity="0.84"></circle><circle r="1" cx="725" cy="375" opacity="0.47"></circle><circle r="1" cx="737" cy="386" opacity="1.00"></circle><circle r="1" cx="741" cy="402" opacity="0.49"></circle><circle r="1" cx="736" cy="418" opacity="0.57"></circle><circle r="1" cx="723" cy="429" opacity="0.13"></circle><circle r="1" cx="705" cy="431" opacity="0.77"></circle><circle r="1" cx="689" cy="424" opacity="0.87"></circle><circle r="1" cx="679" cy="409" opacity="0.81"></circle><circle r="1" cx="679" cy="391" opacity="0.31"></circle><circle r="1" cx="688" cy="374" opacity="0.72"></circle><circle r="1" cx="705" cy="366" opacity="0.45"></circle><circle r="1" cx="725" cy="367" opacity="0.89"></circle><circle r="1" cx="740" cy="379" opacity="0.78"></circle><circle r="1" cx="747" cy="398" opacity="0.91"></circle><circle r="1" cx="743" cy="418" opacity="0.66"></circle><circle r="1" cx="729" cy="433" opacity="0.35"></circle><circle r="1" cx="709" cy="438" opacity="0.44"></circle><circle r="1" cx="689" cy="432" opacity="0.26"></circle><circle r="1" cx="675" cy="415" opacity="1.00"></circle><circle r="1" cx="672" cy="394" opacity="0.14"></circle><circle r="1" cx="681" cy="373" opacity="0.76"></circle><circle r="1" cx="699" cy="361" opacity="0.35"></circle><circle r="1" cx="722" cy="360" opacity="0.60"></circle><circle r="1" cx="742" cy="372" opacity="0.35"></circle><circle r="1" cx="753" cy="392" opacity="0.84"></circle><circle r="1" cx="751" cy="416" opacity="0.89"></circle><circle r="1" cx="737" cy="435" opacity="0.72"></circle><circle r="1" cx="714" cy="444" opacity="0.67"></circle><circle r="1" cx="690" cy="439" opacity="0.48"></circle><circle r="1" cx="672" cy="423" opacity="0.90"></circle><circle r="1" cx="665" cy="398" opacity="0.86"></circle><circle r="1" cx="673" cy="374" opacity="0.82"></circle><circle r="1" cx="692" cy="357" opacity="0.58"></circle><circle r="1" cx="718" cy="353" opacity="0.29"></circle><circle r="1" cx="742" cy="363" opacity="0.65"></circle><circle r="1" cx="757" cy="386" opacity="0.67"></circle><circle r="1" cx="759" cy="413" opacity="0.64"></circle><circle r="1" cx="745" cy="436" opacity="0.95"></circle><circle r="1" cx="721" cy="449" opacity="0.70"></circle><circle r="1" cx="693" cy="448" opacity="0.52"></circle><circle r="1" cx="670" cy="431" opacity="0.26"></circle><circle r="1" cx="659" cy="404" opacity="0.40"></circle><circle r="1" cx="664" cy="376" opacity="0.44"></circle><circle r="1.5" cx="684" cy="354" opacity="0.39"></circle><circle r="1.5" cx="712" cy="346" opacity="0.78"></circle><circle r="1.5" cx="741" cy="355" opacity="0.39"></circle><circle r="1.5" cx="761" cy="377" opacity="0.40"></circle><circle r="1.5" cx="766" cy="407" opacity="0.62"></circle><circle r="1.5" cx="754" cy="436" opacity="0.74"></circle><circle r="1.5" cx="729" cy="454" opacity="0.87"></circle><circle r="1.5" cx="697" cy="455" opacity="0.49"></circle><circle r="1.5" cx="670" cy="440" opacity="0.32"></circle><circle r="1.5" cx="654" cy="412" opacity="0.47"></circle><circle r="1.5" cx="656" cy="380" opacity="0.34"></circle><circle r="1.5" cx="675" cy="353" opacity="0.33"></circle><circle r="1.5" cx="705" cy="340" opacity="0.25"></circle><circle r="1.5" cx="738" cy="346" opacity="0.29"></circle><circle r="1.5" cx="763" cy="368" opacity="0.73"></circle><circle r="1.5" cx="773" cy="401" opacity="0.17"></circle><circle r="1.5" cx="763" cy="434" opacity="0.94"></circle><circle r="1.5" cx="738" cy="457" opacity="0.92"></circle><circle r="1.5" cx="703" cy="463" opacity="0.81"></circle><circle r="1.5" cx="671" cy="450" opacity="0.30"></circle><circle r="1.5" cx="650" cy="421" opacity="0.26"></circle><circle r="1.5" cx="648" cy="385" opacity="0.88"></circle><circle r="1.5" cx="665" cy="353" opacity="0.22"></circle><circle r="1.5" cx="697" cy="336" opacity="0.31"></circle><circle r="1.5" cx="733" cy="337" opacity="0.39"></circle><circle r="1.5" cx="764" cy="358" opacity="0.20"></circle><circle r="1.5" cx="778" cy="392" opacity="0.33"></circle><circle r="1.5" cx="773" cy="430" opacity="0.54"></circle><circle r="1.5" cx="748" cy="458" opacity="0.19"></circle><circle r="1.5" cx="711" cy="469" opacity="0.42"></circle><circle r="1.5" cx="674" cy="459" opacity="0.37"></circle><circle r="1.5" cx="648" cy="431" opacity="0.65"></circle><circle r="1.5" cx="640" cy="392" opacity="0.66"></circle><circle r="1.5" cx="655" cy="356" opacity="0.37"></circle><circle r="1.5" cx="687" cy="332" opacity="0.90"></circle><circle r="1.5" cx="727" cy="329" opacity="0.16"></circle><circle r="1.5" cx="762" cy="348" opacity="0.61"></circle><circle r="1.5" cx="783" cy="383" opacity="0.64"></circle><circle r="1.5" cx="782" cy="424" opacity="0.91"></circle><circle r="1.5" cx="758" cy="458" opacity="0.56"></circle><circle r="1.5" cx="720" cy="475" opacity="0.61"></circle><circle r="1.5" cx="679" cy="469" opacity="0.25"></circle><circle r="1.5" cx="647" cy="442" opacity="0.50"></circle><circle r="1.5" cx="634" cy="401" opacity="0.46"></circle><circle r="1.5" cx="644" cy="360" opacity="0.59"></circle><circle r="1.5" cx="676" cy="330" opacity="0.59"></circle><circle r="1.5" cx="718" cy="321" opacity="0.33"></circle><circle r="1.5" cx="759" cy="337" opacity="0.62"></circle><circle r="1.5" cx="786" cy="372" opacity="0.42"></circle><circle r="1.5" cx="790" cy="416" opacity="0.79"></circle><circle r="1.5" cx="770" cy="456" opacity="0.36"></circle><circle r="1.5" cx="731" cy="479" opacity="0.42"></circle><circle r="1.5" cx="686" cy="478" opacity="0.71"></circle><circle r="1.5" cx="648" cy="453" opacity="0.35"></circle><circle r="1.5" cx="628" cy="412" opacity="0.80"></circle><circle r="1.5" cx="634" cy="366" opacity="0.74"></circle><circle r="1.5" cx="664" cy="330" opacity="0.66"></circle><circle r="2" cx="708" cy="315" opacity="0.24"></circle><circle r="2" cx="754" cy="326" opacity="0.97"></circle><circle r="2" cx="787" cy="360" opacity="0.34"></circle><circle r="2" cx="797" cy="407" opacity="0.22"></circle><circle r="2" cx="781" cy="452" opacity="0.72"></circle><circle r="2" cx="743" cy="482" opacity="0.31"></circle><circle r="2" cx="694" cy="487" opacity="0.17"></circle><circle r="2" cx="650" cy="465" opacity="0.69"></circle><circle r="2" cx="625" cy="423" opacity="0.31"></circle><circle r="2" cx="625" cy="374" opacity="0.47"></circle><circle r="2" cx="652" cy="331" opacity="0.66"></circle><circle r="2" cx="697" cy="310" opacity="0.51"></circle><circle r="2" cx="747" cy="316" opacity="0.72"></circle><circle r="2" cx="787" cy="347" opacity="0.12"></circle><circle r="2" cx="804" cy="396" opacity="0.18"></circle><circle r="2" cx="792" cy="446" opacity="0.65"></circle><circle r="2" cx="756" cy="483" opacity="0.68"></circle><circle r="2" cx="705" cy="494" opacity="0.91"></circle><circle r="2" cx="655" cy="477" opacity="0.88"></circle><circle r="2" cx="622" cy="436" opacity="0.47"></circle><circle r="2" cx="616" cy="383" opacity="0.10"></circle><circle r="2" cx="639" cy="335" opacity="0.31"></circle><circle r="2" cx="684" cy="306" opacity="0.51"></circle><circle r="2" cx="738" cy="306" opacity="0.45"></circle><circle r="2" cx="785" cy="334" opacity="0.88"></circle><circle r="2" cx="809" cy="383" opacity="0.77"></circle><circle r="2" cx="803" cy="438" opacity="0.30"></circle><circle r="2" cx="769" cy="482" opacity="0.78"></circle><circle r="2" cx="717" cy="501" opacity="0.11"></circle><circle r="2" cx="662" cy="489" opacity="0.49"></circle><circle r="2" cx="622" cy="450" opacity="0.81"></circle><circle r="2" cx="609" cy="395" opacity="0.16"></circle><circle r="2" cx="627" cy="341" opacity="0.41"></circle><circle r="2" cx="671" cy="305" opacity="0.73"></circle><circle r="2" cx="728" cy="297" opacity="0.72"></circle><circle r="2" cx="780" cy="321" opacity="0.39"></circle><circle r="2" cx="812" cy="370" opacity="1.00"></circle><circle r="2" cx="813" cy="428" opacity="0.69"></circle><circle r="2" cx="783" cy="478" opacity="0.87"></circle><circle r="2" cx="730" cy="505" opacity="0.28"></circle><circle r="2" cx="671" cy="500" opacity="0.63"></circle><circle r="2" cx="624" cy="464" opacity="0.49"></circle><circle r="2" cx="603" cy="408" opacity="0.94"></circle><circle r="2" cx="615" cy="349" opacity="0.45"></circle><circle r="2" cx="656" cy="305" opacity="0.26"></circle><circle r="2" cx="715" cy="290" opacity="0.44"></circle><circle r="2" cx="773" cy="308" opacity="0.46"></circle><circle r="2" cx="813" cy="355" opacity="0.78"></circle><circle r="2" cx="822" cy="416" opacity="0.80"></circle><circle r="2" cx="797" cy="473" opacity="0.78"></circle><circle r="2" cx="745" cy="508" opacity="0.80"></circle><circle r="2" cx="682" cy="510" opacity="0.92"></circle><circle r="2" cx="628" cy="478" opacity="0.50"></circle><circle r="2" cx="598" cy="422" opacity="0.18"></circle><circle r="2" cx="603" cy="359" opacity="0.22"></circle><circle r="2" cx="641" cy="308" opacity="0.75"></circle><circle r="2.5" cx="701" cy="284" opacity="0.17"></circle><circle r="2.5" cx="764" cy="296" opacity="0.83"></circle><circle r="2.5" cx="812" cy="340" opacity="0.68"></circle><circle r="2.5" cx="829" cy="403" opacity="0.63"></circle><circle r="2.5" cx="810" cy="465" opacity="0.29"></circle><circle r="2.5" cx="761" cy="508" opacity="0.32"></circle><circle r="2.5" cx="695" cy="519" opacity="0.36"></circle><circle r="2.5" cx="634" cy="493" opacity="0.51"></circle><circle r="2.5" cx="596" cy="438" opacity="0.17"></circle><circle r="2.5" cx="593" cy="371" opacity="0.92"></circle><circle r="2.5" cx="626" cy="312" opacity="0.27"></circle><circle r="2.5" cx="685" cy="280" opacity="0.48"></circle><circle r="2.5" cx="753" cy="284" opacity="0.79"></circle><circle r="2.5" cx="809" cy="324" opacity="0.14"></circle><circle r="2.5" cx="835" cy="388" opacity="0.18"></circle><circle r="2.5" cx="823" cy="455" opacity="0.51"></circle><circle r="2.5" cx="777" cy="507" opacity="0.74"></circle><circle r="2.5" cx="710" cy="526" opacity="0.63"></circle><circle r="2.5" cx="643" cy="507" opacity="0.76"></circle><circle r="2.5" cx="596" cy="454" opacity="0.82"></circle><circle r="2.5" cx="584" cy="385" opacity="0.80"></circle><circle r="2.5" cx="611" cy="320" opacity="0.97"></circle><circle r="2.5" cx="669" cy="278" opacity="0.47"></circle><circle r="2.5" cx="740" cy="274" opacity="0.59"></circle><circle r="2.5" cx="803" cy="308" opacity="0.49"></circle><circle r="2.5" cx="838" cy="371" opacity="0.40"></circle><circle r="2.5" cx="835" cy="443" opacity="0.22"></circle><circle r="2.5" cx="793" cy="503" opacity="0.99"></circle><circle r="2.5" cx="726" cy="531" opacity="0.82"></circle><circle r="2.5" cx="654" cy="520" opacity="0.81"></circle><circle r="2.5" cx="598" cy="471" opacity="0.34"></circle><circle r="2.5" cx="577" cy="401" opacity="0.47"></circle><circle r="2.5" cx="597" cy="329" opacity="0.17"></circle><circle r="2.5" cx="652" cy="279" opacity="0.24"></circle><circle r="2.5" cx="725" cy="265" opacity="0.39"></circle><circle r="2.5" cx="795" cy="293" opacity="0.81"></circle><circle r="2.5" cx="839" cy="354" opacity="0.52"></circle><circle r="2.5" cx="845" cy="429" opacity="0.19"></circle><circle r="2.5" cx="810" cy="496" opacity="0.22"></circle><circle r="2.5" cx="744" cy="534" opacity="0.95"></circle><circle r="2.5" cx="667" cy="532" opacity="0.84"></circle><circle r="2.5" cx="603" cy="489" opacity="0.25"></circle><circle r="2.5" cx="572" cy="418" opacity="0.50"></circle><circle r="2.5" cx="583" cy="341" opacity="0.87"></circle><circle r="2.5" cx="634" cy="282" opacity="0.84"></circle><circle r="2.5" cx="708" cy="258" opacity="0.34"></circle><circle r="2.5" cx="784" cy="278" opacity="0.24"></circle><circle r="2.5" cx="838" cy="335" opacity="0.38"></circle><circle r="2.5" cx="854" cy="413" opacity="0.71"></circle><circle r="2.5" cx="826" cy="487" opacity="0.99"></circle><circle r="2.5" cx="762" cy="535" opacity="0.85"></circle><circle r="2.5" cx="682" cy="542" opacity="0.94"></circle><circle r="2.5" cx="611" cy="506" opacity="0.57"></circle><circle r="2.5" cx="569" cy="436" opacity="0.71"></circle><circle r="2.5" cx="571" cy="355" opacity="0.61"></circle><circle r="2.5" cx="616" cy="288" opacity="0.25"></circle><circle r="2.5" cx="690" cy="254" opacity="0.93"></circle><circle r="3" cx="771" cy="264" opacity="0.32"></circle><circle r="3" cx="834" cy="317" opacity="0.38"></circle><circle r="3" cx="860" cy="395" opacity="0.69"></circle><circle r="3" cx="841" cy="475" opacity="0.86"></circle><circle r="3" cx="781" cy="533" opacity="0.56"></circle><circle r="3" cx="700" cy="551" opacity="0.47"></circle><circle r="3" cx="621" cy="522" opacity="0.33"></circle><circle r="3" cx="569" cy="456" opacity="0.92"></circle><circle r="3" cx="561" cy="372" opacity="0.81"></circle><circle r="3" cx="598" cy="296" opacity="0.71"></circle><circle r="3" cx="671" cy="251" opacity="0.55"></circle><circle r="3" cx="756" cy="252" opacity="0.67"></circle><circle r="3" cx="828" cy="298" opacity="0.66"></circle><circle r="3" cx="865" cy="376" opacity="0.23"></circle><circle r="3" cx="855" cy="461" opacity="0.18"></circle><circle r="3" cx="800" cy="529" opacity="0.31"></circle><circle r="3" cx="718" cy="557" opacity="0.82"></circle><circle r="3" cx="634" cy="538" opacity="0.23"></circle><circle r="3" cx="572" cy="476" opacity="0.53"></circle><circle r="3" cx="552" cy="390" opacity="0.10"></circle><circle r="3" cx="581" cy="307" opacity="0.27"></circle><circle r="3" cx="650" cy="252" opacity="0.42"></circle><circle r="3" cx="738" cy="242" opacity="0.59"></circle><circle r="3" cx="819" cy="280" opacity="0.99"></circle><circle r="3" cx="867" cy="355" opacity="0.20"></circle><circle r="3" cx="867" cy="445" opacity="0.66"></circle><circle r="3" cx="820" cy="521" opacity="0.92"></circle><circle r="3" cx="739" cy="561" opacity="0.31"></circle><circle r="3" cx="649" cy="552" opacity="0.24"></circle><circle r="3" cx="577" cy="496" opacity="0.85"></circle><circle r="3" cx="546" cy="410" opacity="0.19"></circle><circle r="3" cx="565" cy="321" opacity="0.34"></circle><circle r="3" cx="630" cy="255" opacity="0.74"></circle><circle r="3" cx="719" cy="233" opacity="0.24"></circle><circle r="3" cx="807" cy="263" opacity="1.00"></circle><circle r="3" cx="866" cy="334" opacity="0.96"></circle><circle r="3" cx="877" cy="426" opacity="0.82"></circle><circle r="3" cx="838" cy="511" opacity="0.83"></circle><circle r="3" cx="760" cy="562" opacity="0.86"></circle><circle r="3" cx="666" cy="564" opacity="0.66"></circle><circle r="3" cx="585" cy="516" opacity="0.40"></circle><circle r="3" cx="543" cy="431" opacity="0.53"></circle><circle r="3" cx="551" cy="337" opacity="0.39"></circle><circle r="3" cx="609" cy="261" opacity="0.33"></circle><circle r="3" cx="698" cy="227" opacity="0.72"></circle><circle r="3" cx="792" cy="246" opacity="0.36"></circle><circle r="3" cx="862" cy="313" opacity="0.48"></circle><circle r="3" cx="886" cy="406" opacity="0.17"></circle><circle r="3" cx="856" cy="498" opacity="0.31"></circle><circle r="3" cx="782" cy="561" opacity="0.99"></circle><circle r="3" cx="686" cy="575" opacity="0.70"></circle><circle r="3" cx="597" cy="535" opacity="0.90"></circle><circle r="3" cx="542" cy="454" opacity="0.83"></circle><circle r="3" cx="539" cy="356" opacity="0.70"></circle><circle r="3" cx="588" cy="270" opacity="0.85"></circle><circle r="3" cx="676" cy="224" opacity="0.73"></circle><circle r="3" cx="775" cy="232" opacity="0.72"></circle><circle r="3.5" cx="855" cy="291" opacity="0.91"></circle><circle r="3.5" cx="891" cy="384" opacity="0.58"></circle><circle r="3.5" cx="873" cy="482" opacity="0.70"></circle><circle r="3.5" cx="805" cy="556" opacity="0.60"></circle><circle r="3.5" cx="707" cy="582" opacity="0.72"></circle><circle r="3.5" cx="611" cy="553" opacity="0.81"></circle><circle r="3.5" cx="544" cy="477" opacity="0.94"></circle><circle r="3.5" cx="528" cy="376" opacity="0.27"></circle><circle r="3.5" cx="568" cy="283" opacity="0.19"></circle><circle r="3.5" cx="652" cy="224" opacity="0.95"></circle><circle r="3.5" cx="755" cy="219" opacity="0.16"></circle><circle r="3.5" cx="845" cy="270" opacity="0.92"></circle><circle r="3.5" cx="894" cy="361" opacity="0.27"></circle><circle r="3.5" cx="887" cy="464" opacity="0.38"></circle><circle r="3.5" cx="827" cy="548" opacity="0.28"></circle><circle r="3.5" cx="730" cy="588" opacity="0.39"></circle><circle r="3.5" cx="628" cy="570" opacity="0.82"></circle><circle r="3.5" cx="550" cy="500" opacity="0.38"></circle><circle r="3.5" cx="521" cy="399" opacity="0.56"></circle><circle r="3.5" cx="550" cy="298" opacity="0.39"></circle><circle r="3.5" cx="629" cy="227" opacity="0.40"></circle><circle r="3.5" cx="733" cy="209" opacity="0.67"></circle><circle r="3.5" cx="831" cy="250" opacity="0.42"></circle><circle r="3.5" cx="893" cy="336" opacity="0.94"></circle><circle r="3.5" cx="900" cy="443" opacity="0.49"></circle><circle r="3.5" cx="849" cy="537" opacity="0.64"></circle><circle r="3.5" cx="755" cy="590" opacity="0.40"></circle><circle r="3.5" cx="647" cy="585" opacity="0.26"></circle><circle r="3.5" cx="558" cy="523" opacity="0.88"></circle><circle r="3.5" cx="516" cy="423" opacity="0.14"></circle><circle r="3.5" cx="533" cy="316" opacity="0.33"></circle><circle r="3.5" cx="605" cy="233" opacity="0.35"></circle><circle r="3.5" cx="709" cy="202" opacity="0.58"></circle><circle r="3.5" cx="815" cy="231" opacity="0.81"></circle><circle r="3.5" cx="890" cy="312" opacity="0.83"></circle><circle r="3.5" cx="910" cy="420" opacity="0.44"></circle><circle r="3.5" cx="869" cy="523" opacity="0.85"></circle><circle r="3.5" cx="780" cy="589" opacity="0.18"></circle><circle r="3.5" cx="669" cy="597" opacity="0.75"></circle><circle r="3.5" cx="570" cy="545" opacity="0.34"></circle><circle r="3.5" cx="514" cy="448" opacity="0.53"></circle><circle r="3.5" cx="518" cy="336" opacity="0.71"></circle><circle r="3.5" cx="581" cy="243" opacity="0.92"></circle><circle r="3.5" cx="684" cy="197" opacity="0.12"></circle><circle r="3.5" cx="796" cy="214" opacity="0.80"></circle><circle r="3.5" cx="883" cy="287" opacity="1.00"></circle><circle r="3.5" cx="917" cy="395" opacity="0.51"></circle><circle r="3.5" cx="888" cy="506" opacity="0.88"></circle><circle r="3.5" cx="805" cy="584" opacity="0.81"></circle><circle r="3.5" cx="693" cy="607" opacity="0.62"></circle><circle r="3.5" cx="585" cy="566" opacity="0.49"></circle><circle r="3.5" cx="516" cy="474" opacity="0.43"></circle><circle r="3.5" cx="506" cy="359" opacity="0.77"></circle><circle r="3.5" cx="558" cy="256" opacity="0.95"></circle><circle r="3.5" cx="658" cy="196" opacity="0.52"></circle><circle r="3.5" cx="775" cy="199" opacity="0.46"></circle><circle r="3.5" cx="872" cy="263" opacity="0.33"></circle><circle r="4" cx="921" cy="369" opacity="0.98"></circle><circle r="4" cx="906" cy="486" opacity="0.77"></circle><circle r="4" cx="831" cy="577" opacity="0.65"></circle><circle r="4" cx="719" cy="614" opacity="0.90"></circle><circle r="4" cx="604" cy="586" opacity="0.58"></circle><circle r="4" cx="521" cy="501" opacity="0.28"></circle><circle r="4" cx="496" cy="384" opacity="0.25"></circle><circle r="4" cx="537" cy="272" opacity="0.75"></circle><circle r="4" cx="631" cy="199" opacity="0.52"></circle><circle r="4" cx="750" cy="186" opacity="0.23"></circle><circle r="4" cx="858" cy="240" opacity="0.63"></circle><circle r="4" cx="922" cy="342" opacity="0.38"></circle><circle r="4" cx="921" cy="463" opacity="0.74"></circle><circle r="4" cx="856" cy="565" opacity="0.54"></circle><circle r="4" cx="746" cy="617" opacity="0.37"></circle><circle r="4" cx="625" cy="603" opacity="0.95"></circle><circle r="4" cx="530" cy="527" opacity="0.12"></circle><circle r="4" cx="490" cy="411" opacity="0.34"></circle><circle r="4" cx="517" cy="291" opacity="0.25"></circle><circle r="4" cx="604" cy="205" opacity="0.20"></circle><circle r="4" cx="724" cy="177" opacity="0.45"></circle><circle r="4" cx="841" cy="218" opacity="0.92"></circle><circle r="4" cx="919" cy="314" opacity="0.51"></circle><circle r="4" cx="933" cy="438" opacity="0.63"></circle><circle r="4" cx="879" cy="550" opacity="0.24"></circle><circle r="4" cx="774" cy="617" opacity="0.14"></circle><circle r="4" cx="649" cy="618" opacity="0.99"></circle><circle r="4" cx="542" cy="552" opacity="0.59"></circle><circle r="4" cx="487" cy="439" opacity="0.94"></circle><circle r="4" cx="499" cy="314" opacity="0.37"></circle><circle r="4" cx="577" cy="214" opacity="0.49"></circle><circle r="4" cx="696" cy="171" opacity="0.64"></circle><circle r="4" cx="821" cy="198" opacity="0.85"></circle><circle r="4" cx="912" cy="286" opacity="0.81"></circle><circle r="4" cx="942" cy="410" opacity="0.18"></circle><circle r="4" cx="902" cy="532" opacity="0.39"></circle><circle r="4" cx="803" cy="614" opacity="0.13"></circle><circle r="4" cx="675" cy="630" opacity="0.63"></circle><circle r="4" cx="558" cy="576" opacity="0.97"></circle><circle r="4" cx="487" cy="468" opacity="0.92"></circle><circle r="4" cx="485" cy="339" opacity="0.16"></circle><circle r="4" cx="551" cy="227" opacity="0.17"></circle><circle r="4" cx="667" cy="168" opacity="0.67"></circle><circle r="4" cx="797" cy="180" opacity="0.25"></circle><circle r="4" cx="901" cy="259" opacity="0.86"></circle><circle r="4" cx="948" cy="382" opacity="0.48"></circle><circle r="4" cx="922" cy="510" opacity="0.85"></circle><circle r="4" cx="831" cy="606" opacity="0.42"></circle><circle r="4" cx="704" cy="639" opacity="0.18"></circle><circle r="4" cx="577" cy="599" opacity="0.30"></circle><circle r="4" cx="492" cy="498" opacity="0.37"></circle><circle r="4" cx="473" cy="366" opacity="0.51"></circle><circle r="4" cx="527" cy="244" opacity="0.27"></circle><circle r="4" cx="637" cy="170" opacity="0.79"></circle><circle r="4" cx="771" cy="165" opacity="0.78"></circle><circle r="4" cx="887" cy="232" opacity="0.91"></circle><circle r="4" cx="950" cy="351" opacity="0.57"></circle><circle r="4.5" cx="940" cy="486" opacity="0.41"></circle><circle r="4.5" cx="859" cy="595" opacity="0.58"></circle><circle r="4.5" cx="733" cy="644" opacity="0.99"></circle><circle r="4.5" cx="600" cy="619" opacity="0.53"></circle><circle r="4.5" cx="500" cy="527" opacity="0.65"></circle><circle r="4.5" cx="464" cy="396" opacity="0.45"></circle><circle r="4.5" cx="504" cy="265" opacity="0.18"></circle><circle r="4.5" cx="607" cy="175" opacity="0.93"></circle><circle r="4.5" cx="742" cy="153" opacity="0.67"></circle><circle r="4.5" cx="869" cy="207" opacity="0.47"></circle><circle r="4.5" cx="948" cy="320" opacity="0.65"></circle><circle r="4.5" cx="954" cy="458" opacity="0.30"></circle><circle r="4.5" cx="887" cy="579" opacity="0.57"></circle><circle r="4.5" cx="765" cy="646" opacity="0.55"></circle><circle r="4.5" cx="626" cy="637" opacity="0.45"></circle><circle r="4.5" cx="512" cy="556" opacity="0.67"></circle><circle r="4.5" cx="459" cy="427" opacity="0.80"></circle><circle r="4.5" cx="483" cy="289" opacity="0.38"></circle><circle r="4.5" cx="577" cy="184" opacity="0.62"></circle><circle r="4.5" cx="712" cy="145" opacity="0.14"></circle><circle r="4.5" cx="847" cy="184" opacity="0.34"></circle><circle r="4.5" cx="942" cy="289" opacity="0.36"></circle><circle r="4.5" cx="966" cy="429" opacity="0.51"></circle><circle r="4.5" cx="912" cy="560" opacity="0.80"></circle><circle r="4.5" cx="796" cy="643" opacity="0.97"></circle><circle r="4.5" cx="654" cy="652" opacity="0.13"></circle><circle r="4.5" cx="529" cy="584" opacity="1.00"></circle><circle r="4.5" cx="459" cy="459" opacity="0.17"></circle><circle r="4.5" cx="465" cy="316" opacity="0.86"></circle><circle r="4.5" cx="547" cy="198" opacity="0.90"></circle><circle r="4.5" cx="680" cy="141" opacity="0.71"></circle><circle r="4.5" cx="822" cy="163" opacity="0.28"></circle><circle r="4.5" cx="932" cy="258" opacity="0.92"></circle><circle r="4.5" cx="974" cy="397" opacity="0.98"></circle><circle r="4.5" cx="935" cy="537" opacity="0.57"></circle><circle r="4.5" cx="828" cy="636" opacity="0.11"></circle><circle r="4.5" cx="685" cy="663" opacity="0.71"></circle><circle r="4.5" cx="549" cy="609" opacity="0.78"></circle><circle r="4.5" cx="462" cy="492" opacity="0.61"></circle><circle r="4.5" cx="451" cy="345" opacity="0.33"></circle><circle r="4.5" cx="519" cy="215" opacity="0.55"></circle><circle r="4.5" cx="647" cy="141" opacity="0.90"></circle><circle r="4.5" cx="794" cy="146" opacity="0.89"></circle><circle r="4.5" cx="917" cy="228" opacity="0.36"></circle><circle r="4.5" cx="977" cy="364" opacity="0.27"></circle><circle r="4.5" cx="956" cy="511" opacity="0.81"></circle><circle r="4.5" cx="860" cy="625" opacity="0.94"></circle><circle r="4.5" cx="718" cy="670" opacity="0.49"></circle><circle r="4.5" cx="573" cy="633" opacity="0.98"></circle><circle r="4.5" cx="470" cy="524" opacity="0.83"></circle><circle r="4.5" cx="440" cy="377" opacity="0.44"></circle><circle r="4.5" cx="493" cy="236" opacity="0.47"></circle><circle r="4.5" cx="613" cy="145" opacity="0.34"></circle><circle r="4.5" cx="764" cy="131" opacity="0.96"></circle><circle r="4.5" cx="899" cy="200" opacity="0.53"></circle><circle r="4.5" cx="977" cy="330" opacity="0.33"></circle><circle r="4.5" cx="974" cy="482" opacity="0.29"></circle><circle r="5" cx="890" cy="610" opacity="0.21"></circle><circle r="5" cx="752" cy="674" opacity="0.54"></circle><circle r="5" cx="600" cy="654" opacity="0.30"></circle><circle r="5" cx="482" cy="556" opacity="0.73"></circle><circle r="5" cx="433" cy="411" opacity="0.82"></circle><circle r="5" cx="469" cy="261" opacity="0.16"></circle><circle r="5" cx="580" cy="153" opacity="0.44"></circle><circle r="5" cx="731" cy="121" opacity="0.10"></circle><circle r="5" cx="876" cy="173" opacity="0.47"></circle><circle r="5" cx="972" cy="296" opacity="0.74"></circle><circle r="5" cx="988" cy="450" opacity="0.74"></circle><circle r="5" cx="919" cy="590" opacity="1.00"></circle><circle r="5" cx="787" cy="672" opacity="0.59"></circle><circle r="5" cx="630" cy="672" opacity="0.34"></circle><circle r="5" cx="498" cy="588" opacity="0.64"></circle><circle r="5" cx="430" cy="446" opacity="0.34"></circle><circle r="5" cx="448" cy="289" opacity="0.55"></circle><circle r="5" cx="547" cy="166" opacity="0.85"></circle><circle r="5" cx="696" cy="114" opacity="0.29"></circle><circle r="5" cx="850" cy="149" opacity="0.47"></circle><circle r="5" cx="963" cy="261" opacity="0.67"></circle><circle r="5" cx="998" cy="416" opacity="0.78"></circle><circle r="5" cx="946" cy="567" opacity="0.60"></circle><circle r="5" cx="822" cy="667" opacity="0.50"></circle><circle r="5" cx="663" cy="686" opacity="0.22"></circle><circle r="5" cx="518" cy="617" opacity="0.77"></circle><circle r="5" cx="432" cy="482" opacity="0.41"></circle><circle r="5" cx="431" cy="321" opacity="0.72"></circle></g></svg>