<svg xmlns="http://www.w3.org/2000/svg" version="1.1" xmlns:xlink="http://www.w3.org/1999/xlink" xmlns:svgjs="http://svgjs.dev/svgjs" viewBox="0 0 1422 800"><g fill="hsl(282, 100%, 75%)" transform="matrix(3.2,0,0,3.2,-1557.6,-897.6000000000001)"><circle r="0.5" cx="716" cy="400" opacity="0.81"></circle><circle r="0.5" cx="713" cy="406" opacity="0.64"></circle><circle r="0.5" cx="706" cy="405" opacity="0.94"></circle><circle r="0.5" cx="703" cy="397" opacity="0.24"></circle><circle r="0.5" cx="710" cy="390" opacity="0.76"></circle><circle r="0.5" cx="721" cy="395" opacity="0.19"></circle><circle r="0.5" cx="720" cy="407" opacity="0.27"></circle><circle r="0.5" cx="708" cy="413" opacity="0.62"></circle><circle r="0.5" cx="697" cy="402" opacity="0.87"></circle><circle r="0.5" cx="703" cy="387" opacity="0.71"></circle><circle r="0.5" cx="720" cy="386" opacity="0.21"></circle><circle r="0.5" cx="728" cy="403" opacity="0.16"></circle><circle r="0.5" cx="715" cy="418" opacity="0.90"></circle><circle r="1" cx="695" cy="412" opacity="0.18"></circle><circle r="1" cx="693" cy="389" opacity="0.19"></circle><circle r="1" cx="714" cy="378" opacity="0.94"></circle><circle r="1" cx="734" cy="393" opacity="0.91"></circle><circle r="1" cx="727" cy="419" opacity="0.82"></circle><circle r="1" cx="700" cy="423" opacity="0.69"></circle><circle r="1" cx="684" cy="399" opacity="0.32"></circle><circle r="1" cx="701" cy="374" opacity="0.18"></circle><circle r="1" cx="732" cy="380" opacity="0.88"></circle><circle r="1" cx="739" cy="412" opacity="0.70"></circle><circle r="1" cx="712" cy="432" opacity="0.76"></circle><circle r="1" cx="681" cy="414" opacity="0.51"></circle><circle r="1" cx="686" cy="377" opacity="0.69"></circle><circle r="1" cx="722" cy="367" opacity="0.42"></circle><circle r="1" cx="747" cy="397" opacity="0.67"></circle><circle r="1" cx="729" cy="433" opacity="0.56"></circle><circle r="1" cx="688" cy="431" opacity="0.77"></circle><circle r="1" cx="672" cy="390" opacity="0.25"></circle><circle r="1" cx="704" cy="360" opacity="0.72"></circle><circle r="1" cx="746" cy="377" opacity="0.21"></circle><circle r="1" cx="747" cy="424" opacity="0.70"></circle><circle r="1" cx="703" cy="444" opacity="0.26"></circle><circle r="1" cx="667" cy="411" opacity="0.96"></circle><circle r="1" cx="683" cy="363" opacity="0.32"></circle><circle r="1" cx="734" cy="358" opacity="0.70"></circle><circle r="1" cx="760" cy="405" opacity="0.13"></circle><circle r="1.5" cx="726" cy="448" opacity="0.35"></circle><circle r="1.5" cx="672" cy="434" opacity="0.63"></circle><circle r="1.5" cx="663" cy="378" opacity="0.56"></circle><circle r="1.5" cx="712" cy="346" opacity="0.63"></circle><circle r="1.5" cx="762" cy="379" opacity="0.71"></circle><circle r="1.5" cx="751" cy="439" opacity="0.39"></circle><circle r="1.5" cx="691" cy="453" opacity="0.26"></circle><circle r="1.5" cx="653" cy="403" opacity="0.11"></circle><circle r="1.5" cx="685" cy="347" opacity="0.53"></circle><circle r="1.5" cx="750" cy="354" opacity="0.50"></circle><circle r="1.5" cx="770" cy="418" opacity="0.43"></circle><circle r="1.5" cx="719" cy="463" opacity="0.91"></circle><circle r="1.5" cx="656" cy="432" opacity="0.15"></circle><circle r="1.5" cx="658" cy="362" opacity="0.18"></circle><circle r="1.5" cx="725" cy="335" opacity="0.75"></circle><circle r="1.5" cx="777" cy="387" opacity="0.66"></circle><circle r="1.5" cx="750" cy="457" opacity="0.78"></circle><circle r="1.5" cx="674" cy="459" opacity="0.42"></circle><circle r="1.5" cx="641" cy="390" opacity="0.87"></circle><circle r="1.5" cx="692" cy="330" opacity="0.94"></circle><circle r="1.5" cx="768" cy="354" opacity="0.25"></circle><circle r="1.5" cx="777" cy="435" opacity="0.12"></circle><circle r="1.5" cx="705" cy="476" opacity="0.60"></circle><circle r="1.5" cx="638" cy="425" opacity="0.15"></circle><circle r="1.5" cx="658" cy="343" opacity="0.93"></circle><circle r="1.5" cx="743" cy="327" opacity="0.72"></circle><circle r="2" cx="791" cy="400" opacity="0.16"></circle><circle r="2" cx="743" cy="475" opacity="0.82"></circle><circle r="2" cx="655" cy="460" opacity="0.43"></circle><circle r="2" cx="632" cy="372" opacity="0.75"></circle><circle r="2" cx="705" cy="315" opacity="0.31"></circle><circle r="2" cx="787" cy="360" opacity="0.11"></circle><circle r="2" cx="779" cy="455" opacity="0.80"></circle><circle r="2" cx="688" cy="485" opacity="0.81"></circle><circle r="2" cx="622" cy="413" opacity="0.99"></circle><circle r="2" cx="663" cy="323" opacity="0.87"></circle><circle r="2" cx="763" cy="324" opacity="0.34"></circle><circle r="2" cx="802" cy="418" opacity="0.74"></circle><circle r="2" cx="731" cy="492" opacity="0.74"></circle><circle r="2" cx="634" cy="456" opacity="0.99"></circle><circle r="2" cx="628" cy="351" opacity="0.36"></circle><circle r="2" cx="723" cy="303" opacity="0.56"></circle><circle r="2" cx="806" cy="372" opacity="0.36"></circle><circle r="2" cx="775" cy="477" opacity="0.74"></circle><circle r="2" cx="666" cy="491" opacity="0.96"></circle><circle r="2" cx="609" cy="395" opacity="0.85"></circle><circle r="2" cx="674" cy="303" opacity="0.97"></circle><circle r="2" cx="786" cy="327" opacity="0.33"></circle><circle r="2" cx="809" cy="440" opacity="0.90"></circle><circle r="2" cx="713" cy="507" opacity="0.83"></circle><circle r="2" cx="613" cy="445" opacity="0.16"></circle><circle r="2" cx="629" cy="327" opacity="0.62"></circle><circle r="2.5" cx="745" cy="295" opacity="0.25"></circle><circle r="2.5" cx="822" cy="389" opacity="0.15"></circle><circle r="2.5" cx="766" cy="499" opacity="0.87"></circle><circle r="2.5" cx="642" cy="490" opacity="0.65"></circle><circle r="2.5" cx="599" cy="372" opacity="0.42"></circle><circle r="2.5" cx="692" cy="285" opacity="0.45"></circle><circle r="2.5" cx="809" cy="336" opacity="0.70"></circle><circle r="2.5" cx="810" cy="465" opacity="0.70"></circle><circle r="2.5" cx="691" cy="518" opacity="0.20"></circle><circle r="2.5" cx="593" cy="429" opacity="0.80"></circle><circle r="2.5" cx="637" cy="303" opacity="0.34"></circle><circle r="2.5" cx="771" cy="292" opacity="0.89"></circle><circle r="2.5" cx="835" cy="412" opacity="0.92"></circle><circle r="2.5" cx="749" cy="520" opacity="0.46"></circle><circle r="2.5" cx="616" cy="484" opacity="0.12"></circle><circle r="2.5" cx="595" cy="346" opacity="0.16"></circle><circle r="2.5" cx="714" cy="271" opacity="0.66"></circle><circle r="2.5" cx="832" cy="351" opacity="0.45"></circle><circle r="2.5" cx="805" cy="492" opacity="0.79"></circle><circle r="2.5" cx="664" cy="524" opacity="0.85"></circle><circle r="2.5" cx="577" cy="406" opacity="0.61"></circle><circle r="2.5" cx="652" cy="279" opacity="0.59"></circle><circle r="2.5" cx="799" cy="296" opacity="0.83"></circle><circle r="2.5" cx="842" cy="440" opacity="0.97"></circle><circle r="2.5" cx="727" cy="537" opacity="0.17"></circle><circle r="3" cx="590" cy="470" opacity="0.34"></circle><circle r="3" cx="597" cy="317" opacity="0.77"></circle><circle r="3" cx="742" cy="262" opacity="0.38"></circle><circle r="3" cx="851" cy="373" opacity="0.96"></circle><circle r="3" cx="793" cy="519" opacity="0.69"></circle><circle r="3" cx="634" cy="523" opacity="0.58"></circle><circle r="3" cx="566" cy="378" opacity="0.23"></circle><circle r="3" cx="673" cy="257" opacity="0.92"></circle><circle r="3" cx="827" cy="307" opacity="0.74"></circle><circle r="3" cx="844" cy="470" opacity="0.12"></circle><circle r="3" cx="700" cy="551" opacity="0.59"></circle><circle r="3" cx="567" cy="450" opacity="0.53"></circle><circle r="3" cx="607" cy="287" opacity="0.92"></circle><circle r="3" cx="773" cy="258" opacity="0.85"></circle><circle r="3" cx="867" cy="401" opacity="0.74"></circle><circle r="3" cx="773" cy="544" opacity="0.37"></circle><circle r="3" cx="603" cy="515" opacity="0.71"></circle><circle r="3" cx="561" cy="347" opacity="0.65"></circle><circle r="3" cx="700" cy="240" opacity="0.32"></circle><circle r="3" cx="854" cy="325" opacity="0.90"></circle><circle r="3" cx="838" cy="502" opacity="0.78"></circle><circle r="3" cx="667" cy="558" opacity="0.99"></circle><circle r="3" cx="548" cy="423" opacity="0.24"></circle><circle r="3" cx="624" cy="258" opacity="0.56"></circle><circle r="3" cx="807" cy="263" opacity="0.23"></circle><circle r="3" cx="876" cy="433" opacity="0.31"></circle><circle r="3.5" cx="747" cy="566" opacity="0.24"></circle><circle r="3.5" cx="572" cy="500" opacity="0.48"></circle><circle r="3.5" cx="563" cy="312" opacity="0.37"></circle><circle r="3.5" cx="733" cy="228" opacity="0.85"></circle><circle r="3.5" cx="878" cy="351" opacity="0.79"></circle><circle r="3.5" cx="824" cy="535" opacity="0.74"></circle><circle r="3.5" cx="632" cy="558" opacity="0.85"></circle><circle r="3.5" cx="533" cy="391" opacity="0.54"></circle><circle r="3.5" cx="648" cy="232" opacity="0.16"></circle><circle r="3.5" cx="840" cy="275" opacity="0.76"></circle><circle r="3.5" cx="879" cy="469" opacity="0.99"></circle><circle r="3.5" cx="715" cy="582" opacity="0.46"></circle><circle r="3.5" cx="544" cy="477" opacity="0.77"></circle><circle r="3.5" cx="573" cy="277" opacity="0.27"></circle><circle r="3.5" cx="769" cy="223" opacity="0.48"></circle><circle r="3.5" cx="897" cy="383" opacity="0.39"></circle><circle r="3.5" cx="802" cy="565" opacity="0.40"></circle><circle r="3.5" cx="595" cy="550" opacity="0.12"></circle><circle r="3.5" cx="526" cy="354" opacity="0.74"></circle><circle r="3.5" cx="680" cy="211" opacity="0.98"></circle><circle r="3.5" cx="873" cy="295" opacity="0.58"></circle><circle r="3.5" cx="873" cy="507" opacity="0.67"></circle><circle r="3.5" cx="677" cy="592" opacity="0.86"></circle><circle r="3.5" cx="520" cy="446" opacity="0.97"></circle><circle r="3.5" cx="592" cy="242" opacity="0.49"></circle><circle r="3.5" cx="808" cy="227" opacity="0.98"></circle><circle r="4" cx="910" cy="420" opacity="0.86"></circle><circle r="4" cx="772" cy="591" opacity="0.30"></circle><circle r="4" cx="559" cy="533" opacity="0.61"></circle><circle r="4" cx="527" cy="313" opacity="0.53"></circle><circle r="4" cx="717" cy="196" opacity="0.21"></circle><circle r="4" cx="902" cy="323" opacity="0.50"></circle><circle r="4" cx="858" cy="545" opacity="0.59"></circle><circle r="4" cx="636" cy="594" opacity="0.92"></circle><circle r="4" cx="502" cy="409" opacity="0.71"></circle><circle r="4" cx="619" cy="211" opacity="0.48"></circle><circle r="4" cx="848" cy="239" opacity="0.60"></circle><circle r="4" cx="914" cy="462" opacity="0.13"></circle><circle r="4" cx="736" cy="612" opacity="0.13"></circle><circle r="4" cx="525" cy="508" opacity="0.18"></circle><circle r="4" cx="537" cy="272" opacity="0.87"></circle><circle r="4" cx="759" cy="188" opacity="0.63"></circle><circle r="4" cx="926" cy="359" opacity="0.30"></circle><circle r="4" cx="835" cy="581" opacity="0.16"></circle><circle r="4" cx="594" cy="587" opacity="0.66"></circle><circle r="4" cx="492" cy="367" opacity="0.66"></circle><circle r="4" cx="654" cy="184" opacity="0.86"></circle><circle r="4" cx="887" cy="260" opacity="0.20"></circle><circle r="4" cx="910" cy="506" opacity="0.48"></circle><circle r="4" cx="693" cy="626" opacity="0.82"></circle><circle r="4" cx="496" cy="474" opacity="0.20"></circle><circle r="4" cx="556" cy="232" opacity="0.57"></circle><circle r="4.5" cx="804" cy="190" opacity="0.89"></circle><circle r="4.5" cx="942" cy="401" opacity="0.38"></circle><circle r="4.5" cx="803" cy="614" opacity="0.11"></circle><circle r="4.5" cx="551" cy="570" opacity="0.92"></circle><circle r="4.5" cx="490" cy="321" opacity="0.73"></circle><circle r="4.5" cx="695" cy="165" opacity="0.73"></circle><circle r="4.5" cx="921" cy="291" opacity="0.94"></circle><circle r="4.5" cx="896" cy="550" opacity="0.33"></circle><circle r="4.5" cx="647" cy="631" opacity="0.40"></circle><circle r="4.5" cx="473" cy="433" opacity="0.25"></circle><circle r="4.5" cx="585" cy="194" opacity="0.60"></circle><circle r="4.5" cx="850" cy="201" opacity="0.69"></circle><circle r="4.5" cx="950" cy="448" opacity="0.72"></circle><circle r="4.5" cx="763" cy="640" opacity="0.18"></circle><circle r="4.5" cx="511" cy="544" opacity="0.38"></circle><circle r="4.5" cx="498" cy="273" opacity="0.87"></circle><circle r="4.5" cx="742" cy="153" opacity="0.78"></circle><circle r="4.5" cx="951" cy="330" opacity="0.99"></circle><circle r="4.5" cx="872" cy="593" opacity="0.22"></circle><circle r="4.5" cx="598" cy="625" opacity="0.24"></circle><circle r="4.5" cx="458" cy="386" opacity="0.91"></circle><circle r="4.5" cx="622" cy="162" opacity="0.57"></circle><circle r="4.5" cx="895" cy="223" opacity="0.98"></circle><circle r="4.5" cx="948" cy="498" opacity="0.19"></circle><circle r="4.5" cx="716" cy="658" opacity="0.46"></circle><circle r="4.5" cx="475" cy="508" opacity="0.83"></circle><circle r="5" cx="517" cy="226" opacity="0.16"></circle><circle r="5" cx="793" cy="152" opacity="0.34"></circle><circle r="5" cx="972" cy="376" opacity="0.23"></circle><circle r="5" cx="838" cy="631" opacity="0.53"></circle><circle r="5" cx="549" cy="609" opacity="0.95"></circle><circle r="5" cx="453" cy="335" opacity="0.13"></circle><circle r="5" cx="668" cy="136" opacity="0.45"></circle><circle r="5" cx="936" cy="254" opacity="0.82"></circle><circle r="5" cx="935" cy="549" opacity="0.12"></circle><circle r="5" cx="664" cy="666" opacity="0.55"></circle><circle r="5" cx="447" cy="463" opacity="0.81"></circle><circle r="5" cx="547" cy="182" opacity="0.77"></circle><circle r="5" cx="846" cy="161" opacity="0.86"></circle><circle r="5" cx="985" cy="428" opacity="0.43"></circle><circle r="5" cx="795" cy="663" opacity="0.89"></circle><circle r="5" cx="502" cy="583" opacity="0.94"></circle><circle r="5" cx="459" cy="281" opacity="0.23"></circle><circle r="5" cx="720" cy="120" opacity="0.86"></circle><circle r="5" cx="972" cy="296" opacity="0.30"></circle><circle r="5" cx="912" cy="598" opacity="0.67"></circle><circle r="5" cx="609" cy="664" opacity="0.53"></circle><circle r="5" cx="427" cy="412" opacity="0.26"></circle><circle r="5" cx="586" cy="143" opacity="0.71"></circle><circle r="5" cx="897" cy="182" opacity="0.91"></circle><circle r="5" cx="986" cy="484" opacity="0.45"></circle><circle r="5.5" cx="744" cy="687" opacity="0.26"></circle><circle r="5.5" cx="460" cy="546" opacity="0.30"></circle><circle r="5.5" cx="476" cy="227" opacity="0.36"></circle><circle r="5.5" cx="776" cy="115" opacity="0.26"></circle><circle r="5.5" cx="1000" cy="346" opacity="0.69"></circle><circle r="5.5" cx="877" cy="644" opacity="0.44"></circle><circle r="5.5" cx="553" cy="651" opacity="1.00"></circle><circle r="5.5" cx="417" cy="355" opacity="0.54"></circle><circle r="5.5" cx="635" cy="111" opacity="0.56"></circle><circle r="5.5" cx="946" cy="214" opacity="0.83"></circle><circle r="5.5" cx="976" cy="542" opacity="0.69"></circle><circle r="5.5" cx="687" cy="701" opacity="0.88"></circle><circle r="5.5" cx="424" cy="499" opacity="0.47"></circle><circle r="5.5" cx="505" cy="176" opacity="0.33"></circle><circle r="5.5" cx="835" cy="121" opacity="0.82"></circle><circle r="5.5" cx="1018" cy="402" opacity="0.27"></circle><circle r="5.5" cx="832" cy="683" opacity="0.38"></circle><circle r="5.5" cx="499" cy="625" opacity="0.33"></circle><circle r="5.5" cx="419" cy="295" opacity="0.36"></circle><circle r="5.5" cx="691" cy="89" opacity="0.37"></circle><circle r="5.5" cx="989" cy="257" opacity="0.72"></circle><circle r="5.5" cx="954" cy="598" opacity="0.43"></circle><circle r="5.5" cx="626" cy="703" opacity="0.58"></circle><circle r="5.5" cx="398" cy="443" opacity="0.42"></circle><circle r="5.5" cx="546" cy="129" opacity="0.94"></circle><circle r="5.5" cx="894" cy="139" opacity="1.00"></circle><circle r="6" cx="1024" cy="464" opacity="0.56"></circle><circle r="6" cx="778" cy="713" opacity="0.81"></circle><circle r="6" cx="449" cy="587" opacity="0.67"></circle><circle r="6" cx="434" cy="234" opacity="0.55"></circle><circle r="6" cx="752" cy="79" opacity="0.58"></circle><circle r="6" cx="1023" cy="309" opacity="0.64"></circle><circle r="6" cx="920" cy="651" opacity="0.40"></circle><circle r="6" cx="564" cy="692" opacity="0.53"></circle><circle r="6" cx="383" cy="382" opacity="0.14"></circle><circle r="6" cx="596" cy="91" opacity="0.98"></circle><circle r="6" cx="950" cy="171" opacity="0.39"></circle><circle r="6" cx="1018" cy="528" opacity="0.12"></circle><circle r="6" cx="716" cy="733" opacity="0.58"></circle><circle r="6" cx="407" cy="539" opacity="0.66"></circle><circle r="6" cx="462" cy="176" opacity="0.82"></circle><circle r="6" cx="818" cy="81" opacity="0.69"></circle><circle r="6" cx="1048" cy="370" opacity="0.16"></circle><circle r="6" cx="873" cy="698" opacity="0.99"></circle><circle r="6" cx="502" cy="669" opacity="0.32"></circle><circle r="6" cx="380" cy="316" opacity="0.50"></circle><circle r="6" cx="656" cy="62" opacity="0.56"></circle><circle r="6" cx="1000" cy="214" opacity="0.22"></circle><circle r="6" cx="998" cy="591" opacity="0.73"></circle><circle r="6" cx="650" cy="741" opacity="0.74"></circle><circle r="6" cx="373" cy="480" opacity="0.48"></circle><circle r="6" cx="502" cy="121" opacity="0.56"></circle><circle r="6.5" cx="883" cy="96" opacity="0.82"></circle><circle r="6.5" cx="1060" cy="437" opacity="0.12"></circle><circle r="6.5" cx="817" cy="735" opacity="0.19"></circle><circle r="6.5" cx="445" cy="632" opacity="0.59"></circle><circle r="6.5" cx="391" cy="248" opacity="0.52"></circle><circle r="6.5" cx="723" cy="45" opacity="0.25"></circle><circle r="6.5" cx="1042" cy="268" opacity="0.20"></circle><circle r="6.5" cx="965" cy="652" opacity="0.24"></circle><circle r="6.5" cx="581" cy="734" opacity="0.12"></circle><circle r="6.5" cx="351" cy="414" opacity="0.48"></circle><circle r="6.5" cx="554" cy="75" opacity="0.19"></circle><circle r="6.5" cx="947" cy="125" opacity="0.56"></circle><circle r="6.5" cx="1058" cy="507" opacity="0.55"></circle><circle r="6.5" cx="752" cy="762" opacity="0.18"></circle><circle r="6.5" cx="394" cy="583" opacity="0.11"></circle><circle r="6.5" cx="416" cy="182" opacity="0.74"></circle><circle r="6.5" cx="793" cy="41" opacity="0.79"></circle><circle r="6.5" cx="1074" cy="332" opacity="0.20"></circle><circle r="6.5" cx="919" cy="707" opacity="0.54"></circle><circle r="6.5" cx="512" cy="714" opacity="0.51"></circle><circle r="6.5" cx="343" cy="343" opacity="0.11"></circle><circle r="6.5" cx="616" cy="38" opacity="0.70"></circle><circle r="6.5" cx="1005" cy="168" opacity="0.21"></circle><circle r="6.5" cx="1043" cy="578" opacity="0.32"></circle><circle r="6.5" cx="680" cy="776" opacity="0.67"></circle><circle r="6.5" cx="353" cy="522" opacity="0.73"></circle><circle r="7" cx="455" cy="120" opacity="0.99"></circle><circle r="7" cx="866" cy="52" opacity="0.72"></circle><circle r="7" cx="1093" cy="403" opacity="0.60"></circle><circle r="7" cx="861" cy="753" opacity="0.48"></circle><circle r="7" cx="447" cy="679" opacity="0.30"></circle><circle r="7" cx="349" cy="269" opacity="0.44"></circle><circle r="7" cx="686" cy="14" opacity="0.63"></circle><circle r="7" cx="1056" cy="223" opacity="0.31"></circle><circle r="7" cx="1012" cy="646" opacity="0.82"></circle><circle r="7" cx="605" cy="775" opacity="0.62"></circle><circle r="7" cx="323" cy="453" opacity="0.20"></circle><circle r="7" cx="507" cy="65" opacity="0.17"></circle><circle r="7" cx="938" cy="78" opacity="0.25"></circle><circle r="7" cx="1098" cy="479" opacity="0.37"></circle><circle r="7" cx="793" cy="787" opacity="0.63"></circle><circle r="7" cx="388" cy="630" opacity="0.28"></circle><circle r="7" cx="370" cy="195" opacity="0.49"></circle><circle r="7" cx="763" cy="4" opacity="0.54"></circle><circle r="7" cx="1096" cy="289" opacity="0.75"></circle><circle r="7" cx="967" cy="709" opacity="0.85"></circle><circle r="7" cx="529" cy="759" opacity="0.91"></circle><circle r="7" cx="308" cy="377" opacity="0.52"></circle><circle r="7" cx="571" cy="20" opacity="0.43"></circle><circle r="7" cx="1004" cy="119" opacity="0.31"></circle><circle r="7" cx="1087" cy="557" opacity="0.82"></circle><circle r="7.5" cx="717" cy="809" opacity="0.54"></circle><circle r="7.5" cx="338" cy="569" opacity="0.65"></circle><circle r="7.5" cx="406" cy="125" opacity="0.11"></circle><circle r="7.5" cx="842" cy="9" opacity="0.84"></circle><circle r="7.5" cx="1123" cy="364" opacity="0.75"></circle><circle r="7.5" cx="909" cy="764" opacity="0.30"></circle><circle r="7.5" cx="455" cy="728" opacity="0.35"></circle><circle r="7.5" cx="307" cy="296" opacity="0.79"></circle><circle r="7.5" cx="645" cy="-13" opacity="0.74"></circle><circle r="7.5" cx="1064" cy="174" opacity="0.70"></circle><circle r="7.5" cx="1060" cy="634" opacity="0.37"></circle><circle r="7.5" cx="636" cy="815" opacity="0.66"></circle><circle r="7.5" cx="300" cy="497" opacity="0.26"></circle><circle r="7.5" cx="457" cy="61" opacity="0.11"></circle><circle r="7.5" cx="921" cy="31" opacity="0.87"></circle><circle r="7.5" cx="1135" cy="445" opacity="0.84"></circle><circle r="7.5" cx="839" cy="808" opacity="0.94"></circle><circle r="7.5" cx="388" cy="681" opacity="0.56"></circle><circle r="7.5" cx="323" cy="215" opacity="0.60"></circle><circle r="7.5" cx="726" cy="-30" opacity="0.24"></circle><circle r="7.5" cx="1113" cy="241" opacity="0.24"></circle><circle r="7.5" cx="1018" cy="706" opacity="0.35"></circle><circle r="7.5" cx="553" cy="804" opacity="0.72"></circle><circle r="7.5" cx="276" cy="417" opacity="0.97"></circle><circle r="7.5" cx="522" cy="7" opacity="0.16"></circle><circle r="7.5" cx="997" cy="68" opacity="0.95"></circle><circle r="8" cx="1130" cy="530" opacity="0.58"></circle><circle r="8" cx="760" cy="837" opacity="0.52"></circle><circle r="8" cx="328" cy="620" opacity="0.87"></circle><circle r="8" cx="356" cy="136" opacity="0.69"></circle><circle r="8" cx="811" cy="-32" opacity="0.25"></circle><circle r="8" cx="1148" cy="319" opacity="0.44"></circle><circle r="8" cx="960" cy="769" opacity="0.34"></circle><circle r="8" cx="471" cy="777" opacity="0.62"></circle><circle r="8" cx="268" cy="331" opacity="0.65"></circle><circle r="8" cx="598" cy="-35" opacity="0.34"></circle><circle r="8" cx="1065" cy="122" opacity="0.63"></circle><circle r="8" cx="1109" cy="614" opacity="0.98"></circle><circle r="8" cx="673" cy="851" opacity="0.75"></circle></g></svg>