<svg xmlns="http://www.w3.org/2000/svg" version="1.1" xmlns:xlink="http://www.w3.org/1999/xlink" xmlns:svgjs="http://svgjs.dev/svgjs" viewBox="0 0 1422 800"><g fill="hsl(10, 75%, 40%)" transform="matrix(4,0,0,4,-2131.5,-1184.25)"><circle r="0.5" cx="716" cy="400" opacity="0.25"></circle><circle r="0.5" cx="714" cy="405" opacity="0.24"></circle><circle r="0.5" cx="708" cy="406" opacity="0.57"></circle><circle r="0.5" cx="703" cy="401" opacity="0.65"></circle><circle r="0.5" cx="706" cy="393" opacity="0.27"></circle><circle r="0.5" cx="715" cy="391" opacity="0.71"></circle><circle r="0.5" cx="722" cy="398" opacity="0.66"></circle><circle r="0.5" cx="719" cy="409" opacity="0.29"></circle><circle r="0.5" cx="707" cy="413" opacity="0.92"></circle><circle r="0.5" cx="697" cy="403" opacity="0.63"></circle><circle r="0.5" cx="700" cy="389" opacity="1.00"></circle><circle r="0.5" cx="715" cy="384" opacity="0.15"></circle><circle r="0.5" cx="727" cy="394" opacity="0.91"></circle><circle r="0.5" cx="725" cy="412" opacity="0.89"></circle><circle r="0.5" cx="708" cy="419" opacity="0.19"></circle><circle r="0.5" cx="692" cy="408" opacity="0.14"></circle><circle r="0.5" cx="694" cy="388" opacity="0.48"></circle><circle r="0.5" cx="712" cy="378" opacity="0.25"></circle><circle r="0.5" cx="732" cy="389" opacity="0.64"></circle><circle r="0.5" cx="732" cy="412" opacity="0.32"></circle><circle r="0.5" cx="712" cy="425" opacity="0.66"></circle><circle r="0.5" cx="689" cy="414" opacity="0.43"></circle><circle r="0.5" cx="686" cy="388" opacity="0.40"></circle><circle r="0.5" cx="708" cy="372" opacity="0.77"></circle><circle r="0.5" cx="734" cy="382" opacity="0.86"></circle><circle r="0.5" cx="739" cy="411" opacity="0.58"></circle><circle r="0.5" cx="717" cy="431" opacity="0.31"></circle><circle r="0.5" cx="687" cy="422" opacity="0.16"></circle><circle r="0.5" cx="679" cy="391" opacity="0.74"></circle><circle r="1" cx="702" cy="367" opacity="0.88"></circle><circle r="1" cx="735" cy="374" opacity="0.82"></circle><circle r="1" cx="747" cy="407" opacity="0.45"></circle><circle r="1" cx="724" cy="435" opacity="0.27"></circle><circle r="1" cx="687" cy="430" opacity="0.66"></circle><circle r="1" cx="672" cy="395" opacity="0.63"></circle><circle r="1" cx="694" cy="363" opacity="0.86"></circle><circle r="1" cx="734" cy="365" opacity="0.25"></circle><circle r="1" cx="754" cy="402" opacity="0.85"></circle><circle r="1" cx="732" cy="438" opacity="0.30"></circle><circle r="1" cx="689" cy="439" opacity="0.80"></circle><circle r="1" cx="665" cy="402" opacity="0.85"></circle><circle r="1" cx="685" cy="361" opacity="0.88"></circle><circle r="1" cx="731" cy="356" opacity="0.69"></circle><circle r="1" cx="759" cy="394" opacity="0.62"></circle><circle r="1" cx="742" cy="439" opacity="0.33"></circle><circle r="1" cx="694" cy="448" opacity="0.40"></circle><circle r="1" cx="660" cy="411" opacity="0.35"></circle><circle r="1" cx="675" cy="361" opacity="0.16"></circle><circle r="1" cx="725" cy="348" opacity="0.12"></circle><circle r="1" cx="764" cy="385" opacity="0.23"></circle><circle r="1" cx="753" cy="438" opacity="0.32"></circle><circle r="1" cx="701" cy="456" opacity="0.47"></circle><circle r="1" cx="657" cy="421" opacity="0.82"></circle><circle r="1" cx="664" cy="364" opacity="0.52"></circle><circle r="1" cx="717" cy="340" opacity="0.36"></circle><circle r="1" cx="766" cy="373" opacity="0.29"></circle><circle r="1" cx="763" cy="434" opacity="0.31"></circle><circle r="1" cx="710" cy="463" opacity="0.19"></circle><circle r="1" cx="656" cy="432" opacity="0.59"></circle><circle r="1" cx="653" cy="369" opacity="0.96"></circle><circle r="1" cx="707" cy="334" opacity="0.52"></circle><circle r="1" cx="766" cy="361" opacity="0.56"></circle><circle r="1" cx="774" cy="427" opacity="0.18"></circle><circle r="1" cx="721" cy="469" opacity="0.37"></circle><circle r="1" cx="657" cy="445" opacity="0.86"></circle><circle r="1" cx="643" cy="377" opacity="0.62"></circle><circle r="1" cx="695" cy="329" opacity="0.37"></circle><circle r="1" cx="763" cy="349" opacity="0.12"></circle><circle r="1" cx="783" cy="418" opacity="0.44"></circle><circle r="1" cx="734" cy="472" opacity="0.11"></circle><circle r="1" cx="661" cy="458" opacity="0.55"></circle><circle r="1" cx="635" cy="387" opacity="0.89"></circle><circle r="1" cx="681" cy="327" opacity="0.44"></circle><circle r="1" cx="758" cy="336" opacity="0.93"></circle><circle r="1" cx="791" cy="407" opacity="0.25"></circle><circle r="1" cx="748" cy="473" opacity="0.19"></circle><circle r="1" cx="668" cy="470" opacity="0.61"></circle><circle r="1" cx="627" cy="400" opacity="0.64"></circle><circle r="1" cx="667" cy="328" opacity="0.33"></circle><circle r="1" cx="750" cy="324" opacity="0.45"></circle><circle r="1" cx="797" cy="393" opacity="0.34"></circle><circle r="1" cx="763" cy="471" opacity="0.73"></circle><circle r="1" cx="677" cy="482" opacity="0.57"></circle><circle r="1" cx="623" cy="415" opacity="0.45"></circle><circle r="1" cx="652" cy="331" opacity="0.66"></circle><circle r="1" cx="739" cy="313" opacity="0.87"></circle><circle r="1.5" cx="801" cy="378" opacity="0.56"></circle><circle r="1.5" cx="778" cy="466" opacity="0.58"></circle><circle r="1.5" cx="690" cy="492" opacity="0.94"></circle><circle r="1.5" cx="620" cy="431" opacity="0.23"></circle><circle r="1.5" cx="637" cy="338" opacity="0.14"></circle><circle r="1.5" cx="725" cy="303" opacity="0.20"></circle><circle r="1.5" cx="802" cy="361" opacity="0.28"></circle><circle r="1.5" cx="793" cy="457" opacity="0.23"></circle><circle r="1.5" cx="705" cy="501" opacity="0.67"></circle><circle r="1.5" cx="621" cy="448" opacity="0.54"></circle><circle r="1.5" cx="622" cy="348" opacity="0.59"></circle><circle r="1.5" cx="709" cy="296" opacity="0.15"></circle><circle r="1.5" cx="799" cy="343" opacity="0.38"></circle><circle r="1.5" cx="806" cy="446" opacity="0.36"></circle><circle r="1.5" cx="722" cy="506" opacity="0.75"></circle><circle r="1.5" cx="625" cy="466" opacity="0.29"></circle><circle r="1.5" cx="609" cy="361" opacity="0.44"></circle><circle r="1.5" cx="691" cy="292" opacity="0.52"></circle><circle r="1.5" cx="793" cy="326" opacity="0.91"></circle><circle r="1.5" cx="819" cy="432" opacity="0.59"></circle><circle r="1.5" cx="741" cy="509" opacity="0.28"></circle><circle r="1.5" cx="633" cy="483" opacity="0.35"></circle><circle r="1.5" cx="598" cy="377" opacity="0.29"></circle><circle r="1.5" cx="672" cy="291" opacity="0.91"></circle><circle r="1.5" cx="784" cy="308" opacity="0.95"></circle><circle r="1.5" cx="828" cy="414" opacity="0.85"></circle><circle r="1.5" cx="761" cy="508" opacity="0.32"></circle><circle r="1.5" cx="644" cy="500" opacity="0.16"></circle><circle r="1.5" cx="590" cy="395" opacity="0.74"></circle><circle r="1.5" cx="651" cy="293" opacity="0.42"></circle><circle r="1.5" cx="771" cy="292" opacity="0.21"></circle><circle r="1.5" cx="835" cy="395" opacity="0.69"></circle><circle r="1.5" cx="781" cy="504" opacity="0.41"></circle><circle r="1.5" cx="658" cy="515" opacity="0.96"></circle><circle r="1.5" cx="585" cy="416" opacity="0.85"></circle><circle r="1.5" cx="631" cy="300" opacity="0.63"></circle><circle r="1.5" cx="755" cy="278" opacity="0.82"></circle><circle r="1.5" cx="839" cy="374" opacity="0.55"></circle><circle r="1.5" cx="801" cy="496" opacity="0.40"></circle><circle r="1.5" cx="676" cy="528" opacity="0.81"></circle><circle r="1.5" cx="583" cy="438" opacity="0.39"></circle><circle r="1.5" cx="611" cy="310" opacity="0.29"></circle><circle r="1.5" cx="736" cy="267" opacity="0.56"></circle><circle r="1.5" cx="838" cy="351" opacity="0.12"></circle><circle r="1.5" cx="820" cy="484" opacity="0.43"></circle><circle r="1.5" cx="697" cy="538" opacity="0.40"></circle><circle r="1.5" cx="585" cy="461" opacity="0.24"></circle><circle r="1.5" cx="593" cy="324" opacity="0.11"></circle><circle r="1.5" cx="714" cy="258" opacity="0.49"></circle><circle r="1.5" cx="834" cy="328" opacity="0.90"></circle><circle r="1.5" cx="838" cy="468" opacity="0.48"></circle><circle r="1.5" cx="720" cy="544" opacity="0.82"></circle><circle r="1.5" cx="592" cy="484" opacity="0.12"></circle><circle r="1.5" cx="576" cy="342" opacity="0.20"></circle><circle r="1.5" cx="690" cy="254" opacity="0.36"></circle><circle r="1.5" cx="825" cy="305" opacity="0.99"></circle><circle r="1.5" cx="853" cy="448" opacity="0.18"></circle><circle r="2" cx="745" cy="547" opacity="0.47"></circle><circle r="2" cx="602" cy="506" opacity="0.17"></circle><circle r="2" cx="563" cy="363" opacity="0.91"></circle><circle r="2" cx="665" cy="253" opacity="0.68"></circle><circle r="2" cx="813" cy="283" opacity="0.21"></circle><circle r="2" cx="865" cy="425" opacity="0.65"></circle><circle r="2" cx="770" cy="545" opacity="0.93"></circle><circle r="2" cx="618" cy="527" opacity="0.53"></circle><circle r="2" cx="553" cy="387" opacity="0.81"></circle><circle r="2" cx="639" cy="257" opacity="0.14"></circle><circle r="2" cx="795" cy="263" opacity="0.76"></circle><circle r="2" cx="873" cy="400" opacity="0.26"></circle><circle r="2" cx="796" cy="539" opacity="0.76"></circle><circle r="2" cx="637" cy="546" opacity="0.52"></circle><circle r="2" cx="546" cy="413" opacity="0.50"></circle><circle r="2" cx="613" cy="266" opacity="0.34"></circle><circle r="2" cx="774" cy="245" opacity="0.17"></circle><circle r="2" cx="877" cy="373" opacity="0.11"></circle><circle r="2" cx="822" cy="528" opacity="0.32"></circle><circle r="2" cx="660" cy="562" opacity="0.40"></circle><circle r="2" cx="545" cy="441" opacity="0.10"></circle><circle r="2" cx="588" cy="279" opacity="0.69"></circle><circle r="2" cx="750" cy="231" opacity="0.97"></circle><circle r="2" cx="876" cy="344" opacity="0.44"></circle><circle r="2" cx="846" cy="512" opacity="0.16"></circle><circle r="2" cx="686" cy="575" opacity="0.76"></circle><circle r="2" cx="548" cy="470" opacity="0.12"></circle><circle r="2" cx="565" cy="297" opacity="0.85"></circle><circle r="2" cx="722" cy="221" opacity="0.79"></circle><circle r="2" cx="870" cy="315" opacity="0.51"></circle><circle r="2" cx="867" cy="492" opacity="0.42"></circle><circle r="2" cx="715" cy="582" opacity="0.14"></circle><circle r="2" cx="557" cy="499" opacity="0.99"></circle><circle r="2" cx="545" cy="320" opacity="0.70"></circle><circle r="2" cx="692" cy="215" opacity="0.61"></circle><circle r="2" cx="859" cy="287" opacity="0.67"></circle><circle r="2" cx="886" cy="467" opacity="0.13"></circle><circle r="2" cx="745" cy="585" opacity="0.37"></circle><circle r="2" cx="570" cy="527" opacity="0.12"></circle><circle r="2" cx="528" cy="346" opacity="0.35"></circle><circle r="2" cx="661" cy="215" opacity="0.20"></circle><circle r="2" cx="843" cy="260" opacity="0.93"></circle><circle r="2" cx="901" cy="439" opacity="0.19"></circle><circle r="2" cx="777" cy="583" opacity="0.37"></circle><circle r="2" cx="589" cy="553" opacity="0.13"></circle><circle r="2" cx="516" cy="376" opacity="0.38"></circle><circle r="2" cx="629" cy="220" opacity="0.94"></circle><circle r="2" cx="822" cy="235" opacity="0.29"></circle><circle r="2" cx="911" cy="408" opacity="0.35"></circle><circle r="2" cx="809" cy="575" opacity="0.65"></circle><circle r="2" cx="612" cy="576" opacity="0.18"></circle><circle r="2" cx="508" cy="408" opacity="0.73"></circle><circle r="2" cx="597" cy="231" opacity="0.87"></circle><circle r="2" cx="796" cy="214" opacity="0.61"></circle><circle r="2" cx="915" cy="375" opacity="0.68"></circle><circle r="2" cx="840" cy="562" opacity="0.79"></circle><circle r="2.5" cx="640" cy="596" opacity="0.86"></circle><circle r="2.5" cx="506" cy="442" opacity="0.71"></circle><circle r="2.5" cx="567" cy="247" opacity="0.14"></circle><circle r="2.5" cx="766" cy="196" opacity="0.97"></circle><circle r="2.5" cx="914" cy="340" opacity="0.97"></circle><circle r="2.5" cx="869" cy="543" opacity="0.77"></circle><circle r="2.5" cx="672" cy="610" opacity="0.38"></circle><circle r="2.5" cx="510" cy="477" opacity="0.51"></circle><circle r="2.5" cx="539" cy="269" opacity="0.81"></circle><circle r="2.5" cx="733" cy="184" opacity="0.89"></circle><circle r="2.5" cx="908" cy="305" opacity="0.25"></circle><circle r="2.5" cx="895" cy="519" opacity="0.23"></circle><circle r="2.5" cx="706" cy="620" opacity="1.00"></circle><circle r="2.5" cx="520" cy="512" opacity="0.86"></circle><circle r="2.5" cx="515" cy="295" opacity="0.65"></circle><circle r="2.5" cx="697" cy="177" opacity="0.65"></circle><circle r="2.5" cx="895" cy="271" opacity="0.71"></circle><circle r="2.5" cx="918" cy="490" opacity="0.73"></circle><circle r="2.5" cx="743" cy="624" opacity="0.71"></circle><circle r="2.5" cx="536" cy="545" opacity="0.72"></circle><circle r="2.5" cx="495" cy="327" opacity="0.26"></circle><circle r="2.5" cx="660" cy="176" opacity="0.52"></circle><circle r="2.5" cx="876" cy="239" opacity="0.28"></circle><circle r="2.5" cx="936" cy="456" opacity="0.54"></circle><circle r="2.5" cx="781" cy="622" opacity="0.65"></circle><circle r="2.5" cx="558" cy="576" opacity="0.86"></circle><circle r="2.5" cx="480" cy="362" opacity="0.60"></circle><circle r="2.5" cx="622" cy="182" opacity="0.59"></circle><circle r="2.5" cx="851" cy="209" opacity="0.48"></circle><circle r="2.5" cx="948" cy="419" opacity="0.39"></circle><circle r="2.5" cx="819" cy="613" opacity="0.81"></circle><circle r="2.5" cx="585" cy="604" opacity="0.42"></circle><circle r="2.5" cx="470" cy="400" opacity="0.71"></circle><circle r="2.5" cx="585" cy="194" opacity="0.68"></circle><circle r="2.5" cx="821" cy="184" opacity="0.44"></circle><circle r="2.5" cx="954" cy="380" opacity="0.33"></circle><circle r="2.5" cx="856" cy="597" opacity="0.69"></circle><circle r="2.5" cx="618" cy="627" opacity="0.13"></circle><circle r="2.5" cx="468" cy="440" opacity="0.42"></circle><circle r="2.5" cx="549" cy="213" opacity="0.27"></circle><circle r="2.5" cx="786" cy="163" opacity="0.31"></circle><circle r="2.5" cx="953" cy="340" opacity="0.41"></circle><circle r="2.5" cx="890" cy="576" opacity="0.52"></circle><circle r="2.5" cx="655" cy="645" opacity="0.84"></circle><circle r="2.5" cx="471" cy="481" opacity="0.20"></circle><circle r="2.5" cx="516" cy="238" opacity="0.21"></circle><circle r="2.5" cx="747" cy="148" opacity="0.55"></circle><circle r="2.5" cx="946" cy="299" opacity="0.79"></circle><circle r="2.5" cx="921" cy="548" opacity="0.98"></circle><circle r="2.5" cx="695" cy="657" opacity="0.11"></circle><circle r="2.5" cx="482" cy="522" opacity="0.37"></circle><circle r="2.5" cx="487" cy="268" opacity="0.40"></circle><circle r="2.5" cx="706" cy="139" opacity="0.50"></circle><circle r="2.5" cx="932" cy="258" opacity="0.45"></circle><circle r="2.5" cx="948" cy="514" opacity="0.50"></circle><circle r="2.5" cx="738" cy="663" opacity="0.56"></circle><circle r="2.5" cx="500" cy="561" opacity="0.58"></circle><circle r="3" cx="463" cy="304" opacity="0.21"></circle><circle r="3" cx="662" cy="137" opacity="0.41"></circle><circle r="3" cx="910" cy="220" opacity="0.43"></circle><circle r="3" cx="969" cy="476" opacity="0.33"></circle><circle r="3" cx="782" cy="661" opacity="0.10"></circle><circle r="3" cx="525" cy="597" opacity="0.67"></circle><circle r="3" cx="444" cy="345" opacity="0.76"></circle><circle r="3" cx="618" cy="143" opacity="0.75"></circle><circle r="3" cx="882" cy="186" opacity="0.69"></circle><circle r="3" cx="984" cy="434" opacity="0.82"></circle><circle r="3" cx="826" cy="651" opacity="0.73"></circle><circle r="3" cx="556" cy="630" opacity="0.26"></circle><circle r="3" cx="433" cy="388" opacity="0.90"></circle><circle r="3" cx="575" cy="156" opacity="0.47"></circle><circle r="3" cx="848" cy="155" opacity="0.92"></circle><circle r="3" cx="992" cy="389" opacity="0.38"></circle><circle r="3" cx="868" cy="635" opacity="0.27"></circle><circle r="3" cx="593" cy="658" opacity="0.18"></circle><circle r="3" cx="429" cy="435" opacity="0.68"></circle><circle r="3" cx="533" cy="177" opacity="0.67"></circle><circle r="3" cx="809" cy="131" opacity="0.32"></circle><circle r="3" cx="993" cy="342" opacity="0.99"></circle><circle r="3" cx="909" cy="610" opacity="0.49"></circle><circle r="3" cx="635" cy="679" opacity="0.84"></circle><circle r="3" cx="432" cy="482" opacity="0.21"></circle><circle r="3" cx="495" cy="204" opacity="0.28"></circle><circle r="3" cx="765" cy="112" opacity="0.21"></circle><circle r="3" cx="985" cy="295" opacity="0.87"></circle><circle r="3" cx="945" cy="579" opacity="0.80"></circle><circle r="3" cx="681" cy="694" opacity="0.93"></circle><circle r="3" cx="444" cy="529" opacity="0.87"></circle><circle r="3" cx="461" cy="239" opacity="0.72"></circle><circle r="3" cx="717" cy="101" opacity="0.33"></circle><circle r="3" cx="970" cy="249" opacity="0.13"></circle><circle r="3" cx="976" cy="542" opacity="0.53"></circle><circle r="3" cx="729" cy="701" opacity="0.29"></circle><circle r="3" cx="463" cy="574" opacity="0.78"></circle><circle r="3" cx="432" cy="279" opacity="0.16"></circle><circle r="3" cx="668" cy="98" opacity="0.86"></circle><circle r="3" cx="946" cy="205" opacity="0.49"></circle><circle r="3" cx="1002" cy="499" opacity="0.87"></circle><circle r="3" cx="779" cy="700" opacity="0.65"></circle><circle r="3" cx="490" cy="616" opacity="0.68"></circle><circle r="3" cx="410" cy="325" opacity="0.90"></circle><circle r="3" cx="618" cy="103" opacity="0.88"></circle><circle r="3" cx="915" cy="164" opacity="0.77"></circle><circle r="3" cx="1020" cy="451" opacity="0.39"></circle><circle r="3" cx="829" cy="691" opacity="0.47"></circle><circle r="3" cx="525" cy="654" opacity="0.70"></circle><circle r="3" cx="396" cy="374" opacity="0.69"></circle><circle r="3" cx="568" cy="117" opacity="0.22"></circle><circle r="3" cx="878" cy="129" opacity="0.95"></circle><circle r="3" cx="1030" cy="400" opacity="0.10"></circle><circle r="3" cx="878" cy="673" opacity="0.77"></circle><circle r="3" cx="566" cy="686" opacity="0.84"></circle><circle r="3" cx="390" cy="426" opacity="0.43"></circle><circle r="3" cx="520" cy="139" opacity="0.32"></circle><circle r="3.5" cx="834" cy="100" opacity="0.61"></circle><circle r="3.5" cx="1032" cy="347" opacity="0.69"></circle><circle r="3.5" cx="924" cy="647" opacity="0.73"></circle><circle r="3.5" cx="612" cy="712" opacity="0.34"></circle><circle r="3.5" cx="392" cy="479" opacity="0.23"></circle><circle r="3.5" cx="476" cy="169" opacity="0.68"></circle><circle r="3.5" cx="785" cy="78" opacity="0.70"></circle><circle r="3.5" cx="1025" cy="294" opacity="0.49"></circle><circle r="3.5" cx="966" cy="613" opacity="0.61"></circle><circle r="3.5" cx="663" cy="730" opacity="0.35"></circle><circle r="3.5" cx="404" cy="532" opacity="0.69"></circle><circle r="3.5" cx="437" cy="207" opacity="0.65"></circle><circle r="3.5" cx="732" cy="64" opacity="0.94"></circle><circle r="3.5" cx="1009" cy="242" opacity="0.82"></circle><circle r="3.5" cx="1003" cy="571" opacity="0.45"></circle><circle r="3.5" cx="718" cy="739" opacity="0.47"></circle><circle r="3.5" cx="424" cy="584" opacity="0.54"></circle><circle r="3.5" cx="403" cy="252" opacity="0.53"></circle><circle r="3.5" cx="676" cy="59" opacity="0.76"></circle><circle r="3.5" cx="984" cy="191" opacity="0.25"></circle><circle r="3.5" cx="1033" cy="524" opacity="0.90"></circle><circle r="3.5" cx="774" cy="740" opacity="0.60"></circle><circle r="3.5" cx="453" cy="632" opacity="0.95"></circle><circle r="3.5" cx="377" cy="302" opacity="0.30"></circle><circle r="3.5" cx="620" cy="63" opacity="0.86"></circle><circle r="3.5" cx="951" cy="145" opacity="0.50"></circle><circle r="3.5" cx="1054" cy="471" opacity="0.35"></circle><circle r="3.5" cx="830" cy="731" opacity="0.29"></circle><circle r="3.5" cx="491" cy="676" opacity="0.41"></circle><circle r="3.5" cx="360" cy="357" opacity="0.63"></circle><circle r="3.5" cx="564" cy="77" opacity="0.36"></circle><circle r="3.5" cx="910" cy="105" opacity="0.48"></circle><circle r="3.5" cx="1068" cy="415" opacity="0.11"></circle><circle r="3.5" cx="885" cy="713" opacity="0.58"></circle><circle r="3.5" cx="536" cy="713" opacity="0.14"></circle><circle r="3.5" cx="351" cy="414" opacity="0.17"></circle><circle r="3.5" cx="510" cy="100" opacity="0.57"></circle><circle r="3.5" cx="862" cy="71" opacity="0.79"></circle><circle r="3.5" cx="1071" cy="356" opacity="0.33"></circle><circle r="3.5" cx="938" cy="685" opacity="0.76"></circle><circle r="3.5" cx="587" cy="743" opacity="0.58"></circle><circle r="3.5" cx="352" cy="474" opacity="0.72"></circle><circle r="3.5" cx="460" cy="132" opacity="0.10"></circle><circle r="3.5" cx="808" cy="45" opacity="0.33"></circle><circle r="3.5" cx="1065" cy="296" opacity="0.63"></circle><circle r="3.5" cx="986" cy="648" opacity="0.84"></circle><circle r="3.5" cx="643" cy="765" opacity="0.38"></circle><circle r="3.5" cx="363" cy="533" opacity="0.84"></circle><circle r="3.5" cx="415" cy="173" opacity="0.63"></circle><circle r="3.5" cx="749" cy="28" opacity="0.30"></circle><circle r="3.5" cx="1049" cy="237" opacity="0.85"></circle><circle r="3.5" cx="1027" cy="604" opacity="0.61"></circle><circle r="3.5" cx="703" cy="777" opacity="0.11"></circle><circle r="3.5" cx="384" cy="591" opacity="0.92"></circle><circle r="3.5" cx="376" cy="221" opacity="0.83"></circle><circle r="3.5" cx="688" cy="20" opacity="0.85"></circle><circle r="3.5" cx="1023" cy="181" opacity="0.25"></circle><circle r="4" cx="1062" cy="552" opacity="0.78"></circle><circle r="4" cx="765" cy="780" opacity="0.53"></circle><circle r="4" cx="415" cy="646" opacity="0.81"></circle><circle r="4" cx="346" cy="276" opacity="0.62"></circle><circle r="4" cx="625" cy="23" opacity="0.11"></circle><circle r="4" cx="988" cy="129" opacity="0.63"></circle><circle r="4" cx="1088" cy="495" opacity="0.93"></circle><circle r="4" cx="828" cy="772" opacity="0.52"></circle><circle r="4" cx="455" cy="695" opacity="0.39"></circle><circle r="4" cx="325" cy="336" opacity="0.35"></circle><circle r="4" cx="563" cy="36" opacity="0.33"></circle><circle r="4" cx="944" cy="83" opacity="0.30"></circle><circle r="4" cx="1104" cy="433" opacity="0.71"></circle><circle r="4" cx="890" cy="753" opacity="0.89"></circle><circle r="4" cx="503" cy="738" opacity="0.85"></circle><circle r="4" cx="313" cy="400" opacity="0.30"></circle><circle r="4" cx="503" cy="60" opacity="0.61"></circle><circle r="4" cx="892" cy="44" opacity="0.69"></circle><circle r="4" cx="1110" cy="368" opacity="0.53"></circle><circle r="4" cx="948" cy="724" opacity="0.81"></circle><circle r="4" cx="558" cy="773" opacity="0.88"></circle><circle r="4" cx="312" cy="465" opacity="0.26"></circle><circle r="4" cx="446" cy="94" opacity="0.18"></circle><circle r="4" cx="834" cy="13" opacity="0.86"></circle><circle r="4" cx="1106" cy="302" opacity="0.72"></circle><circle r="4" cx="1002" cy="686" opacity="0.97"></circle><circle r="4" cx="620" cy="799" opacity="0.47"></circle><circle r="4" cx="323" cy="531" opacity="0.77"></circle><circle r="4" cx="395" cy="137" opacity="0.37"></circle><circle r="4" cx="770" cy="-8" opacity="0.87"></circle><circle r="4" cx="1090" cy="236" opacity="0.24"></circle><circle r="4" cx="1050" cy="638" opacity="0.24"></circle><circle r="4" cx="685" cy="814" opacity="0.22"></circle><circle r="4" cx="344" cy="595" opacity="0.73"></circle><circle r="4" cx="351" cy="189" opacity="0.99"></circle><circle r="4" cx="703" cy="-18" opacity="0.64"></circle><circle r="4" cx="1064" cy="174" opacity="0.64"></circle><circle r="4" cx="1089" cy="583" opacity="0.83"></circle><circle r="4" cx="753" cy="819" opacity="0.86"></circle><circle r="4" cx="375" cy="656" opacity="0.35"></circle><circle r="4" cx="316" cy="248" opacity="1.00"></circle><circle r="4" cx="634" cy="-17" opacity="0.18"></circle><circle r="4" cx="1027" cy="115" opacity="0.82"></circle><circle r="4" cx="1120" cy="520" opacity="0.24"></circle><circle r="4" cx="823" cy="812" opacity="0.72"></circle><circle r="4" cx="417" cy="712" opacity="0.58"></circle><circle r="4" cx="291" cy="313" opacity="0.99"></circle><circle r="4" cx="565" cy="-5" opacity="0.58"></circle><circle r="4" cx="980" cy="63" opacity="0.56"></circle><circle r="4" cx="1140" cy="453" opacity="0.86"></circle><circle r="4" cx="891" cy="794" opacity="0.33"></circle><circle r="4" cx="468" cy="760" opacity="0.83"></circle><circle r="4" cx="276" cy="382" opacity="0.99"></circle><circle r="4" cx="498" cy="19" opacity="0.36"></circle><circle r="4" cx="925" cy="18" opacity="0.52"></circle><circle r="4" cx="1149" cy="383" opacity="0.53"></circle><circle r="4" cx="956" cy="765" opacity="0.26"></circle><circle r="4.5" cx="528" cy="801" opacity="0.19"></circle><circle r="4.5" cx="273" cy="453" opacity="0.42"></circle><circle r="4.5" cx="435" cy="54" opacity="0.96"></circle><circle r="4.5" cx="862" cy="-17" opacity="0.41"></circle><circle r="4.5" cx="1146" cy="310" opacity="0.25"></circle><circle r="4.5" cx="1016" cy="725" opacity="0.39"></circle><circle r="4.5" cx="593" cy="831" opacity="0.79"></circle><circle r="4.5" cx="281" cy="526" opacity="0.44"></circle><circle r="4.5" cx="378" cy="99" opacity="0.24"></circle><circle r="4.5" cx="794" cy="-42" opacity="0.83"></circle><circle r="4.5" cx="1132" cy="239" opacity="0.11"></circle><circle r="4.5" cx="1070" cy="675" opacity="0.87"></circle><circle r="4.5" cx="664" cy="850" opacity="0.70"></circle><circle r="4.5" cx="302" cy="596" opacity="0.32"></circle><circle r="4.5" cx="329" cy="154" opacity="0.12"></circle><circle r="4.5" cx="721" cy="-56" opacity="0.66"></circle><circle r="4.5" cx="1105" cy="169" opacity="0.54"></circle><circle r="4.5" cx="1115" cy="616" opacity="0.72"></circle><circle r="4.5" cx="739" cy="858" opacity="0.64"></circle><circle r="4.5" cx="334" cy="664" opacity="0.43"></circle><circle r="4.5" cx="288" cy="217" opacity="0.36"></circle><circle r="4.5" cx="646" cy="-57" opacity="0.29"></circle><circle r="4.5" cx="1067" cy="104" opacity="0.87"></circle><circle r="4.5" cx="1150" cy="549" opacity="0.75"></circle><circle r="4.5" cx="814" cy="853" opacity="0.65"></circle><circle r="4.5" cx="378" cy="726" opacity="0.75"></circle><circle r="4.5" cx="258" cy="286" opacity="0.16"></circle><circle r="4.5" cx="570" cy="-46" opacity="0.39"></circle><circle r="4.5" cx="1019" cy="46" opacity="0.86"></circle><circle r="4.5" cx="1175" cy="477" opacity="0.73"></circle><circle r="4.5" cx="889" cy="836" opacity="0.52"></circle><circle r="4.5" cx="431" cy="781" opacity="0.91"></circle><circle r="4.5" cx="239" cy="361" opacity="0.19"></circle><circle r="4.5" cx="497" cy="-23" opacity="0.22"></circle><circle r="4.5" cx="960" cy="-5" opacity="0.27"></circle><circle r="4.5" cx="1187" cy="401" opacity="0.22"></circle><circle r="4.5" cx="960" cy="807" opacity="0.62"></circle><circle r="4.5" cx="494" cy="826" opacity="0.52"></circle><circle r="4.5" cx="233" cy="439" opacity="0.25"></circle><circle r="4.5" cx="428" cy="12" opacity="0.97"></circle><circle r="4.5" cx="893" cy="-45" opacity="0.97"></circle><circle r="4.5" cx="1187" cy="322" opacity="0.50"></circle><circle r="4.5" cx="1027" cy="766" opacity="0.39"></circle><circle r="4.5" cx="565" cy="862" opacity="0.46"></circle><circle r="4.5" cx="240" cy="517" opacity="0.41"></circle><circle r="4.5" cx="364" cy="59" opacity="0.11"></circle><circle r="4.5" cx="820" cy="-75" opacity="0.21"></circle><circle r="4.5" cx="1174" cy="244" opacity="0.87"></circle><circle r="4.5" cx="1087" cy="713" opacity="0.38"></circle><circle r="4.5" cx="641" cy="885" opacity="0.33"></circle><circle r="4.5" cx="260" cy="595" opacity="0.60"></circle><circle r="4.5" cx="308" cy="117" opacity="0.56"></circle><circle r="4.5" cx="742" cy="-93" opacity="0.56"></circle><circle r="4.5" cx="1148" cy="168" opacity="0.75"></circle><circle r="4.5" cx="1138" cy="651" opacity="0.21"></circle><circle r="4.5" cx="721" cy="897" opacity="0.37"></circle><circle r="4.5" cx="292" cy="669" opacity="0.12"></circle><circle r="5" cx="262" cy="183" opacity="0.34"></circle><circle r="5" cx="661" cy="-97" opacity="0.50"></circle><circle r="5" cx="1109" cy="96" opacity="0.30"></circle><circle r="5" cx="1179" cy="581" opacity="0.87"></circle><circle r="5" cx="802" cy="894" opacity="0.17"></circle><circle r="5" cx="337" cy="737" opacity="0.97"></circle><circle r="5" cx="227" cy="257" opacity="0.79"></circle><circle r="5" cx="579" cy="-88" opacity="0.46"></circle><circle r="5" cx="1059" cy="31" opacity="0.24"></circle><circle r="5" cx="1208" cy="503" opacity="0.22"></circle><circle r="5" cx="883" cy="879" opacity="0.72"></circle><circle r="5" cx="393" cy="798" opacity="0.10"></circle><circle r="5" cx="204" cy="337" opacity="0.24"></circle><circle r="5" cx="499" cy="-66" opacity="0.85"></circle><circle r="5" cx="998" cy="-25" opacity="0.28"></circle><circle r="5" cx="1225" cy="422" opacity="0.28"></circle><circle r="5" cx="962" cy="850" opacity="0.14"></circle><circle r="5" cx="459" cy="850" opacity="0.28"></circle><circle r="5" cx="194" cy="420" opacity="0.74"></circle><circle r="5" cx="423" cy="-30" opacity="0.59"></circle><circle r="5" cx="927" cy="-72" opacity="0.71"></circle><circle r="5" cx="1227" cy="337" opacity="0.73"></circle><circle r="5" cx="1035" cy="808" opacity="0.97"></circle><circle r="5" cx="533" cy="891" opacity="0.69"></circle><circle r="5" cx="199" cy="505" opacity="0.52"></circle><circle r="5" cx="352" cy="18" opacity="0.11"></circle><circle r="5" cx="849" cy="-107" opacity="0.48"></circle><circle r="5" cx="1216" cy="252" opacity="0.85"></circle></g></svg>