<svg xmlns="http://www.w3.org/2000/svg" version="1.1" xmlns:xlink="http://www.w3.org/1999/xlink" xmlns:svgjs="http://svgjs.dev/svgjs" viewBox="0 0 1422 800"><g fill="hsl(335, 77%, 50%)" transform="matrix(3.7,0,0,3.7,-1917,-1070.5500000000002)"><circle r="0.5" cx="716" cy="400" opacity="0.31"></circle><circle r="0.5" cx="715" cy="404" opacity="0.37"></circle><circle r="0.5" cx="712" cy="406" opacity="0.11"></circle><circle r="0.5" cx="707" cy="406" opacity="0.48"></circle><circle r="0.5" cx="703" cy="401" opacity="0.14"></circle><circle r="0.5" cx="704" cy="395" opacity="0.51"></circle><circle r="0.5" cx="708" cy="391" opacity="0.93"></circle><circle r="0.5" cx="716" cy="391" opacity="0.35"></circle><circle r="0.5" cx="721" cy="396" opacity="0.82"></circle><circle r="0.5" cx="722" cy="404" opacity="0.98"></circle><circle r="0.5" cx="716" cy="411" opacity="0.99"></circle><circle r="0.5" cx="707" cy="413" opacity="0.27"></circle><circle r="0.5" cx="699" cy="407" opacity="0.97"></circle><circle r="0.5" cx="697" cy="397" opacity="0.81"></circle><circle r="0.5" cx="702" cy="388" opacity="0.44"></circle><circle r="0.5" cx="713" cy="384" opacity="0.52"></circle><circle r="0.5" cx="724" cy="389" opacity="0.22"></circle><circle r="0.5" cx="729" cy="400" opacity="0.62"></circle><circle r="0.5" cx="724" cy="413" opacity="0.47"></circle><circle r="0.5" cx="712" cy="419" opacity="0.62"></circle><circle r="0.5" cx="699" cy="416" opacity="0.17"></circle><circle r="0.5" cx="691" cy="403" opacity="0.85"></circle><circle r="0.5" cx="693" cy="388" opacity="0.85"></circle><circle r="0.5" cx="705" cy="379" opacity="0.44"></circle><circle r="0.5" cx="722" cy="380" opacity="0.28"></circle><circle r="0.5" cx="733" cy="392" opacity="0.75"></circle><circle r="0.5" cx="733" cy="409" opacity="0.29"></circle><circle r="0.5" cx="722" cy="423" opacity="0.56"></circle><circle r="0.5" cx="703" cy="425" opacity="0.13"></circle><circle r="0.5" cx="688" cy="413" opacity="0.39"></circle><circle r="0.5" cx="684" cy="394" opacity="0.28"></circle><circle r="0.5" cx="695" cy="377" opacity="0.34"></circle><circle r="0.5" cx="714" cy="372" opacity="0.37"></circle><circle r="0.5" cx="733" cy="381" opacity="0.27"></circle><circle r="0.5" cx="741" cy="401" opacity="0.51"></circle><circle r="0.5" cx="733" cy="421" opacity="0.37"></circle><circle r="0.5" cx="713" cy="432" opacity="0.72"></circle><circle r="0.5" cx="691" cy="425" opacity="0.22"></circle><circle r="0.5" cx="678" cy="405" opacity="0.68"></circle><circle r="0.5" cx="683" cy="381" opacity="0.97"></circle><circle r="0.5" cx="703" cy="366" opacity="0.71"></circle><circle r="0.5" cx="728" cy="369" opacity="0.65"></circle><circle r="0.5" cx="745" cy="388" opacity="0.61"></circle><circle r="0.5" cx="745" cy="414" opacity="0.20"></circle><circle r="1" cx="727" cy="434" opacity="0.17"></circle><circle r="1" cx="699" cy="436" opacity="0.95"></circle><circle r="1" cx="677" cy="419" opacity="0.84"></circle><circle r="1" cx="672" cy="391" opacity="0.89"></circle><circle r="1" cx="688" cy="367" opacity="0.85"></circle><circle r="1" cx="716" cy="359" opacity="0.33"></circle><circle r="1" cx="743" cy="373" opacity="0.39"></circle><circle r="1" cx="754" cy="402" opacity="0.80"></circle><circle r="1" cx="742" cy="431" opacity="0.72"></circle><circle r="1" cx="713" cy="444" opacity="0.21"></circle><circle r="1" cx="682" cy="435" opacity="0.52"></circle><circle r="1" cx="666" cy="406" opacity="0.77"></circle><circle r="1" cx="673" cy="374" opacity="0.29"></circle><circle r="1" cx="700" cy="354" opacity="0.85"></circle><circle r="1" cx="734" cy="358" opacity="0.87"></circle><circle r="1" cx="757" cy="385" opacity="0.74"></circle><circle r="1" cx="756" cy="420" opacity="0.70"></circle><circle r="1" cx="731" cy="446" opacity="0.19"></circle><circle r="1" cx="695" cy="448" opacity="0.68"></circle><circle r="1" cx="666" cy="425" opacity="0.66"></circle><circle r="1" cx="660" cy="388" opacity="0.69"></circle><circle r="1" cx="681" cy="356" opacity="0.68"></circle><circle r="1" cx="719" cy="347" opacity="0.40"></circle><circle r="1" cx="753" cy="365" opacity="0.80"></circle><circle r="1" cx="766" cy="403" opacity="0.42"></circle><circle r="1" cx="750" cy="440" opacity="0.41"></circle><circle r="1" cx="713" cy="457" opacity="0.25"></circle><circle r="1" cx="674" cy="444" opacity="0.84"></circle><circle r="1" cx="653" cy="407" opacity="0.89"></circle><circle r="1" cx="663" cy="366" opacity="0.44"></circle><circle r="1" cx="698" cy="342" opacity="0.62"></circle><circle r="1" cx="741" cy="348" opacity="0.83"></circle><circle r="1" cx="769" cy="381" opacity="0.56"></circle><circle r="1" cx="767" cy="426" opacity="0.34"></circle><circle r="1" cx="735" cy="458" opacity="0.11"></circle><circle r="1" cx="690" cy="460" opacity="0.45"></circle><circle r="1" cx="654" cy="430" opacity="0.91"></circle><circle r="1" cx="648" cy="384" opacity="0.90"></circle><circle r="1" cx="675" cy="345" opacity="0.17"></circle><circle r="1" cx="722" cy="334" opacity="0.73"></circle><circle r="1" cx="764" cy="358" opacity="0.56"></circle><circle r="1" cx="779" cy="405" opacity="0.39"></circle><circle r="1" cx="758" cy="450" opacity="0.23"></circle><circle r="1" cx="713" cy="469" opacity="0.40"></circle><circle r="1" cx="665" cy="453" opacity="0.94"></circle><circle r="1" cx="641" cy="408" opacity="0.83"></circle><circle r="1" cx="653" cy="358" opacity="0.38"></circle><circle r="1" cx="696" cy="329" opacity="0.14"></circle><circle r="1" cx="748" cy="337" opacity="0.75"></circle><circle r="1.5" cx="782" cy="379" opacity="0.95"></circle><circle r="1.5" cx="778" cy="432" opacity="0.90"></circle><circle r="1.5" cx="739" cy="470" opacity="0.63"></circle><circle r="1.5" cx="685" cy="471" opacity="0.58"></circle><circle r="1.5" cx="643" cy="435" opacity="0.74"></circle><circle r="1.5" cx="636" cy="380" opacity="0.51"></circle><circle r="1.5" cx="669" cy="334" opacity="0.51"></circle><circle r="1.5" cx="725" cy="322" opacity="0.69"></circle><circle r="1.5" cx="774" cy="351" opacity="0.73"></circle><circle r="1.5" cx="791" cy="407" opacity="0.78"></circle><circle r="1.5" cx="766" cy="459" opacity="0.13"></circle><circle r="1.5" cx="712" cy="482" opacity="0.22"></circle><circle r="1.5" cx="656" cy="462" opacity="0.77"></circle><circle r="1.5" cx="628" cy="408" opacity="0.94"></circle><circle r="1.5" cx="643" cy="350" opacity="0.65"></circle><circle r="1.5" cx="695" cy="317" opacity="1.00"></circle><circle r="1.5" cx="756" cy="327" opacity="0.65"></circle><circle r="1.5" cx="794" cy="376" opacity="0.44"></circle><circle r="1.5" cx="789" cy="439" opacity="0.39"></circle><circle r="1.5" cx="743" cy="482" opacity="0.86"></circle><circle r="1.5" cx="679" cy="483" opacity="0.41"></circle><circle r="1.5" cx="631" cy="440" opacity="0.72"></circle><circle r="1.5" cx="624" cy="375" opacity="0.46"></circle><circle r="1.5" cx="663" cy="323" opacity="0.94"></circle><circle r="1.5" cx="728" cy="310" opacity="0.32"></circle><circle r="1.5" cx="785" cy="345" opacity="0.22"></circle><circle r="1.5" cx="804" cy="409" opacity="0.17"></circle><circle r="1.5" cx="774" cy="470" opacity="0.89"></circle><circle r="1.5" cx="711" cy="495" opacity="0.69"></circle><circle r="1.5" cx="646" cy="470" opacity="0.43"></circle><circle r="1.5" cx="615" cy="408" opacity="0.54"></circle><circle r="1.5" cx="634" cy="341" opacity="0.98"></circle><circle r="1.5" cx="694" cy="304" opacity="0.40"></circle><circle r="1.5" cx="763" cy="317" opacity="0.15"></circle><circle r="1.5" cx="806" cy="374" opacity="0.62"></circle><circle r="1.5" cx="800" cy="445" opacity="0.71"></circle><circle r="1.5" cx="746" cy="494" opacity="0.28"></circle><circle r="1.5" cx="673" cy="494" opacity="0.95"></circle><circle r="1.5" cx="619" cy="444" opacity="0.31"></circle><circle r="1.5" cx="613" cy="371" opacity="0.71"></circle><circle r="1.5" cx="658" cy="311" opacity="0.89"></circle><circle r="1.5" cx="732" cy="298" opacity="0.96"></circle><circle r="1.5" cx="796" cy="338" opacity="0.52"></circle><circle r="1.5" cx="816" cy="411" opacity="0.76"></circle><circle r="1.5" cx="781" cy="480" opacity="0.93"></circle><circle r="1.5" cx="709" cy="507" opacity="0.92"></circle><circle r="1.5" cx="637" cy="478" opacity="0.39"></circle><circle r="1.5" cx="603" cy="408" opacity="0.74"></circle><circle r="2" cx="625" cy="332" opacity="0.87"></circle><circle r="2" cx="693" cy="291" opacity="0.60"></circle><circle r="2" cx="771" cy="307" opacity="0.37"></circle><circle r="2" cx="819" cy="372" opacity="0.10"></circle><circle r="2" cx="810" cy="452" opacity="1.00"></circle><circle r="2" cx="749" cy="506" opacity="0.72"></circle><circle r="2" cx="667" cy="505" opacity="0.22"></circle><circle r="2" cx="607" cy="448" opacity="0.17"></circle><circle r="2" cx="601" cy="365" opacity="0.88"></circle><circle r="2" cx="653" cy="300" opacity="0.19"></circle><circle r="2" cx="736" cy="286" opacity="0.66"></circle><circle r="2" cx="807" cy="332" opacity="0.27"></circle><circle r="2" cx="828" cy="414" opacity="0.63"></circle><circle r="2" cx="788" cy="490" opacity="0.55"></circle><circle r="2" cx="707" cy="520" opacity="0.17"></circle><circle r="2" cx="627" cy="486" opacity="0.66"></circle><circle r="2" cx="590" cy="407" opacity="0.76"></circle><circle r="2" cx="616" cy="323" opacity="0.36"></circle><circle r="2" cx="693" cy="279" opacity="0.51"></circle><circle r="2" cx="780" cy="297" opacity="0.63"></circle><circle r="2" cx="832" cy="370" opacity="0.16"></circle><circle r="2" cx="821" cy="460" opacity="0.26"></circle><circle r="2" cx="752" cy="519" opacity="0.12"></circle><circle r="2" cx="661" cy="516" opacity="0.11"></circle><circle r="2" cx="595" cy="452" opacity="0.61"></circle><circle r="2" cx="590" cy="360" opacity="0.31"></circle><circle r="2" cx="648" cy="288" opacity="0.10"></circle><circle r="2" cx="740" cy="274" opacity="0.43"></circle><circle r="2" cx="818" cy="326" opacity="0.41"></circle><circle r="2" cx="841" cy="418" opacity="0.19"></circle><circle r="2" cx="795" cy="501" opacity="0.69"></circle><circle r="2" cx="705" cy="532" opacity="0.78"></circle><circle r="2" cx="617" cy="494" opacity="0.60"></circle><circle r="2" cx="577" cy="406" opacity="0.90"></circle><circle r="2" cx="608" cy="314" opacity="0.21"></circle><circle r="2" cx="693" cy="266" opacity="0.30"></circle><circle r="2" cx="788" cy="288" opacity="0.11"></circle><circle r="2" cx="844" cy="369" opacity="0.49"></circle><circle r="2" cx="831" cy="467" opacity="0.20"></circle><circle r="2" cx="754" cy="531" opacity="0.50"></circle><circle r="2" cx="654" cy="527" opacity="0.91"></circle><circle r="2" cx="583" cy="455" opacity="0.16"></circle><circle r="2" cx="578" cy="354" opacity="0.27"></circle><circle r="2" cx="643" cy="276" opacity="0.37"></circle><circle r="2" cx="745" cy="262" opacity="0.84"></circle><circle r="2" cx="830" cy="321" opacity="0.26"></circle><circle r="2" cx="853" cy="421" opacity="0.22"></circle><circle r="2" cx="802" cy="512" opacity="0.89"></circle><circle r="2" cx="702" cy="545" opacity="0.24"></circle><circle r="2.5" cx="607" cy="502" opacity="0.25"></circle><circle r="2.5" cx="565" cy="405" opacity="0.86"></circle><circle r="2.5" cx="599" cy="304" opacity="0.39"></circle><circle r="2.5" cx="693" cy="253" opacity="0.36"></circle><circle r="2.5" cx="797" cy="279" opacity="0.55"></circle><circle r="2.5" cx="857" cy="368" opacity="0.21"></circle><circle r="2.5" cx="841" cy="475" opacity="0.49"></circle><circle r="2.5" cx="756" cy="544" opacity="0.17"></circle><circle r="2.5" cx="647" cy="537" opacity="0.31"></circle><circle r="2.5" cx="570" cy="459" opacity="0.94"></circle><circle r="2.5" cx="567" cy="348" opacity="0.87"></circle><circle r="2.5" cx="639" cy="264" opacity="0.62"></circle><circle r="2.5" cx="750" cy="250" opacity="0.92"></circle><circle r="2.5" cx="841" cy="315" opacity="0.85"></circle><circle r="2.5" cx="865" cy="425" opacity="0.41"></circle><circle r="2.5" cx="808" cy="523" opacity="0.62"></circle><circle r="2.5" cx="700" cy="557" opacity="0.42"></circle><circle r="2.5" cx="596" cy="509" opacity="0.94"></circle><circle r="2.5" cx="552" cy="403" opacity="0.70"></circle><circle r="2.5" cx="591" cy="294" opacity="0.29"></circle><circle r="2.5" cx="694" cy="241" opacity="0.22"></circle><circle r="2.5" cx="806" cy="270" opacity="0.64"></circle><circle r="2.5" cx="870" cy="368" opacity="0.31"></circle><circle r="2.5" cx="850" cy="484" opacity="0.13"></circle><circle r="2.5" cx="758" cy="557" opacity="0.14"></circle><circle r="2.5" cx="640" cy="548" opacity="0.15"></circle><circle r="2.5" cx="558" cy="461" opacity="0.66"></circle><circle r="2.5" cx="556" cy="342" opacity="0.89"></circle><circle r="2.5" cx="635" cy="252" opacity="0.71"></circle><circle r="2.5" cx="755" cy="239" opacity="0.59"></circle><circle r="2.5" cx="853" cy="310" opacity="0.40"></circle><circle r="2.5" cx="877" cy="430" opacity="0.90"></circle><circle r="2.5" cx="814" cy="534" opacity="0.11"></circle><circle r="2.5" cx="696" cy="569" opacity="0.88"></circle><circle r="2.5" cx="585" cy="516" opacity="0.16"></circle><circle r="2.5" cx="540" cy="401" opacity="0.57"></circle><circle r="2.5" cx="583" cy="284" opacity="0.39"></circle><circle r="2.5" cx="695" cy="228" opacity="0.11"></circle><circle r="2.5" cx="815" cy="261" opacity="0.29"></circle><circle r="2.5" cx="882" cy="368" opacity="0.85"></circle><circle r="2.5" cx="860" cy="492" opacity="0.65"></circle><circle r="2.5" cx="759" cy="569" opacity="0.44"></circle><circle r="2.5" cx="632" cy="558" opacity="0.81"></circle><circle r="2.5" cx="545" cy="464" opacity="0.57"></circle><circle r="2.5" cx="545" cy="335" opacity="0.36"></circle><circle r="2.5" cx="632" cy="240" opacity="0.83"></circle><circle r="2.5" cx="761" cy="227" opacity="0.48"></circle><circle r="2.5" cx="865" cy="306" opacity="0.53"></circle><circle r="2.5" cx="889" cy="434" opacity="0.80"></circle><circle r="3" cx="820" cy="546" opacity="0.80"></circle><circle r="3" cx="693" cy="582" opacity="0.94"></circle><circle r="3" cx="574" cy="522" opacity="0.49"></circle><circle r="3" cx="527" cy="398" opacity="1.00"></circle><circle r="3" cx="576" cy="274" opacity="0.20"></circle><circle r="3" cx="696" cy="215" opacity="0.84"></circle><circle r="3" cx="825" cy="253" opacity="0.19"></circle><circle r="3" cx="895" cy="368" opacity="0.85"></circle><circle r="3" cx="869" cy="501" opacity="0.31"></circle><circle r="3" cx="760" cy="582" opacity="0.98"></circle><circle r="3" cx="624" cy="568" opacity="0.60"></circle><circle r="3" cx="533" cy="466" opacity="0.55"></circle><circle r="3" cx="534" cy="328" opacity="0.82"></circle><circle r="3" cx="629" cy="227" opacity="0.65"></circle><circle r="3" cx="767" cy="216" opacity="0.79"></circle><circle r="3" cx="877" cy="302" opacity="0.66"></circle><circle r="3" cx="901" cy="439" opacity="0.18"></circle><circle r="3" cx="825" cy="558" opacity="0.32"></circle><circle r="3" cx="689" cy="594" opacity="0.91"></circle><circle r="3" cx="563" cy="529" opacity="0.17"></circle><circle r="3" cx="514" cy="396" opacity="0.66"></circle><circle r="3" cx="568" cy="264" opacity="0.89"></circle><circle r="3" cx="698" cy="202" opacity="0.90"></circle><circle r="3" cx="835" cy="244" opacity="0.24"></circle><circle r="3" cx="908" cy="368" opacity="0.78"></circle><circle r="3" cx="878" cy="510" opacity="0.95"></circle><circle r="3" cx="761" cy="595" opacity="0.79"></circle><circle r="3" cx="616" cy="578" opacity="0.77"></circle><circle r="3" cx="520" cy="468" opacity="0.49"></circle><circle r="3" cx="524" cy="321" opacity="0.49"></circle><circle r="3" cx="626" cy="215" opacity="0.54"></circle><circle r="3" cx="773" cy="205" opacity="0.95"></circle><circle r="3" cx="889" cy="298" opacity="0.82"></circle><circle r="3" cx="912" cy="445" opacity="0.36"></circle><circle r="3" cx="830" cy="569" opacity="0.21"></circle><circle r="3" cx="685" cy="606" opacity="0.15"></circle><circle r="3" cx="552" cy="535" opacity="0.38"></circle><circle r="3" cx="502" cy="392" opacity="0.88"></circle><circle r="3" cx="561" cy="253" opacity="0.99"></circle><circle r="3" cx="700" cy="190" opacity="0.38"></circle><circle r="3" cx="845" cy="236" opacity="0.67"></circle><circle r="3" cx="921" cy="369" opacity="0.36"></circle><circle r="3" cx="887" cy="519" opacity="0.58"></circle><circle r="3" cx="761" cy="608" opacity="0.30"></circle><circle r="3" cx="607" cy="588" opacity="0.11"></circle><circle r="3" cx="507" cy="469" opacity="0.20"></circle><circle r="3" cx="513" cy="313" opacity="0.22"></circle><circle r="3" cx="623" cy="202" opacity="0.44"></circle><circle r="3.5" cx="780" cy="194" opacity="0.80"></circle><circle r="3.5" cx="902" cy="294" opacity="0.90"></circle><circle r="3.5" cx="924" cy="450" opacity="0.95"></circle><circle r="3.5" cx="835" cy="581" opacity="0.70"></circle><circle r="3.5" cx="680" cy="618" opacity="0.10"></circle><circle r="3.5" cx="540" cy="541" opacity="0.15"></circle><circle r="3.5" cx="489" cy="389" opacity="0.98"></circle><circle r="3.5" cx="554" cy="242" opacity="0.23"></circle><circle r="3.5" cx="702" cy="177" opacity="0.83"></circle><circle r="3.5" cx="855" cy="229" opacity="0.23"></circle><circle r="3.5" cx="934" cy="371" opacity="0.81"></circle><circle r="3.5" cx="896" cy="529" opacity="0.13"></circle><circle r="3.5" cx="761" cy="621" opacity="0.60"></circle><circle r="3.5" cx="599" cy="597" opacity="0.88"></circle><circle r="3.5" cx="494" cy="470" opacity="0.60"></circle><circle r="3.5" cx="503" cy="305" opacity="0.69"></circle><circle r="3.5" cx="621" cy="189" opacity="0.28"></circle><circle r="3.5" cx="787" cy="183" opacity="0.29"></circle><circle r="3.5" cx="914" cy="290" opacity="0.67"></circle><circle r="3.5" cx="936" cy="456" opacity="0.69"></circle><circle r="3.5" cx="839" cy="594" opacity="0.20"></circle><circle r="3.5" cx="675" cy="630" opacity="0.71"></circle><circle r="3.5" cx="529" cy="546" opacity="0.77"></circle><circle r="3.5" cx="477" cy="385" opacity="0.68"></circle><circle r="3.5" cx="548" cy="231" opacity="0.19"></circle><circle r="3.5" cx="705" cy="164" opacity="0.80"></circle><circle r="3.5" cx="866" cy="221" opacity="0.74"></circle><circle r="3.5" cx="947" cy="372" opacity="0.12"></circle><circle r="3.5" cx="904" cy="539" opacity="0.44"></circle><circle r="3.5" cx="760" cy="634" opacity="0.43"></circle><circle r="3.5" cx="590" cy="607" opacity="0.72"></circle><circle r="3.5" cx="481" cy="471" opacity="0.50"></circle><circle r="3.5" cx="493" cy="297" opacity="0.45"></circle><circle r="3.5" cx="619" cy="176" opacity="0.85"></circle><circle r="3.5" cx="794" cy="172" opacity="0.19"></circle><circle r="3.5" cx="927" cy="287" opacity="0.89"></circle><circle r="3.5" cx="947" cy="462" opacity="0.96"></circle><circle r="3.5" cx="843" cy="606" opacity="0.89"></circle><circle r="3.5" cx="670" cy="642" opacity="0.80"></circle><circle r="3.5" cx="517" cy="551" opacity="0.50"></circle><circle r="3.5" cx="465" cy="381" opacity="0.31"></circle><circle r="3.5" cx="542" cy="219" opacity="0.10"></circle><circle r="3.5" cx="708" cy="152" opacity="0.11"></circle><circle r="3.5" cx="877" cy="214" opacity="0.35"></circle><circle r="3.5" cx="960" cy="374" opacity="0.70"></circle><circle r="3.5" cx="913" cy="549" opacity="0.52"></circle><circle r="3.5" cx="760" cy="647" opacity="0.13"></circle><circle r="3.5" cx="580" cy="616" opacity="0.42"></circle><circle r="3.5" cx="468" cy="471" opacity="0.43"></circle><circle r="4" cx="483" cy="289" opacity="0.34"></circle><circle r="4" cx="617" cy="163" opacity="0.26"></circle><circle r="4" cx="802" cy="162" opacity="0.84"></circle><circle r="4" cx="939" cy="285" opacity="0.42"></circle><circle r="4" cx="958" cy="469" opacity="0.35"></circle><circle r="4" cx="847" cy="618" opacity="0.22"></circle><circle r="4" cx="664" cy="654" opacity="0.92"></circle><circle r="4" cx="505" cy="556" opacity="0.44"></circle><circle r="4" cx="453" cy="376" opacity="0.64"></circle><circle r="4" cx="536" cy="208" opacity="0.88"></circle><circle r="4" cx="711" cy="139" opacity="0.89"></circle><circle r="4" cx="888" cy="207" opacity="0.75"></circle><circle r="4" cx="972" cy="376" opacity="0.64"></circle><circle r="4" cx="921" cy="559" opacity="0.24"></circle><circle r="4" cx="759" cy="660" opacity="0.91"></circle><circle r="4" cx="571" cy="624" opacity="0.67"></circle><circle r="4" cx="455" cy="471" opacity="0.17"></circle><circle r="4" cx="473" cy="280" opacity="0.36"></circle><circle r="4" cx="616" cy="150" opacity="0.78"></circle><circle r="4" cx="810" cy="151" opacity="0.85"></circle><circle r="4" cx="952" cy="282" opacity="0.17"></circle><circle r="4" cx="969" cy="476" opacity="0.40"></circle><circle r="4" cx="851" cy="631" opacity="0.53"></circle><circle r="4" cx="658" cy="666" opacity="0.27"></circle><circle r="4" cx="493" cy="561" opacity="0.43"></circle><circle r="4" cx="440" cy="372" opacity="0.81"></circle><circle r="4" cx="530" cy="196" opacity="0.59"></circle><circle r="4" cx="715" cy="126" opacity="0.26"></circle><circle r="4" cx="899" cy="200" opacity="0.81"></circle><circle r="4" cx="985" cy="379" opacity="0.22"></circle><circle r="4" cx="928" cy="570" opacity="0.38"></circle><circle r="4" cx="757" cy="673" opacity="0.77"></circle><circle r="4" cx="561" cy="633" opacity="0.81"></circle><circle r="4" cx="442" cy="471" opacity="0.78"></circle><circle r="4" cx="464" cy="271" opacity="0.36"></circle><circle r="4" cx="615" cy="137" opacity="0.50"></circle><circle r="4" cx="818" cy="141" opacity="0.84"></circle><circle r="4" cx="965" cy="280" opacity="0.55"></circle><circle r="4" cx="980" cy="483" opacity="0.21"></circle><circle r="4" cx="854" cy="644" opacity="0.39"></circle><circle r="4" cx="652" cy="677" opacity="0.42"></circle><circle r="4" cx="480" cy="565" opacity="0.27"></circle><circle r="4" cx="428" cy="366" opacity="0.45"></circle><circle r="4" cx="524" cy="184" opacity="0.13"></circle><circle r="4" cx="719" cy="114" opacity="0.81"></circle><circle r="4" cx="910" cy="193" opacity="0.41"></circle><circle r="4" cx="998" cy="382" opacity="0.54"></circle><circle r="4" cx="936" cy="581" opacity="0.45"></circle><circle r="4.5" cx="755" cy="686" opacity="0.50"></circle><circle r="4.5" cx="551" cy="642" opacity="0.70"></circle><circle r="4.5" cx="429" cy="470" opacity="0.78"></circle><circle r="4.5" cx="455" cy="262" opacity="0.46"></circle><circle r="4.5" cx="615" cy="124" opacity="0.93"></circle><circle r="4.5" cx="826" cy="131" opacity="0.98"></circle><circle r="4.5" cx="978" cy="279" opacity="0.86"></circle><circle r="4.5" cx="991" cy="491" opacity="0.75"></circle><circle r="4.5" cx="857" cy="656" opacity="0.89"></circle><circle r="4.5" cx="646" cy="689" opacity="0.27"></circle><circle r="4.5" cx="468" cy="569" opacity="0.17"></circle><circle r="4.5" cx="416" cy="361" opacity="0.79"></circle><circle r="4.5" cx="519" cy="172" opacity="0.72"></circle><circle r="4.5" cx="723" cy="101" opacity="0.47"></circle><circle r="4.5" cx="922" cy="187" opacity="0.83"></circle><circle r="4.5" cx="1011" cy="385" opacity="0.39"></circle><circle r="4.5" cx="943" cy="592" opacity="0.91"></circle><circle r="4.5" cx="753" cy="699" opacity="0.70"></circle><circle r="4.5" cx="540" cy="650" opacity="0.72"></circle><circle r="4.5" cx="416" cy="470" opacity="0.33"></circle><circle r="4.5" cx="446" cy="252" opacity="0.47"></circle><circle r="4.5" cx="615" cy="111" opacity="0.17"></circle><circle r="4.5" cx="835" cy="121" opacity="0.19"></circle><circle r="4.5" cx="991" cy="277" opacity="0.32"></circle><circle r="4.5" cx="1002" cy="499" opacity="0.83"></circle><circle r="4.5" cx="859" cy="669" opacity="0.99"></circle><circle r="4.5" cx="639" cy="700" opacity="0.82"></circle><circle r="4.5" cx="455" cy="573" opacity="0.51"></circle><circle r="4.5" cx="404" cy="355" opacity="0.52"></circle><circle r="4.5" cx="514" cy="160" opacity="0.95"></circle><circle r="4.5" cx="728" cy="89" opacity="0.94"></circle><circle r="4.5" cx="934" cy="181" opacity="0.36"></circle><circle r="4.5" cx="1024" cy="389" opacity="0.45"></circle><circle r="4.5" cx="950" cy="603" opacity="0.77"></circle><circle r="4.5" cx="751" cy="712" opacity="0.36"></circle><circle r="4.5" cx="530" cy="658" opacity="0.36"></circle><circle r="4.5" cx="403" cy="468" opacity="0.57"></circle><circle r="4.5" cx="437" cy="242" opacity="0.85"></circle><circle r="4.5" cx="615" cy="98" opacity="0.98"></circle><circle r="4.5" cx="844" cy="111" opacity="0.69"></circle><circle r="4.5" cx="1005" cy="276" opacity="0.36"></circle><circle r="4.5" cx="1012" cy="507" opacity="0.54"></circle><circle r="4.5" cx="862" cy="683" opacity="0.19"></circle><circle r="4.5" cx="632" cy="711" opacity="0.98"></circle><circle r="4.5" cx="442" cy="577" opacity="0.70"></circle><circle r="4.5" cx="393" cy="349" opacity="0.92"></circle><circle r="4.5" cx="510" cy="147" opacity="0.96"></circle><circle r="4.5" cx="733" cy="77" opacity="0.66"></circle><circle r="4.5" cx="946" cy="176" opacity="0.82"></circle><circle r="5" cx="1036" cy="393" opacity="0.88"></circle><circle r="5" cx="957" cy="614" opacity="0.79"></circle><circle r="5" cx="748" cy="725" opacity="0.47"></circle><circle r="5" cx="519" cy="665" opacity="0.73"></circle><circle r="5" cx="389" cy="467" opacity="0.27"></circle><circle r="5" cx="428" cy="232" opacity="0.97"></circle><circle r="5" cx="615" cy="84" opacity="0.85"></circle><circle r="5" cx="853" cy="102" opacity="0.12"></circle><circle r="5" cx="1018" cy="275" opacity="0.74"></circle><circle r="5" cx="1022" cy="515" opacity="0.46"></circle><circle r="5" cx="864" cy="696" opacity="0.28"></circle><circle r="5" cx="624" cy="722" opacity="0.64"></circle><circle r="5" cx="429" cy="580" opacity="0.36"></circle><circle r="5" cx="381" cy="342" opacity="0.26"></circle><circle r="5" cx="506" cy="134" opacity="0.86"></circle><circle r="5" cx="739" cy="65" opacity="0.88"></circle><circle r="5" cx="958" cy="170" opacity="0.96"></circle><circle r="5" cx="1049" cy="397" opacity="0.11"></circle><circle r="5" cx="963" cy="626" opacity="0.90"></circle><circle r="5" cx="745" cy="738" opacity="0.80"></circle><circle r="5" cx="508" cy="673" opacity="0.35"></circle><circle r="5" cx="376" cy="465" opacity="0.59"></circle><circle r="5" cx="420" cy="222" opacity="0.85"></circle><circle r="5" cx="616" cy="71" opacity="0.31"></circle><circle r="5" cx="863" cy="92" opacity="0.16"></circle><circle r="5" cx="1031" cy="275" opacity="0.31"></circle><circle r="5" cx="1033" cy="524" opacity="0.22"></circle><circle r="5" cx="865" cy="709" opacity="0.22"></circle><circle r="5" cx="616" cy="733" opacity="0.39"></circle><circle r="5" cx="416" cy="582" opacity="0.21"></circle><circle r="5" cx="369" cy="336" opacity="0.49"></circle><circle r="5" cx="502" cy="121" opacity="1.00"></circle><circle r="5" cx="744" cy="52" opacity="0.71"></circle><circle r="5" cx="970" cy="165" opacity="0.35"></circle><circle r="5" cx="1062" cy="402" opacity="0.48"></circle><circle r="5" cx="969" cy="638" opacity="0.80"></circle><circle r="5" cx="741" cy="751" opacity="0.78"></circle><circle r="5" cx="496" cy="680" opacity="0.31"></circle><circle r="5" cx="363" cy="462" opacity="0.63"></circle><circle r="5" cx="411" cy="211" opacity="1.00"></circle><circle r="5" cx="617" cy="58" opacity="0.42"></circle><circle r="5" cx="873" cy="83" opacity="0.93"></circle><circle r="5" cx="1045" cy="275" opacity="0.95"></circle><circle r="5" cx="1043" cy="533" opacity="0.27"></circle><circle r="5" cx="866" cy="722" opacity="0.11"></circle><circle r="5" cx="608" cy="744" opacity="0.37"></circle><circle r="5" cx="403" cy="585" opacity="0.63"></circle><circle r="5" cx="358" cy="328" opacity="0.25"></circle><circle r="5" cx="498" cy="109" opacity="0.86"></circle><circle r="5.5" cx="750" cy="40" opacity="0.55"></circle><circle r="5.5" cx="983" cy="161" opacity="0.24"></circle><circle r="5.5" cx="1074" cy="407" opacity="0.64"></circle><circle r="5.5" cx="975" cy="650" opacity="0.20"></circle><circle r="5.5" cx="737" cy="764" opacity="0.40"></circle><circle r="5.5" cx="485" cy="687" opacity="0.62"></circle><circle r="5.5" cx="350" cy="459" opacity="0.80"></circle><circle r="5.5" cx="404" cy="200" opacity="0.28"></circle><circle r="5.5" cx="619" cy="44" opacity="0.40"></circle><circle r="5.5" cx="883" cy="74" opacity="0.51"></circle><circle r="5.5" cx="1058" cy="275" opacity="0.74"></circle><circle r="5.5" cx="1052" cy="542" opacity="0.97"></circle><circle r="5.5" cx="867" cy="736" opacity="0.44"></circle><circle r="5.5" cx="600" cy="754" opacity="0.79"></circle><circle r="5.5" cx="389" cy="587" opacity="0.83"></circle><circle r="5.5" cx="347" cy="321" opacity="0.61"></circle><circle r="5.5" cx="495" cy="95" opacity="0.84"></circle><circle r="5.5" cx="757" cy="29" opacity="0.35"></circle><circle r="5.5" cx="996" cy="156" opacity="0.19"></circle><circle r="5.5" cx="1087" cy="412" opacity="0.54"></circle><circle r="5.5" cx="981" cy="663" opacity="0.68"></circle><circle r="5.5" cx="733" cy="777" opacity="0.36"></circle><circle r="5.5" cx="473" cy="694" opacity="0.83"></circle><circle r="5.5" cx="337" cy="456" opacity="0.66"></circle><circle r="5.5" cx="396" cy="189" opacity="0.23"></circle><circle r="5.5" cx="621" cy="31" opacity="0.12"></circle><circle r="5.5" cx="894" cy="66" opacity="0.77"></circle><circle r="5.5" cx="1072" cy="276" opacity="0.57"></circle><circle r="5.5" cx="1062" cy="552" opacity="0.20"></circle><circle r="5.5" cx="868" cy="750" opacity="0.17"></circle><circle r="5.5" cx="591" cy="765" opacity="0.69"></circle><circle r="5.5" cx="376" cy="589" opacity="0.42"></circle><circle r="5.5" cx="336" cy="313" opacity="0.11"></circle><circle r="5.5" cx="492" cy="82" opacity="0.41"></circle><circle r="5.5" cx="764" cy="17" opacity="0.32"></circle><circle r="5.5" cx="1009" cy="152" opacity="0.66"></circle><circle r="5.5" cx="1099" cy="418" opacity="0.77"></circle><circle r="5.5" cx="986" cy="675" opacity="0.69"></circle><circle r="5.5" cx="729" cy="789" opacity="0.48"></circle><circle r="5.5" cx="461" cy="700" opacity="0.22"></circle><circle r="5.5" cx="323" cy="453" opacity="0.77"></circle><circle r="5.5" cx="388" cy="177" opacity="0.23"></circle><circle r="5.5" cx="623" cy="17" opacity="0.85"></circle><circle r="5.5" cx="904" cy="57" opacity="0.76"></circle><circle r="5.5" cx="1086" cy="277" opacity="0.39"></circle><circle r="5.5" cx="1071" cy="562" opacity="0.51"></circle><circle r="5.5" cx="868" cy="763" opacity="0.67"></circle><circle r="5.5" cx="582" cy="775" opacity="0.16"></circle><circle r="6" cx="362" cy="590" opacity="0.19"></circle><circle r="6" cx="325" cy="305" opacity="0.88"></circle><circle r="6" cx="489" cy="69" opacity="0.87"></circle><circle r="6" cx="771" cy="5" opacity="0.13"></circle><circle r="6" cx="1022" cy="148" opacity="0.22"></circle><circle r="6" cx="1111" cy="424" opacity="0.16"></circle><circle r="6" cx="991" cy="688" opacity="0.30"></circle><circle r="6" cx="724" cy="802" opacity="0.91"></circle><circle r="6" cx="449" cy="706" opacity="0.40"></circle><circle r="6" cx="310" cy="449" opacity="0.57"></circle><circle r="6" cx="381" cy="166" opacity="0.67"></circle><circle r="6" cx="625" cy="4" opacity="0.48"></circle><circle r="6" cx="915" cy="49" opacity="0.94"></circle><circle r="6" cx="1099" cy="278" opacity="0.95"></circle><circle r="6" cx="1080" cy="572" opacity="0.54"></circle><circle r="6" cx="868" cy="777" opacity="0.13"></circle><circle r="6" cx="573" cy="785" opacity="0.31"></circle><circle r="6" cx="349" cy="591" opacity="0.11"></circle><circle r="6" cx="314" cy="297" opacity="0.34"></circle><circle r="6" cx="487" cy="55" opacity="0.53"></circle><circle r="6" cx="778" cy="-6" opacity="0.42"></circle><circle r="6" cx="1035" cy="145" opacity="0.86"></circle><circle r="6" cx="1123" cy="430" opacity="0.51"></circle><circle r="6" cx="996" cy="701" opacity="0.90"></circle><circle r="6" cx="718" cy="815" opacity="0.87"></circle><circle r="6" cx="436" cy="712" opacity="0.42"></circle><circle r="6" cx="297" cy="445" opacity="0.96"></circle><circle r="6" cx="374" cy="154" opacity="0.35"></circle><circle r="6" cx="628" cy="-10" opacity="0.26"></circle><circle r="6" cx="926" cy="41" opacity="0.81"></circle><circle r="6" cx="1113" cy="280" opacity="0.78"></circle><circle r="6" cx="1089" cy="583" opacity="0.63"></circle><circle r="6" cx="868" cy="791" opacity="0.23"></circle><circle r="6" cx="563" cy="795" opacity="0.93"></circle><circle r="6" cx="335" cy="592" opacity="0.88"></circle><circle r="6" cx="303" cy="288" opacity="0.45"></circle><circle r="6" cx="485" cy="41" opacity="0.46"></circle><circle r="6" cx="786" cy="-18" opacity="0.74"></circle><circle r="6" cx="1049" cy="141" opacity="0.69"></circle><circle r="6" cx="1135" cy="437" opacity="0.41"></circle><circle r="6" cx="1000" cy="714" opacity="0.16"></circle><circle r="6" cx="713" cy="828" opacity="0.57"></circle><circle r="6" cx="424" cy="717" opacity="0.41"></circle><circle r="6" cx="284" cy="441" opacity="0.49"></circle><circle r="6" cx="368" cy="142" opacity="0.87"></circle><circle r="6" cx="631" cy="-23" opacity="0.78"></circle><circle r="6" cx="938" cy="33" opacity="0.57"></circle><circle r="6" cx="1127" cy="282" opacity="0.44"></circle><circle r="6" cx="1098" cy="593" opacity="0.95"></circle><circle r="6.5" cx="867" cy="805" opacity="0.12"></circle><circle r="6.5" cx="553" cy="804" opacity="0.90"></circle><circle r="6.5" cx="321" cy="592" opacity="0.13"></circle><circle r="6.5" cx="293" cy="279" opacity="0.24"></circle><circle r="6.5" cx="483" cy="28" opacity="0.86"></circle><circle r="6.5" cx="794" cy="-29" opacity="0.62"></circle><circle r="6.5" cx="1062" cy="139" opacity="0.64"></circle><circle r="6.5" cx="1147" cy="444" opacity="0.14"></circle><circle r="6.5" cx="1004" cy="727" opacity="0.68"></circle><circle r="6.5" cx="707" cy="840" opacity="0.71"></circle><circle r="6.5" cx="411" cy="723" opacity="0.11"></circle><circle r="6.5" cx="271" cy="436" opacity="0.75"></circle><circle r="6.5" cx="361" cy="129" opacity="0.83"></circle><circle r="6.5" cx="635" cy="-37" opacity="0.23"></circle><circle r="6.5" cx="950" cy="26" opacity="0.29"></circle><circle r="6.5" cx="1140" cy="284" opacity="0.86"></circle><circle r="6.5" cx="1107" cy="604" opacity="0.63"></circle><circle r="6.5" cx="866" cy="818" opacity="0.94"></circle><circle r="6.5" cx="543" cy="814" opacity="0.92"></circle><circle r="6.5" cx="307" cy="592" opacity="0.81"></circle><circle r="6.5" cx="282" cy="269" opacity="0.71"></circle><circle r="6.5" cx="482" cy="14" opacity="0.96"></circle><circle r="6.5" cx="802" cy="-40" opacity="0.41"></circle><circle r="6.5" cx="1076" cy="136" opacity="0.72"></circle><circle r="6.5" cx="1159" cy="451" opacity="0.54"></circle><circle r="6.5" cx="1008" cy="741" opacity="0.94"></circle><circle r="6.5" cx="701" cy="853" opacity="0.66"></circle><circle r="6.5" cx="398" cy="728" opacity="1.00"></circle><circle r="6.5" cx="258" cy="431" opacity="0.47"></circle><circle r="6.5" cx="355" cy="117" opacity="0.42"></circle><circle r="6.5" cx="639" cy="-50" opacity="0.59"></circle><circle r="6.5" cx="962" cy="19" opacity="0.54"></circle><circle r="6.5" cx="1154" cy="287" opacity="0.34"></circle><circle r="6.5" cx="1115" cy="616" opacity="0.70"></circle><circle r="6.5" cx="864" cy="832" opacity="0.95"></circle><circle r="6.5" cx="532" cy="823" opacity="0.72"></circle><circle r="6.5" cx="293" cy="592" opacity="0.72"></circle><circle r="6.5" cx="272" cy="260" opacity="0.37"></circle><circle r="6.5" cx="481" cy="0" opacity="0.88"></circle><circle r="6.5" cx="811" cy="-51" opacity="0.30"></circle><circle r="6.5" cx="1090" cy="134" opacity="0.20"></circle><circle r="6.5" cx="1171" cy="459" opacity="0.22"></circle><circle r="6.5" cx="1011" cy="754" opacity="0.93"></circle><circle r="6.5" cx="694" cy="865" opacity="0.86"></circle><circle r="6.5" cx="384" cy="732" opacity="0.19"></circle><circle r="6.5" cx="245" cy="425" opacity="0.46"></circle><circle r="6.5" cx="349" cy="104" opacity="0.91"></circle><circle r="6.5" cx="643" cy="-63" opacity="0.45"></circle><circle r="7" cx="974" cy="12" opacity="0.96"></circle><circle r="7" cx="1168" cy="290" opacity="0.52"></circle><circle r="7" cx="1123" cy="627" opacity="0.91"></circle><circle r="7" cx="862" cy="846" opacity="0.98"></circle><circle r="7" cx="521" cy="832" opacity="0.80"></circle><circle r="7" cx="279" cy="592" opacity="0.17"></circle><circle r="7" cx="262" cy="250" opacity="0.35"></circle><circle r="7" cx="480" cy="-14" opacity="0.86"></circle><circle r="7" cx="820" cy="-62" opacity="0.72"></circle><circle r="7" cx="1104" cy="132" opacity="0.22"></circle><circle r="7" cx="1183" cy="467" opacity="0.21"></circle><circle r="7" cx="1015" cy="768" opacity="0.24"></circle><circle r="7" cx="687" cy="877" opacity="0.23"></circle><circle r="7" cx="371" cy="737" opacity="0.44"></circle><circle r="7" cx="232" cy="419" opacity="0.24"></circle><circle r="7" cx="344" cy="91" opacity="0.93"></circle><circle r="7" cx="648" cy="-77" opacity="0.93"></circle><circle r="7" cx="986" cy="5" opacity="0.23"></circle><circle r="7" cx="1181" cy="294" opacity="0.78"></circle><circle r="7" cx="1131" cy="639" opacity="0.45"></circle><circle r="7" cx="860" cy="860" opacity="0.60"></circle><circle r="7" cx="510" cy="841" opacity="0.91"></circle><circle r="7" cx="265" cy="591" opacity="0.71"></circle><circle r="7" cx="252" cy="240" opacity="0.93"></circle><circle r="7" cx="480" cy="-28" opacity="0.77"></circle><circle r="7" cx="829" cy="-73" opacity="0.80"></circle><circle r="7" cx="1118" cy="130" opacity="0.72"></circle><circle r="7" cx="1194" cy="475" opacity="0.92"></circle><circle r="7" cx="1017" cy="782" opacity="0.57"></circle><circle r="7" cx="680" cy="889" opacity="0.81"></circle><circle r="7" cx="357" cy="741" opacity="0.42"></circle><circle r="7" cx="219" cy="413" opacity="0.59"></circle><circle r="7" cx="338" cy="78" opacity="0.15"></circle><circle r="7" cx="653" cy="-90" opacity="0.21"></circle><circle r="7" cx="999" cy="-1" opacity="0.31"></circle><circle r="7" cx="1195" cy="298" opacity="0.72"></circle><circle r="7" cx="1138" cy="651" opacity="0.86"></circle><circle r="7" cx="857" cy="874" opacity="0.32"></circle><circle r="7" cx="499" cy="850" opacity="0.61"></circle><circle r="7" cx="251" cy="589" opacity="0.98"></circle><circle r="7" cx="243" cy="229" opacity="0.52"></circle><circle r="7" cx="480" cy="-43" opacity="0.39"></circle><circle r="7" cx="839" cy="-83" opacity="0.66"></circle><circle r="7" cx="1132" cy="129" opacity="0.98"></circle><circle r="7" cx="1205" cy="484" opacity="0.80"></circle><circle r="7" cx="1020" cy="796" opacity="0.88"></circle><circle r="7" cx="672" cy="902" opacity="0.75"></circle><circle r="7" cx="344" cy="745" opacity="0.28"></circle><circle r="7" cx="207" cy="407" opacity="0.59"></circle><circle r="7.5" cx="333" cy="64" opacity="0.48"></circle><circle r="7.5" cx="658" cy="-103" opacity="0.96"></circle><circle r="7.5" cx="1012" cy="-8" opacity="0.39"></circle><circle r="7.5" cx="1209" cy="302" opacity="0.99"></circle><circle r="7.5" cx="1146" cy="664" opacity="0.29"></circle><circle r="7.5" cx="854" cy="888" opacity="0.33"></circle><circle r="7.5" cx="487" cy="858" opacity="0.24"></circle><circle r="7.5" cx="236" cy="588" opacity="0.18"></circle><circle r="7.5" cx="233" cy="218" opacity="0.16"></circle><circle r="7.5" cx="480" cy="-57" opacity="0.66"></circle><circle r="7.5" cx="849" cy="-94" opacity="0.89"></circle><circle r="7.5" cx="1147" cy="128" opacity="0.39"></circle><circle r="7.5" cx="1217" cy="493" opacity="0.32"></circle><circle r="7.5" cx="1022" cy="810" opacity="0.50"></circle><circle r="7.5" cx="664" cy="913" opacity="0.84"></circle><circle r="7.5" cx="330" cy="748" opacity="0.52"></circle><circle r="7.5" cx="194" cy="400" opacity="0.83"></circle><circle r="7.5" cx="329" cy="51" opacity="0.24"></circle><circle r="7.5" cx="664" cy="-116" opacity="0.31"></circle><circle r="7.5" cx="1025" cy="-14" opacity="0.58"></circle><circle r="7.5" cx="1223" cy="306" opacity="0.99"></circle><circle r="7.5" cx="1153" cy="676" opacity="0.57"></circle><circle r="7.5" cx="851" cy="902" opacity="0.27"></circle><circle r="7.5" cx="475" cy="866" opacity="0.63"></circle><circle r="7.5" cx="222" cy="586" opacity="0.72"></circle><circle r="7.5" cx="224" cy="207" opacity="0.58"></circle><circle r="7.5" cx="481" cy="-71" opacity="0.86"></circle><circle r="7.5" cx="859" cy="-104" opacity="0.64"></circle><circle r="7.5" cx="1161" cy="128" opacity="0.78"></circle><circle r="7.5" cx="1228" cy="502" opacity="0.24"></circle><circle r="7.5" cx="1024" cy="825" opacity="0.84"></circle><circle r="7.5" cx="656" cy="925" opacity="0.58"></circle><circle r="7.5" cx="315" cy="751" opacity="0.79"></circle><circle r="7.5" cx="181" cy="393" opacity="0.26"></circle><circle r="7.5" cx="324" cy="37" opacity="0.48"></circle><circle r="7.5" cx="670" cy="-130" opacity="0.86"></circle><circle r="7.5" cx="1038" cy="-19" opacity="1.00"></circle><circle r="7.5" cx="1236" cy="311" opacity="1.00"></circle><circle r="7.5" cx="1159" cy="689" opacity="0.35"></circle><circle r="7.5" cx="847" cy="916" opacity="0.40"></circle><circle r="7.5" cx="463" cy="874" opacity="0.87"></circle><circle r="7.5" cx="208" cy="583" opacity="0.14"></circle><circle r="7.5" cx="215" cy="196" opacity="0.46"></circle><circle r="7.5" cx="482" cy="-86" opacity="0.41"></circle><circle r="7.5" cx="870" cy="-114" opacity="0.91"></circle><circle r="7.5" cx="1175" cy="127" opacity="0.84"></circle><circle r="7.5" cx="1239" cy="512" opacity="0.52"></circle><circle r="7.5" cx="1025" cy="839" opacity="0.29"></circle><circle r="7.5" cx="647" cy="937" opacity="0.94"></circle><circle r="8" cx="301" cy="754" opacity="0.19"></circle><circle r="8" cx="169" cy="385" opacity="0.63"></circle><circle r="8" cx="320" cy="23" opacity="0.96"></circle><circle r="8" cx="677" cy="-143" opacity="0.33"></circle><circle r="8" cx="1052" cy="-24" opacity="0.58"></circle><circle r="8" cx="1250" cy="316" opacity="0.41"></circle><circle r="8" cx="1166" cy="702" opacity="0.79"></circle><circle r="8" cx="843" cy="930" opacity="0.94"></circle><circle r="8" cx="451" cy="882" opacity="0.25"></circle><circle r="8" cx="193" cy="580" opacity="0.98"></circle><circle r="8" cx="206" cy="184" opacity="0.37"></circle><circle r="8" cx="484" cy="-100" opacity="0.11"></circle><circle r="8" cx="881" cy="-124" opacity="0.69"></circle><circle r="8" cx="1190" cy="128" opacity="0.49"></circle><circle r="8" cx="1249" cy="522" opacity="0.87"></circle><circle r="8" cx="1027" cy="854" opacity="0.99"></circle><circle r="8" cx="638" cy="949" opacity="0.65"></circle><circle r="8" cx="287" cy="756" opacity="0.98"></circle><circle r="8" cx="157" cy="377" opacity="0.10"></circle><circle r="8" cx="317" cy="9" opacity="0.51"></circle><circle r="8" cx="683" cy="-156" opacity="0.94"></circle><circle r="8" cx="1066" cy="-29" opacity="0.51"></circle><circle r="8" cx="1263" cy="322" opacity="0.52"></circle><circle r="8" cx="1172" cy="715" opacity="0.90"></circle></g></svg>