<svg xmlns="http://www.w3.org/2000/svg" version="1.1" xmlns:xlink="http://www.w3.org/1999/xlink" xmlns:svgjs="http://svgjs.dev/svgjs" viewBox="0 0 1422 800"><g fill="hsl(32, 100%, 51%)" transform="matrix(3.1,0,0,3.1,-1483.65,-838.95)"><circle r="0.5" cx="716" cy="400" opacity="0.87"></circle><circle r="0.5" cx="716" cy="403" opacity="0.94"></circle><circle r="0.5" cx="713" cy="406" opacity="0.46"></circle><circle r="0.5" cx="709" cy="407" opacity="0.85"></circle><circle r="0.5" cx="706" cy="405" opacity="0.21"></circle><circle r="0.5" cx="703" cy="401" opacity="0.82"></circle><circle r="0.5" cx="703" cy="396" opacity="0.16"></circle><circle r="0.5" cx="706" cy="392" opacity="0.63"></circle><circle r="0.5" cx="712" cy="390" opacity="0.46"></circle><circle r="0.5" cx="718" cy="392" opacity="0.59"></circle><circle r="0.5" cx="722" cy="397" opacity="0.39"></circle><circle r="0.5" cx="722" cy="404" opacity="0.51"></circle><circle r="0.5" cx="718" cy="410" opacity="0.70"></circle><circle r="0.5" cx="712" cy="413" opacity="0.27"></circle><circle r="0.5" cx="704" cy="411" opacity="0.99"></circle><circle r="0.5" cx="698" cy="406" opacity="0.44"></circle><circle r="0.5" cx="697" cy="397" opacity="0.30"></circle><circle r="0.5" cx="700" cy="389" opacity="0.61"></circle><circle r="0.5" cx="708" cy="385" opacity="0.52"></circle><circle r="0.5" cx="717" cy="385" opacity="0.24"></circle><circle r="0.5" cx="725" cy="391" opacity="0.97"></circle><circle r="0.5" cx="729" cy="401" opacity="0.40"></circle><circle r="0.5" cx="726" cy="411" opacity="0.28"></circle><circle r="0.5" cx="717" cy="418" opacity="0.26"></circle><circle r="0.5" cx="706" cy="419" opacity="0.11"></circle><circle r="0.5" cx="696" cy="413" opacity="0.48"></circle><circle r="0.5" cx="691" cy="402" opacity="0.26"></circle><circle r="0.5" cx="692" cy="390" opacity="0.87"></circle><circle r="0.5" cx="701" cy="381" opacity="0.17"></circle><circle r="1" cx="714" cy="378" opacity="0.51"></circle><circle r="1" cx="726" cy="383" opacity="0.71"></circle><circle r="1" cx="734" cy="394" opacity="0.88"></circle><circle r="1" cx="734" cy="408" opacity="0.69"></circle><circle r="1" cx="725" cy="420" opacity="0.39"></circle><circle r="1" cx="712" cy="425" opacity="1.00"></circle><circle r="1" cx="697" cy="422" opacity="0.79"></circle><circle r="1" cx="686" cy="410" opacity="0.43"></circle><circle r="1" cx="684" cy="394" opacity="0.84"></circle><circle r="1" cx="692" cy="380" opacity="0.76"></circle><circle r="1" cx="706" cy="372" opacity="0.41"></circle><circle r="1" cx="723" cy="374" opacity="0.16"></circle><circle r="1" cx="736" cy="385" opacity="0.95"></circle><circle r="1" cx="741" cy="402" opacity="0.32"></circle><circle r="1" cx="735" cy="419" opacity="0.96"></circle><circle r="1" cx="720" cy="430" opacity="0.96"></circle><circle r="1" cx="702" cy="431" opacity="0.18"></circle><circle r="1" cx="686" cy="420" opacity="0.61"></circle><circle r="1" cx="678" cy="402" opacity="0.88"></circle><circle r="1" cx="682" cy="383" opacity="0.21"></circle><circle r="1" cx="696" cy="369" opacity="0.39"></circle><circle r="1" cx="716" cy="365" opacity="0.29"></circle><circle r="1" cx="735" cy="374" opacity="0.58"></circle><circle r="1" cx="746" cy="392" opacity="0.16"></circle><circle r="1" cx="745" cy="414" opacity="0.95"></circle><circle r="1" cx="732" cy="431" opacity="0.62"></circle><circle r="1" cx="710" cy="438" opacity="0.49"></circle><circle r="1" cx="689" cy="432" opacity="0.35"></circle><circle r="1" cx="674" cy="414" opacity="0.34"></circle><circle r="1" cx="672" cy="390" opacity="0.76"></circle><circle r="1" cx="684" cy="370" opacity="0.20"></circle><circle r="1" cx="706" cy="359" opacity="0.41"></circle><circle r="1" cx="730" cy="363" opacity="0.57"></circle><circle r="1" cx="748" cy="380" opacity="0.37"></circle><circle r="1" cx="754" cy="404" opacity="0.83"></circle><circle r="1" cx="744" cy="428" opacity="0.87"></circle><circle r="1" cx="723" cy="442" opacity="0.41"></circle><circle r="1" cx="697" cy="442" opacity="0.59"></circle><circle r="1" cx="675" cy="427" opacity="0.49"></circle><circle r="1" cx="665" cy="402" opacity="0.77"></circle><circle r="1" cx="672" cy="375" opacity="0.73"></circle><circle r="1" cx="692" cy="357" opacity="0.28"></circle><circle r="1" cx="720" cy="353" opacity="0.76"></circle><circle r="1" cx="745" cy="366" opacity="0.41"></circle><circle r="1" cx="759" cy="391" opacity="0.66"></circle><circle r="1" cx="756" cy="420" opacity="0.40"></circle><circle r="1" cx="737" cy="443" opacity="0.45"></circle><circle r="1" cx="709" cy="451" opacity="0.39"></circle><circle r="1" cx="680" cy="441" opacity="1.00"></circle><circle r="1" cx="662" cy="416" opacity="0.22"></circle><circle r="1" cx="661" cy="386" opacity="0.13"></circle><circle r="1" cx="677" cy="359" opacity="0.57"></circle><circle r="1" cx="706" cy="347" opacity="0.70"></circle><circle r="1" cx="737" cy="353" opacity="0.25"></circle><circle r="1" cx="760" cy="375" opacity="0.99"></circle><circle r="1" cx="766" cy="407" opacity="0.13"></circle><circle r="1" cx="753" cy="438" opacity="0.44"></circle><circle r="1.5" cx="724" cy="455" opacity="0.91"></circle><circle r="1.5" cx="691" cy="453" opacity="0.39"></circle><circle r="1.5" cx="664" cy="433" opacity="0.19"></circle><circle r="1.5" cx="653" cy="400" opacity="0.42"></circle><circle r="1.5" cx="662" cy="367" opacity="0.67"></circle><circle r="1.5" cx="689" cy="345" opacity="0.41"></circle><circle r="1.5" cx="724" cy="341" opacity="0.76"></circle><circle r="1.5" cx="756" cy="359" opacity="0.18"></circle><circle r="1.5" cx="772" cy="391" opacity="0.18"></circle><circle r="1.5" cx="767" cy="427" opacity="0.82"></circle><circle r="1.5" cx="742" cy="454" opacity="0.45"></circle><circle r="1.5" cx="706" cy="463" opacity="0.35"></circle><circle r="1.5" cx="671" cy="450" opacity="0.71"></circle><circle r="1.5" cx="649" cy="418" opacity="0.39"></circle><circle r="1.5" cx="649" cy="380" opacity="0.47"></circle><circle r="1.5" cx="671" cy="348" opacity="0.29"></circle><circle r="1.5" cx="707" cy="334" opacity="0.63"></circle><circle r="1.5" cx="745" cy="343" opacity="0.18"></circle><circle r="1.5" cx="772" cy="372" opacity="0.25"></circle><circle r="1.5" cx="778" cy="411" opacity="0.33"></circle><circle r="1.5" cx="760" cy="448" opacity="0.39"></circle><circle r="1.5" cx="725" cy="468" opacity="0.17"></circle><circle r="1.5" cx="684" cy="464" opacity="0.66"></circle><circle r="1.5" cx="652" cy="438" opacity="0.53"></circle><circle r="1.5" cx="640" cy="398" opacity="0.54"></circle><circle r="1.5" cx="653" cy="358" opacity="0.20"></circle><circle r="1.5" cx="687" cy="332" opacity="0.94"></circle><circle r="1.5" cx="729" cy="330" opacity="0.87"></circle><circle r="1.5" cx="766" cy="352" opacity="0.75"></circle><circle r="1.5" cx="785" cy="392" opacity="0.54"></circle><circle r="1.5" cx="777" cy="435" opacity="0.88"></circle><circle r="1.5" cx="746" cy="466" opacity="0.88"></circle><circle r="1.5" cx="702" cy="475" opacity="0.78"></circle><circle r="1.5" cx="661" cy="458" opacity="0.47"></circle><circle r="1.5" cx="637" cy="420" opacity="0.11"></circle><circle r="1.5" cx="638" cy="374" opacity="0.41"></circle><circle r="1.5" cx="665" cy="337" opacity="0.68"></circle><circle r="1.5" cx="709" cy="321" opacity="0.93"></circle><circle r="1.5" cx="754" cy="333" opacity="0.88"></circle><circle r="1.5" cx="785" cy="369" opacity="0.67"></circle><circle r="1.5" cx="790" cy="416" opacity="0.41"></circle><circle r="1.5" cx="767" cy="458" opacity="0.53"></circle><circle r="1.5" cx="725" cy="481" opacity="0.81"></circle><circle r="1.5" cx="677" cy="475" opacity="0.91"></circle><circle r="1.5" cx="640" cy="443" opacity="0.53"></circle><circle r="1.5" cx="628" cy="395" opacity="0.13"></circle><circle r="1.5" cx="644" cy="348" opacity="0.58"></circle><circle r="1.5" cx="685" cy="319" opacity="0.67"></circle><circle r="1.5" cx="735" cy="318" opacity="0.49"></circle><circle r="1.5" cx="778" cy="346" opacity="0.15"></circle><circle r="1.5" cx="797" cy="393" opacity="0.70"></circle><circle r="1.5" cx="787" cy="443" opacity="0.96"></circle><circle r="1.5" cx="749" cy="479" opacity="0.23"></circle><circle r="1.5" cx="698" cy="487" opacity="0.96"></circle><circle r="1.5" cx="650" cy="465" opacity="0.62"></circle><circle r="1.5" cx="624" cy="420" opacity="0.54"></circle><circle r="1.5" cx="627" cy="367" opacity="0.68"></circle><circle r="2" cx="660" cy="325" opacity="0.69"></circle><circle r="2" cx="712" cy="309" opacity="0.85"></circle><circle r="2" cx="763" cy="324" opacity="0.81"></circle><circle r="2" cx="798" cy="367" opacity="0.15"></circle><circle r="2" cx="802" cy="422" opacity="0.14"></circle><circle r="2" cx="774" cy="470" opacity="0.67"></circle><circle r="2" cx="724" cy="494" opacity="0.80"></circle><circle r="2" cx="668" cy="485" opacity="0.80"></circle><circle r="2" cx="627" cy="446" opacity="0.93"></circle><circle r="2" cx="615" cy="391" opacity="0.91"></circle><circle r="2" cx="637" cy="338" opacity="0.42"></circle><circle r="2" cx="684" cy="306" opacity="0.20"></circle><circle r="2" cx="742" cy="307" opacity="0.71"></circle><circle r="2" cx="790" cy="341" opacity="0.83"></circle><circle r="2" cx="810" cy="395" opacity="0.89"></circle><circle r="2" cx="796" cy="452" opacity="0.96"></circle><circle r="2" cx="752" cy="492" opacity="0.41"></circle><circle r="2" cx="693" cy="499" opacity="0.61"></circle><circle r="2" cx="639" cy="472" opacity="0.30"></circle><circle r="2" cx="611" cy="419" opacity="0.11"></circle><circle r="2" cx="617" cy="359" opacity="0.94"></circle><circle r="2" cx="656" cy="312" opacity="0.55"></circle><circle r="2" cx="715" cy="296" opacity="0.35"></circle><circle r="2" cx="773" cy="316" opacity="0.23"></circle><circle r="2" cx="810" cy="366" opacity="0.43"></circle><circle r="2" cx="813" cy="428" opacity="0.68"></circle><circle r="2" cx="780" cy="481" opacity="0.23"></circle><circle r="2" cx="722" cy="506" opacity="0.51"></circle><circle r="2" cx="660" cy="495" opacity="0.36"></circle><circle r="2" cx="615" cy="449" opacity="0.82"></circle><circle r="2" cx="603" cy="386" opacity="0.29"></circle><circle r="2" cx="629" cy="327" opacity="0.73"></circle><circle r="2" cx="684" cy="293" opacity="0.89"></circle><circle r="2" cx="750" cy="296" opacity="0.28"></circle><circle r="2" cx="802" cy="336" opacity="0.24"></circle><circle r="2" cx="823" cy="398" opacity="0.89"></circle><circle r="2" cx="805" cy="462" opacity="0.35"></circle><circle r="2" cx="753" cy="505" opacity="0.85"></circle><circle r="2" cx="687" cy="511" opacity="0.46"></circle><circle r="2" cx="628" cy="478" opacity="0.97"></circle><circle r="2" cx="598" cy="418" opacity="0.71"></circle><circle r="2" cx="607" cy="350" opacity="0.63"></circle><circle r="2" cx="653" cy="300" opacity="0.80"></circle><circle r="2" cx="720" cy="284" opacity="0.68"></circle><circle r="2" cx="784" cy="308" opacity="0.17"></circle><circle r="2" cx="824" cy="365" opacity="0.59"></circle><circle r="2" cx="824" cy="435" opacity="0.12"></circle><circle r="2" cx="785" cy="493" opacity="0.14"></circle><circle r="2" cx="719" cy="519" opacity="0.58"></circle><circle r="2" cx="650" cy="504" opacity="0.44"></circle><circle r="2" cx="602" cy="451" opacity="0.81"></circle><circle r="2" cx="591" cy="381" opacity="0.53"></circle><circle r="2" cx="623" cy="316" opacity="0.20"></circle><circle r="2" cx="685" cy="280" opacity="0.41"></circle><circle r="2" cx="758" cy="286" opacity="0.35"></circle><circle r="2" cx="815" cy="332" opacity="0.53"></circle><circle r="2.5" cx="835" cy="402" opacity="0.16"></circle><circle r="2.5" cx="813" cy="473" opacity="0.73"></circle><circle r="2.5" cx="754" cy="518" opacity="0.59"></circle><circle r="2.5" cx="680" cy="522" opacity="0.72"></circle><circle r="2.5" cx="616" cy="484" opacity="0.17"></circle><circle r="2.5" cx="585" cy="416" opacity="0.18"></circle><circle r="2.5" cx="597" cy="341" opacity="0.87"></circle><circle r="2.5" cx="650" cy="287" opacity="0.26"></circle><circle r="2.5" cx="725" cy="272" opacity="0.71"></circle><circle r="2.5" cx="795" cy="301" opacity="0.64"></circle><circle r="2.5" cx="837" cy="366" opacity="0.67"></circle><circle r="2.5" cx="835" cy="443" opacity="0.91"></circle><circle r="2.5" cx="789" cy="506" opacity="0.48"></circle><circle r="2.5" cx="716" cy="532" opacity="0.56"></circle><circle r="2.5" cx="640" cy="512" opacity="0.80"></circle><circle r="2.5" cx="588" cy="453" opacity="0.68"></circle><circle r="2.5" cx="580" cy="374" opacity="0.86"></circle><circle r="2.5" cx="617" cy="304" opacity="0.97"></circle><circle r="2.5" cx="687" cy="267" opacity="0.41"></circle><circle r="2.5" cx="767" cy="276" opacity="0.72"></circle><circle r="2.5" cx="828" cy="329" opacity="0.82"></circle><circle r="2.5" cx="848" cy="407" opacity="0.58"></circle><circle r="2.5" cx="820" cy="484" opacity="0.88"></circle><circle r="2.5" cx="754" cy="531" opacity="0.63"></circle><circle r="2.5" cx="672" cy="533" opacity="0.16"></circle><circle r="2.5" cx="603" cy="489" opacity="0.33"></circle><circle r="2.5" cx="572" cy="412" opacity="0.37"></circle><circle r="2.5" cx="588" cy="331" opacity="0.87"></circle><circle r="2.5" cx="648" cy="273" opacity="0.78"></circle><circle r="2.5" cx="731" cy="260" opacity="0.46"></circle><circle r="2.5" cx="807" cy="295" opacity="0.99"></circle><circle r="2.5" cx="850" cy="367" opacity="0.56"></circle><circle r="2.5" cx="845" cy="452" opacity="0.48"></circle><circle r="2.5" cx="793" cy="519" opacity="0.62"></circle><circle r="2.5" cx="711" cy="545" opacity="0.48"></circle><circle r="2.5" cx="629" cy="520" opacity="0.21"></circle><circle r="2.5" cx="575" cy="453" opacity="0.16"></circle><circle r="2.5" cx="568" cy="367" opacity="0.42"></circle><circle r="2.5" cx="611" cy="292" opacity="0.95"></circle><circle r="2.5" cx="690" cy="254" opacity="0.83"></circle><circle r="2.5" cx="777" cy="267" opacity="0.65"></circle><circle r="2.5" cx="841" cy="327" opacity="0.26"></circle><circle r="2.5" cx="860" cy="413" opacity="0.12"></circle><circle r="2.5" cx="827" cy="495" opacity="0.34"></circle><circle r="2.5" cx="753" cy="545" opacity="0.33"></circle><circle r="2.5" cx="664" cy="544" opacity="0.12"></circle><circle r="2.5" cx="590" cy="493" opacity="0.61"></circle><circle r="2.5" cx="559" cy="408" opacity="0.98"></circle><circle r="2.5" cx="580" cy="321" opacity="0.99"></circle><circle r="2.5" cx="647" cy="260" opacity="0.58"></circle><circle r="2.5" cx="738" cy="248" opacity="0.48"></circle><circle r="2.5" cx="819" cy="289" opacity="0.46"></circle><circle r="2.5" cx="864" cy="370" opacity="0.74"></circle><circle r="2.5" cx="855" cy="461" opacity="0.38"></circle><circle r="2.5" cx="795" cy="532" opacity="0.52"></circle><circle r="2.5" cx="706" cy="557" opacity="0.17"></circle><circle r="2.5" cx="618" cy="527" opacity="0.64"></circle><circle r="3" cx="561" cy="453" opacity="0.67"></circle><circle r="3" cx="557" cy="359" opacity="0.71"></circle><circle r="3" cx="607" cy="279" opacity="0.54"></circle><circle r="3" cx="694" cy="241" opacity="0.93"></circle><circle r="3" cx="787" cy="258" opacity="0.40"></circle><circle r="3" cx="854" cy="325" opacity="0.26"></circle><circle r="3" cx="872" cy="419" opacity="0.82"></circle><circle r="3" cx="833" cy="507" opacity="0.36"></circle><circle r="3" cx="751" cy="558" opacity="0.63"></circle><circle r="3" cx="655" cy="554" opacity="0.56"></circle><circle r="3" cx="577" cy="496" opacity="0.66"></circle><circle r="3" cx="546" cy="404" opacity="0.46"></circle><circle r="3" cx="572" cy="309" opacity="0.97"></circle><circle r="3" cx="647" cy="246" opacity="0.60"></circle><circle r="3" cx="745" cy="237" opacity="0.81"></circle><circle r="3" cx="832" cy="284" opacity="0.74"></circle><circle r="3" cx="877" cy="373" opacity="0.65"></circle><circle r="3" cx="864" cy="471" opacity="0.73"></circle><circle r="3" cx="797" cy="546" opacity="0.41"></circle><circle r="3" cx="700" cy="570" opacity="0.22"></circle><circle r="3" cx="606" cy="534" opacity="0.86"></circle><circle r="3" cx="548" cy="451" opacity="0.17"></circle><circle r="3" cx="547" cy="350" opacity="0.14"></circle><circle r="3" cx="603" cy="265" opacity="0.33"></circle><circle r="3" cx="698" cy="227" opacity="0.66"></circle><circle r="3" cx="798" cy="250" opacity="0.39"></circle><circle r="3" cx="868" cy="325" opacity="0.61"></circle><circle r="3" cx="884" cy="427" opacity="0.63"></circle><circle r="3" cx="839" cy="520" opacity="0.89"></circle><circle r="3" cx="749" cy="572" opacity="0.54"></circle><circle r="3" cx="645" cy="564" opacity="0.47"></circle><circle r="3" cx="564" cy="498" opacity="0.15"></circle><circle r="3" cx="533" cy="398" opacity="0.70"></circle><circle r="3" cx="565" cy="297" opacity="0.88"></circle><circle r="3" cx="648" cy="232" opacity="0.20"></circle><circle r="3" cx="754" cy="226" opacity="0.19"></circle><circle r="3" cx="845" cy="280" opacity="0.90"></circle><circle r="3" cx="890" cy="377" opacity="0.53"></circle><circle r="3" cx="873" cy="482" opacity="0.39"></circle><circle r="3" cx="798" cy="560" opacity="0.49"></circle><circle r="3" cx="693" cy="582" opacity="0.35"></circle><circle r="3" cx="593" cy="540" opacity="0.38"></circle><circle r="3" cx="534" cy="449" opacity="0.51"></circle><circle r="3" cx="537" cy="340" opacity="0.11"></circle><circle r="3" cx="600" cy="252" opacity="0.77"></circle><circle r="3" cx="703" cy="215" opacity="0.20"></circle><circle r="3" cx="810" cy="242" opacity="0.49"></circle><circle r="3" cx="882" cy="325" opacity="0.34"></circle><circle r="3" cx="895" cy="435" opacity="0.39"></circle><circle r="3" cx="844" cy="533" opacity="0.71"></circle><circle r="3" cx="745" cy="585" opacity="0.53"></circle><circle r="3" cx="634" cy="573" opacity="0.38"></circle><circle r="3" cx="550" cy="500" opacity="0.53"></circle><circle r="3" cx="521" cy="391" opacity="0.65"></circle><circle r="3" cx="558" cy="285" opacity="0.50"></circle><circle r="3" cx="650" cy="218" opacity="0.74"></circle><circle r="3" cx="763" cy="215" opacity="0.17"></circle><circle r="3.5" cx="859" cy="276" opacity="0.11"></circle><circle r="3.5" cx="904" cy="382" opacity="0.24"></circle><circle r="3.5" cx="881" cy="494" opacity="0.46"></circle><circle r="3.5" cx="798" cy="574" opacity="0.83"></circle><circle r="3.5" cx="685" cy="593" opacity="0.84"></circle><circle r="3.5" cx="580" cy="545" opacity="0.82"></circle><circle r="3.5" cx="520" cy="446" opacity="0.78"></circle><circle r="3.5" cx="527" cy="330" opacity="0.11"></circle><circle r="3.5" cx="598" cy="238" opacity="0.27"></circle><circle r="3.5" cx="709" cy="202" opacity="0.39"></circle><circle r="3.5" cx="822" cy="235" opacity="0.91"></circle><circle r="3.5" cx="896" cy="326" opacity="0.69"></circle><circle r="3.5" cx="906" cy="444" opacity="0.45"></circle><circle r="3.5" cx="848" cy="547" opacity="0.68"></circle><circle r="3.5" cx="741" cy="599" opacity="0.51"></circle><circle r="3.5" cx="623" cy="582" opacity="0.13"></circle><circle r="3.5" cx="535" cy="501" opacity="0.75"></circle><circle r="3.5" cx="509" cy="384" opacity="0.46"></circle><circle r="3.5" cx="553" cy="272" opacity="0.68"></circle><circle r="3.5" cx="652" cy="204" opacity="0.88"></circle><circle r="3.5" cx="773" cy="205" opacity="0.44"></circle><circle r="3.5" cx="873" cy="274" opacity="0.61"></circle><circle r="3.5" cx="917" cy="387" opacity="0.59"></circle><circle r="3.5" cx="888" cy="506" opacity="0.56"></circle><circle r="3.5" cx="798" cy="588" opacity="0.78"></circle><circle r="3.5" cx="676" cy="605" opacity="0.92"></circle><circle r="3.5" cx="566" cy="550" opacity="0.77"></circle><circle r="3.5" cx="506" cy="442" opacity="0.35"></circle><circle r="3.5" cx="518" cy="319" opacity="0.48"></circle><circle r="3.5" cx="597" cy="224" opacity="0.38"></circle><circle r="3.5" cx="716" cy="189" opacity="0.24"></circle><circle r="3.5" cx="835" cy="229" opacity="0.83"></circle><circle r="3.5" cx="910" cy="328" opacity="0.34"></circle><circle r="3.5" cx="917" cy="454" opacity="0.69"></circle><circle r="3.5" cx="851" cy="561" opacity="0.87"></circle><circle r="3.5" cx="736" cy="612" opacity="0.16"></circle><circle r="3.5" cx="611" cy="590" opacity="0.27"></circle><circle r="3.5" cx="521" cy="501" opacity="0.38"></circle><circle r="3.5" cx="497" cy="376" opacity="0.88"></circle><circle r="3.5" cx="548" cy="259" opacity="0.82"></circle><circle r="3.5" cx="656" cy="190" opacity="0.85"></circle><circle r="3.5" cx="784" cy="195" opacity="0.67"></circle><circle r="3.5" cx="887" cy="272" opacity="0.95"></circle><circle r="3.5" cx="930" cy="394" opacity="0.84"></circle><circle r="3.5" cx="895" cy="519" opacity="0.68"></circle><circle r="3.5" cx="796" cy="603" opacity="0.17"></circle><circle r="3.5" cx="667" cy="616" opacity="0.32"></circle><circle r="3.5" cx="552" cy="554" opacity="0.15"></circle><circle r="3.5" cx="493" cy="437" opacity="0.70"></circle><circle r="3.5" cx="509" cy="307" opacity="0.44"></circle><circle r="3.5" cx="596" cy="209" opacity="0.66"></circle><circle r="3.5" cx="724" cy="177" opacity="0.43"></circle><circle r="3.5" cx="848" cy="223" opacity="0.66"></circle><circle r="3.5" cx="925" cy="331" opacity="0.27"></circle><circle r="3.5" cx="927" cy="464" opacity="0.88"></circle><circle r="3.5" cx="853" cy="575" opacity="0.66"></circle><circle r="3.5" cx="730" cy="626" opacity="0.25"></circle><circle r="4" cx="599" cy="597" opacity="0.31"></circle><circle r="4" cx="506" cy="500" opacity="0.68"></circle><circle r="4" cx="485" cy="367" opacity="0.38"></circle><circle r="4" cx="543" cy="245" opacity="0.87"></circle><circle r="4" cx="660" cy="176" opacity="0.54"></circle><circle r="4" cx="795" cy="186" opacity="0.81"></circle><circle r="4" cx="902" cy="271" opacity="0.63"></circle><circle r="4" cx="942" cy="401" opacity="0.45"></circle><circle r="4" cx="902" cy="532" opacity="0.85"></circle><circle r="4" cx="794" cy="617" opacity="0.26"></circle><circle r="4" cx="657" cy="627" opacity="0.11"></circle><circle r="4" cx="538" cy="557" opacity="0.38"></circle><circle r="4" cx="479" cy="432" opacity="0.63"></circle><circle r="4" cx="501" cy="295" opacity="0.54"></circle><circle r="4" cx="597" cy="194" opacity="0.69"></circle><circle r="4" cx="733" cy="165" opacity="0.21"></circle><circle r="4" cx="862" cy="218" opacity="0.99"></circle><circle r="4" cx="939" cy="335" opacity="0.76"></circle><circle r="4" cx="937" cy="475" opacity="0.41"></circle><circle r="4" cx="855" cy="590" opacity="0.15"></circle><circle r="4" cx="723" cy="639" opacity="0.22"></circle><circle r="4" cx="585" cy="604" opacity="0.52"></circle><circle r="4" cx="492" cy="498" opacity="0.58"></circle><circle r="4" cx="474" cy="357" opacity="0.85"></circle><circle r="4" cx="539" cy="230" opacity="0.90"></circle><circle r="4" cx="665" cy="162" opacity="0.74"></circle><circle r="4" cx="808" cy="177" opacity="0.78"></circle><circle r="4" cx="917" cy="271" opacity="0.17"></circle><circle r="4" cx="955" cy="409" opacity="0.28"></circle><circle r="4" cx="907" cy="546" opacity="0.58"></circle><circle r="4" cx="791" cy="632" opacity="0.49"></circle><circle r="4" cx="646" cy="637" opacity="0.81"></circle><circle r="4" cx="523" cy="559" opacity="0.84"></circle><circle r="4" cx="465" cy="425" opacity="0.33"></circle><circle r="4" cx="494" cy="282" opacity="0.30"></circle><circle r="4" cx="598" cy="179" opacity="0.93"></circle><circle r="4" cx="742" cy="153" opacity="0.64"></circle><circle r="4" cx="877" cy="214" opacity="0.67"></circle><circle r="4" cx="953" cy="340" opacity="0.67"></circle><circle r="4" cx="946" cy="487" opacity="0.55"></circle><circle r="4" cx="856" cy="605" opacity="0.68"></circle><circle r="4" cx="715" cy="652" opacity="0.25"></circle><circle r="4" cx="572" cy="610" opacity="0.78"></circle><circle r="4" cx="477" cy="495" opacity="0.95"></circle><circle r="4" cx="463" cy="346" opacity="0.19"></circle><circle r="4" cx="537" cy="215" opacity="0.69"></circle><circle r="4" cx="671" cy="149" opacity="0.83"></circle><circle r="4" cx="820" cy="169" opacity="0.64"></circle><circle r="4" cx="932" cy="271" opacity="0.87"></circle><circle r="4" cx="967" cy="419" opacity="0.26"></circle><circle r="4" cx="912" cy="560" opacity="0.89"></circle><circle r="4" cx="787" cy="646" opacity="0.53"></circle><circle r="4" cx="634" cy="647" opacity="0.23"></circle><circle r="4" cx="508" cy="561" opacity="0.24"></circle><circle r="4" cx="452" cy="418" opacity="0.14"></circle><circle r="4" cx="487" cy="268" opacity="0.62"></circle><circle r="4" cx="600" cy="164" opacity="0.25"></circle><circle r="4.5" cx="753" cy="142" opacity="0.91"></circle><circle r="4.5" cx="891" cy="210" opacity="0.98"></circle><circle r="4.5" cx="968" cy="345" opacity="0.34"></circle><circle r="4.5" cx="954" cy="500" opacity="0.38"></circle><circle r="4.5" cx="856" cy="620" opacity="0.13"></circle><circle r="4.5" cx="706" cy="664" opacity="0.25"></circle><circle r="4.5" cx="557" cy="616" opacity="0.26"></circle><circle r="4.5" cx="462" cy="492" opacity="0.27"></circle><circle r="4.5" cx="453" cy="335" opacity="0.91"></circle><circle r="4.5" cx="535" cy="200" opacity="0.37"></circle><circle r="4.5" cx="678" cy="135" opacity="0.57"></circle><circle r="4.5" cx="834" cy="162" opacity="0.68"></circle><circle r="4.5" cx="947" cy="273" opacity="0.74"></circle><circle r="4.5" cx="978" cy="429" opacity="0.29"></circle><circle r="4.5" cx="916" cy="575" opacity="0.96"></circle><circle r="4.5" cx="782" cy="661" opacity="0.62"></circle><circle r="4.5" cx="622" cy="656" opacity="0.96"></circle><circle r="4.5" cx="493" cy="561" opacity="0.21"></circle><circle r="4.5" cx="439" cy="410" opacity="0.41"></circle><circle r="4.5" cx="481" cy="254" opacity="0.94"></circle><circle r="4.5" cx="603" cy="149" opacity="0.16"></circle><circle r="4.5" cx="764" cy="131" opacity="0.64"></circle><circle r="4.5" cx="907" cy="208" opacity="0.38"></circle><circle r="4.5" cx="982" cy="352" opacity="0.71"></circle><circle r="4.5" cx="962" cy="513" opacity="0.98"></circle><circle r="4.5" cx="855" cy="636" opacity="0.98"></circle><circle r="4.5" cx="697" cy="676" opacity="0.91"></circle><circle r="4.5" cx="543" cy="620" opacity="0.76"></circle><circle r="4.5" cx="447" cy="487" opacity="0.62"></circle><circle r="4.5" cx="443" cy="323" opacity="0.11"></circle><circle r="4.5" cx="533" cy="185" opacity="0.28"></circle><circle r="4.5" cx="686" cy="121" opacity="0.97"></circle><circle r="4.5" cx="848" cy="155" opacity="0.73"></circle><circle r="4.5" cx="963" cy="275" opacity="0.63"></circle><circle r="4.5" cx="990" cy="439" opacity="0.69"></circle><circle r="4.5" cx="919" cy="590" opacity="0.49"></circle><circle r="4.5" cx="776" cy="675" opacity="0.22"></circle><circle r="4.5" cx="609" cy="664" opacity="0.59"></circle><circle r="4.5" cx="477" cy="561" opacity="0.69"></circle><circle r="4.5" cx="426" cy="400" opacity="0.67"></circle><circle r="4.5" cx="475" cy="239" opacity="0.42"></circle><circle r="4.5" cx="607" cy="134" opacity="0.26"></circle><circle r="4.5" cx="776" cy="121" opacity="0.57"></circle><circle r="4.5" cx="922" cy="206" opacity="0.77"></circle><circle r="4.5" cx="996" cy="359" opacity="0.75"></circle><circle r="4.5" cx="970" cy="527" opacity="0.20"></circle><circle r="4.5" cx="853" cy="651" opacity="0.32"></circle><circle r="4.5" cx="686" cy="688" opacity="0.29"></circle><circle r="4.5" cx="527" cy="624" opacity="0.55"></circle><circle r="4.5" cx="432" cy="482" opacity="0.84"></circle><circle r="4.5" cx="434" cy="310" opacity="1.00"></circle><circle r="4.5" cx="533" cy="169" opacity="0.59"></circle><circle r="4.5" cx="695" cy="108" opacity="0.35"></circle><circle r="4.5" cx="863" cy="149" opacity="0.93"></circle><circle r="4.5" cx="978" cy="279" opacity="0.89"></circle><circle r="4.5" cx="1001" cy="451" opacity="0.93"></circle><circle r="4.5" cx="922" cy="606" opacity="0.21"></circle><circle r="5" cx="769" cy="690" opacity="0.94"></circle><circle r="5" cx="595" cy="672" opacity="0.80"></circle><circle r="5" cx="461" cy="560" opacity="0.75"></circle><circle r="5" cx="414" cy="391" opacity="0.12"></circle><circle r="5" cx="471" cy="224" opacity="0.26"></circle><circle r="5" cx="612" cy="119" opacity="0.90"></circle><circle r="5" cx="788" cy="111" opacity="0.12"></circle><circle r="5" cx="938" cy="205" opacity="0.78"></circle><circle r="5" cx="1009" cy="367" opacity="0.55"></circle><circle r="5" cx="976" cy="542" opacity="0.96"></circle><circle r="5" cx="850" cy="667" opacity="0.98"></circle><circle r="5" cx="675" cy="700" opacity="0.26"></circle><circle r="5" cx="512" cy="628" opacity="0.40"></circle><circle r="5" cx="417" cy="475" opacity="0.13"></circle><circle r="5" cx="425" cy="296" opacity="0.68"></circle><circle r="5" cx="534" cy="153" opacity="0.22"></circle><circle r="5" cx="704" cy="95" opacity="0.67"></circle><circle r="5" cx="878" cy="144" opacity="0.72"></circle><circle r="5" cx="994" cy="283" opacity="0.41"></circle><circle r="5" cx="1011" cy="463" opacity="0.76"></circle><circle r="5" cx="924" cy="622" opacity="0.50"></circle><circle r="5" cx="761" cy="704" opacity="0.78"></circle><circle r="5" cx="581" cy="680" opacity="0.72"></circle><circle r="5" cx="445" cy="558" opacity="0.33"></circle><circle r="5" cx="402" cy="380" opacity="0.96"></circle><circle r="5" cx="467" cy="208" opacity="1.00"></circle><circle r="5" cx="618" cy="103" opacity="0.71"></circle><circle r="5" cx="802" cy="102" opacity="0.31"></circle></g></svg>