<svg xmlns="http://www.w3.org/2000/svg" version="1.1" xmlns:xlink="http://www.w3.org/1999/xlink" xmlns:svgjs="http://svgjs.dev/svgjs" viewBox="0 0 1422 800"><defs><filter id="uuunion-blur" x="-100%" y="-100%" width="400%" height="400%" color-interpolation-filters="sRGB">
        <feGaussianBlur in="SourceGraphic" stdDeviation="2 0" result="blur"></feGaussianBlur>
        <feDropShadow stdDeviation="12.307692307692308" in="blur" dx="10" dy="10" flood-color="hsl(180, 69%, 40%)" flood-opacity="0.25" x="0%" y="0%" width="100%" height="100%"></feDropShadow>
      </filter><filter id="uuunion-blur2" x="-100%" y="-100%" width="400%" height="400%" color-interpolation-filters="sRGB">
        <feGaussianBlur in="SourceGraphic" stdDeviation="2 0" result="blur"></feGaussianBlur>
        <feDropShadow stdDeviation="12.307692307692308" in="blur" dx="-10" dy="-10" flood-color="hsl(180, 69%, 40%)" flood-opacity="0.25" x="0%" y="0%" width="100%" height="100%"></feDropShadow>
      </filter><linearGradient gradientTransform="rotate(0, 0.5, 0.5)" x1="50%" y1="0%" x2="50%" y2="100%" id="uuunion-grad"><stop stop-color="hsl(180, 69%, 60%)" offset="10%"></stop><stop stop-color="hsl(180, 69%, 40%)" offset="90%"></stop></linearGradient><linearGradient gradientTransform="rotate(135, 0.5, 0.5)" x1="50%" y1="0%" x2="50%" y2="100%" id="uuunion-grad2"><stop stop-color="hsl(180, 69%, 60%)" offset="25%"></stop><stop stop-color="hsl(180, 69%, 40%)" offset="100%"></stop></linearGradient><linearGradient gradientTransform="rotate(333, 0.5, 0.5)" x1="50%" y1="0%" x2="50%" y2="100%" id="uuunion-grad3"><stop stop-color="hsl(180, 69%, 60%)" offset="0%"></stop><stop stop-color="hsl(180, 69%, 40%)" offset="75%"></stop></linearGradient></defs><path d="M-133.52 -86.78Q-120.47 -85.33 -107.41 -83.59 -94.36 -81.67 -81.31 -79.66 -68.26 -77.66 -55.2 -75.79 -42.15 -74.14 -29.1 -72.8 -16.04 -71.83 -2.99 -71.3 10.05 -71.22 23.1 -71.61 36.16 -72.43 49.21 -73.65 62.26 -75.21 75.32 -77.02 88.37 -78.99 101.42 -81 114.47 -82.97 127.53 -84.78 140.58 -86.33 153.63 -87.56 166.68 -88.38 179.74 -88.77 192.79 -88.69 205.84 -88.16 218.9 -87.19 231.95 -85.85 245 -84.2 258.05 -82.33 271.11 -80.34 284.16 -78.32 297.21 -76.4 310.27 -74.66 323.32 -73.21 336.37 -72.11 349.42 -71.43 362.48 -71.2 375.53 -71.43 388.58 -72.11 401.64 -73.2 414.69 -74.66 427.74 -76.39 440.79 -78.31 453.85 -80.33 466.9 -82.32 479.95 -84.19 493.01 -85.84 506.06 -87.19 519.11 -88.15 532.16 -88.69 545.22 -88.77 558.27 -88.39 571.32 -87.56 584.38 -86.34 597.43 -84.79 610.48 -82.98 623.54 -81.01 636.59 -79 649.64 -77.03 662.69 -75.22 675.75 -73.66 688.8 -72.44 701.85 -71.61 714.91 -71.22 727.96 -71.3 741.01 -71.83 754.06 -72.79 767.12 -74.13 780.17 -75.78 793.22 -77.65 806.28 -79.65 819.33 -81.66 832.38 -83.58 845.43 -85.32 858.49 -86.78 871.54 -87.88 884.59 -88.56 897.65 -88.79 910.7 -88.57 923.75 -87.89 936.8 -86.79 949.86 -85.34 962.91 -83.61 975.96 -81.69 989.02 -79.67 1002.07 -77.68 1015.12 -75.8 1028.18 -74.15 1041.23 -72.81 1054.28 -71.84 1067.33 -71.3 1080.39 -71.22 1093.44 -71.6 1106.49 -72.42 1119.55 -73.64 1132.6 -75.2 1145.65 -77 1158.7 -78.97 1171.76 -80.99 1184.81 -82.95 1197.86 -84.76 1210.92 -86.32 1223.97 -87.55 1237.02 -88.38 1250.07 -88.77 1263.13 -88.69 1276.18 -88.16 1289.23 -87.2 1302.29 -85.87 1315.34 -84.22 1328.39 -82.35 1341.45 -80.35 1354.5 -78.34 1367.55 -76.41 1380.6 -74.68 1393.66 -73.22 1406.71 -72.12 1419.76 -71.43 1432.82 -71.2 1445.87 -71.42 1458.92 -72.1 1471.98 -73.19 1485.03 -74.64 1498.08 -76.37 1511.13 -78.3 1527.71 -73.84 1530.86 -52.42 1536.19 -37.48 1546.32 -22.54 1559.5 -7.6 1573.49 7.33 1585.89 22.27 1594.57 37.21 1598.06 52.16 1595.75 67.1 1588.05 82.04 1576.26 96.98 1562.4 111.92 1548.86 126.86 1537.94 141.8 1531.51 156.74 1530.67 171.68 1535.57 186.62 1545.37 201.57 1558.39 216.51 1572.4 231.45 1585.01 246.39 1594.06 261.33 1597.99 276.27 1596.15 291.21 1588.83 306.15 1577.3 321.09 1563.53 336.03 1549.87 350.97 1538.66 365.92 1531.82 380.86 1530.52 395.8 1534.99 410.74 1544.45 425.68 1557.29 440.62 1571.31 455.56 1584.11 470.5 1593.51 485.44 1597.89 500.38 1596.5 515.33 1589.59 530.27 1578.33 545.21 1564.65 560.15 1550.9 575.09 1539.42 590.03 1532.18 604.97 1530.41 619.91 1534.43 634.85 1543.54 649.79 1556.19 664.74 1570.2 679.68 1583.19 694.62 1592.93 709.56 1597.75 724.5 1596.83 739.44 1590.32 754.38 1579.35 769.32 1565.78 784.26 1551.94 799.2 1540.2 814.15 1532.56 829.09 1530.34 844.03 1533.91 858.97 1542.66 873.91 1529.55 879.17 1516.45 884.47 1503.34 889.54 1490.23 894.11 1477.12 897.93 1464.01 900.81 1450.9 902.6 1437.79 903.19 1424.68 902.57 1411.57 900.76 1398.46 897.86 1385.36 894.01 1372.25 889.43 1359.14 884.36 1346.03 879.05 1332.92 873.79 1319.81 868.86 1306.7 864.52 1293.59 860.99 1280.48 858.46 1267.38 857.06 1254.27 856.87 1241.16 857.89 1228.05 860.08 1214.94 863.31 1201.83 867.43 1188.72 872.2 1175.61 877.38 1162.5 882.7 1149.4 887.88 1136.29 892.65 1123.18 896.74 1110.07 899.96 1096.96 902.13 1083.85 903.13 1070.74 902.92 1057.63 901.5 1044.52 898.95 1031.41 895.4 1018.31 891.04 1005.2 886.1 992.09 880.84 978.98 875.54 965.87 870.47 952.76 865.9 939.65 862.07 926.54 859.19 913.43 857.4 900.33 856.8 887.22 857.41 874.11 859.22 861 862.12 847.89 865.96 834.78 870.54 821.67 875.61 808.56 880.92 795.45 886.17 782.35 891.11 769.24 895.45 756.13 898.99 743.02 901.52 729.91 902.93 716.8 903.12 703.69 902.11 690.58 899.92 677.47 896.69 664.37 892.58 651.26 887.81 638.15 882.63 625.04 877.31 611.93 872.13 598.82 867.36 585.71 863.26 572.6 860.04 559.49 857.87 546.39 856.86 533.28 857.07 520.17 858.48 507.06 861.03 493.95 864.57 480.84 868.93 467.73 873.86 454.62 879.12 441.52 884.43 428.41 889.5 415.3 894.07 402.19 897.9 389.08 900.79 375.97 902.59 362.86 903.19 349.75 902.58 336.64 900.78 323.54 897.89 310.43 894.05 297.32 889.48 284.21 884.4 271.1 879.1 257.99 873.84 244.88 868.91 231.77 864.55 218.66 861.02 205.56 858.47 192.45 857.07 179.34 856.86 166.23 857.88 153.12 860.05 140.01 863.28 126.9 867.39 113.79 872.15 100.69 877.34 87.58 882.66 74.47 887.84 61.36 892.61 48.25 896.71 35.14 899.94 22.03 902.11 8.92 903.13 -4.18 902.92 -17.28 901.51 -30.39 898.97 -43.5 895.43 -56.61 891.08 -69.72 886.15 -82.83 880.89 -95.94 875.59 -109.05 870.51 -122.15 865.94 -135.26 862.1 -132.45 847.28 -131.3 832.45 -132.02 817.62 -134.47 802.8 -138.25 787.97 -142.69 773.14 -147.06 758.32 -150.58 743.49 -152.67 728.66 -152.97 713.84 -151.42 699.01 -148.29 684.18 -144.12 669.36 -139.61 654.53 -135.55 639.71 -132.62 624.88 -131.33 610.05 -131.89 595.23 -134.22 580.4 -137.91 565.57 -142.33 550.75 -146.73 535.92 -150.35 521.09 -152.57 506.27 -153.02 491.44 -151.61 476.61 -148.59 461.79 -144.47 446.96 -139.96 432.13 -135.84 417.31 -132.8 402.48 -131.36 387.66 -131.78 372.83 -133.98 358 -137.58 343.18 -141.97 328.35 -146.4 313.52 -150.1 298.7 -152.46 283.87 -153.05 269.04 -151.78 254.22 -148.88 239.39 -144.82 224.56 -140.32 209.74 -136.13 194.91 -132.98 180.08 -131.41 165.26 -131.68 150.43 -133.74 135.61 -137.25 120.78 -141.61 105.95 -146.06 91.13 -149.85 76.3 -152.33 61.47 -153.07 46.65 -151.95 31.82 -149.16 16.99 -145.17 2.17 -140.68 -12.65 -136.44 -27.48 -133.18 -42.3 -131.47 -57.13 -131.59 -71.96 -133.52 -86.78" fill="url(#uuunion-grad)"></path><path d="M-133.53 -86.78Q-131.6 -71.96 -131.48 -57.13 -133.19 -42.3 -136.45 -27.48 -140.69 -12.65 -145.18 2.17 -149.17 16.99 -151.96 31.82 -153.08 46.65 -152.34 61.47 -149.86 76.3 -146.07 91.12 -141.62 105.95 -137.26 120.78 -133.75 135.6 -131.69 150.43 -131.42 165.26 -132.99 180.08 -136.14 194.91 -140.33 209.74 -144.83 224.56 -148.89 239.39 -151.79 254.22 -153.06 269.04 -152.47 283.87 -150.11 298.7 -146.41 313.52 -141.98 328.35 -137.59 343.17 -133.99 358 -131.79 372.83 -131.37 387.65 -122.72 389.35 -114.06 391.3 -105.4 393.45 -96.75 395.76 -88.09 398.16 -79.44 400.61 -70.78 403.04 -62.13 405.41 -53.47 407.64 -44.81 409.7 -36.16 411.52 -27.5 413.08 -10.19 415.07 7.11 416 14.23 414.2 30.69 408.29 41.44 403.64 52.15 398.52 62.82 393.01 73.48 387.2 84.11 381.2 94.74 375.09 105.36 369.01 115.99 363.04 126.63 357.3 137.28 351.87 147.96 346.85 158.67 342.29 169.42 338.26 180.2 334.76 191.03 331.82 201.9 329.43 212.82 327.56 223.8 326.15 234.82 325.15 245.89 324.46 257.02 324.01 268.19 323.69 279.41 323.41 290.67 323.04 301.98 322.51 313.32 321.7 324.69 320.55 336.09 318.98 347.51 316.93 358.94 314.38 370.39 311.29 381.83 307.69 393.27 303.58 404.7 299 416.11 294.02 427.5 288.69 438.85 283.11 450.17 277.37 461.44 271.55 472.66 265.77 483.83 260.11 494.94 254.67 505.98 249.53 516.96 244.76 527.87 240.42 538.7 236.55 549.47 233.17 560.16 230.29 570.79 227.9 581.34 225.97 591.83 224.45 602.25 223.28 612.62 222.39 622.93 221.69 633.2 221.09 643.42 220.5 653.6 219.83 663.77 218.99 673.91 217.9 684.04 216.48 694.18 214.68 704.32 212.45 714.49 209.76 724.68 206.6 734.92 202.97 745.2 198.89 755.55 194.41 765.96 189.57 776.45 184.44 787.04 179.1 797.71 173.62 808.49 168.1 819.38 162.62 830.39 157.27 841.51 152.12 852.77 147.25 864.15 142.72 875.65 138.58 887.29 134.87 899.06 131.59 910.96 128.76 922.98 126.35 935.13 124.35 947.39 122.7 959.76 121.35 972.23 120.23 984.79 119.27 997.44 118.39 1010.16 117.51 1022.94 116.53 1035.77 115.39 1048.63 114.02 1061.52 112.35 1074.41 110.33 1087.29 107.93 1100.15 105.12 1112.97 101.9 1125.73 98.26 1138.42 94.24 1151.03 89.86 1163.54 85.19 1175.94 80.27 1188.21 75.17 1200.33 69.97 1212.31 64.74 1224.12 59.56 1235.77 54.51 1247.23 49.65 1258.5 45.04 1269.58 40.74 1280.46 36.79 1291.14 33.21 1301.61 30.02 1311.89 27.21 1321.97 24.78 1331.85 22.68 1341.54 20.89 1351.06 19.35 1360.4 18 1369.57 16.78 1378.6 15.61 1387.49 14.42 1396.25 13.15 1404.92 11.72 1413.49 10.07 1422 8.16 1407.9 -9.54 1397.08 -27.26 1392.02 -44.97 1393.91 -62.69 1402.31 -80.4 1415.27 -98.12 1429.78 -115.83 1442.5 -133.54 1429.96 -134.65 1417.43 -136 1404.9 -137.52 1392.37 -139.16 1379.84 -140.83 1367.3 -142.47 1354.77 -143.99 1342.24 -145.34 1329.71 -146.45 1317.17 -147.26 1304.64 -147.75 1292.11 -147.89 1279.58 -147.68 1267.05 -147.12 1254.51 -146.24 1241.98 -145.09 1229.45 -143.7 1216.92 -142.15 1204.38 -140.5 1191.85 -138.82 1179.32 -137.2 1166.79 -135.71 1154.26 -134.41 1141.72 -133.36 1129.19 -132.6 1116.66 -132.18 1104.13 -132.11 1091.6 -132.39 1079.06 -133.02 1066.53 -133.96 1054 -135.17 1041.47 -136.59 1028.93 -138.17 1016.4 -139.83 1003.87 -141.5 991.34 -143.1 978.81 -144.56 966.27 -145.82 953.74 -146.81 941.21 -147.5 928.68 -147.85 916.14 -147.85 903.61 -147.5 891.08 -146.81 878.55 -145.81 866.02 -144.55 853.48 -143.09 840.95 -141.49 828.42 -139.82 815.89 -138.16 803.36 -136.58 790.82 -135.16 778.29 -133.95 765.76 -133.02 753.23 -132.39 740.69 -132.11 728.16 -132.18 715.63 -132.61 703.1 -133.36 690.57 -134.41 678.03 -135.72 665.5 -137.21 652.97 -138.83 640.44 -140.5 627.91 -142.15 615.37 -143.71 602.84 -145.09 590.31 -146.25 577.78 -147.13 565.24 -147.68 552.71 -147.89 540.18 -147.75 527.65 -147.26 515.12 -146.44 502.58 -145.33 490.05 -143.99 477.52 -142.46 464.99 -140.82 452.45 -139.15 439.92 -137.51 427.39 -135.99 414.86 -134.64 402.33 -133.54 389.79 -132.73 377.26 -132.24 364.73 -132.1 352.2 -132.31 339.67 -132.87 327.13 -133.75 314.6 -134.91 302.07 -136.3 289.54 -137.85 277 -139.5 264.47 -141.17 251.94 -142.79 239.41 -144.29 226.88 -145.59 214.34 -146.64 201.81 -147.39 189.28 -147.81 176.75 -147.88 164.21 -147.59 151.68 -146.97 139.15 -146.03 126.62 -144.82 114.09 -143.39 101.55 -141.81 89.02 -140.15 76.49 -138.48 63.96 -136.88 51.43 -135.42 38.89 -134.17 26.36 -133.18 13.83 -132.49 1.3 -132.14 -11.23 -132.14 -23.76 -132.5 -36.29 -133.19 -48.82 -134.19 -61.35 -135.44 -73.89 -136.91 -86.42 -138.51 -98.95 -140.18 -111.48 -141.84 -124.01 -143.41 -136.55 -144.84 -151.87 -139.01 -147.15 -116.94 -139.86 -101.88 -133.53 -86.78" fill="url(#uuunion-grad2)" filter="url(#uuunion-blur)"></path><path d="M1437.4 332.08Q1446.4 333.24 1455.41 334.09 1464.42 334.62 1473.42 334.79 1482.43 334.63 1491.44 334.12 1500.44 333.28 1509.45 332.12 1518.46 330.69 1527.46 329 1536.47 327.1 1545.48 325.04 1554.48 322.85 1563.49 320.6 1569.19 325.94 1549.87 350.97 1537.18 368.41 1530.74 385.84 1532.06 403.27 1540.82 420.7 1555 438.13 1571.31 455.56 1585.97 472.99 1595.58 490.42 1597.93 507.86 1592.45 525.29 1580.43 542.72 1564.65 560.15 1548.77 577.58 1536.45 595.01 1530.57 612.44 1532.47 629.87 1541.73 647.3 1556.19 664.74 1572.5 682.17 1586.89 699.6 1596.03 717.03 1597.78 734.46 1591.76 751.89 1579.35 769.32 1563.42 786.75 1547.68 804.18 1535.76 821.62 1530.43 839.05 1532.93 856.48 1542.66 873.91 1530.64 878.73 1518.61 883.6 1506.59 888.32 1494.57 892.67 1482.54 896.45 1470.52 899.51 1458.49 901.7 1446.47 902.94 1434.45 903.15 1422.42 902.34 1410.4 900.54 1398.37 897.83 1386.35 894.33 1374.32 890.2 1362.3 885.61 1350.28 880.78 1338.25 875.91 1326.23 871.22 1314.2 866.92 1302.18 863.2 1290.15 860.22 1278.13 858.12 1266.11 856.99 1254.08 856.87 1242.06 857.78 1230.03 859.68 1218.01 862.47 1205.98 866.04 1193.96 870.23 1181.94 874.85 1169.91 879.7 1157.89 884.56 1145.86 889.22 1133.84 893.47 1121.82 897.12 1109.79 900.02 1097.77 902.03 1085.74 903.06 1073.72 903.07 1061.69 902.06 1049.67 900.08 1037.65 897.2 1025.62 893.56 1013.6 889.32 1001.57 884.67 989.55 879.81 977.52 874.96 965.5 870.33 953.48 866.13 941.45 862.55 929.43 859.73 917.4 857.82 905.38 856.88 893.35 856.97 881.33 858.08 869.31 860.16 857.28 863.12 845.26 866.83 833.23 871.11 821.21 875.8 809.19 880.66 797.16 885.5 785.14 890.1 773.11 894.24 761.09 897.76 749.06 900.49 737.04 902.31 725.02 903.14 712.99 902.95 700.97 901.74 688.94 899.57 676.92 896.53 664.89 892.76 652.87 888.43 640.85 883.72 628.82 878.84 616.8 874.02 604.77 869.46 592.75 865.37 580.73 861.92 568.7 859.28 556.68 857.55 544.65 856.82 532.63 857.11 520.6 858.42 508.58 860.68 496.56 863.8 484.53 867.63 472.51 872.01 460.48 876.75 448.46 881.63 436.43 886.44 424.41 890.96 412.39 894.99 400.36 898.37 388.34 900.92 376.31 902.56 364.29 903.19 352.26 902.79 340.24 901.39 328.22 899.04 316.19 895.84 304.17 891.95 292.14 887.52 280.12 882.76 268.1 877.88 256.07 873.09 244.05 868.61 232.02 864.63 220 861.33 207.97 858.86 195.95 857.33 183.93 856.8 171.9 857.29 159.88 858.79 147.85 861.23 135.83 864.5 123.8 868.46 111.78 872.93 99.76 877.71 87.73 882.59 75.71 887.36 63.68 891.8 51.66 895.72 39.63 898.94 27.61 901.32 10.25 897.9 5.8 882.89 6.18 872.74 6 862.59 5.28 852.44 4.09 842.29 1.82 827.07 1.64 822 12.89 815.14 24.24 807.31 35.73 798.58 47.38 789.07 59.21 778.94 71.23 768.37 83.44 757.57 95.84 746.75 108.4 736.12 121.12 725.88 133.96 716.2 146.9 707.26 159.89 699.15 172.92 691.97 185.94 685.74 198.92 680.45 211.85 676.06 224.69 672.46 237.43 669.54 250.05 667.12 262.57 665.03 274.97 663.07 287.27 661.05 299.49 658.76 311.64 656.04 323.75 652.71 335.85 648.65 347.98 643.77 360.15 638.02 372.41 631.36 384.77 623.85 397.26 615.53 409.9 606.52 422.7 596.95 435.66 586.97 448.78 576.77 462.04 566.52 475.43 556.42 488.92 546.64 502.48 537.33 516.07 528.64 529.64 520.67 543.15 513.5 556.56 507.15 569.82 501.62 582.89 496.88 595.73 492.84 608.32 489.39 620.63 486.41 632.65 483.72 644.37 481.17 655.81 478.59 666.98 475.8 677.92 472.64 688.66 468.99 699.25 464.72 709.75 459.74 720.23 454.02 730.74 447.53 741.36 440.29 752.16 432.36 763.2 423.82 774.55 414.79 786.25 405.39 795.67 401.55 805.1 397.64 814.55 393.73 824.02 389.89 833.5 386.21 843.01 382.74 852.53 379.55 862.08 376.69 871.64 374.21 881.23 372.13 890.85 370.49 900.48 369.29 910.14 368.53 919.83 368.2 929.54 368.26 939.28 368.68 949.05 369.42 958.84 370.41 968.67 371.59 978.52 372.9 988.4 374.26 998.31 375.6 1008.24 376.85 1018.21 377.94 1028.21 378.79 1038.24 379.36 1048.29 379.6 1058.38 379.45 1068.5 378.9 1078.64 377.93 1088.82 376.52 1099.03 374.68 1109.26 372.44 1119.53 369.81 1129.82 366.84 1140.14 363.58 1150.49 360.09 1160.87 356.42 1171.27 352.65 1181.7 348.85 1192.15 345.08 1202.63 341.42 1213.14 337.94 1223.66 334.7 1234.21 331.75 1244.78 329.14 1255.37 326.91 1265.98 325.08 1276.61 323.66 1287.26 322.68 1297.92 322.1 1308.59 321.92 1319.28 322.1 1329.99 322.61 1340.7 323.39 1351.42 324.38 1362.16 325.52 1372.89 326.75 1383.64 327.99 1394.39 329.18 1405.14 330.24 1415.89 331.12 1426.65 331.75 1437.4 332.08" fill="url(#uuunion-grad3)" filter="url(#uuunion-blur2)"></path></svg>