<svg xmlns="http://www.w3.org/2000/svg" version="1.1" xmlns:xlink="http://www.w3.org/1999/xlink" xmlns:svgjs="http://svgjs.dev/svgjs" viewBox="0 0 1422 800"><defs><filter id="uuunion-blur" x="-100%" y="-100%" width="400%" height="400%" color-interpolation-filters="sRGB">
        <feGaussianBlur in="SourceGraphic" stdDeviation="2 0" result="blur"></feGaussianBlur>
        <feDropShadow stdDeviation="12.307692307692308" in="blur" dx="10" dy="10" flood-color="hsl(340, 45%, 40%)" flood-opacity="0.25" x="0%" y="0%" width="100%" height="100%"></feDropShadow>
      </filter><filter id="uuunion-blur2" x="-100%" y="-100%" width="400%" height="400%" color-interpolation-filters="sRGB">
        <feGaussianBlur in="SourceGraphic" stdDeviation="2 0" result="blur"></feGaussianBlur>
        <feDropShadow stdDeviation="12.307692307692308" in="blur" dx="-10" dy="-10" flood-color="hsl(340, 45%, 40%)" flood-opacity="0.25" x="0%" y="0%" width="100%" height="100%"></feDropShadow>
      </filter><linearGradient gradientTransform="rotate(0, 0.5, 0.5)" x1="50%" y1="0%" x2="50%" y2="100%" id="uuunion-grad"><stop stop-color="hsl(340, 45%, 80%)" offset="10%"></stop><stop stop-color="hsl(340, 45%, 40%)" offset="90%"></stop></linearGradient><linearGradient gradientTransform="rotate(135, 0.5, 0.5)" x1="50%" y1="0%" x2="50%" y2="100%" id="uuunion-grad2"><stop stop-color="hsl(340, 45%, 80%)" offset="25%"></stop><stop stop-color="hsl(340, 45%, 40%)" offset="100%"></stop></linearGradient><linearGradient gradientTransform="rotate(333, 0.5, 0.5)" x1="50%" y1="0%" x2="50%" y2="100%" id="uuunion-grad3"><stop stop-color="hsl(340, 45%, 80%)" offset="0%"></stop><stop stop-color="hsl(340, 45%, 40%)" offset="75%"></stop></linearGradient></defs><path d="M-137.2 -73.96Q-124.03 -77.87 -110.86 -82.33 -97.69 -86.19 -84.52 -88.46 -71.35 -88.55 -58.18 -86.44 -45 -82.67 -31.83 -78.21 -18.66 -74.22 -5.49 -71.7 7.67 -71.32 20.84 -73.17 34.01 -76.78 47.18 -81.21 60.35 -85.33 73.52 -88.08 86.7 -88.75 99.87 -87.16 113.04 -83.74 126.21 -79.35 139.38 -75.13 152.55 -72.16 165.72 -71.2 178.89 -72.51 192.06 -75.74 205.24 -80.07 218.41 -84.38 231.58 -87.56 244.75 -88.79 257.92 -87.77 271.09 -84.74 284.26 -80.5 297.43 -76.12 310.6 -72.74 323.78 -71.23 336.95 -71.97 350.12 -74.78 363.29 -78.92 376.46 -83.35 389.63 -86.91 402.8 -88.69 415.97 -88.24 429.14 -85.66 442.32 -81.63 455.49 -77.18 468.66 -73.45 481.83 -71.41 495 -71.57 508.17 -73.9 521.34 -77.8 534.51 -82.26 547.69 -86.14 560.86 -88.44 574.03 -88.57 587.2 -86.49 600.37 -82.74 613.54 -78.29 626.71 -74.27 639.88 -71.73 653.05 -71.31 666.23 -73.13 679.4 -76.71 692.57 -81.14 705.74 -85.27 718.91 -88.05 732.08 -88.75 745.25 -87.21 758.42 -83.81 771.59 -79.43 784.77 -75.19 797.94 -72.19 811.11 -71.2 824.28 -72.47 837.45 -75.68 850.62 -79.99 863.79 -84.31 876.96 -87.52 890.14 -88.79 903.31 -87.8 916.48 -84.8 929.65 -80.57 942.82 -76.19 955.99 -72.79 969.16 -71.24 982.33 -71.94 995.5 -74.72 1008.68 -78.85 1021.85 -83.28 1035.02 -86.86 1048.19 -88.68 1061.36 -88.26 1074.53 -85.72 1087.7 -81.71 1100.87 -77.25 1114.05 -73.5 1127.22 -71.42 1140.39 -71.55 1153.56 -73.85 1166.73 -77.72 1179.9 -82.19 1193.07 -86.09 1206.24 -88.42 1219.41 -88.58 1232.59 -86.54 1245.76 -82.81 1258.93 -78.36 1272.1 -74.33 1285.27 -71.76 1298.44 -71.3 1311.61 -73.08 1324.78 -76.64 1337.96 -81.06 1351.13 -85.21 1364.3 -88.02 1377.47 -88.76 1390.64 -87.25 1403.81 -83.87 1416.98 -79.5 1430.15 -75.25 1443.33 -72.23 1456.5 -71.2 1469.67 -72.43 1482.84 -75.61 1496.01 -79.92 1509.18 -84.24 1522.35 -87.48 1535.83 -80.91 1530.45 -58.24 1533.03 -43.44 1543.23 -28.64 1558.57 -13.84 1575.29 0.95 1589.28 15.75 1597.14 30.55 1596.93 45.35 1588.71 60.15 1574.48 74.95 1557.74 89.75 1542.57 104.55 1532.7 119.35 1530.55 134.15 1536.63 148.95 1549.46 163.75 1565.89 178.55 1581.92 193.35 1593.6 208.14 1598.08 222.94 1594.27 237.74 1583.09 252.54 1567.29 267.34 1550.73 282.14 1537.46 296.94 1530.74 311.74 1532.21 326.54 1541.51 341.34 1556.37 356.14 1573.14 370.94 1587.72 385.74 1596.54 400.54 1597.44 415.34 1590.2 430.14 1576.6 444.94 1559.96 459.74 1544.35 474.54 1533.61 489.34 1530.35 504.14 1535.38 518.93 1547.46 533.73 1563.65 548.53 1579.96 563.33 1592.42 578.13 1597.96 592.93 1595.24 607.73 1584.92 622.53 1569.52 637.33 1552.82 652.13 1538.9 666.93 1531.18 681.73 1531.54 696.53 1539.89 711.33 1554.2 726.13 1570.95 740.93 1586.05 755.73 1595.8 770.53 1597.81 785.33 1591.59 800.13 1578.66 814.93 1562.2 829.73 1546.22 844.52 1534.64 859.32 1521.62 856.81 1508.59 860.27 1495.56 868.79 1482.54 880.2 1469.51 891.56 1456.48 899.94 1443.46 903.19 1430.43 900.48 1417.41 892.5 1404.38 881.3 1391.35 869.77 1378.33 860.87 1365.3 856.89 1352.28 858.85 1339.25 866.25 1326.22 877.18 1313.2 888.84 1300.17 898.23 1287.15 902.92 1274.12 901.72 1261.09 894.93 1248.07 884.3 1235.04 872.56 1222.01 862.74 1208.99 857.35 1195.96 857.79 1182.94 863.94 1169.91 874.22 1156.88 885.98 1143.86 896.21 1130.83 902.26 1117.81 902.59 1104.78 897.11 1091.75 887.22 1078.73 875.48 1065.7 864.9 1052.68 858.2 1039.65 857.1 1026.62 861.9 1013.6 871.35 1000.57 883.02 987.54 893.91 974.52 901.23 961.49 903.08 948.47 899 935.44 890.03 922.41 878.48 909.39 867.31 896.36 859.41 883.34 856.81 870.31 860.16 857.28 868.62 844.26 880 831.23 891.38 818.21 899.83 805.18 903.18 792.15 900.57 779.13 892.66 766.1 881.5 753.08 869.95 740.05 860.98 727.02 856.9 714 858.77 700.97 866.09 687.94 876.99 674.92 888.66 661.89 898.1 648.87 902.89 635.84 901.79 622.81 895.08 609.79 884.49 596.76 872.75 583.74 862.87 570.71 857.39 557.68 857.73 544.66 863.79 531.63 874.02 518.61 885.79 505.58 896.06 492.55 902.21 479.53 902.64 466.5 897.24 453.48 887.41 440.45 875.68 427.42 865.05 414.4 858.27 401.37 857.07 388.35 861.77 375.32 871.16 362.29 882.82 349.27 893.75 336.24 901.15 323.22 903.1 310.19 899.11 297.16 890.21 284.14 878.68 271.11 867.48 258.09 859.51 245.06 856.8 232.03 860.06 219.01 868.45 205.98 879.8 192.96 891.21 179.93 899.73 166.9 903.18 153.88 900.66 140.85 892.83 127.83 881.7 114.8 870.13 101.77 861.1 88.75 856.93 75.72 858.69 62.7 865.93 49.67 876.79 36.64 888.47 23.62 897.98 10.59 902.86 -2.42 901.86 -15.45 895.23 -28.48 884.69 -41.5 872.94 -54.53 863.01 -67.55 857.44 -80.58 857.68 -93.61 863.65 -106.63 873.83 -119.66 885.59 -132.68 895.92 -136.41 880.76 -141.54 865.61 -146.84 850.46 -150.99 835.3 -152.99 820.15 -152.34 804.99 -149.21 789.84 -144.36 774.68 -138.97 759.53 -134.37 744.37 -131.69 729.22 -131.57 714.07 -134.06 698.91 -138.53 683.76 -143.9 668.6 -148.85 653.45 -152.17 638.29 -153.04 623.14 -151.26 607.98 -147.25 592.83 -142.01 577.68 -136.81 562.52 -132.92 547.37 -131.3 532.21 -132.35 517.06 -135.81 501.9 -140.82 486.75 -146.17 471.59 -150.55 456.44 -152.87 441.29 -152.58 426.13 -149.75 410.98 -145.06 395.82 -139.67 380.67 -134.89 365.51 -131.9 350.36 -131.43 335.2 -133.59 320.05 -137.86 304.9 -143.18 289.74 -148.26 274.59 -151.85 259.43 -153.08 244.28 -151.64 229.12 -147.88 213.97 -142.73 198.81 -137.45 183.66 -133.32 168.51 -131.37 153.35 -132.06 138.2 -135.23 123.04 -140.11 107.89 -145.49 92.73 -150.06 77.58 -152.71 62.42 -152.78 47.27 -150.25 32.12 -145.75 16.96 -140.38 1.81 -135.45 -13.34 -132.17 -28.49 -131.34 -43.65 -133.17 -58.8 -137.2 -73.96" fill="url(#uuunion-grad)"></path><path d="M-137.21 -73.95Q-133.18 -58.8 -131.35 -43.64 -132.18 -28.49 -135.46 -13.33 -140.39 1.81 -145.76 16.96 -150.26 32.12 -152.79 47.27 -152.72 62.43 -150.07 77.58 -145.5 92.74 -140.12 107.89 -135.24 123.05 -132.07 138.2 -131.38 153.35 -133.33 168.51 -137.46 183.66 -142.74 198.82 -147.89 213.97 -151.65 229.13 -153.09 244.28 -151.86 259.44 -148.27 274.59 -143.19 289.75 -137.87 304.9 -133.6 320.05 -131.44 335.21 -131.91 350.36 -134.9 365.52 -139.68 380.67 -132.75 398.44 -113.56 390.82 -104.51 386.96 -95.46 384.6 -86.41 384.03 -77.36 385.3 -68.31 388.27 -59.26 392.6 -50.21 397.79 -41.16 403.23 -32.11 408.29 -23.07 412.4 -5.96 415.74 -2.94 415.95 8.88 410.85 20.71 403.26 32.53 393.99 44.32 384.16 56.08 374.97 67.79 367.49 79.45 362.5 91.05 360.31 102.59 360.74 114.06 363.14 125.46 366.51 136.79 369.68 148.05 371.53 159.23 371.17 170.35 368.13 181.41 362.4 192.4 354.47 203.35 345.22 214.24 335.73 225.11 327.16 235.94 320.47 246.75 316.29 257.55 314.79 268.36 315.66 279.17 318.17 289.99 321.31 300.85 323.96 311.74 325.07 322.67 323.91 333.65 320.14 344.69 313.89 355.78 305.73 366.95 296.58 378.17 287.52 389.47 279.61 400.83 273.7 412.26 270.28 423.75 269.37 435.29 270.57 446.89 273.1 458.54 275.92 470.23 277.98 481.94 278.36 493.67 276.43 505.42 272.01 517.15 265.34 528.88 257.06 540.58 248.12 552.24 239.55 563.85 232.33 575.4 227.17 586.88 224.43 598.27 224.03 609.57 225.45 620.77 227.88 631.86 230.31 642.84 231.76 653.7 231.4 664.43 228.76 675.05 223.77 685.54 216.78 695.9 208.49 706.16 199.84 716.3 191.81 726.34 185.28 736.29 180.85 746.15 178.73 755.94 178.72 765.68 180.27 775.38 182.51 785.05 184.48 794.71 185.28 804.39 184.22 814.09 180.93 823.85 175.47 833.67 168.26 843.57 160.06 853.58 151.77 863.71 144.32 873.97 138.47 884.38 134.71 894.96 133.12 905.72 133.42 916.66 134.98 927.79 136.95 939.13 138.42 950.67 138.58 962.41 136.84 974.36 132.97 986.51 127.13 998.85 119.81 1011.37 111.78 1024.06 103.91 1036.91 97.06 1049.9 91.87 1063.02 88.72 1076.24 87.58 1089.53 88.08 1102.89 89.56 1116.28 91.2 1129.67 92.13 1143.04 91.65 1156.36 89.28 1169.61 84.92 1182.76 78.79 1195.78 71.45 1208.64 63.67 1221.33 56.27 1233.82 50.02 1246.08 45.47 1258.11 42.85 1269.88 42.07 1281.38 42.68 1292.6 44 1303.54 45.24 1314.18 45.62 1324.52 44.51 1334.58 41.58 1344.35 36.8 1353.85 30.48 1363.08 23.22 1372.06 15.75 1380.81 8.85 1389.36 3.2 1405.86 -2.1 1422 -2.81 1405.38 -20.24 1394.26 -37.66 1392.31 -55.09 1400.18 -72.52 1415.27 -89.94 1432.58 -107.37 1446.38 -124.79 1452.13 -142.22 1439.49 -145.43 1426.86 -147.45 1414.22 -147.82 1401.59 -146.47 1388.95 -143.7 1376.32 -140.11 1363.68 -136.5 1351.04 -133.65 1338.41 -132.2 1325.77 -132.47 1313.14 -134.39 1300.5 -137.55 1287.87 -141.24 1275.23 -144.66 1262.6 -147.06 1249.96 -147.89 1237.33 -146.99 1224.69 -144.55 1212.06 -141.11 1199.42 -137.42 1186.78 -134.3 1174.15 -132.43 1161.51 -132.23 1148.88 -133.73 1136.24 -136.62 1123.61 -140.25 1110.97 -143.82 1098.34 -146.55 1085.7 -147.84 1073.07 -147.4 1060.43 -145.33 1047.8 -142.09 1035.16 -138.39 1022.52 -135.04 1009.89 -132.78 997.25 -132.11 984.62 -133.17 971.98 -135.74 959.35 -139.24 946.71 -142.91 934.08 -145.94 921.44 -147.66 908.81 -147.69 896.17 -146.03 883.54 -143.04 870.9 -139.38 858.27 -135.85 845.63 -133.24 832.99 -132.12 820.36 -132.72 807.72 -134.93 795.09 -138.25 782.45 -141.96 769.82 -145.23 757.18 -147.35 744.55 -147.85 731.91 -146.63 719.28 -143.94 706.64 -140.38 694.01 -136.74 681.37 -133.82 668.73 -132.25 656.1 -132.39 643.46 -134.2 630.83 -137.29 618.19 -140.98 605.56 -144.44 592.92 -146.93 580.29 -147.89 567.65 -147.12 555.02 -144.77 542.38 -141.38 529.75 -137.68 517.11 -134.49 504.47 -132.51 491.84 -132.18 479.2 -133.57 466.57 -136.37 453.93 -139.98 441.3 -143.58 428.66 -146.4 416.03 -147.8 403.39 -147.49 390.76 -145.53 378.12 -142.35 365.49 -138.65 352.85 -135.25 340.22 -132.89 327.58 -132.1 314.94 -133.04 302.31 -135.51 289.67 -138.98 277.04 -142.66 264.4 -145.76 251.77 -147.59 239.13 -147.75 226.5 -146.2 213.86 -143.29 201.23 -139.65 188.59 -136.09 175.96 -133.39 163.32 -132.14 150.68 -132.62 138.05 -134.73 125.41 -137.99 112.78 -141.7 100.14 -145.03 87.51 -147.25 74.87 -147.88 62.24 -146.77 49.6 -144.17 36.97 -140.65 24.33 -136.99 11.7 -133.99 -0.93 -132.31 -13.57 -132.32 -26.2 -134.02 -38.84 -137.04 -51.47 -140.71 -64.11 -144.22 -76.74 -146.8 -89.38 -147.88 -102.01 -147.23 -114.65 -144.98 -127.28 -141.64 -139.92 -137.94 -152.55 -134.68 -165.19 -132.6 -160.56 -117.76 -153.63 -103.04 -145.42 -88.44 -137.21 -73.95" fill="url(#uuunion-grad2)" filter="url(#uuunion-blur)"></path><path d="M1393.45 315.83Q1402.11 320.83 1410.78 325.73 1419.45 329.97 1428.11 333.06 1445.45 333.68 1462.78 329.44 1471.45 325.08 1480.12 320.13 1488.78 315.16 1497.45 310.75 1514.78 306.36 1532.12 306.81 1531.39 324.07 1541.51 341.34 1559.14 358.61 1578.44 375.87 1593.02 393.14 1598.08 410.41 1591.92 427.67 1576.6 444.94 1557.17 462.2 1540.07 479.47 1530.94 496.74 1532.82 514 1545.07 531.27 1563.65 548.53 1582.4 565.8 1595.14 583.07 1597.64 600.33 1589.08 617.6 1572.29 634.86 1552.82 652.13 1537.11 669.4 1530.36 686.66 1534.8 703.93 1548.96 721.2 1568.16 738.46 1586.05 755.73 1596.71 772.99 1596.61 790.26 1585.8 807.53 1567.84 824.79 1548.67 842.06 1534.64 859.32 1522.69 856.8 1510.75 859.3 1498.8 866.31 1486.85 876.28 1474.9 887.06 1462.95 896.31 1451 902.01 1439.06 902.94 1427.11 898.88 1415.16 890.72 1403.21 880.23 1391.26 869.69 1379.31 861.39 1367.37 857.13 1355.42 857.83 1343.47 863.35 1331.52 872.48 1319.57 883.24 1307.62 893.3 1295.68 900.47 1283.73 903.19 1271.78 900.88 1259.83 894.03 1247.88 884.13 1235.94 873.34 1223.99 863.99 1212.04 858.12 1200.09 856.99 1188.14 860.87 1176.19 868.89 1164.25 879.33 1152.3 889.91 1140.35 898.34 1128.4 902.78 1116.45 902.28 1104.5 896.94 1092.56 887.92 1080.61 877.18 1068.66 867.05 1056.71 859.73 1044.76 856.81 1032.81 858.93 1020.87 865.62 1008.92 875.43 996.97 886.24 985.02 895.69 973.07 901.73 961.13 903.05 949.18 899.36 937.23 891.47 925.28 881.09 913.33 870.47 901.38 861.92 889.44 857.29 877.49 857.59 865.54 862.76 853.59 871.67 841.64 882.39 829.69 892.59 817.75 900.05 805.8 903.16 793.85 901.24 781.9 894.7 769.95 884.98 758 874.17 746.06 864.62 734.11 858.42 722.16 856.9 710.21 860.39 698.26 868.14 686.31 878.47 674.37 889.13 662.42 897.8 650.47 902.61 638.52 902.5 626.57 897.51 614.63 888.72 602.68 878.03 590.73 867.77 578.78 860.16 566.83 856.86 554.88 858.58 542.94 864.96 530.99 874.59 519.04 885.41 507.09 895.04 495.14 901.41 483.19 903.13 471.25 899.82 459.3 892.21 447.35 881.95 435.4 871.26 423.45 862.47 411.5 857.48 399.56 857.39 387.61 862.2 375.66 870.87 363.71 881.53 351.76 891.85 339.82 899.6 327.87 903.09 315.92 901.57 303.97 895.36 292.02 885.81 280.07 875 268.13 865.28 256.18 858.75 244.23 856.83 232.28 859.95 220.33 867.41 208.38 877.61 196.44 888.33 184.49 897.24 172.54 902.4 160.59 902.7 148.64 898.07 136.69 889.51 124.75 878.89 112.8 868.51 100.85 860.62 88.9 856.94 76.95 858.27 65.01 864.31 53.06 873.76 41.11 884.57 29.16 894.38 10.49 897.05 1.74 882.88 -0.57 872.73 -2.94 862.58 -5.1 852.43 -6.81 842.28 -7.77 827.06 -7.15 822 5.86 813.17 19.15 799.98 32.62 784.03 46.22 767.53 59.88 752.81 73.54 741.76 87.13 735.43 100.6 733.8 113.9 735.79 127.02 739.5 139.94 742.67 152.65 743.17 165.17 739.51 177.52 731.14 189.74 718.58 201.86 703.29 213.93 687.34 226 672.93 238.11 661.87 250.29 655.23 262.58 653.06 274.99 654.39 287.54 657.48 300.22 660.2 313.02 660.53 325.92 657.01 338.87 649.07 351.85 637.11 364.8 622.48 377.67 607.08 390.44 593 403.04 581.98 415.46 575.07 427.67 572.39 439.66 573.07 451.44 575.53 463.04 577.79 474.47 577.91 485.79 574.5 497.05 566.93 508.33 555.56 519.68 541.58 531.18 526.75 542.9 513.03 554.89 502.08 567.22 494.94 579.9 491.77 592.97 491.84 606.42 493.67 620.23 495.44 634.36 495.32 648.76 491.97 663.34 484.76 678.03 473.94 692.71 460.6 707.29 446.35 721.65 433.01 735.7 422.17 749.35 414.84 762.51 411.22 775.14 410.68 787.2 411.89 798.68 413.15 809.6 412.76 819.06 414.13 828.49 413.38 837.89 410.43 847.26 405.52 856.6 399.18 865.9 392.09 875.17 385.08 884.42 378.93 893.63 374.32 902.81 371.7 911.96 371.27 921.08 372.9 930.17 376.2 939.24 380.52 948.28 385.1 957.29 389.14 966.28 391.9 975.25 392.84 984.19 391.66 993.11 388.35 1002.02 383.2 1010.91 376.76 1019.78 369.74 1028.64 362.95 1037.48 357.14 1046.31 352.94 1055.14 350.75 1063.96 350.71 1072.77 352.63 1081.58 356.08 1090.38 360.4 1099.19 364.83 1108 368.57 1116.81 370.95 1125.64 371.46 1134.47 369.87 1143.31 366.22 1152.16 360.87 1161.03 354.36 1169.92 347.44 1178.82 340.89 1187.75 335.43 1196.7 331.65 1205.68 329.88 1214.68 330.21 1223.72 332.39 1232.79 335.96 1241.89 340.25 1251.02 344.49 1260.2 347.92 1269.41 349.9 1278.66 349.99 1287.96 348.01 1297.3 344.07 1306.69 338.53 1316.12 332 1325.61 325.2 1335.14 318.91 1344.72 313.82 1354.36 310.45 1364.05 309.09 1373.79 309.75 1383.59 312.17 1393.45 315.83" fill="url(#uuunion-grad3)" filter="url(#uuunion-blur2)"></path></svg>