<svg xmlns="http://www.w3.org/2000/svg" version="1.1" xmlns:xlink="http://www.w3.org/1999/xlink" xmlns:svgjs="http://svgjs.dev/svgjs" viewBox="0 0 1422 800"><defs><filter id="uuunion-blur" x="-100%" y="-100%" width="400%" height="400%" color-interpolation-filters="sRGB">
        <feGaussianBlur in="SourceGraphic" stdDeviation="2 0" result="blur"></feGaussianBlur>
        <feDropShadow stdDeviation="12.307692307692308" in="blur" dx="10" dy="10" flood-color="hsl(30, 100%, 40%)" flood-opacity="0.25" x="0%" y="0%" width="100%" height="100%"></feDropShadow>
      </filter><filter id="uuunion-blur2" x="-100%" y="-100%" width="400%" height="400%" color-interpolation-filters="sRGB">
        <feGaussianBlur in="SourceGraphic" stdDeviation="2 0" result="blur"></feGaussianBlur>
        <feDropShadow stdDeviation="12.307692307692308" in="blur" dx="-10" dy="-10" flood-color="hsl(30, 100%, 40%)" flood-opacity="0.25" x="0%" y="0%" width="100%" height="100%"></feDropShadow>
      </filter><linearGradient gradientTransform="rotate(0, 0.5, 0.5)" x1="50%" y1="0%" x2="50%" y2="100%" id="uuunion-grad"><stop stop-color="hsl(30, 100%, 70%)" offset="10%"></stop><stop stop-color="hsl(30, 100%, 40%)" offset="90%"></stop></linearGradient><linearGradient gradientTransform="rotate(135, 0.5, 0.5)" x1="50%" y1="0%" x2="50%" y2="100%" id="uuunion-grad2"><stop stop-color="hsl(30, 100%, 70%)" offset="25%"></stop><stop stop-color="hsl(30, 100%, 40%)" offset="100%"></stop></linearGradient><linearGradient gradientTransform="rotate(333, 0.5, 0.5)" x1="50%" y1="0%" x2="50%" y2="100%" id="uuunion-grad3"><stop stop-color="hsl(30, 100%, 70%)" offset="0%"></stop><stop stop-color="hsl(30, 100%, 40%)" offset="75%"></stop></linearGradient></defs><path d="M-131.36 -87.02Q-118.38 -85.6 -105.4 -83.87 -92.41 -81.93 -79.43 -79.89 -66.44 -77.86 -53.46 -75.94 -40.48 -74.24 -27.49 -72.85 -14.51 -71.85 -1.53 -71.3 11.45 -71.22 24.43 -71.62 37.41 -72.47 50.4 -73.74 63.38 -75.34 76.36 -77.2 89.35 -79.21 102.33 -81.26 115.31 -83.25 128.3 -85.05 141.28 -86.58 154.27 -87.76 167.25 -88.51 180.23 -88.79 193.22 -88.6 206.2 -87.94 219.18 -86.85 232.17 -85.38 245.15 -83.62 258.13 -81.66 271.12 -79.61 284.1 -77.59 297.08 -75.69 310.07 -74.03 323.05 -72.69 336.03 -71.75 349.02 -71.26 362 -71.25 374.99 -71.71 387.97 -72.62 400.95 -73.94 413.94 -75.58 426.92 -77.46 439.9 -79.49 452.89 -81.54 465.87 -83.5 478.85 -85.28 491.84 -86.76 504.82 -87.88 517.8 -88.57 530.79 -88.79 543.77 -88.54 556.76 -87.82 569.74 -86.67 582.72 -85.16 595.71 -83.36 608.69 -81.39 621.67 -79.34 634.66 -77.32 647.64 -75.45 660.62 -73.83 673.61 -72.54 686.59 -71.66 699.58 -71.23 712.56 -71.28 725.54 -71.81 738.53 -72.78 751.51 -74.14 764.49 -75.82 777.48 -77.73 790.46 -79.76 803.44 -81.81 816.43 -83.76 829.41 -85.5 842.39 -86.94 855.38 -88 868.36 -88.63 881.35 -88.79 894.33 -88.47 907.31 -87.68 920.3 -86.48 933.28 -84.93 946.26 -83.11 959.25 -81.11 972.23 -79.06 985.21 -77.06 998.2 -75.22 1011.18 -73.63 1024.17 -72.4 1037.15 -71.57 1050.13 -71.21 1063.12 -71.33 1076.1 -71.91 1089.08 -72.94 1102.07 -74.35 1115.05 -76.07 1128.03 -78 1141.02 -80.04 1154 -82.08 1166.99 -84 1179.97 -85.71 1192.95 -87.11 1205.94 -88.11 1218.92 -88.68 1231.9 -88.77 1244.89 -88.39 1257.87 -87.55 1270.85 -86.29 1283.84 -84.7 1296.82 -82.84 1309.81 -80.84 1322.79 -78.78 1335.77 -76.8 1348.76 -74.98 1361.74 -73.44 1374.72 -72.26 1387.71 -71.5 1400.69 -71.2 1413.67 -71.38 1426.66 -72.03 1439.64 -73.11 1452.63 -74.57 1465.61 -76.32 1478.59 -78.27 1491.58 -80.32 1504.56 -82.35 1517.54 -84.25 1530.53 -85.92 1532.83 -71.07 1537.45 -56.22 1544.05 -41.37 1552.14 -26.53 1561.12 -11.68 1570.32 3.16 1579.08 18.01 1586.73 32.86 1592.72 47.71 1596.6 62.56 1598.08 77.4 1597.06 92.25 1593.61 107.1 1587.98 121.95 1580.6 136.8 1572.01 151.65 1562.83 166.5 1553.76 181.34 1545.46 196.19 1538.54 211.04 1533.52 225.89 1530.77 240.74 1530.49 255.59 1532.7 270.44 1537.24 285.28 1543.77 300.13 1551.81 314.98 1560.76 329.83 1569.98 344.68 1578.76 359.53 1586.46 374.37 1592.52 389.22 1596.49 404.07 1598.07 418.92 1597.14 433.77 1593.78 448.62 1588.24 463.47 1580.91 478.31 1572.35 493.16 1563.19 508.01 1554.1 522.86 1545.75 537.71 1538.78 552.56 1533.67 567.41 1530.83 582.25 1530.45 597.1 1532.57 611.95 1537.02 626.8 1543.49 641.65 1551.48 656.5 1560.41 671.35 1569.63 686.19 1578.44 701.04 1586.2 715.89 1592.33 730.74 1596.38 745.59 1598.06 760.44 1597.23 775.28 1593.96 790.13 1588.48 804.98 1581.22 819.83 1572.69 834.68 1563.54 849.53 1554.44 864.38 1541.21 868.78 1527.98 873.79 1514.74 879.14 1501.51 884.53 1488.28 889.68 1475.05 894.31 1461.82 898.15 1448.59 901 1435.36 902.71 1422.13 903.18 1408.9 902.4 1395.67 900.39 1382.44 897.27 1369.21 893.21 1355.98 888.43 1342.75 883.19 1329.52 877.78 1316.29 872.48 1303.06 867.6 1289.83 863.39 1276.6 860.09 1263.37 857.87 1250.13 856.85 1236.9 857.1 1223.67 858.59 1210.44 861.25 1197.21 864.93 1183.98 869.42 1170.75 874.5 1157.52 879.87 1144.29 885.25 1131.06 890.35 1117.83 894.88 1104.6 898.6 1091.37 901.3 1078.14 902.85 1064.91 903.15 1051.68 902.19 1038.45 900.03 1025.22 896.77 1011.99 892.6 998.76 887.74 985.53 882.46 972.3 877.05 959.06 871.79 945.83 866.99 932.6 862.89 919.37 859.72 906.14 857.66 892.91 856.81 879.68 857.23 866.45 858.88 853.22 861.69 839.99 865.49 826.76 870.08 813.53 875.21 800.3 880.6 787.07 885.96 773.84 891 760.61 895.43 747.38 899.02 734.15 901.58 720.92 902.96 707.69 903.1 694.46 901.97 681.23 899.65 668 896.25 654.76 891.98 641.53 887.04 628.3 881.73 615.07 876.32 601.84 871.11 588.61 866.39 575.38 862.4 562.15 859.38 548.92 857.47 535.69 856.8 522.46 857.38 509.23 859.2 496 862.15 482.77 866.07 469.54 870.75 456.31 875.93 443.08 881.34 429.85 886.67 416.62 891.64 403.39 895.97 390.16 899.43 376.93 901.84 363.7 903.06 350.47 903.02 337.24 901.72 324 899.25 310.77 895.72 297.54 891.34 284.31 886.34 271.08 881 257.85 875.6 244.62 870.44 231.39 865.8 218.16 861.93 204.93 859.05 191.7 857.31 178.47 856.8 165.24 857.56 152.01 859.53 138.78 862.63 125.55 866.66 112.32 871.43 99.09 876.66 85.86 882.07 72.63 887.37 59.4 892.26 46.17 896.49 32.94 899.82 19.71 902.08 6.48 903.12 -6.74 902.91 -19.97 901.46 -33.21 898.83 -46.44 895.18 -59.67 890.7 -72.9 885.64 -86.13 880.27 -99.36 874.88 -112.59 869.78 -125.82 865.23 -139.05 861.48 -141.97 846.66 -144.92 831.84 -147.66 817.02 -149.99 802.2 -151.75 787.38 -152.8 772.56 -153.07 757.74 -152.53 742.92 -151.23 728.1 -149.26 713.28 -146.76 698.46 -143.93 683.64 -140.97 668.82 -138.1 654 -135.53 639.18 -133.45 624.36 -132.02 609.54 -131.34 594.72 -131.46 579.9 -132.37 565.07 -134.01 550.25 -136.26 535.43 -138.94 520.61 -141.86 505.79 -144.81 490.97 -147.56 476.15 -149.91 461.33 -151.7 446.51 -152.78 431.69 -153.07 416.87 -152.57 402.05 -151.29 387.23 -149.34 372.41 -146.87 357.59 -144.04 342.77 -141.08 327.95 -138.2 313.13 -135.62 298.31 -133.52 283.49 -132.06 268.67 -131.35 253.84 -131.44 239.02 -132.33 224.2 -133.94 209.38 -136.16 194.56 -138.83 179.74 -141.75 164.92 -144.7 150.1 -147.46 135.28 -149.83 120.46 -151.64 105.64 -152.75 90.82 -153.08 76 -152.6 61.18 -151.35 46.36 -149.43 31.54 -146.97 16.72 -144.16 1.9 -141.2 -12.91 -138.31 -27.73 -135.71 -42.55 -133.59 -57.38 -132.1 -72.2 -131.36 -87.02" fill="url(#uuunion-grad)"></path><path d="M-131.37 -87.02Q-132.11 -72.2 -133.6 -57.38 -135.72 -42.56 -138.32 -27.74 -141.21 -12.91 -144.17 1.9 -146.98 16.72 -149.44 31.54 -151.36 46.36 -152.61 61.18 -153.09 76 -152.76 90.82 -151.65 105.64 -149.84 120.46 -147.47 135.28 -144.71 150.1 -141.76 164.92 -138.84 179.74 -136.17 194.56 -133.95 209.38 -132.33 224.2 -131.45 239.02 -131.36 253.84 -132.07 268.66 -133.53 283.48 -135.63 298.3 -138.21 313.13 -141.09 327.95 -144.05 342.77 -146.88 357.59 -149.35 372.41 -151.3 387.23 -142.22 388.88 -133.14 390.8 -124.05 392.95 -114.97 395.26 -105.89 397.69 -96.81 400.18 -87.72 402.66 -78.64 405.08 -69.56 407.37 -60.48 409.49 -51.39 411.37 -42.31 412.98 -33.23 414.28 -24.15 415.22 -6.98 415.94 -3.95 415.99 7.6 412.4 19.16 408.24 30.71 403.54 42.25 398.36 53.79 392.78 65.31 386.9 76.81 380.83 88.3 374.66 99.76 368.53 111.2 362.55 122.62 356.81 134.01 351.42 145.38 346.47 156.71 342.01 168.02 338.09 179.29 334.75 190.53 331.98 201.73 329.77 212.91 328.08 224.05 326.85 235.16 326.01 246.23 325.48 257.27 325.14 268.28 324.9 279.26 324.64 290.21 324.27 301.13 323.66 312.02 322.74 322.89 321.42 333.73 319.63 344.56 317.33 355.36 314.49 366.15 311.1 376.92 307.18 387.68 302.76 398.43 297.89 409.17 292.63 419.91 287.08 430.65 281.33 441.39 275.47 452.13 269.62 462.88 263.86 473.64 258.31 484.42 253.05 495.21 248.16 506.02 243.7 516.86 239.73 527.72 236.26 538.6 233.31 549.52 230.88 560.46 228.92 571.45 227.4 582.47 226.24 593.52 225.38 604.62 224.72 615.76 224.17 626.94 223.64 638.17 223.02 649.44 222.22 660.76 221.16 672.13 219.76 683.54 217.95 695.01 215.69 706.51 212.96 718.07 209.73 729.67 206.02 741.32 201.85 753.01 197.27 764.74 192.33 776.52 187.1 788.33 181.67 800.18 176.12 812.07 170.54 823.98 165.04 835.93 159.69 847.91 154.58 859.9 149.79 871.92 145.37 883.96 141.36 896 137.81 908.06 134.72 920.12 132.08 932.19 129.89 944.25 128.08 956.3 126.63 968.34 125.45 980.37 124.47 992.38 123.61 1004.36 122.79 1016.31 121.92 1028.24 120.91 1040.12 119.68 1051.96 118.17 1063.76 116.31 1075.51 114.06 1087.2 111.4 1098.84 108.3 1110.41 104.77 1121.93 100.83 1133.37 96.51 1144.75 91.87 1156.05 86.95 1167.27 81.83 1178.42 76.59 1189.49 71.31 1200.47 66.07 1211.38 60.94 1222.2 56.01 1232.93 51.34 1243.58 46.98 1254.14 42.99 1264.61 39.38 1275 36.17 1285.31 33.37 1295.53 30.96 1305.68 28.9 1315.74 27.16 1325.72 25.68 1335.63 24.39 1345.46 23.22 1355.23 22.11 1364.93 20.97 1374.57 19.72 1384.15 18.31 1393.68 16.66 1403.16 14.72 1412.6 12.45 1422 9.82 1412.56 -7.92 1404.07 -25.68 1397.38 -43.44 1393.16 -61.2 1391.84 -78.96 1393.54 -96.71 1398.1 -114.47 1405.06 -132.23 1392.93 -132.72 1380.8 -133.55 1368.67 -134.68 1356.54 -136.06 1344.4 -137.62 1332.27 -139.29 1320.14 -140.99 1308.01 -142.65 1295.88 -144.18 1283.75 -145.52 1271.62 -146.6 1259.49 -147.38 1247.36 -147.81 1235.23 -147.88 1223.09 -147.58 1210.96 -146.93 1198.83 -145.96 1186.7 -144.71 1174.57 -143.24 1162.44 -141.62 1150.31 -139.92 1138.18 -138.23 1126.05 -136.62 1113.91 -135.17 1101.78 -133.94 1089.65 -132.99 1077.52 -132.37 1065.39 -132.1 1053.26 -132.2 1041.13 -132.67 1029 -133.47 1016.87 -134.57 1004.74 -135.93 992.6 -137.48 980.47 -139.14 968.34 -140.84 956.21 -142.51 944.08 -144.05 931.95 -145.41 919.82 -146.52 907.69 -147.32 895.56 -147.79 883.42 -147.89 871.29 -147.62 859.16 -147 847.03 -146.05 834.9 -144.82 822.77 -143.37 810.64 -141.76 798.51 -140.07 786.38 -138.38 774.25 -136.76 762.11 -135.29 749.98 -134.04 737.85 -133.06 725.72 -132.41 713.59 -132.11 701.46 -132.18 689.33 -132.61 677.2 -133.38 665.07 -134.47 652.94 -135.8 640.8 -137.34 628.67 -138.99 616.54 -140.7 604.41 -142.37 592.28 -143.93 580.15 -145.3 568.02 -146.43 555.89 -147.27 543.76 -147.76 531.62 -147.89 519.49 -147.66 507.36 -147.07 495.23 -146.15 483.1 -144.94 470.97 -143.51 458.84 -141.91 446.71 -140.22 434.58 -138.52 422.45 -136.89 410.31 -135.41 398.18 -134.14 386.05 -133.14 373.92 -132.46 361.79 -132.13 349.66 -132.16 337.53 -132.56 325.4 -133.3 313.27 -134.36 301.14 -135.68 289 -137.2 276.87 -138.84 264.74 -140.55 252.61 -142.22 240.48 -143.8 228.35 -145.19 216.22 -146.35 204.09 -147.21 191.96 -147.73 179.82 -147.89 167.69 -147.69 155.56 -147.13 143.43 -146.24 131.3 -145.06 119.17 -143.64 107.04 -142.05 94.91 -140.37 82.78 -138.67 70.65 -137.03 58.51 -135.53 46.38 -134.24 34.25 -133.21 22.12 -132.5 9.99 -132.14 -2.13 -132.14 -14.26 -132.51 -26.39 -133.23 -38.52 -134.26 -50.65 -135.55 -62.79 -137.06 -74.92 -138.7 -87.05 -140.4 -99.18 -142.08 -111.31 -143.66 -123.44 -145.08 -139.06 -139.21 -138.05 -117.14 -134.31 -102.1 -131.37 -87.02" fill="url(#uuunion-grad2)" filter="url(#uuunion-blur)"></path><path d="M1408.47 334.54Q1417.25 334.79 1426.03 334.68 1434.82 334.21 1443.6 333.4 1452.38 332.26 1461.17 330.82 1469.95 329.12 1478.73 327.2 1487.51 325.11 1496.3 322.89 1505.08 320.6 1513.86 318.3 1522.65 316.04 1531.43 313.87 1540.21 311.85 1548.99 310.03 1559.24 327.35 1569.98 344.68 1580.13 362 1588.69 379.32 1594.79 396.65 1597.82 413.97 1597.47 431.29 1593.78 448.62 1587.12 465.94 1578.16 483.26 1567.8 500.59 1557.08 517.91 1547.07 535.23 1538.78 552.56 1533.04 569.88 1530.43 587.2 1531.2 604.53 1535.3 621.85 1542.29 639.17 1551.48 656.5 1561.95 673.82 1572.64 691.14 1582.49 708.47 1590.5 725.79 1595.87 743.11 1598.06 760.44 1596.85 777.76 1592.36 795.08 1585.04 812.41 1575.64 829.73 1565.08 847.05 1554.44 864.38 1542.3 868.39 1530.16 872.93 1518.03 877.79 1505.89 882.76 1493.76 887.6 1481.62 892.09 1469.49 896.03 1457.35 899.23 1445.21 901.55 1433.08 902.88 1420.94 903.17 1408.81 902.39 1396.67 900.58 1384.54 897.83 1372.4 894.26 1360.26 890.04 1348.13 885.36 1335.99 880.43 1323.86 875.48 1311.72 870.74 1299.59 866.42 1287.45 862.73 1275.31 859.82 1263.18 857.85 1251.04 856.88 1238.91 856.98 1226.77 858.13 1214.64 860.29 1202.5 863.35 1190.36 867.17 1178.23 871.58 1166.09 876.37 1153.96 881.33 1141.82 886.23 1129.69 890.85 1117.55 894.96 1105.41 898.39 1093.28 900.98 1081.14 902.61 1069.01 903.19 1056.87 902.72 1044.74 901.2 1032.6 898.71 1020.46 895.36 1008.33 891.31 996.19 886.74 984.06 881.86 971.92 876.89 959.79 872.07 947.65 867.61 935.51 863.72 923.38 860.57 911.24 858.32 899.11 857.05 886.97 856.84 874.84 857.7 862.7 859.57 850.56 862.38 838.43 866 826.29 870.26 814.16 874.96 802.02 879.9 789.89 884.84 777.75 889.56 765.61 893.84 753.48 897.48 741.34 900.33 729.21 902.24 717.07 903.13 704.94 902.96 692.8 901.74 680.66 899.52 668.53 896.41 656.39 892.54 644.26 888.1 632.12 883.29 619.99 878.32 607.85 873.43 595.71 868.85 583.58 864.77 571.44 861.39 559.31 858.87 547.17 857.31 535.04 856.8 522.9 857.34 510.76 858.93 498.63 861.48 486.49 864.88 474.36 868.97 462.22 873.57 450.09 878.46 437.95 883.43 425.81 888.23 413.68 892.66 401.54 896.51 389.41 899.6 377.27 901.79 365.14 902.98 353 903.12 340.86 902.2 328.73 900.26 316.59 897.39 304.46 893.72 292.32 889.43 280.19 884.7 268.05 879.76 255.91 874.82 243.78 870.13 231.64 865.88 219.51 862.29 207.37 859.5 195.24 857.66 183.1 856.84 170.96 857.08 158.83 858.37 146.69 860.65 134.56 863.82 122.42 867.73 110.29 872.21 98.15 877.04 86.02 882 73.88 886.88 61.74 891.44 49.61 895.47 37.47 898.8 25.34 901.26 6.49 897.89 -1.51 882.89 -2.8 872.74 -4.03 862.59 -5.16 852.44 -6.15 842.29 -7.03 827.07 -6.57 822 5.95 815.13 18.59 807.24 31.33 798.43 44.15 788.82 57.04 778.58 69.99 767.9 82.99 757.01 96.01 746.12 109.05 735.45 122.1 725.22 135.13 715.61 148.13 706.78 161.1 698.84 174.02 691.86 186.89 685.88 199.69 680.86 212.42 676.75 225.08 673.43 237.66 670.75 250.17 668.54 262.6 666.6 274.97 664.73 287.27 662.7 299.51 660.33 311.71 657.43 323.86 653.84 335.99 649.45 348.11 644.17 360.22 637.97 372.34 630.85 384.49 622.86 396.67 614.1 408.9 604.69 421.2 594.78 433.56 584.57 446.01 574.24 458.55 563.98 471.18 553.99 483.91 544.45 496.75 535.5 509.69 527.27 522.74 519.85 535.88 513.28 549.12 507.57 562.44 502.69 575.84 498.55 589.3 495.07 602.81 492.08 616.35 489.44 629.91 486.96 643.47 484.47 657.02 481.79 670.52 478.74 683.97 475.18 697.33 470.99 710.61 466.07 723.77 460.36 736.8 453.86 749.69 446.59 762.42 438.59 774.98 429.96 787.36 420.83 799.55 411.33 811.56 401.63 821.31 397.65 831.05 393.72 840.78 389.9 850.5 386.27 860.2 382.9 869.88 379.85 879.56 377.16 889.22 374.89 898.87 373.06 908.5 371.69 918.12 370.77 927.72 370.31 937.31 370.26 946.89 370.6 956.45 371.29 965.99 372.25 975.52 373.44 985.04 374.77 994.54 376.18 1004.03 377.58 1013.5 378.9 1022.95 380.07 1032.39 381.01 1041.82 381.66 1051.23 381.97 1060.63 381.89 1070.01 381.4 1079.38 380.46 1088.73 379.07 1098.07 377.24 1107.39 374.98 1116.7 372.33 1125.99 369.33 1135.27 366.02 1144.54 362.47 1153.8 358.74 1163.04 354.92 1172.26 351.06 1181.48 347.25 1190.68 343.57 1199.87 340.08 1209.04 336.84 1218.21 333.92 1227.36 331.36 1236.5 329.19 1245.63 327.45 1254.75 326.15 1263.86 325.29 1272.95 324.85 1282.04 324.81 1291.12 325.13 1300.19 325.78 1309.25 326.68 1318.3 327.79 1327.35 329.02 1336.39 330.31 1345.42 331.59 1354.44 332.78 1363.46 333.81 1372.47 334.62 1381.48 335.14 1390.48 335.32 1399.48 335.14 1408.47 334.54" fill="url(#uuunion-grad3)" filter="url(#uuunion-blur2)"></path></svg>