<svg xmlns="http://www.w3.org/2000/svg" version="1.1" xmlns:xlink="http://www.w3.org/1999/xlink" xmlns:svgjs="http://svgjs.dev/svgjs" viewBox="0 0 1422 800"><defs><filter id="uuunion-blur" x="-100%" y="-100%" width="400%" height="400%" color-interpolation-filters="sRGB">
        <feGaussianBlur in="SourceGraphic" stdDeviation="2 3.5" result="blur"></feGaussianBlur>
        <feDropShadow stdDeviation="12.307692307692308" in="blur" dx="10" dy="10" flood-color="hsl(265, 55%, 30%)" flood-opacity="0.25" x="0%" y="0%" width="100%" height="100%"></feDropShadow>
      </filter><filter id="uuunion-blur2" x="-100%" y="-100%" width="400%" height="400%" color-interpolation-filters="sRGB">
        <feGaussianBlur in="SourceGraphic" stdDeviation="2 3.5" result="blur"></feGaussianBlur>
        <feDropShadow stdDeviation="12.307692307692308" in="blur" dx="-10" dy="-10" flood-color="hsl(265, 55%, 30%)" flood-opacity="0.25" x="0%" y="0%" width="100%" height="100%"></feDropShadow>
      </filter><linearGradient gradientTransform="rotate(0, 0.5, 0.5)" x1="50%" y1="0%" x2="50%" y2="100%" id="uuunion-grad"><stop stop-color="hsl(265, 55%, 60%)" offset="10%"></stop><stop stop-color="hsl(265, 55%, 30%)" offset="90%"></stop></linearGradient><linearGradient gradientTransform="rotate(135, 0.5, 0.5)" x1="50%" y1="0%" x2="50%" y2="100%" id="uuunion-grad2"><stop stop-color="hsl(265, 55%, 60%)" offset="25%"></stop><stop stop-color="hsl(265, 55%, 30%)" offset="100%"></stop></linearGradient><linearGradient gradientTransform="rotate(333, 0.5, 0.5)" x1="50%" y1="0%" x2="50%" y2="100%" id="uuunion-grad3"><stop stop-color="hsl(265, 55%, 60%)" offset="0%"></stop><stop stop-color="hsl(265, 55%, 30%)" offset="75%"></stop></linearGradient></defs><path d="M-132.07 -83.45Q-119.06 -86.35 -106.06 -88.23 -93.05 -88.79 -80.04 -87.92 -67.04 -85.79 -54.03 -82.71 -41.02 -79.21 -28.02 -75.82 -15.01 -73.11 -2.01 -71.51 10.99 -71.27 24 -72.44 37 -74.83 50.01 -78.04 63.01 -81.57 76.02 -84.85 89.03 -87.34 102.03 -88.65 115.04 -88.57 128.05 -87.11 141.05 -84.5 154.06 -81.17 167.06 -77.65 180.07 -74.5 193.08 -72.24 206.08 -71.23 219.09 -71.63 232.1 -73.37 245.1 -76.19 258.11 -79.61 271.11 -83.1 284.12 -86.09 297.13 -88.09 310.13 -88.79 323.14 -88.08 336.15 -86.07 349.15 -83.07 362.16 -79.58 375.16 -76.16 388.17 -73.36 401.18 -71.62 414.18 -71.23 427.19 -72.25 440.19 -74.52 453.2 -77.67 466.21 -81.2 479.21 -84.53 492.22 -87.13 505.23 -88.58 518.23 -88.65 531.24 -87.33 544.24 -84.82 557.25 -81.54 570.26 -78.01 583.26 -74.8 596.27 -72.43 609.28 -71.27 622.28 -71.52 635.29 -73.13 648.29 -75.85 661.3 -79.23 674.31 -82.74 687.31 -85.81 700.32 -87.94 713.33 -88.79 726.33 -88.22 739.34 -86.34 752.34 -83.43 765.35 -79.96 778.36 -76.51 791.36 -73.61 804.37 -71.74 817.38 -71.21 830.38 -72.08 843.39 -74.23 856.39 -77.31 869.4 -80.82 882.41 -84.2 895.41 -86.9 908.42 -88.49 921.43 -88.71 934.43 -87.53 947.44 -85.14 960.44 -81.92 973.45 -78.39 986.46 -75.11 999.46 -72.63 1012.47 -71.33 1025.48 -71.42 1038.48 -72.9 1051.49 -75.52 1064.49 -78.86 1077.5 -82.38 1090.51 -85.52 1103.51 -87.76 1116.52 -88.76 1129.53 -88.35 1142.53 -86.59 1155.54 -83.77 1168.55 -80.34 1181.55 -76.86 1194.56 -73.88 1207.56 -71.88 1220.57 -71.2 1233.58 -71.92 1246.58 -73.95 1259.59 -76.95 1272.6 -80.44 1285.6 -83.86 1298.61 -86.66 1311.61 -88.38 1324.62 -88.75 1337.63 -87.72 1350.63 -85.44 1363.64 -82.28 1376.65 -78.76 1389.65 -75.43 1402.66 -72.84 1415.66 -71.4 1428.67 -71.35 1441.68 -72.68 1454.68 -75.19 1467.69 -78.48 1480.7 -82.01 1493.7 -85.21 1506.71 -87.58 1519.72 -88.72 1532.72 -88.46 1530.3 -73.68 1532.37 -58.89 1538.65 -44.11 1548.31 -29.33 1560.07 -14.54 1572.38 0.23 1583.61 15.01 1592.26 29.8 1597.2 44.58 1597.78 59.36 1593.9 74.15 1586.1 88.93 1575.39 103.71 1563.21 118.5 1551.15 133.28 1540.82 148.06 1533.59 162.85 1530.4 177.63 1531.69 192.42 1537.28 207.2 1546.44 221.98 1557.94 236.77 1570.27 251.55 1581.8 266.33 1591 281.12 1596.65 295.9 1598 310.68 1594.88 325.47 1587.7 340.25 1577.41 355.03 1565.37 369.82 1553.17 384.6 1542.43 399.38 1534.58 414.17 1530.64 428.95 1531.14 443.74 1536.03 458.52 1544.63 473.3 1555.83 488.09 1568.14 502.87 1579.92 517.65 1589.62 532.44 1595.96 547.22 1598.09 562 1595.74 576.79 1589.21 591.57 1579.37 606.35 1567.52 621.14 1555.23 635.92 1544.13 650.7 1535.68 665.49 1531.01 680.27 1530.73 695.05 1534.88 709.84 1542.91 724.62 1553.76 739.41 1565.99 754.19 1577.98 768.97 1588.14 783.76 1595.14 798.54 1598.04 813.32 1596.46 828.11 1590.61 842.89 1581.26 857.67 1567.76 856.98 1554.25 860 1540.74 866.23 1527.23 874.68 1513.73 883.99 1500.22 892.65 1486.71 899.27 1473.2 902.8 1459.7 902.65 1446.19 898.85 1432.68 892.02 1419.17 883.25 1405.67 873.96 1392.16 865.64 1378.65 859.63 1365.15 856.9 1351.64 857.89 1338.13 862.44 1324.62 869.81 1311.12 878.82 1297.61 888.02 1284.1 895.93 1270.59 901.28 1257.09 903.19 1243.58 901.38 1230.07 896.12 1216.56 888.26 1203.06 879.08 1189.55 870.04 1176.04 862.6 1162.53 857.97 1149.03 856.88 1135.52 859.51 1122.01 865.44 1108.5 873.72 1095 883 1081.49 891.8 1067.98 898.7 1054.47 902.59 1040.97 902.84 1027.46 899.41 1013.95 892.86 1000.44 884.24 986.94 874.93 973.43 866.44 959.92 860.13 946.41 857.02 932.91 857.61 919.4 861.8 905.89 868.92 892.38 877.83 878.88 887.08 865.37 895.19 851.86 900.86 838.36 903.17 824.85 901.75 811.34 896.82 797.83 889.19 784.33 880.08 770.82 870.95 757.31 863.28 743.8 858.3 730.3 856.82 716.79 859.06 703.28 864.68 689.77 872.76 676.27 882 662.76 890.93 649.25 898.09 635.74 902.34 622.24 902.99 608.73 899.94 595.22 893.68 581.71 885.22 568.21 875.91 554.7 867.26 541.19 860.66 527.69 857.18 514.18 857.36 500.67 861.19 487.16 868.05 473.66 876.83 460.15 886.12 446.64 894.42 433.13 900.4 419.63 903.1 406.12 902.07 392.61 897.49 379.1 890.1 365.6 881.08 352.09 871.88 338.58 863.99 325.07 858.68 311.57 856.8 298.06 858.65 284.55 863.94 271.05 871.81 257.54 881.01 244.03 890.03 230.52 897.45 217.02 902.05 203.51 903.1 190 900.44 176.49 894.48 162.99 886.19 149.48 876.9 135.97 868.11 122.46 861.24 108.96 857.38 95.45 857.17 81.94 860.63 68.44 867.2 54.93 875.84 41.42 885.15 27.91 893.62 14.41 899.91 0.9 902.98 -12.6 902.36 -26.11 898.14 -39.61 890.99 -53.12 882.08 -66.63 872.83 -80.14 864.73 -93.64 859.09 -107.15 856.82 -120.66 858.28 -134.16 863.23 -147.67 870.88 -150.68 855.97 -152.56 841.06 -153.07 826.15 -152.13 811.24 -149.88 796.33 -146.62 781.41 -142.76 766.5 -138.83 751.59 -135.34 736.68 -132.76 721.77 -131.43 706.86 -131.52 691.94 -133.02 677.03 -135.73 662.12 -139.3 647.21 -143.25 632.3 -147.06 617.39 -150.23 602.47 -152.32 587.56 -153.08 572.65 -152.4 557.74 -150.36 542.83 -147.24 527.92 -143.45 513 -139.5 498.09 -135.9 483.18 -133.13 468.27 -131.56 453.36 -131.4 438.45 -132.66 423.53 -135.19 408.62 -138.64 393.71 -142.56 378.8 -146.43 363.89 -149.74 348.98 -152.05 334.06 -153.05 319.15 -152.62 304.24 -150.8 289.33 -147.84 274.42 -144.14 259.51 -140.17 244.59 -136.48 229.68 -133.53 214.77 -131.74 199.86 -131.32 184.95 -132.35 170.04 -134.67 155.13 -137.99 140.21 -141.87 125.3 -145.78 110.39 -149.23 95.48 -151.73 80.57 -152.98 65.66 -152.8 50.74 -151.21 35.83 -148.42 20.92 -144.82 6.01 -140.86 -8.89 -137.08 -23.8 -133.97 -38.72 -131.95 -53.63 -131.29 -68.54 -132.07 -83.45" fill="url(#uuunion-grad)"></path><path d="M-132.08 -83.45Q-131.3 -68.54 -131.96 -53.63 -133.98 -38.71 -137.09 -23.8 -140.87 -8.89 -144.83 6.01 -148.44 20.92 -151.22 35.83 -152.81 50.75 -152.99 65.66 -151.75 80.57 -149.24 95.48 -145.8 110.39 -141.88 125.31 -138 140.22 -134.68 155.13 -132.36 170.04 -131.33 184.95 -131.75 199.86 -133.54 214.78 -136.49 229.69 -140.18 244.6 -144.15 259.51 -147.85 274.42 -150.81 289.33 -152.63 304.25 -153.06 319.16 -152.06 334.07 -149.75 348.98 -146.44 363.89 -136.21 384.42 -121.03 387.06 -112.22 385.02 -103.4 384.06 -94.59 384.25 -85.78 385.58 -76.97 387.94 -68.16 391.18 -59.35 395.05 -50.53 399.27 -41.72 403.55 -32.91 407.57 -24.1 411.05 -15.29 413.73 1.36 415.83 4.3 415.97 14.8 411.59 25.33 405.57 35.91 398.25 46.52 390.1 57.17 381.7 67.87 373.62 78.62 366.42 89.42 360.55 100.27 356.32 111.17 353.82 122.12 352.99 133.12 353.55 144.17 355.09 155.26 357.08 166.4 358.94 177.58 360.13 188.8 360.15 200.06 358.68 211.35 355.53 222.66 350.71 234 344.43 245.36 337.04 256.73 329.04 268.11 320.96 279.5 313.37 290.88 306.75 302.26 301.49 313.62 297.82 324.98 295.8 336.3 295.28 347.61 295.97 358.88 297.43 370.12 299.15 381.33 300.58 392.49 301.22 403.61 300.66 414.68 298.6 425.7 294.95 436.68 289.78 447.6 283.32 458.48 275.95 469.3 268.15 480.07 260.45 490.79 253.36 501.46 247.31 512.09 242.63 522.67 239.48 533.22 237.85 543.73 237.57 554.2 238.31 564.65 239.62 575.08 241.02 585.49 241.99 595.88 242.08 606.28 240.94 616.67 238.36 627.07 234.28 637.48 228.83 647.92 222.26 658.38 214.98 668.87 207.45 679.41 200.17 689.99 193.59 700.62 188.1 711.31 183.96 722.07 181.26 732.89 179.96 743.79 179.83 754.77 180.53 765.84 181.63 776.99 182.66 788.23 183.16 799.56 182.71 810.98 181.04 822.5 177.98 834.11 173.54 845.82 167.89 857.62 161.3 869.51 154.17 881.49 146.95 893.55 140.11 905.7 134.05 917.92 129.09 930.21 125.44 942.57 123.13 954.98 122.07 967.45 122.02 979.96 122.62 992.5 123.46 1005.06 124.09 1017.65 124.1 1030.24 123.13 1042.82 120.96 1055.4 117.49 1067.95 112.77 1080.46 106.99 1092.93 100.44 1105.35 93.53 1117.7 86.67 1129.97 80.28 1142.17 74.73 1154.27 70.27 1166.26 67.04 1178.15 65.05 1189.91 64.16 1201.55 64.11 1213.06 64.55 1224.43 65.08 1235.66 65.29 1246.74 64.82 1257.66 63.36 1268.44 60.74 1279.06 56.93 1289.53 52 1299.84 46.16 1310 39.73 1320.01 33.08 1329.87 26.6 1339.6 20.68 1349.18 15.6 1358.64 11.6 1367.98 8.74 1377.2 7 1386.32 6.21 1395.35 6.09 1404.3 6.32 1413.18 6.5 1422 6.28 1409.51 -11.38 1399.26 -29.04 1393.09 -46.71 1392.11 -64.37 1396.49 -82.04 1405.45 -99.7 1417.37 -117.37 1430.13 -135.03 1417.73 -137.61 1405.33 -140.52 1392.93 -143.36 1380.53 -145.73 1368.13 -147.32 1355.73 -147.89 1343.33 -147.38 1330.93 -145.86 1318.53 -143.52 1306.13 -140.7 1293.73 -137.79 1281.33 -135.17 1268.93 -133.22 1256.53 -132.21 1244.13 -132.26 1231.73 -133.38 1219.33 -135.41 1206.94 -138.07 1194.54 -140.99 1182.14 -143.78 1169.74 -146.05 1157.34 -147.48 1144.94 -147.89 1132.54 -147.2 1120.14 -145.53 1107.74 -143.1 1095.34 -140.23 1082.94 -137.34 1070.54 -134.81 1058.14 -132.99 1045.74 -132.14 1033.34 -132.37 1020.94 -133.65 1008.54 -135.8 996.14 -138.53 983.74 -141.46 971.34 -144.19 958.94 -146.34 946.54 -147.62 934.14 -147.85 921.74 -147 909.34 -145.19 896.94 -142.66 884.54 -139.76 872.14 -136.9 859.74 -134.46 847.35 -132.79 834.95 -132.1 822.55 -132.51 810.15 -133.94 797.75 -136.2 785.35 -138.99 772.95 -141.92 760.55 -144.58 748.15 -146.61 735.75 -147.73 723.35 -147.78 710.95 -146.77 698.55 -144.82 686.15 -142.21 673.75 -139.29 661.35 -136.47 648.95 -134.14 636.55 -132.61 624.15 -132.1 611.75 -132.67 599.35 -134.25 586.95 -136.62 574.55 -139.46 562.15 -142.37 549.75 -144.95 537.35 -146.85 524.95 -147.81 512.55 -147.69 500.15 -146.52 487.76 -144.44 475.36 -141.75 462.96 -138.83 450.56 -136.06 438.16 -133.83 425.76 -132.45 413.36 -132.11 400.96 -132.86 388.56 -134.58 376.16 -137.06 363.76 -139.93 351.36 -142.81 338.96 -145.31 326.56 -147.07 314.16 -147.87 301.76 -147.57 289.36 -146.24 276.96 -144.04 264.56 -141.29 252.16 -138.36 239.76 -135.66 227.36 -133.55 214.96 -132.33 202.56 -132.16 190.16 -133.07 177.76 -134.94 165.36 -137.5 152.96 -140.4 140.56 -143.25 128.17 -145.65 115.77 -147.27 103.37 -147.89 90.97 -147.43 78.57 -145.94 66.17 -143.63 53.77 -140.83 41.37 -137.9 28.97 -135.27 16.57 -133.29 4.17 -132.23 -8.22 -132.24 -20.62 -133.31 -33.02 -135.31 -45.42 -137.95 -57.82 -140.87 -70.22 -143.67 -82.62 -145.97 -95.02 -147.44 -107.42 -147.89 -119.82 -147.25 -132.22 -145.62 -144.62 -143.21 -157.02 -140.36 -150.01 -126.09 -143.2 -111.85 -137.09 -97.64 -132.08 -83.45" fill="url(#uuunion-grad2)" filter="url(#uuunion-blur)"></path><path d="M1452.12 329.29Q1461.24 332.02 1470.36 333.88 1479.48 334.74 1488.6 334.54 1497.72 333.29 1506.85 331.08 1515.97 328.07 1525.09 324.48 1534.21 320.56 1543.33 316.61 1552.45 312.9 1561.57 309.7 1570.69 307.24 1579.81 305.7 1588.93 305.2 1598.05 305.76 1595.7 323 1587.7 340.25 1575.48 357.5 1561.24 374.75 1547.52 391.99 1536.8 409.24 1530.99 426.49 1531.14 443.74 1537.23 460.98 1548.15 478.23 1561.95 495.48 1576.15 512.72 1588.21 529.97 1595.96 547.22 1598.01 564.47 1593.99 581.71 1584.63 598.96 1571.6 616.21 1557.24 633.46 1544.13 650.7 1534.62 667.95 1530.42 685.2 1532.28 702.45 1539.86 719.69 1551.81 736.94 1565.99 754.19 1579.84 771.44 1590.88 788.68 1597.14 805.93 1597.49 823.18 1591.86 840.43 1581.26 857.67 1568.87 856.9 1556.48 859.26 1544.1 864.43 1531.71 871.72 1519.32 880.13 1506.93 888.52 1494.54 895.76 1482.15 900.85 1469.76 903.12 1457.37 902.24 1444.98 898.35 1432.59 891.96 1420.2 883.95 1407.81 875.4 1395.42 867.48 1383.03 861.26 1370.64 857.57 1358.25 856.94 1345.86 859.43 1333.47 864.71 1321.08 872.07 1308.69 880.51 1296.3 888.87 1283.91 896.03 1271.52 901.01 1259.13 903.14 1246.74 902.13 1234.35 898.11 1221.96 891.64 1209.57 883.58 1197.18 875.04 1184.79 867.17 1172.4 861.04 1160.01 857.48 1147.62 856.98 1135.23 859.61 1122.84 865 1110.45 872.42 1098.06 880.88 1085.67 889.21 1073.28 896.3 1060.89 901.17 1048.5 903.17 1036.11 902.02 1023.72 897.88 1011.34 891.31 998.95 883.21 986.56 874.67 974.17 866.86 961.78 860.82 949.39 857.39 937 857.03 924.61 859.79 912.22 865.28 899.83 872.78 887.44 881.25 875.05 889.56 862.66 896.56 850.27 901.32 837.88 903.18 825.49 901.9 813.1 897.64 800.71 890.98 788.32 882.84 775.93 874.31 763.54 866.55 751.15 860.62 738.76 857.31 726.37 857.09 713.98 859.97 701.59 865.58 689.2 873.14 676.81 881.63 664.42 889.9 652.03 896.82 639.64 901.46 627.25 903.19 614.86 901.77 602.47 897.39 590.08 890.65 577.69 882.47 565.3 873.95 552.91 866.25 540.52 860.41 528.13 857.24 515.74 857.15 503.35 860.17 490.96 865.87 478.58 873.5 466.19 882 453.8 890.24 441.41 897.08 429.02 901.6 416.63 903.19 404.24 901.64 391.85 897.14 379.46 890.32 367.07 882.09 354.68 873.58 342.29 865.95 329.9 860.21 317.51 857.17 305.12 857.22 292.73 860.36 280.34 866.17 267.95 873.86 255.56 882.37 243.17 890.57 230.78 897.33 218.39 901.74 206 903.19 193.61 901.5 181.22 896.89 168.83 889.98 156.44 881.72 144.05 873.23 131.66 865.65 119.27 860.02 106.88 857.1 94.49 857.29 82.1 860.56 69.71 866.47 57.32 874.22 44.93 882.75 32.54 890.9 20.15 897.58 0.87 897.45 -7.1 882.88 -7.84 872.73 -8.17 862.58 -8.07 852.43 -7.56 842.28 -5.78 827.06 -4.4 822 9.16 814.1 22.72 803.34 36.24 790.39 49.69 776.2 63.04 761.91 76.29 748.65 89.41 737.41 102.39 728.88 115.24 723.34 127.94 720.68 140.51 720.36 152.96 721.53 165.3 723.11 177.55 724.02 189.73 723.23 201.87 719.99 213.98 713.9 226.09 704.97 238.23 693.59 250.41 680.52 262.65 666.73 274.97 653.3 287.38 641.23 299.89 631.34 312.5 624.11 325.21 619.66 338.01 617.72 350.9 617.64 363.85 618.54 376.86 619.4 389.89 619.22 402.93 617.14 415.94 612.61 428.91 605.4 441.81 595.67 454.61 583.94 467.3 571 479.84 557.81 492.24 545.36 504.47 534.5 516.53 525.87 528.42 519.8 540.14 516.21 551.71 514.72 563.15 514.63 574.47 515.06 585.7 515.05 596.88 513.74 608.04 510.43 619.21 504.74 630.44 496.61 641.77 486.33 653.23 474.5 664.87 461.92 676.71 449.48 688.79 438.08 701.13 428.41 713.75 420.94 726.66 415.82 739.87 412.86 753.38 411.58 767.16 411.25 781.21 411.03 795.49 410.06 805.54 411.97 815.6 412.74 825.68 412.19 835.78 410.27 845.9 407.03 856.04 402.66 866.19 397.42 876.36 391.66 886.55 385.76 896.75 380.14 906.97 375.15 917.2 371.13 927.45 368.31 937.72 366.82 948 366.68 958.29 367.79 968.59 369.94 978.91 372.84 989.24 376.13 999.58 379.42 1009.92 382.32 1020.28 384.47 1030.65 385.59 1041.02 385.46 1051.41 384 1061.79 381.23 1072.19 377.28 1082.59 372.39 1092.99 366.87 1103.39 361.09 1113.8 355.45 1124.21 350.31 1134.62 346.02 1145.02 342.83 1155.43 340.9 1165.83 340.3 1176.23 340.96 1186.63 342.71 1197.02 345.3 1207.4 348.39 1217.77 351.61 1228.14 354.57 1238.5 356.91 1248.84 358.32 1259.18 358.59 1269.5 357.57 1279.81 355.26 1290.11 351.74 1300.39 347.22 1310.65 341.98 1320.9 336.36 1331.12 330.74 1341.33 325.5 1351.52 320.98 1361.69 317.46 1371.84 315.13 1381.96 314.08 1392.06 314.29 1402.14 315.63 1412.19 317.88 1422.21 320.73 1432.21 323.83 1442.18 326.81 1452.12 329.29" fill="url(#uuunion-grad3)" filter="url(#uuunion-blur2)"></path></svg>